<svg width="17" height="17" viewBox="0 0 17 17" fill="none" xmlns="http://www.w3.org/2000/svg">
<path d="M0.345371 16.6551C0.235885 16.5458 0.149027 16.4159 0.0897652 16.273C0.0305033 16.13 0 15.9768 0 15.8221C0 15.6674 0.0305033 15.5141 0.0897652 15.3712C0.149027 15.2283 0.235885 15.0984 0.345371 14.9891L2.84355 12.4917L1.17753 10.8257C0.956603 10.6048 0.832487 10.3052 0.832487 9.99272C0.832487 9.68028 0.956603 9.38063 1.17753 9.15971C1.39846 8.93878 1.6981 8.81466 2.01054 8.81466C2.32298 8.81466 2.62262 8.93878 2.84355 9.15971L7.83991 14.1569C8.06084 14.3778 8.18495 14.6775 8.18495 14.9899C8.18495 15.3024 8.06084 15.602 7.83991 15.8229C7.61898 16.0439 7.31934 16.168 7.0069 16.168C6.69446 16.168 6.39482 16.0439 6.17389 15.8229L4.50872 14.1569L2.01054 16.6559C1.9012 16.7654 1.77135 16.8523 1.62842 16.9116C1.48548 16.9708 1.33226 17.0013 1.17753 17.0013C1.0228 17.0013 0.869582 16.9708 0.726647 16.9116C0.583712 16.8523 0.453861 16.7654 0.344521 16.6559L0.345371 16.6551ZM16.1505 0H14.0212C13.7958 4.81424e-05 13.5796 0.0896341 13.4202 0.249053L4.87762 8.79165L8.20966 12.122L16.7523 3.57939C16.9112 3.42009 17.0004 3.20429 17.0005 2.97928V0.85001C17.0005 0.624573 16.9109 0.40837 16.7515 0.248962C16.5921 0.0895543 16.3759 0 16.1505 0ZM14.1572 12.4917L15.8232 10.8257C16.0441 10.6048 16.1682 10.3052 16.1682 9.99272C16.1682 9.68028 16.0441 9.38063 15.8232 9.15971C15.6023 8.93878 15.3026 8.81466 14.9902 8.81466C14.6778 8.81466 14.3781 8.93878 14.1572 9.15971L9.16082 14.1569C9.05143 14.2663 8.96466 14.3962 8.90545 14.5391C8.84625 14.682 8.81578 14.8352 8.81578 14.9899C8.81578 15.1446 8.84625 15.2978 8.90545 15.4407C8.96466 15.5837 9.05143 15.7135 9.16082 15.8229C9.27022 15.9323 9.40008 16.0191 9.54301 16.0783C9.68594 16.1375 9.83913 16.168 9.99383 16.168C10.1485 16.168 10.3017 16.1375 10.4447 16.0783C10.5876 16.0191 10.7175 15.9323 10.8268 15.8229L12.492 14.1569L14.9902 16.6559C15.2111 16.8769 15.5108 17.001 15.8232 17.001C16.1356 17.001 16.4353 16.8769 16.6562 16.6559C16.8771 16.435 17.0013 16.1354 17.0013 15.8229C17.0013 15.5105 16.8771 15.2109 16.6562 14.9899L14.1572 12.4917ZM2.97955 0H0.850277C0.624841 0 0.408637 0.0895543 0.24923 0.248962C0.0898218 0.40837 0.000267509 0.624573 0.000267509 0.85001V2.97928C0.000315651 3.2047 0.0899016 3.42087 0.24932 3.58024L3.96811 7.29818L7.29845 3.967L3.58051 0.249053C3.42114 0.0896341 3.20497 4.81424e-05 2.97955 0Z" fill="#7F8D9F"/>
</svg>
