<svg width="17" height="18" viewBox="0 0 17 18" fill="none" xmlns="http://www.w3.org/2000/svg">
<path d="M0.344395 17.1551C0.234908 17.0458 0.148051 16.9159 0.0887886 16.773C0.0295267 16.63 -0.000976562 16.4768 -0.000976562 16.3221C-0.000976562 16.1674 0.0295267 16.0141 0.0887886 15.8712C0.148051 15.7283 0.234908 15.5984 0.344395 15.4891L2.84257 12.9917L1.17655 11.3257C0.955627 11.1048 0.831511 10.8052 0.831511 10.4927C0.831511 10.1803 0.955627 9.88063 1.17655 9.65971C1.39748 9.43878 1.69712 9.31466 2.00956 9.31466C2.322 9.31466 2.62165 9.43878 2.84257 9.65971L7.83893 14.6569C8.05986 14.8778 8.18398 15.1775 8.18398 15.4899C8.18398 15.8024 8.05986 16.102 7.83893 16.3229C7.618 16.5439 7.31836 16.668 7.00592 16.668C6.69348 16.668 6.39384 16.5439 6.17291 16.3229L4.50774 14.6569L2.00956 17.1559C1.90022 17.2654 1.77037 17.3523 1.62744 17.4116C1.4845 17.4708 1.33129 17.5013 1.17655 17.5013C1.02182 17.5013 0.868605 17.4708 0.72567 17.4116C0.582735 17.3523 0.452885 17.2654 0.343545 17.1559L0.344395 17.1551ZM16.1495 0.5H14.0202C13.7948 0.500048 13.5786 0.589634 13.4192 0.749053L4.87665 9.29165L8.20869 12.622L16.7513 4.07939C16.9102 3.92009 16.9994 3.70429 16.9995 3.47928V1.35001C16.9995 1.12457 16.9099 0.90837 16.7505 0.748962C16.5911 0.589554 16.3749 0.5 16.1495 0.5ZM14.1562 12.9917L15.8222 11.3257C16.0432 11.1048 16.1673 10.8052 16.1673 10.4927C16.1673 10.1803 16.0432 9.88063 15.8222 9.65971C15.6013 9.43878 15.3017 9.31466 14.9892 9.31466C14.6768 9.31466 14.3771 9.43878 14.1562 9.65971L9.15985 14.6569C9.05046 14.7663 8.96368 14.8962 8.90448 15.0391C8.84527 15.182 8.8148 15.3352 8.8148 15.4899C8.8148 15.6446 8.84527 15.7978 8.90448 15.9407C8.96368 16.0837 9.05046 16.2135 9.15985 16.3229C9.26924 16.4323 9.39911 16.5191 9.54204 16.5783C9.68496 16.6375 9.83815 16.668 9.99286 16.668C10.1476 16.668 10.3008 16.6375 10.4437 16.5783C10.5866 16.5191 10.7165 16.4323 10.8259 16.3229L12.491 14.6569L14.9892 17.1559C15.2101 17.3769 15.5098 17.501 15.8222 17.501C16.1347 17.501 16.4343 17.3769 16.6552 17.1559C16.8762 16.935 17.0003 16.6354 17.0003 16.3229C17.0003 16.0105 16.8762 15.7109 16.6552 15.4899L14.1562 12.9917ZM2.97858 0.5H0.849301C0.623864 0.5 0.407661 0.589554 0.248253 0.748962C0.0888453 0.90837 -0.000709054 1.12457 -0.000709054 1.35001V3.47928C-0.000660911 3.7047 0.088925 3.92087 0.248344 4.08024L3.96714 7.79818L7.29748 4.467L3.57953 0.749053C3.42016 0.589634 3.20399 0.500048 2.97858 0.5Z" fill="#F1F5F9"/>
</svg>
