<svg width="20" height="20" viewBox="0 0 20 20" fill="none" xmlns="http://www.w3.org/2000/svg">
<path fill-rule="evenodd" clip-rule="evenodd" d="M10.0978 2.31688C10.0366 2.28239 9.96337 2.28239 9.90219 2.31688L7.52593 3.65631L13.6927 7.19682L16.222 5.76889L10.0978 2.31688ZM16.875 6.83567L14.3151 8.28089V11.2493C14.3151 11.5945 14.0353 11.8743 13.6901 11.8743C13.345 11.8743 13.0651 11.5945 13.0651 11.2493V8.9866L10.625 10.3642V17.3847L16.7645 13.924C16.8298 13.8872 16.875 13.814 16.875 13.7294V6.83567ZM9.375 17.3847V10.3642L3.125 6.83567V13.7294C3.125 13.814 3.17021 13.8872 3.23553 13.924L9.375 17.3847ZM3.77802 5.76889L10 9.28162L12.4269 7.91146L6.25912 4.37037L3.77802 5.76889ZM9.2884 1.22795C9.73059 0.978703 10.2694 0.978703 10.7116 1.22795L17.3783 4.98575C17.6054 5.11377 17.7893 5.29756 17.9175 5.51335C18.0512 5.73815 18.125 5.99866 18.125 6.26932V13.7294C18.125 14.2589 17.842 14.7515 17.3783 15.0129L10.7116 18.7707C10.4909 18.8951 10.2456 18.9577 10 18.9577C9.75442 18.9577 9.5091 18.8951 9.2884 18.7707L2.62173 15.0129C2.15795 14.7515 1.875 14.2589 1.875 13.7294V6.26932C1.875 5.99866 1.94885 5.73815 2.08246 5.51335C2.21072 5.29756 2.39462 5.11377 2.62173 4.98575L9.2884 1.22795Z" fill="#7F8D9F"/>
</svg>
