<svg width="20" height="20" viewBox="0 0 20 20" fill="none" xmlns="http://www.w3.org/2000/svg">
<path fill-rule="evenodd" clip-rule="evenodd" d="M10.0003 2.29102C5.74313 2.29102 2.29199 5.74215 2.29199 9.99935C2.29199 14.2565 5.74313 17.7077 10.0003 17.7077C14.2575 17.7077 17.7087 14.2565 17.7087 9.99935C17.7087 5.74215 14.2575 2.29102 10.0003 2.29102ZM1.04199 9.99935C1.04199 5.0518 5.05277 1.04102 10.0003 1.04102C14.9479 1.04102 18.9587 5.0518 18.9587 9.99935C18.9587 14.9469 14.9479 18.9577 10.0003 18.9577C5.05277 18.9577 1.04199 14.9469 1.04199 9.99935ZM9.56051 6.19165C9.70204 6.08079 9.86344 6.04102 10.0003 6.04102C10.1372 6.04102 10.2986 6.08079 10.4401 6.19165L10.4671 6.21274L12.9371 8.62641C13.184 8.86765 13.1886 9.26335 12.9473 9.51023C12.7061 9.75711 12.3104 9.76168 12.0635 9.52044L10.6253 8.11509V13.3327C10.6253 13.6779 10.3455 13.9577 10.0003 13.9577C9.65515 13.9577 9.37533 13.6779 9.37533 13.3327V8.11509L7.93713 9.52044C7.69025 9.76168 7.29455 9.75711 7.05331 9.51023C6.81207 9.26335 6.81664 8.86765 7.06352 8.62641L9.53359 6.21274L9.56051 6.19165Z" fill="#7F8D9F"/>
</svg>
