<svg width="20" height="20" viewBox="0 0 20 20" fill="none" xmlns="http://www.w3.org/2000/svg">
<path d="M8.6383 7.46815C8.7385 7.7278 8.60472 8.01614 8.3625 8.15321C7.38583 8.70591 6.72656 9.75413 6.72656 10.9564C6.72664 12.7341 8.1677 14.1751 9.94531 14.1752C11.723 14.1752 13.164 12.7341 13.1641 10.9564C13.1641 9.7739 12.5264 8.74101 11.5762 8.18162C11.3399 8.0425 11.2113 7.75814 11.3099 7.50227L11.3188 7.47922C11.4187 7.22019 11.7123 7.08961 11.9566 7.2214C13.2849 7.93788 14.1875 9.34129 14.1875 10.9564C14.1874 13.2994 12.2883 15.1986 9.94531 15.1986C7.60244 15.1985 5.7032 13.2993 5.70312 10.9564C5.70312 9.31513 6.63559 7.89252 7.99935 7.1872C8.24318 7.06109 8.53183 7.19221 8.63065 7.44832L8.6383 7.46815Z" fill="#7F8D9F"/>
<path d="M10.2431 8.5918C10.1385 8.86365 9.75386 8.86364 9.64923 8.59179L8.27561 5.02303C8.19539 4.81461 8.34923 4.59055 8.57255 4.59055H11.3198C11.5431 4.59055 11.697 4.81461 11.6167 5.02303L10.2431 8.5918Z" fill="#7F8D9F"/>
<path d="M8.12781 13.7693C7.78886 14.5731 7.20239 15.2478 6.45366 15.6954C5.70493 16.1429 4.83296 16.34 3.96453 16.258C3.09609 16.176 2.27644 15.8191 1.62473 15.2393C0.973023 14.6595 0.523228 13.8869 0.340732 13.0339C0.158235 12.1809 0.25255 11.292 0.609965 10.4963C0.96738 9.70053 1.56926 9.03955 2.32812 8.60938C3.08699 8.17921 3.96326 8.00228 4.82958 8.10432C5.6959 8.20635 6.50709 8.58203 7.14524 9.17673L6.47089 9.90035C5.98669 9.44911 5.3712 9.16407 4.71388 9.08665C4.05656 9.00923 3.39169 9.14347 2.8159 9.46986C2.24012 9.79625 1.78343 10.2978 1.51225 10.9015C1.24106 11.5053 1.1695 12.1798 1.30797 12.827C1.44643 13.4742 1.78772 14.0604 2.2822 14.5003C2.77668 14.9403 3.39859 15.211 4.05752 15.2733C4.71645 15.3355 5.37805 15.1859 5.94615 14.8464C6.51425 14.5068 6.95923 13.9948 7.21642 13.385L8.12781 13.7693Z" fill="#7F8D9F"/>
<path d="M13.2851 8.75723C13.9612 8.30943 14.7548 8.07216 15.5657 8.07542C16.3766 8.07869 17.1683 8.32233 17.8408 8.77556C18.5132 9.22878 19.0361 9.87122 19.3434 10.6216C19.6507 11.3721 19.7286 12.1968 19.5672 12.9914C19.4058 13.7861 19.0124 14.5151 18.4367 15.0862C17.861 15.6573 17.1289 16.0448 16.3329 16.1998C15.537 16.3548 14.7129 16.2703 13.965 15.957C13.2171 15.6436 12.5789 15.1155 12.1311 14.4395L12.9557 13.8933C13.2955 14.4062 13.7797 14.8069 14.3472 15.0447C14.9147 15.2824 15.5399 15.3465 16.1438 15.2289C16.7478 15.1113 17.3033 14.8173 17.7401 14.3839C18.1769 13.9506 18.4754 13.3975 18.5979 12.7946C18.7203 12.1916 18.6612 11.5659 18.4281 10.9965C18.1949 10.4271 17.7981 9.93965 17.2879 9.59577C16.7777 9.25188 16.177 9.06701 15.5617 9.06454C14.9465 9.06206 14.3443 9.24209 13.8313 9.58186L13.2851 8.75723Z" fill="#7F8D9F"/>
</svg>
