<svg width="131" height="51" viewBox="0 0 131 51" fill="none" xmlns="http://www.w3.org/2000/svg">
<path d="M41.6551 17.6099C41.4256 17.7505 35.9631 20.7168 35.9631 27.2937C36.2205 34.7943 42.8566 37.4247 42.9704 37.4247C42.8566 37.5653 41.9685 41.008 39.338 44.6168C37.2504 47.7255 34.9332 50.8597 31.4146 50.8597C28.0677 50.8597 26.8662 48.7879 23.0044 48.7879C18.8571 48.7879 17.6836 50.8597 14.5083 50.8597C10.9897 50.8597 8.50093 47.5576 6.29948 44.4781C3.43946 40.4476 1.00854 34.1226 0.922721 28.0494C0.864887 24.8313 1.49547 21.6678 3.09618 18.9808C5.35547 15.2296 9.38897 12.6832 13.7937 12.5992C17.1687 12.4879 20.1723 14.8664 22.232 14.8664C24.2058 14.8664 27.8961 12.5992 32.0713 12.5992C33.8736 12.601 38.6794 13.1322 41.6551 17.6099ZM21.9466 11.9567C21.3458 9.01776 23.0044 6.07885 24.5491 4.20416C26.523 1.937 29.6404 0.398186 32.3288 0.398186C32.5004 3.33709 31.4128 6.21941 29.4688 8.31863C27.7244 10.5858 24.7208 12.2925 21.9466 11.9567Z" fill="#F1F5F9"/>
<path d="M60.0238 20.3H61.7838L65.8318 31.5H63.9438L62.9838 28.844H58.8078L57.8478 31.5H55.9598L60.0238 20.3ZM62.5518 27.292L60.9038 22.556H60.8718L59.2558 27.292H62.5518ZM67.0273 23.532H68.7073V24.78L69.9713 23.532H73.0273L74.6273 25.132V29.9L73.0273 31.5H69.9553L68.8353 30.556V34.892H67.0273V23.532ZM72.1793 29.948L72.8193 29.324V25.708L72.1793 25.084H70.2593L68.8353 26.508V28.732L70.1793 29.948H72.1793ZM76.5429 23.532H78.2229V24.78L79.4869 23.532H82.5429L84.1429 25.132V29.9L82.5429 31.5H79.4709L78.3509 30.556V34.892H76.5429V23.532ZM81.6949 29.948L82.3349 29.324V25.708L81.6949 25.084H79.7749L78.3509 26.508V28.732L79.6949 29.948H81.6949ZM86.1386 20.076H87.9466V31.5H86.1386V20.076ZM89.9454 29.916V25.132L91.5294 23.532H95.8654L97.4814 25.132V28.108H91.7534V29.388L92.3614 29.996H95.0974L95.6734 29.404V28.924H97.4654V29.948L95.9134 31.5H91.5134L89.9454 29.916ZM95.6734 26.78V25.676L95.0494 25.036H92.3774L91.7534 25.676V26.78H95.6734ZM103.527 23.532H105.207V24.78L106.471 23.532H109.527L111.127 25.132V29.9L109.527 31.5H106.455L105.335 30.556V34.892H103.527V23.532ZM108.679 29.948L109.319 29.324V25.708L108.679 25.084H106.759L105.335 26.508V28.732L106.679 29.948H108.679ZM112.803 30.076V28.188L114.227 26.78H118.339V25.596L117.747 25.004H115.235L114.643 25.596V26.108H112.867V25.18L114.499 23.532H118.483L120.115 25.18V31.5H118.467V30.268L117.187 31.5H114.227L112.803 30.076ZM117.011 30.076L118.339 28.796V28.124H115.091L114.579 28.62V29.596L115.059 30.076H117.011ZM129.401 23.532V33.388L127.753 35.02H123.689L122.281 33.628V32.572H124.089V33.1L124.473 33.5H126.969L127.593 32.86V30.14L126.249 31.5H123.673L122.041 29.852V23.532H123.849V29.324L124.473 29.948H125.929L127.593 28.22V23.532H129.401Z" fill="white"/>
</svg>
