<svg width="138" height="40" viewBox="0 0 138 40" fill="none" xmlns="http://www.w3.org/2000/svg">
<path d="M37.2633 20.3916C37.2633 19.3027 37.1726 18.2139 36.9912 17.1472H21.5949V23.3026H30.4154C30.0526 25.2803 28.8735 27.058 27.1503 28.1691V32.169H32.4108C35.4946 29.3913 37.2633 25.2803 37.2633 20.3916Z" fill="#4285F4"/>
<path d="M21.5955 36.0356C25.9944 36.0356 29.7131 34.6134 32.4114 32.169L27.1508 28.1691C25.6769 29.1469 23.7949 29.7024 21.5955 29.7024C17.3326 29.7024 13.7273 26.8803 12.4348 23.1026H7.01547V27.2358C9.78181 32.6357 15.4279 36.0356 21.5955 36.0356Z" fill="#34A853"/>
<path d="M12.4353 23.1026C11.7549 21.1249 11.7549 18.9694 12.4353 16.9694V12.8585H7.01511C4.67922 17.3694 4.67922 22.7026 7.01511 27.2136L12.4353 23.1026Z" fill="#FBBC04"/>
<path d="M21.5955 10.3696C23.931 10.3252 26.1758 11.1918 27.8537 12.7695L32.5248 8.19189C29.5544 5.48086 25.6543 3.99202 21.5955 4.03646C15.4279 4.03646 9.78181 7.45858 7.01547 12.8584L12.4348 16.9916C13.7273 13.1917 17.3326 10.3696 21.5955 10.3696Z" fill="#EA4335"/>
<path d="M53.3604 23.692V16.108L55.1684 14.3H60.5124L62.2884 16.076V17.548H60.4324V16.732L59.5844 15.9H56.1284L55.2164 16.796V23.004L56.1284 23.9H59.5844L60.4804 23.02V20.988H58.0324V19.388H62.2884V23.692L60.4804 25.5H55.1684L53.3604 23.692ZM63.9679 23.9V19.132L65.5519 17.532H69.9679L71.5679 19.132V23.9L69.9679 25.5H65.5519L63.9679 23.9ZM69.1199 23.98L69.7599 23.34V19.692L69.1199 19.052H66.4159L65.7759 19.692V23.34L66.4159 23.98H69.1199ZM73.3273 23.9V19.132L74.9113 17.532H79.3273L80.9273 19.132V23.9L79.3273 25.5H74.9113L73.3273 23.9ZM78.4793 23.98L79.1193 23.34V19.692L78.4793 19.052H75.7753L75.1353 19.692V23.34L75.7753 23.98H78.4793ZM90.2866 17.532V27.388L88.6386 29.02H84.4306L83.0386 27.628V26.572H84.8306V27.1L85.2306 27.5H87.8546L88.4786 26.86V24.364L87.2466 25.5H84.2706L82.6866 23.9V19.132L84.2706 17.532H87.3746L88.5906 18.716V17.532H90.2866ZM88.4786 20.284L87.1986 19.084H85.1666L84.4946 19.756V23.276L85.1666 23.948H87.0546L88.4786 22.556V20.284ZM92.4423 14.076H94.2503V25.5H92.4423V14.076ZM96.2491 23.916V19.132L97.8331 17.532H102.169L103.785 19.132V22.108H98.0571V23.388L98.6651 23.996H101.401L101.977 23.404V22.924H103.769V23.948L102.217 25.5H97.8171L96.2491 23.916ZM101.977 20.78V19.676L101.353 19.036H98.6811L98.0571 19.676V20.78H101.977ZM109.831 17.532H111.511V18.78L112.775 17.532H115.831L117.431 19.132V23.9L115.831 25.5H112.759L111.639 24.556V28.892H109.831V17.532ZM114.983 23.948L115.623 23.324V19.708L114.983 19.084H113.063L111.639 20.508V22.732L112.983 23.948H114.983ZM119.107 24.076V22.188L120.531 20.78H124.643V19.596L124.051 19.004H121.539L120.947 19.596V20.108H119.171V19.18L120.803 17.532H124.787L126.419 19.18V25.5H124.771V24.268L123.491 25.5H120.531L119.107 24.076ZM123.315 24.076L124.643 22.796V22.124H121.395L120.883 22.62V23.596L121.363 24.076H123.315ZM135.705 17.532V27.388L134.057 29.02H129.993L128.585 27.628V26.572H130.393V27.1L130.777 27.5H133.273L133.897 26.86V24.14L132.553 25.5H129.977L128.345 23.852V17.532H130.153V23.324L130.777 23.948H132.233L133.897 22.22V17.532H135.705Z" fill="white"/>
</svg>
