<svg width="139" height="40" viewBox="0 0 139 40" fill="none" xmlns="http://www.w3.org/2000/svg">
<path d="M28.293 8C34.9503 8.00024 40.3467 13.333 40.3467 19.9111C40.3467 26.4893 34.9503 31.822 28.293 31.8223C25.3084 31.8223 22.5789 30.7479 20.4736 28.9727C18.3684 30.748 15.639 31.8222 12.6543 31.8223C5.99676 31.8223 0.599622 26.4894 0.599609 19.9111C0.599609 13.3328 5.99675 8 12.6543 8C15.6388 8.00003 18.3684 9.07347 20.4736 10.8486C22.5788 9.07362 25.3086 8 28.293 8Z" fill="#ED0006"/>
<path d="M28.2926 8C34.9501 8.00011 40.3473 13.3329 40.3473 19.9111C40.3473 26.4894 34.9501 31.8222 28.2926 31.8223C25.308 31.8223 22.5786 30.748 20.4733 28.9727C23.064 26.788 24.7087 23.5403 24.7087 19.9111C24.7087 16.2818 23.0643 13.0333 20.4733 10.8486C22.5785 9.07355 25.3082 8 28.2926 8Z" fill="#F9A000"/>
<path d="M20.4733 10.8494C23.064 13.034 24.7086 16.2818 24.7087 19.9109C24.7087 23.54 23.0639 26.7877 20.4733 28.9724C17.8827 26.7877 16.238 23.54 16.238 19.9109C16.238 16.2817 17.8826 13.034 20.4733 10.8494Z" fill="#FF5E00"/>
<path d="M53.7196 14.3H55.4956L58.9196 22.012H58.9516L62.3756 14.3H64.1676V25.5H62.3916V18.012H62.3596L59.5436 24.076H58.3276L55.5276 18.012H55.4956V25.5H53.7196V14.3ZM66.0871 24.076V22.188L67.5111 20.78H71.6231V19.596L71.0311 19.004H68.5191L67.9271 19.596V20.108H66.1511V19.18L67.7831 17.532H71.7671L73.3991 19.18V25.5H71.7511V24.268L70.4711 25.5H67.5111L66.0871 24.076ZM70.2951 24.076L71.6231 22.796V22.124H68.3751L67.8631 22.62V23.596L68.3431 24.076H70.2951ZM75.0052 24.012V23.036H76.7812V23.548L77.2292 24.012H79.9492L80.3972 23.548V22.684L79.9332 22.22H76.4932L75.0692 20.78V18.988L76.5252 17.532H80.5412L82.0132 19.02V19.996H80.2372V19.484L79.7892 19.02H77.2932L76.8452 19.484V20.284L77.3092 20.748H80.7332L82.1732 22.204V24.044L80.7172 25.5H76.4772L75.0052 24.012ZM84.5784 23.916V19.068H83.1384V17.532H84.6104V14.94H86.3864V17.532H88.8344V19.068H86.3864V23.34L87.0104 23.964H88.8344V25.5H86.1624L84.5784 23.916ZM89.964 23.916V19.132L91.548 17.532H95.884L97.5 19.132V22.108H91.772V23.388L92.38 23.996H95.116L95.692 23.404V22.924H97.484V23.948L95.932 25.5H91.532L89.964 23.916ZM95.692 20.78V19.676L95.068 19.036H92.396L91.772 19.676V20.78H95.692ZM99.3427 17.532H101.023V18.892L102.351 17.532H104.559V19.084H102.751L101.151 20.716V25.5H99.3427V17.532ZM105.198 23.916V19.116L106.766 17.532H110.974L112.558 19.132V20.444H110.75V19.708L110.11 19.084H107.646L107.006 19.708V23.324L107.646 23.948H110.11L110.75 23.324V22.588H112.558V23.9L110.974 25.5H106.766L105.198 23.916ZM113.915 24.076V22.188L115.339 20.78H119.451V19.596L118.859 19.004H116.347L115.755 19.596V20.108H113.979V19.18L115.611 17.532H119.595L121.227 19.18V25.5H119.579V24.268L118.299 25.5H115.339L113.915 24.076ZM118.123 24.076L119.451 22.796V22.124H116.203L115.691 22.62V23.596L116.171 24.076H118.123ZM123.233 17.532H124.913V18.892L126.241 17.532H128.449V19.084H126.641L125.041 20.716V25.5H123.233V17.532ZM129.089 23.9V19.132L130.673 17.532H133.809L134.881 18.46V14.076H136.689V25.5H134.977V24.188L133.665 25.5H130.673L129.089 23.9ZM133.457 23.948L134.881 22.508V20.172L133.649 19.084H131.569L130.897 19.756V23.276L131.569 23.948H133.457Z" fill="white"/>
</svg>
