<svg width="104" height="40" viewBox="0 0 104 40" fill="none" xmlns="http://www.w3.org/2000/svg">
<path fill-rule="evenodd" clip-rule="evenodd" d="M15.3964 34.9508L15.933 31.4284L14.7378 31.3996H9.03044L12.9968 5.40566C13.0092 5.32694 13.0491 5.25388 13.1075 5.2019C13.1661 5.14992 13.2408 5.1214 13.319 5.1214H22.9424C26.1375 5.1214 28.3422 5.80843 29.4932 7.16466C30.0329 7.8009 30.3766 8.46595 30.543 9.19753C30.7174 9.96535 30.7203 10.8826 30.5502 12.0015L30.5378 12.0829V12.7999L31.0775 13.1159C31.5319 13.3651 31.8931 13.6503 32.1701 13.9767C32.6316 14.5209 32.9302 15.2124 33.0564 16.0319C33.1869 16.8748 33.1438 17.8782 32.9302 19.014C32.684 20.3204 32.2859 21.4583 31.7482 22.3892C31.254 23.247 30.624 23.9587 29.876 24.51C29.1618 25.0339 28.3135 25.4317 27.3542 25.6862C26.4246 25.9363 25.3647 26.0625 24.2023 26.0625H23.4534C22.918 26.0625 22.3978 26.2619 21.9895 26.6192C21.58 26.9839 21.3092 27.4823 21.2262 28.0274L21.1696 28.3446L20.2215 34.5534L20.1787 34.7812C20.1672 34.8534 20.1477 34.8894 20.1189 34.9137C20.0933 34.936 20.0566 34.9508 20.0206 34.9508H15.3964" fill="#28356A"/>
<path fill-rule="evenodd" clip-rule="evenodd" d="M31.5892 12.1657C31.5607 12.3555 31.5277 12.5494 31.4909 12.7487C30.2218 19.4836 25.8798 21.8102 20.3346 21.8102H17.5111C16.8329 21.8102 16.2613 22.319 16.1558 23.0105L14.3008 35.1723C14.2321 35.6265 14.5706 36.0355 15.0138 36.0355H20.0216C20.6145 36.0355 21.1182 35.5903 21.2116 34.9858L21.2608 34.7229L22.2037 28.5385L22.2643 28.1993C22.3566 27.5927 22.8615 27.1472 23.4543 27.1472H24.2032C29.0551 27.1472 32.8533 25.1114 33.9635 19.2195C34.427 16.7583 34.1871 14.7032 32.96 13.2578C32.5887 12.8221 32.128 12.4603 31.5892 12.1657" fill="#298FC2"/>
<path fill-rule="evenodd" clip-rule="evenodd" d="M30.2608 11.6186C30.0668 11.5601 29.8668 11.5072 29.6616 11.4594C29.4553 11.4128 29.244 11.3715 29.0265 11.3352C28.2652 11.2081 27.431 11.1478 26.5375 11.1478H18.9947C18.8088 11.1478 18.6323 11.1912 18.4745 11.2696C18.1265 11.4425 17.8682 11.7829 17.8055 12.1996L16.2008 22.7043L16.1548 23.0106C16.2603 22.3191 16.8319 21.8103 17.5101 21.8103H20.3336C25.8788 21.8103 30.2208 19.4825 31.4899 12.7488C31.5278 12.5495 31.5597 12.3555 31.5882 12.1657C31.2672 11.9896 30.9195 11.839 30.545 11.7107C30.4525 11.6789 30.3571 11.6483 30.2608 11.6186" fill="#22284F"/>
<path fill-rule="evenodd" clip-rule="evenodd" d="M17.8059 12.1996C17.8685 11.7829 18.1269 11.4425 18.4749 11.2708C18.6338 11.1921 18.8091 11.1487 18.9951 11.1487H26.5379C27.4313 11.1487 28.2656 11.2093 29.0269 11.3365C29.2444 11.3724 29.4556 11.414 29.662 11.4606C29.8672 11.5082 30.0672 11.5613 30.2612 11.6195C30.3574 11.6492 30.4528 11.6801 30.5462 11.7107C30.9207 11.839 31.2687 11.9908 31.5897 12.1658C31.9673 9.67697 31.5865 7.98242 30.2847 6.44797C28.8493 4.75847 26.2588 4.0355 22.9439 4.0355H13.3202C12.6432 4.0355 12.0655 4.54431 11.9609 5.23698L7.95257 31.4982C7.87354 32.0177 8.26121 32.4864 8.76815 32.4864H14.7094L17.8059 12.1996" fill="#28356A"/>
<path d="M53.3202 14.3H60.1362L61.7682 15.948V19.756L60.1202 21.42H55.1762V25.5H53.3202V14.3ZM59.3042 19.852L59.9442 19.212V16.508L59.3042 15.868H55.1762V19.852H59.3042ZM62.7971 24.076V22.188L64.2211 20.78H68.3331V19.596L67.7411 19.004H65.2291L64.6371 19.596V20.108H62.8611V19.18L64.4931 17.532H68.4771L70.1091 19.18V25.5H68.4611V24.268L67.1811 25.5H64.2211L62.7971 24.076ZM67.0051 24.076L68.3331 22.796V22.124H65.0851L64.5731 22.62V23.596L65.0531 24.076H67.0051ZM79.3952 17.532V27.388L77.7472 29.02H73.6832L72.2752 27.628V26.572H74.0832V27.1L74.4672 27.5H76.9632L77.5872 26.86V24.14L76.2432 25.5H73.6672L72.0352 23.852V17.532H73.8432V23.324L74.4672 23.948H75.9232L77.5872 22.22V17.532H79.3952ZM81.4746 17.532H83.1546V18.78L84.4186 17.532H87.4746L89.0746 19.132V23.9L87.4746 25.5H84.4026L83.2826 24.556V28.892H81.4746V17.532ZM86.6266 23.948L87.2666 23.324V19.708L86.6266 19.084H84.7066L83.2826 20.508V22.732L84.6266 23.948H86.6266ZM90.7502 24.076V22.188L92.1742 20.78H96.2862V19.596L95.6942 19.004H93.1822L92.5902 19.596V20.108H90.8142V19.18L92.4462 17.532H96.4302L98.0622 19.18V25.5H96.4142V24.268L95.1342 25.5H92.1742L90.7502 24.076ZM94.9582 24.076L96.2862 22.796V22.124H93.0382L92.5262 22.62V23.596L93.0062 24.076H94.9582ZM100.148 14.076H101.956V25.5H100.148V14.076Z" fill="white"/>
</svg>
