<svg width="61" height="60" viewBox="0 0 61 60" fill="none" xmlns="http://www.w3.org/2000/svg">
<path fill-rule="evenodd" clip-rule="evenodd" d="M15.9522 41.519H10.9589L7.21451 26.3543C7.03678 25.6567 6.65942 25.04 6.10434 24.7494C4.71907 24.0189 3.19259 23.4376 1.52734 23.1444V22.5606H9.57117C10.6813 22.5606 11.514 23.4376 11.6527 24.4562L13.5955 35.395L18.5864 22.5606H23.4409L15.9522 41.519ZM26.2172 41.519H21.5014L25.3846 22.5606H30.1004L26.2172 41.519ZM36.2012 27.8133C36.3399 26.7922 37.1725 26.2084 38.1439 26.2084C39.6704 26.0618 41.3332 26.355 42.7209 27.0829L43.5536 23.001C42.1659 22.4172 40.6394 22.124 39.2541 22.124C34.6771 22.124 31.3466 24.75 31.3466 28.3946C31.3466 31.1672 33.7057 32.623 35.371 33.5001C37.1725 34.3746 37.8664 34.9584 37.7276 35.8329C37.7276 37.1446 36.3399 37.7285 34.9547 37.7285C33.2894 37.7285 31.6242 37.2912 30.1001 36.5608L29.2675 40.6452C30.9327 41.3731 32.7343 41.6662 34.3996 41.6662C39.5317 41.8103 42.7209 39.1868 42.7209 35.2491C42.7209 30.2902 36.2012 29.9995 36.2012 27.8133ZM59.2248 41.519L55.4804 22.5606H51.4585C50.6259 22.5606 49.7932 23.1444 49.5157 24.0189L42.582 41.519H47.4366L48.4055 38.7489H54.3702L54.9253 41.519H59.2248ZM52.153 27.6679L53.5382 34.813H49.6551L52.153 27.6679Z" fill="#F1F5F9"/>
</svg>
