<svg width="20" height="14" viewBox="0 0 20 14" fill="none" xmlns="http://www.w3.org/2000/svg">
<path d="M20 12.7985V7.0828C20 6.89331 19.9247 6.71159 19.7907 6.5776C19.6568 6.44361 19.475 6.36834 19.2855 6.36834C19.0961 6.36834 18.9143 6.44361 18.7803 6.5776C18.6464 6.71159 18.5711 6.89331 18.5711 7.0828V11.0739L11.2175 3.71947C11.1511 3.65306 11.0723 3.60038 10.9856 3.56444C10.8989 3.5285 10.8059 3.51001 10.712 3.51001C10.6181 3.51001 10.5252 3.5285 10.4384 3.56444C10.3517 3.60038 10.2729 3.65306 10.2065 3.71947L7.13973 6.78719L1.21508 0.861629C1.08054 0.72989 0.899448 0.656552 0.711148 0.657545C0.522849 0.658538 0.342544 0.733779 0.209394 0.866929C0.0762446 1.00008 0.00100265 1.18038 9.94818e-06 1.36868C-0.000982752 1.55698 0.072354 1.73807 0.204092 1.87262L6.63446 8.30253C6.70078 8.36901 6.77957 8.42176 6.86631 8.45776C6.95305 8.49375 7.04604 8.51227 7.13995 8.51227C7.23387 8.51227 7.32685 8.49375 7.41359 8.45776C7.50034 8.42176 7.57912 8.36901 7.64545 8.30253L10.7123 5.23481L17.561 12.084H13.5699C13.3804 12.084 13.1987 12.1593 13.0647 12.2933C12.9307 12.4273 12.8554 12.609 12.8554 12.7985C12.8554 12.988 12.9307 13.1697 13.0647 13.3037C13.1987 13.4377 13.3804 13.5129 13.5699 13.5129H19.2855C19.475 13.5129 19.6568 13.4377 19.7907 13.3037C19.9247 13.1697 20 12.988 20 12.7985Z" fill="#9DABBD"/>
</svg>
