<svg width="20" height="14" viewBox="0 0 20 14" fill="none" xmlns="http://www.w3.org/2000/svg">
<path d="M20 1.37205V7.08773C20 7.27722 19.9247 7.45894 19.7907 7.59293C19.6568 7.72692 19.475 7.80219 19.2855 7.80219C19.0961 7.80219 18.9143 7.72692 18.7803 7.59293C18.6464 7.45894 18.5711 7.27722 18.5711 7.08773V3.09659L11.2175 10.4511C11.1511 10.5175 11.0723 10.5701 10.9856 10.6061C10.8989 10.642 10.8059 10.6605 10.712 10.6605C10.6181 10.6605 10.5252 10.642 10.4384 10.6061C10.3517 10.5701 10.2729 10.5175 10.2065 10.4511L7.13973 7.38335L1.21508 13.3089C1.08054 13.4406 0.899448 13.514 0.711148 13.513C0.522849 13.512 0.342544 13.4368 0.209394 13.3036C0.0762446 13.1705 0.00100265 12.9901 9.94818e-06 12.8018C-0.000982752 12.6135 0.072354 12.4325 0.204092 12.2979L6.63446 5.86801C6.70078 5.80152 6.77957 5.74877 6.86631 5.71278C6.95305 5.67679 7.04604 5.65826 7.13995 5.65826C7.23387 5.65826 7.32685 5.67679 7.41359 5.71278C7.50034 5.74877 7.57912 5.80152 7.64545 5.86801L10.7123 8.93572L17.561 2.08651H13.5699C13.3804 2.08651 13.1987 2.01124 13.0647 1.87725C12.9307 1.74326 12.8554 1.56154 12.8554 1.37205C12.8554 1.18257 12.9307 1.00084 13.0647 0.866853C13.1987 0.732866 13.3804 0.657593 13.5699 0.657593H19.2855C19.475 0.657593 19.6568 0.732866 19.7907 0.866853C19.9247 1.00084 20 1.18257 20 1.37205Z" fill="#9DABBD"/>
</svg>
