<svg width="18" height="19" viewBox="0 0 18 19" fill="none" xmlns="http://www.w3.org/2000/svg">
<path d="M9.02624 3.85572C8.0369 3.85385 7.05512 4.09566 6.1712 4.56749C5.30522 5.02974 4.57076 5.6927 4.02576 6.49306C3.85091 6.74985 3.91733 7.09975 4.17411 7.2746C4.4309 7.44945 4.7808 7.38303 4.95565 7.12625C5.10918 6.90078 5.28124 6.68868 5.46988 6.4921C5.50585 6.46984 5.53985 6.44316 5.57112 6.41203C6.37143 5.61534 7.42333 5.11812 8.54739 5.00526C8.70716 4.98922 8.86695 4.98109 9.02623 4.98073C9.33629 4.98145 9.64717 5.0116 9.9547 5.07179C11.061 5.28833 12.0549 5.88017 12.7677 6.74561C13.2618 7.34559 13.5999 8.05163 13.7599 8.80215C13.6397 8.73285 13.5149 8.66074 13.3902 8.58851C13.0692 8.40264 12.7499 8.21669 12.5106 8.07716L12.1127 7.84477C11.8446 7.68785 11.5 7.77799 11.3431 8.04611C11.1862 8.31422 11.2768 8.65906 11.5449 8.81598L11.9438 9.04896C12.1836 9.18881 12.5041 9.37538 12.8264 9.56203C13.1483 9.74848 13.4734 9.93576 13.7219 10.0767C13.8457 10.147 13.9529 10.2071 14.032 10.2502C14.0709 10.2714 14.1071 10.2907 14.1366 10.3056C14.1505 10.3127 14.1694 10.322 14.1892 10.3307C14.1984 10.3348 14.2159 10.3423 14.2375 10.3499C14.2482 10.3537 14.2668 10.3599 14.2902 10.3657C14.3065 10.3698 14.3594 10.3828 14.4283 10.3828C14.5605 10.3828 14.6563 10.3365 14.6943 10.3163C14.7396 10.2922 14.7722 10.2668 14.7895 10.2526C14.8244 10.2238 14.8489 10.1967 14.8592 10.185C14.8825 10.1586 14.9011 10.1331 14.9114 10.1187C14.9346 10.0864 14.9598 10.0477 14.9838 10.0098C15.0334 9.93144 15.0982 9.82417 15.1709 9.70134C15.3172 9.45417 15.5059 9.1267 15.6916 8.80172C15.8775 8.47618 16.0616 8.15086 16.1992 7.90709C16.268 7.78516 16.3252 7.68354 16.3652 7.61237L16.4282 7.50035C16.5801 7.22939 16.4837 6.88651 16.2127 6.73455C15.9418 6.58258 15.5987 6.67949 15.4467 6.95044L15.3846 7.06096C15.3449 7.13171 15.2879 7.23284 15.2194 7.3542C15.0968 7.57151 14.9373 7.85342 14.7728 8.14195C14.7691 8.1233 14.7645 8.10466 14.7589 8.08608C14.3585 6.7626 13.5089 5.62076 12.3554 4.85501C11.3666 4.19862 10.2073 3.85352 9.02624 3.85572Z" fill="#80BD29"/>
<path d="M3.57185 9.28363C3.4397 9.28363 3.34389 9.3299 3.30587 9.35015C3.26059 9.37427 3.22798 9.39959 3.21065 9.41387C3.17575 9.44262 3.1513 9.46974 3.14097 9.48146C3.1177 9.50783 3.09906 9.53332 3.08875 9.54771C3.0656 9.58003 3.04036 9.61876 3.01636 9.65665C2.96674 9.73499 2.90199 9.84226 2.82928 9.96509C2.68297 10.2123 2.49425 10.5397 2.30861 10.8647C2.12266 11.1902 1.93852 11.5156 1.80096 11.7593C1.73216 11.8813 1.67495 11.9829 1.63493 12.0541L1.572 12.1661C1.42003 12.437 1.51647 12.7799 1.78743 12.9319C2.05838 13.0838 2.40148 12.9869 2.55344 12.716L2.61553 12.6055C2.65531 12.5347 2.71224 12.4336 2.78073 12.3122C2.90335 12.0949 3.06288 11.813 3.22739 11.5245C3.23103 11.5431 3.23564 11.5618 3.24126 11.5803C3.64166 12.9038 4.49128 14.0457 5.64478 14.8114C6.6335 15.4678 7.79278 15.8129 8.97377 15.8107C9.96316 15.8126 10.945 15.5708 11.829 15.0989C12.6949 14.6367 13.4294 13.9737 13.9744 13.1734C14.1493 12.9166 14.0828 12.5667 13.8261 12.3918C13.5693 12.217 13.2194 12.2834 13.0445 12.5402C12.891 12.7656 12.7189 12.9777 12.5303 13.1743C12.4943 13.1966 12.4603 13.2233 12.429 13.2544C11.6287 14.0511 10.5768 14.5483 9.45278 14.6612C9.29298 14.6772 9.13316 14.6853 8.97385 14.6857C8.66382 14.685 8.35297 14.6548 8.04547 14.5946C6.93917 14.3781 5.94528 13.7863 5.2325 12.9208C4.73835 12.3208 4.40025 11.6148 4.24024 10.8643C4.36049 10.9336 4.48526 11.0057 4.60998 11.0779C4.93092 11.2638 5.25031 11.4497 5.48955 11.5893L5.88743 11.8216C6.15554 11.9786 6.50013 11.8884 6.65705 11.6203C6.81397 11.3522 6.72334 11.0074 6.45523 10.8504L6.05632 10.6175C5.81652 10.4776 5.49607 10.291 5.1738 10.1044C4.85185 9.91794 4.5268 9.73066 4.27831 9.58969C4.15447 9.51944 4.04725 9.45933 3.96818 9.41624C3.92929 9.39505 3.89309 9.37572 3.86356 9.3608C3.84965 9.35377 3.83076 9.34443 3.81096 9.33571C3.80175 9.33164 3.78424 9.3241 3.76266 9.31652C3.75196 9.31276 3.73337 9.30654 3.70996 9.30069C3.69363 9.2966 3.64076 9.28363 3.57185 9.28363Z" fill="#80BD29"/>
</svg>
