<svg width="20" height="20" viewBox="0 0 20 20" fill="none" xmlns="http://www.w3.org/2000/svg">
<path fill-rule="evenodd" clip-rule="evenodd" d="M5.76248 1.21482C5.91409 1.09011 6.0928 1.04163 6.25016 1.04163C6.40753 1.04163 6.58623 1.09011 6.73784 1.21482L6.7644 1.23666L10.8644 5.44336C11.1053 5.69055 11.1003 6.08625 10.8531 6.32717C10.6059 6.56809 10.2102 6.56301 9.96925 6.31582L6.87516 3.14122V13.3333C6.87516 13.6785 6.59534 13.9583 6.25016 13.9583C5.90498 13.9583 5.62516 13.6785 5.62516 13.3333V3.14122L2.53108 6.31582C2.29015 6.56301 1.89446 6.56809 1.64727 6.32717C1.40007 6.08625 1.39499 5.69055 1.63592 5.44336L5.73593 1.23666L5.76248 1.21482ZM13.7502 6.04163C14.0953 6.04163 14.3752 6.32145 14.3752 6.66663V16.8587L17.4692 13.6841C17.7102 13.4369 18.1059 13.4318 18.3531 13.6727C18.6003 13.9137 18.6053 14.3094 18.3644 14.5566L14.2644 18.7633L14.2378 18.7851C14.0862 18.9098 13.9075 18.9583 13.7502 18.9583C13.5928 18.9583 13.4141 18.9098 13.2625 18.7851L13.2359 18.7633L9.13591 14.5566C8.89499 14.3094 8.90007 13.9137 9.14727 13.6727C9.39446 13.4318 9.79015 13.4369 10.0311 13.6841L13.1252 16.8587V6.66663C13.1252 6.32145 13.405 6.04163 13.7502 6.04163Z" fill="#7F8D9F"/>
</svg>
