<svg width="20" height="20" viewBox="0 0 20 20" fill="none" xmlns="http://www.w3.org/2000/svg">
<path fill-rule="evenodd" clip-rule="evenodd" d="M8.36183 4.14468C8.60412 4.39054 8.60122 4.78625 8.35536 5.02854L3.94476 9.37504H17.5C17.8452 9.37504 18.125 9.65486 18.125 10C18.125 10.3452 17.8452 10.625 17.5 10.625H3.94476L8.35536 14.9715C8.60122 15.2138 8.60412 15.6095 8.36183 15.8554C8.11955 16.1013 7.72383 16.1042 7.47797 15.8619L2.07655 10.5389L2.05487 10.5123C1.92541 10.3532 1.875 10.1655 1.875 10C1.875 9.83454 1.92541 9.64693 2.05487 9.48778L2.07655 9.46114L7.47797 4.13821C7.72383 3.89592 8.11955 3.89882 8.36183 4.14468Z" fill="#9DABBD"/>
</svg>
