<svg width="20" height="20" viewBox="0 0 20 20" fill="none" xmlns="http://www.w3.org/2000/svg">
<path fill-rule="evenodd" clip-rule="evenodd" d="M9.99984 2.29175C5.74264 2.29175 2.2915 5.74289 2.2915 10.0001C2.2915 14.2573 5.74264 17.7084 9.99984 17.7084C14.257 17.7084 17.7082 14.2573 17.7082 10.0001C17.7082 5.74289 14.257 2.29175 9.99984 2.29175ZM1.0415 10.0001C1.0415 5.05253 5.05229 1.04175 9.99984 1.04175C14.9474 1.04175 18.9582 5.05253 18.9582 10.0001C18.9582 14.9476 14.9474 18.9584 9.99984 18.9584C5.05229 18.9584 1.0415 14.9476 1.0415 10.0001ZM10.489 7.05307C10.7358 6.81182 11.1315 6.81639 11.3728 7.06327L13.7864 9.53334L13.8075 9.56027C13.9184 9.70179 13.9582 9.86319 13.9582 10.0001C13.9582 10.137 13.9184 10.2984 13.8075 10.4399L13.7864 10.4668L11.3728 12.9369C11.1315 13.1838 10.7358 13.1883 10.489 12.9471C10.2421 12.7059 10.2375 12.3102 10.4787 12.0633L11.8841 10.6251H6.6665C6.32133 10.6251 6.0415 10.3453 6.0415 10.0001C6.0415 9.6549 6.32133 9.37508 6.6665 9.37508H11.8841L10.4787 7.93689C10.2375 7.69001 10.2421 7.29431 10.489 7.05307Z" fill="#9DABBD"/>
</svg>
