<svg width="16" height="16" viewBox="0 0 16 16" fill="none" xmlns="http://www.w3.org/2000/svg">
<path fill-rule="evenodd" clip-rule="evenodd" d="M9.31053 3.31579C9.50436 3.11911 9.82094 3.11679 10.0176 3.31062L14.3388 7.56896L14.3561 7.59028C14.4597 7.71759 14.5 7.86767 14.5 8.00008C14.5 8.13249 14.4597 8.28258 14.3561 8.40989L14.3388 8.4312L10.0176 12.6895C9.82094 12.8834 9.50436 12.8811 9.31053 12.6844C9.11671 12.4877 9.11902 12.1711 9.31571 11.9773L12.8442 8.50008H2C1.72386 8.50008 1.5 8.27622 1.5 8.00008C1.5 7.72394 1.72386 7.50008 2 7.50008H12.8442L9.31571 4.02288C9.11902 3.82905 9.11671 3.51248 9.31053 3.31579Z" fill="#616F81"/>
</svg>
