<svg width="968" height="704" viewBox="0 0 968 704" fill="none" xmlns="http://www.w3.org/2000/svg">
<g clip-path="url(#clip0_9703_20961)">
<path d="M165.266 333.586C165.496 333.137 165.003 332.703 164.494 332.905C164.383 332.95 164.299 333.025 164.248 333.122C164.01 333.572 164.511 334.006 165.02 333.804C165.131 333.759 165.215 333.684 165.266 333.586Z" fill="white" fill-opacity="0.1"/>
<path d="M573.827 359.586C574.057 359.137 573.563 358.703 573.052 358.905C572.942 358.95 572.856 359.025 572.805 359.122C572.575 359.572 573.069 360.006 573.58 359.804C573.691 359.759 573.776 359.684 573.827 359.586Z" fill="white" fill-opacity="0.1"/>
<path d="M485.63 316.732C485.859 316.283 485.367 315.849 484.857 316.051C484.747 316.096 484.662 316.171 484.611 316.268C484.373 316.717 484.874 317.151 485.383 316.949C485.494 316.904 485.579 316.829 485.63 316.732Z" fill="white" fill-opacity="0.1"/>
<path d="M365.839 110.826C366.076 110.377 365.575 109.943 365.066 110.145C364.956 110.19 364.871 110.264 364.82 110.362C364.591 110.811 365.083 111.245 365.592 111.043C365.703 110.998 365.788 110.923 365.839 110.826Z" fill="white" fill-opacity="0.1"/>
<path d="M439.715 99.2991C439.952 98.8513 439.451 98.4109 438.942 98.6199C438.832 98.6647 438.747 98.7393 438.696 98.8364C438.467 99.2842 438.959 99.7171 439.468 99.5156C439.579 99.4708 439.664 99.3961 439.715 99.2991Z" fill="white" fill-opacity="0.1"/>
<path d="M920.132 377.732C920.362 377.283 919.869 376.849 919.358 377.051C919.247 377.096 919.162 377.171 919.111 377.268C918.881 377.717 919.375 378.151 919.886 377.949C919.996 377.904 920.081 377.829 920.132 377.732Z" fill="white" fill-opacity="0.8"/>
<path d="M449.232 202.732C449.461 202.283 448.969 201.849 448.46 202.051C448.349 202.096 448.264 202.171 448.213 202.268C447.976 202.717 448.477 203.151 448.986 202.949C449.096 202.904 449.181 202.829 449.232 202.732Z" fill="white" fill-opacity="0.1"/>
<path d="M737.005 351.732C737.234 351.283 736.741 350.849 736.23 351.051C736.119 351.096 736.034 351.171 735.983 351.268C735.753 351.717 736.247 352.151 736.758 351.949C736.868 351.904 736.953 351.829 737.005 351.732Z" fill="white" fill-opacity="0.1"/>
<path d="M582.74 312.773C582.978 312.324 582.477 311.89 581.967 312.092C581.857 312.137 581.772 312.212 581.721 312.309C581.492 312.758 581.984 313.192 582.494 312.99C582.604 312.945 582.689 312.87 582.74 312.773Z" fill="white" fill-opacity="0.1"/>
<path d="M293.233 372.509C293.462 372.06 292.97 371.626 292.461 371.828C292.35 371.873 292.265 371.948 292.214 372.045C291.977 372.494 292.478 372.928 292.987 372.726C293.097 372.681 293.182 372.607 293.233 372.509Z" fill="white" fill-opacity="0.1"/>
<path d="M451.507 405.732C451.736 405.283 451.243 404.849 450.734 405.051C450.624 405.096 450.539 405.171 450.488 405.268C450.25 405.717 450.751 406.151 451.26 405.949C451.371 405.904 451.456 405.829 451.507 405.732Z" fill="white" fill-opacity="0.8"/>
<path d="M301.361 54.732C301.599 54.283 301.098 53.8489 300.588 54.051C300.478 54.0959 300.393 54.1707 300.342 54.268C300.113 54.717 300.605 55.1511 301.115 54.949C301.225 54.9041 301.31 54.8293 301.361 54.732Z" fill="white" fill-opacity="0.1"/>
<path d="M441.269 17.732C441.499 17.283 441.006 16.8489 440.497 17.051C440.386 17.0959 440.302 17.1707 440.251 17.268C440.013 17.717 440.514 18.1511 441.023 17.949C441.133 17.9041 441.218 17.8293 441.269 17.732Z" fill="white" fill-opacity="0.8"/>
<path d="M112.548 278.732C112.778 278.283 112.285 277.849 111.774 278.051C111.663 278.096 111.578 278.171 111.527 278.268C111.297 278.717 111.791 279.151 112.302 278.949C112.412 278.904 112.497 278.829 112.548 278.732Z" fill="white" fill-opacity="0.8"/>
<path d="M180.362 258.878C180.6 258.429 180.099 257.995 179.589 258.197C179.479 258.242 179.394 258.317 179.343 258.414C179.114 258.864 179.606 259.298 180.116 259.096C180.226 259.051 180.311 258.976 180.362 258.878Z" fill="white" fill-opacity="0.1"/>
<path d="M189.894 142.732C190.124 142.283 189.63 141.849 189.12 142.051C189.009 142.096 188.924 142.171 188.873 142.268C188.643 142.717 189.137 143.151 189.647 142.949C189.758 142.904 189.843 142.829 189.894 142.732Z" fill="white" fill-opacity="0.1"/>
<path d="M181.932 195.732C182.162 195.283 181.669 194.849 181.16 195.051C181.049 195.096 180.965 195.171 180.914 195.268C180.676 195.717 181.177 196.151 181.686 195.949C181.797 195.904 181.881 195.829 181.932 195.732Z" fill="white" fill-opacity="0.1"/>
<path d="M284.188 409.91C284.417 409.461 283.925 409.027 283.416 409.229C283.305 409.274 283.22 409.348 283.17 409.446C282.932 409.895 283.433 410.329 283.942 410.127C284.052 410.082 284.137 410.007 284.188 409.91Z" fill="white" fill-opacity="0.8"/>
<path d="M439.324 260.462C439.554 260.013 439.06 259.579 438.549 259.781C438.439 259.826 438.353 259.901 438.302 259.998C438.073 260.448 438.566 260.882 439.077 260.679C439.188 260.635 439.273 260.56 439.324 260.462Z" fill="white" fill-opacity="0.1"/>
<path d="M401.096 220.359C401.326 219.91 400.832 219.476 400.322 219.678C400.211 219.723 400.126 219.798 400.075 219.895C399.845 220.344 400.339 220.778 400.849 220.576C400.96 220.531 401.045 220.456 401.096 220.359Z" fill="white" fill-opacity="0.8"/>
<path d="M249.404 146.949C249.915 147.151 250.409 146.718 250.179 146.27C250.128 146.173 250.043 146.098 249.932 146.054C249.421 145.845 248.928 146.285 249.158 146.733C249.209 146.83 249.294 146.904 249.404 146.949Z" fill="white" fill-opacity="0.8"/>
<path d="M297.262 297.273C297.491 296.824 296.998 296.39 296.489 296.592C296.379 296.637 296.294 296.712 296.243 296.809C296.005 297.258 296.506 297.692 297.015 297.49C297.126 297.445 297.211 297.37 297.262 297.273Z" fill="white" fill-opacity="0.1"/>
<path d="M656.246 340.732C656.475 340.283 655.983 339.849 655.473 340.051C655.363 340.096 655.278 340.171 655.227 340.268C654.989 340.717 655.49 341.151 656 340.949C656.11 340.904 656.195 340.829 656.246 340.732Z" fill="white" fill-opacity="0.1"/>
<path d="M814.35 417.73C814.58 417.282 814.087 416.849 813.578 417.051C813.467 417.096 813.383 417.17 813.332 417.267C813.094 417.715 813.595 418.155 814.104 417.946C814.215 417.902 814.299 417.827 814.35 417.73Z" fill="white" fill-opacity="0.1"/>
<path d="M737.005 386.732C737.234 386.283 736.741 385.849 736.23 386.051C736.119 386.096 736.034 386.171 735.983 386.268C735.753 386.717 736.247 387.151 736.758 386.949C736.868 386.904 736.953 386.829 737.005 386.732Z" fill="white" fill-opacity="0.8"/>
<path d="M431.543 88.5211C431.772 88.072 431.28 87.638 430.77 87.84C430.66 87.8849 430.575 87.9598 430.524 88.0571C430.286 88.5061 430.787 88.9402 431.297 88.7381C431.407 88.6932 431.492 88.6183 431.543 88.5211Z" fill="white" fill-opacity="0.1"/>
<path d="M110.274 8.73004C110.503 8.28222 110.011 7.84931 109.502 8.05084C109.391 8.09562 109.306 8.17026 109.255 8.26729C109.018 8.71512 109.519 9.15548 110.028 8.9465C110.138 8.90172 110.223 8.82707 110.274 8.73004Z" fill="white" fill-opacity="0.1"/>
<path d="M747.238 19.732C747.476 19.283 746.975 18.8489 746.465 19.051C746.355 19.0959 746.27 19.1707 746.219 19.268C745.99 19.717 746.482 20.1511 746.992 19.949C747.102 19.9041 747.187 19.8293 747.238 19.732Z" fill="white" fill-opacity="0.1"/>
<path d="M573.95 281.184C574.18 280.735 573.686 280.301 573.175 280.503C573.065 280.548 572.979 280.623 572.928 280.72C572.699 281.169 573.192 281.603 573.703 281.401C573.814 281.356 573.899 281.281 573.95 281.184Z" fill="white" fill-opacity="0.1"/>
<path d="M642.685 32.0631C642.915 31.6152 642.422 31.1823 641.913 31.3838C641.802 31.4286 641.718 31.5033 641.667 31.6003C641.429 32.0481 641.93 32.4885 642.439 32.2795C642.55 32.2347 642.634 32.1601 642.685 32.0631Z" fill="white" fill-opacity="0.1"/>
<path d="M163.915 46.8824C164.152 46.4334 163.652 45.9993 163.142 46.2014C163.032 46.2463 162.947 46.3211 162.896 46.4184C162.667 46.8674 163.159 47.3015 163.669 47.0994C163.779 47.0545 163.864 46.9797 163.915 46.8824Z" fill="white" fill-opacity="0.8"/>
<path d="M1.07972 57.732C1.30956 57.283 0.815827 56.8489 0.305078 57.051C0.194415 57.0959 0.109309 57.1707 0.0582343 57.268C-0.171603 57.717 0.322099 58.1511 0.832848 57.949C0.943511 57.9041 1.02864 57.8293 1.07972 57.732Z" fill="white" fill-opacity="0.1"/>
<path d="M168.693 94.8961C168.923 94.447 168.429 94.013 167.918 94.215C167.808 94.2599 167.723 94.3348 167.672 94.4321C167.442 94.8811 167.935 95.3152 168.446 95.1131C168.557 95.0682 168.642 94.9934 168.693 94.8961Z" fill="white" fill-opacity="0.1"/>
<path d="M512.52 32.732C512.75 32.283 512.256 31.8489 511.746 32.051C511.635 32.0959 511.55 32.1707 511.499 32.268C511.269 32.717 511.763 33.1511 512.273 32.949C512.384 32.9041 512.469 32.8293 512.52 32.732Z" fill="white" fill-opacity="0.1"/>
<path d="M540.673 427.298C540.91 426.849 540.409 426.415 539.9 426.617C539.79 426.662 539.705 426.737 539.654 426.834C539.425 427.283 539.917 427.717 540.426 427.515C540.537 427.471 540.622 427.396 540.673 427.298Z" fill="white" fill-opacity="0.1"/>
<path d="M909.536 68.1802C909.765 67.7312 909.273 67.2972 908.763 67.4992C908.653 67.5441 908.568 67.619 908.517 67.7162C908.279 68.1653 908.78 68.5993 909.29 68.3973C909.4 68.3524 909.485 68.2775 909.536 68.1802Z" fill="white" fill-opacity="0.1"/>
<path d="M955.475 38.3599C955.713 37.9109 955.212 37.4768 954.703 37.6789C954.592 37.7238 954.507 37.7986 954.457 37.8959C954.227 38.345 954.72 38.779 955.229 38.577C955.339 38.5321 955.424 38.4572 955.475 38.3599Z" fill="white" fill-opacity="0.1"/>
<path d="M208.094 232.732C208.323 232.283 207.83 231.849 207.321 232.051C207.211 232.096 207.126 232.171 207.075 232.268C206.837 232.717 207.338 233.151 207.847 232.949C207.958 232.904 208.043 232.829 208.094 232.732Z" fill="white" fill-opacity="0.1"/>
<path d="M490.898 86.6265C491.128 86.1775 490.634 85.7434 490.123 85.9455C490.013 85.9904 489.928 86.0652 489.877 86.1625C489.647 86.6116 490.14 87.0456 490.651 86.8436C490.762 86.7987 490.847 86.7238 490.898 86.6265Z" fill="white" fill-opacity="0.1"/>
<path d="M410.674 167.732C410.445 167.283 410.938 166.849 411.449 167.051C411.56 167.096 411.645 167.171 411.696 167.268C411.926 167.717 411.432 168.151 410.921 167.949C410.811 167.904 410.726 167.829 410.674 167.732Z" fill="white" fill-opacity="0.1"/>
<path d="M773.518 373.732C773.288 373.283 773.782 372.849 774.293 373.051C774.403 373.096 774.489 373.171 774.54 373.268C774.77 373.717 774.276 374.151 773.765 373.949C773.654 373.904 773.569 373.829 773.518 373.732Z" fill="white" fill-opacity="0.1"/>
<path d="M343.566 358.709C343.337 358.26 343.829 357.825 344.338 358.028C344.449 358.072 344.534 358.147 344.585 358.245C344.822 358.694 344.321 359.128 343.812 358.926C343.702 358.881 343.617 358.806 343.566 358.709Z" fill="white" fill-opacity="0.1"/>
<path d="M666.598 375.732C666.368 375.283 666.862 374.849 667.373 375.051C667.484 375.096 667.569 375.171 667.62 375.268C667.85 375.717 667.356 376.151 666.845 375.949C666.734 375.904 666.649 375.829 666.598 375.732Z" fill="white" fill-opacity="0.1"/>
<path d="M813.329 389.73C813.099 389.282 813.592 388.849 814.101 389.051C814.212 389.096 814.296 389.17 814.347 389.267C814.585 389.715 814.084 390.155 813.575 389.946C813.464 389.902 813.38 389.827 813.329 389.73Z" fill="white" fill-opacity="0.1"/>
<path d="M295.686 272.794C295.457 272.345 295.949 271.911 296.459 272.113C296.569 272.158 296.654 272.233 296.705 272.331C296.942 272.78 296.442 273.214 295.932 273.012C295.822 272.967 295.737 272.892 295.686 272.794Z" fill="white" fill-opacity="0.1"/>
<path d="M231.205 110.054C231.716 109.845 232.21 110.285 231.98 110.733C231.929 110.83 231.844 110.904 231.733 110.949C231.222 111.151 230.729 110.718 230.958 110.27C231.009 110.173 231.095 110.098 231.205 110.054Z" fill="white" fill-opacity="0.1"/>
<path d="M129.726 260.974C129.497 260.525 129.989 260.091 130.499 260.293C130.609 260.338 130.694 260.413 130.745 260.51C130.983 260.959 130.482 261.393 129.972 261.191C129.862 261.146 129.777 261.071 129.726 260.974Z" fill="white" fill-opacity="0.1"/>
<path d="M866.789 0.732002C866.559 0.282973 867.052 -0.151092 867.561 0.0509715C867.671 0.0958745 867.756 0.170708 867.807 0.267997C868.045 0.717027 867.544 1.15109 867.035 0.949028C866.924 0.904125 866.839 0.829292 866.789 0.732002Z" fill="white" fill-opacity="0.1"/>
<path d="M839.903 11.2095C839.673 10.7605 840.167 10.3264 840.678 10.5285C840.788 10.5734 840.873 10.6483 840.924 10.7455C841.154 11.1946 840.661 11.6286 840.15 11.4266C840.039 11.3817 839.954 11.3068 839.903 11.2095Z" fill="white" fill-opacity="0.1"/>
<path d="M212.717 340.73C212.488 340.281 212.981 339.847 213.492 340.049C213.603 340.094 213.688 340.169 213.739 340.266C213.969 340.715 213.475 341.149 212.964 340.947C212.854 340.902 212.768 340.827 212.717 340.73Z" fill="white" fill-opacity="0.1"/>
<path d="M73.9947 217.733C73.757 217.285 74.2579 216.845 74.7673 217.054C74.8776 217.098 74.9625 217.173 75.0135 217.27C75.2427 217.718 74.7503 218.151 74.2409 217.949C74.1305 217.904 74.0456 217.83 73.9947 217.733Z" fill="white" fill-opacity="0.1"/>
<path d="M113.795 197.155C113.558 196.706 114.059 196.272 114.568 196.474C114.678 196.519 114.763 196.594 114.814 196.691C115.043 197.14 114.551 197.574 114.042 197.372C113.931 197.327 113.846 197.252 113.795 197.155Z" fill="white" fill-opacity="0.8"/>
<path d="M313.039 219.882C312.809 219.433 313.302 218.999 313.811 219.201C313.921 219.246 314.006 219.321 314.057 219.418C314.295 219.867 313.794 220.301 313.285 220.099C313.174 220.055 313.089 219.98 313.039 219.882Z" fill="white" fill-opacity="0.1"/>
<path d="M26.2192 112.732C25.99 112.283 26.4824 111.849 26.9918 112.051C27.1022 112.096 27.187 112.171 27.238 112.268C27.4757 112.717 26.9748 113.151 26.4654 112.949C26.3551 112.904 26.2701 112.829 26.2192 112.732Z" fill="white" fill-opacity="0.1"/>
<path d="M922.329 19.1617C922.099 18.7126 922.593 18.2786 923.103 18.4807C923.214 18.5256 923.299 18.6004 923.35 18.6977C923.58 19.1467 923.086 19.5808 922.576 19.3787C922.465 19.3338 922.38 19.259 922.329 19.1617Z" fill="white" fill-opacity="0.1"/>
<path d="M239.228 204.64C238.999 204.191 239.491 203.757 240.001 203.959C240.111 204.004 240.196 204.079 240.247 204.176C240.484 204.625 239.984 205.059 239.474 204.857C239.364 204.812 239.279 204.737 239.228 204.64Z" fill="white" fill-opacity="0.1"/>
<path d="M575.603 11.732C575.373 11.283 575.867 10.8489 576.378 11.051C576.488 11.0959 576.574 11.1707 576.625 11.268C576.854 11.717 576.361 12.1511 575.85 11.949C575.739 11.9041 575.654 11.8293 575.603 11.732Z" fill="white" fill-opacity="0.1"/>
<path d="M515.715 69.73C515.486 69.281 515.978 68.847 516.488 69.049C516.598 69.0939 516.683 69.1688 516.734 69.266C516.972 69.7151 516.471 70.1491 515.962 69.9471C515.851 69.9022 515.766 69.8273 515.715 69.73Z" fill="white" fill-opacity="0.1"/>
<path d="M623.009 70.0133C622.78 69.5642 623.273 69.1302 623.784 69.3322C623.895 69.3771 623.98 69.452 624.031 69.5492C624.261 69.9983 623.767 70.4323 623.256 70.2303C623.146 70.1854 623.06 70.1105 623.009 70.0133Z" fill="white" fill-opacity="0.1"/>
<path d="M436.296 362.529C436.066 362.08 436.559 361.646 437.07 361.848C437.181 361.893 437.266 361.968 437.317 362.065C437.547 362.514 437.053 362.948 436.542 362.746C436.432 362.701 436.347 362.626 436.296 362.529Z" fill="white" fill-opacity="0.1"/>
<path d="M630.201 386.732C629.971 386.283 630.465 385.849 630.975 386.051C631.086 386.096 631.171 386.171 631.222 386.268C631.452 386.717 630.958 387.151 630.448 386.949C630.337 386.904 630.252 386.829 630.201 386.732Z" fill="white" fill-opacity="0.1"/>
<path d="M707.547 415.732C707.317 415.283 707.81 414.849 708.321 415.051C708.432 415.096 708.517 415.171 708.568 415.268C708.798 415.717 708.304 416.151 707.793 415.949C707.683 415.904 707.598 415.829 707.547 415.732Z" fill="white" fill-opacity="0.8"/>
<path d="M845.839 347.493C845.609 347.044 846.102 346.61 846.613 346.812C846.724 346.857 846.809 346.931 846.86 347.029C847.09 347.478 846.596 347.912 846.085 347.71C845.975 347.665 845.89 347.59 845.839 347.493Z" fill="white" fill-opacity="0.8"/>
<path d="M571.053 391.732C570.824 391.283 571.317 390.849 571.828 391.051C571.939 391.096 572.024 391.171 572.075 391.268C572.305 391.717 571.811 392.151 571.3 391.949C571.19 391.904 571.104 391.829 571.053 391.732Z" fill="white" fill-opacity="0.8"/>
<path d="M617.689 426.732C617.46 426.283 617.952 425.849 618.462 426.051C618.572 426.096 618.657 426.171 618.708 426.268C618.945 426.717 618.445 427.151 617.935 426.949C617.825 426.904 617.74 426.829 617.689 426.732Z" fill="white" fill-opacity="0.1"/>
<path d="M306.03 84.732C305.801 84.283 306.293 83.8489 306.802 84.051C306.913 84.0959 306.998 84.1707 307.049 84.268C307.286 84.717 306.785 85.1511 306.276 84.949C306.166 84.9041 306.081 84.8293 306.03 84.732Z" fill="white" fill-opacity="0.1"/>
<path d="M936.051 340.969C935.814 340.52 936.315 340.086 936.824 340.288C936.934 340.333 937.019 340.408 937.07 340.505C937.299 340.954 936.807 341.388 936.298 341.186C936.187 341.141 936.102 341.067 936.051 340.969Z" fill="white" fill-opacity="0.1"/>
<path d="M234.198 279.488C233.969 279.039 234.461 278.605 234.97 278.807C235.081 278.852 235.166 278.927 235.216 279.024C235.454 279.473 234.953 279.907 234.444 279.705C234.334 279.66 234.249 279.585 234.198 279.488Z" fill="white" fill-opacity="0.1"/>
<path d="M864.513 386.732C864.283 386.283 864.777 385.849 865.288 386.051C865.399 386.096 865.484 386.171 865.535 386.268C865.765 386.717 865.271 387.151 864.76 386.949C864.65 386.904 864.564 386.829 864.513 386.732Z" fill="white" fill-opacity="0.1"/>
<path d="M958.923 196.91C958.686 196.461 959.187 196.027 959.696 196.229C959.806 196.274 959.891 196.348 959.942 196.446C960.171 196.895 959.679 197.329 959.17 197.127C959.059 197.082 958.974 197.007 958.923 196.91Z" fill="white" fill-opacity="0.8"/>
<path d="M882.956 140.732C883.186 140.283 882.692 139.849 882.181 140.051C882.07 140.096 881.985 140.171 881.934 140.268C881.704 140.717 882.198 141.151 882.709 140.949C882.819 140.904 882.905 140.829 882.956 140.732Z" fill="white" fill-opacity="0.8"/>
<path d="M860.352 272.599C860.59 272.15 860.089 271.716 859.58 271.918C859.469 271.963 859.384 272.038 859.333 272.135C859.104 272.584 859.597 273.018 860.106 272.816C860.216 272.771 860.301 272.696 860.352 272.599Z" fill="white" fill-opacity="0.1"/>
<path d="M811.056 149.962C811.286 149.513 810.793 149.079 810.284 149.281C810.174 149.326 810.089 149.401 810.038 149.498C809.8 149.947 810.301 150.382 810.81 150.179C810.921 150.135 811.005 150.06 811.056 149.962Z" fill="white" fill-opacity="0.1"/>
<path d="M896.605 179.732C896.835 179.283 896.341 178.849 895.83 179.051C895.72 179.096 895.635 179.171 895.584 179.268C895.354 179.717 895.848 180.151 896.358 179.949C896.469 179.904 896.554 179.829 896.605 179.732Z" fill="white" fill-opacity="0.1"/>
<path d="M613.02 238.732C613.258 238.283 612.757 237.849 612.248 238.051C612.137 238.096 612.052 238.171 612.001 238.268C611.772 238.717 612.265 239.151 612.774 238.949C612.884 238.904 612.969 238.829 613.02 238.732Z" fill="white" fill-opacity="0.1"/>
<path d="M805.607 310.732C805.845 310.283 805.344 309.849 804.835 310.051C804.724 310.096 804.639 310.171 804.588 310.268C804.359 310.717 804.852 311.151 805.361 310.949C805.471 310.904 805.556 310.829 805.607 310.732Z" fill="white" fill-opacity="0.1"/>
<path d="M559.92 142.732C560.157 142.283 559.656 141.849 559.147 142.051C559.037 142.096 558.952 142.171 558.901 142.268C558.672 142.717 559.164 143.151 559.673 142.949C559.784 142.904 559.869 142.829 559.92 142.732Z" fill="white" fill-opacity="0.8"/>
<path d="M554.218 276.755C554.447 276.306 553.954 275.872 553.445 276.074C553.335 276.119 553.25 276.194 553.199 276.291C552.961 276.74 553.462 277.175 553.971 276.972C554.082 276.928 554.167 276.853 554.218 276.755Z" fill="white" fill-opacity="0.1"/>
<path d="M761.276 159.167C761.505 158.719 761.013 158.286 760.504 158.487C760.393 158.532 760.308 158.607 760.257 158.704C760.02 159.152 760.521 159.592 761.03 159.383C761.14 159.338 761.225 159.264 761.276 159.167Z" fill="white" fill-opacity="0.1"/>
<path d="M682.879 341.22C683.108 340.771 682.616 340.337 682.106 340.539C681.996 340.584 681.911 340.659 681.86 340.756C681.622 341.205 682.123 341.639 682.633 341.437C682.743 341.392 682.828 341.318 682.879 341.22Z" fill="white" fill-opacity="0.1"/>
<path d="M902.046 212.054C901.535 211.845 901.041 212.285 901.271 212.733C901.322 212.83 901.407 212.904 901.518 212.949C902.029 213.151 902.522 212.718 902.293 212.27C902.242 212.173 902.156 212.098 902.046 212.054Z" fill="white" fill-opacity="0.1"/>
<path d="M491.317 202.18C491.546 201.731 491.054 201.297 490.545 201.499C490.434 201.544 490.349 201.619 490.298 201.716C490.061 202.165 490.562 202.599 491.071 202.397C491.181 202.352 491.266 202.278 491.317 202.18Z" fill="white" fill-opacity="0.1"/>
<path d="M537.256 172.36C537.493 171.911 536.992 171.477 536.483 171.679C536.373 171.724 536.288 171.799 536.237 171.896C536.008 172.345 536.5 172.779 537.009 172.577C537.12 172.532 537.205 172.457 537.256 172.36Z" fill="white" fill-opacity="0.1"/>
<path d="M858.011 337.244C858.241 336.795 857.747 336.361 857.237 336.563C857.126 336.608 857.041 336.682 856.99 336.78C856.76 337.229 857.254 337.663 857.764 337.461C857.875 337.416 857.96 337.341 858.011 337.244Z" fill="white" fill-opacity="0.1"/>
<path d="M627.474 165.899C627.236 165.45 627.737 165.016 628.247 165.218C628.357 165.263 628.442 165.338 628.493 165.435C628.722 165.884 628.23 166.318 627.72 166.116C627.61 166.071 627.525 165.996 627.474 165.899Z" fill="white" fill-opacity="0.8"/>
<path d="M903.545 260.732C903.316 260.283 903.809 259.849 904.318 260.051C904.428 260.096 904.513 260.171 904.564 260.268C904.802 260.717 904.301 261.151 903.792 260.949C903.681 260.904 903.596 260.829 903.545 260.732Z" fill="white" fill-opacity="0.1"/>
<path d="M876.742 232.404C876.504 231.955 877.005 231.521 877.514 231.723C877.625 231.768 877.71 231.843 877.761 231.94C877.99 232.389 877.497 232.823 876.988 232.621C876.878 232.576 876.793 232.501 876.742 232.404Z" fill="white" fill-opacity="0.8"/>
<path d="M926.213 304.688C925.984 304.239 926.477 303.805 926.986 304.007C927.096 304.052 927.181 304.127 927.232 304.224C927.47 304.673 926.969 305.107 926.46 304.905C926.349 304.86 926.264 304.785 926.213 304.688Z" fill="white" fill-opacity="0.1"/>
<path d="M949.818 237.946C949.307 238.155 948.814 237.715 949.044 237.267C949.095 237.17 949.18 237.096 949.29 237.051C949.801 236.849 950.295 237.282 950.065 237.73C950.014 237.827 949.929 237.902 949.818 237.946Z" fill="white" fill-opacity="0.1"/>
<path d="M504.11 153.162C503.88 152.713 504.374 152.279 504.885 152.481C504.995 152.526 505.08 152.6 505.131 152.698C505.361 153.147 504.868 153.581 504.357 153.379C504.246 153.334 504.161 153.259 504.11 153.162Z" fill="white" fill-opacity="0.1"/>
<path d="M717.008 294.733C716.771 294.285 717.272 293.845 717.781 294.054C717.891 294.098 717.976 294.173 718.027 294.27C718.256 294.718 717.764 295.151 717.255 294.949C717.144 294.904 717.059 294.83 717.008 294.733Z" fill="white" fill-opacity="0.1"/>
<path d="M639.249 192.24C639.019 191.791 639.513 191.357 640.023 191.559C640.134 191.604 640.219 191.679 640.27 191.776C640.5 192.225 640.006 192.659 639.496 192.457C639.385 192.412 639.3 192.337 639.249 192.24Z" fill="white" fill-opacity="0.8"/>
<path d="M579.375 205.732C579.146 205.283 579.639 204.849 580.148 205.051C580.258 205.096 580.343 205.171 580.394 205.268C580.632 205.717 580.131 206.151 579.622 205.949C579.511 205.904 579.426 205.829 579.375 205.732Z" fill="white" fill-opacity="0.1"/>
<path d="M645.823 227.59C645.585 227.141 646.086 226.707 646.595 226.909C646.706 226.954 646.791 227.029 646.842 227.126C647.071 227.575 646.578 228.009 646.069 227.807C645.959 227.763 645.874 227.688 645.823 227.59Z" fill="white" fill-opacity="0.1"/>
<path d="M519.869 223.73C519.639 223.282 520.132 222.849 520.641 223.051C520.752 223.096 520.836 223.17 520.887 223.267C521.125 223.715 520.624 224.155 520.115 223.946C520.004 223.902 519.92 223.827 519.869 223.73Z" fill="white" fill-opacity="0.1"/>
<path d="M733.793 330.253C733.563 329.804 734.056 329.37 734.567 329.572C734.678 329.617 734.763 329.692 734.814 329.789C735.044 330.239 734.55 330.673 734.039 330.471C733.929 330.426 733.844 330.351 733.793 330.253Z" fill="white" fill-opacity="0.1"/>
<path d="M259.398 244.732C259.16 244.283 259.661 243.849 260.171 244.051C260.281 244.096 260.366 244.171 260.417 244.268C260.646 244.717 260.154 245.151 259.644 244.949C259.534 244.904 259.449 244.829 259.398 244.732Z" fill="white" fill-opacity="0.1"/>
<path d="M492.573 390.732C492.335 390.283 492.836 389.849 493.345 390.051C493.456 390.096 493.541 390.171 493.592 390.268C493.821 390.717 493.328 391.151 492.819 390.949C492.709 390.904 492.624 390.829 492.573 390.732Z" fill="white" fill-opacity="0.1"/>
<path d="M382.242 385.732C382.004 385.283 382.505 384.849 383.014 385.051C383.125 385.096 383.21 385.171 383.261 385.268C383.49 385.717 382.997 386.151 382.488 385.949C382.378 385.904 382.293 385.829 382.242 385.732Z" fill="white" fill-opacity="0.8"/>
<path d="M488.023 353.732C487.785 353.283 488.286 352.849 488.796 353.051C488.906 353.096 488.991 353.171 489.042 353.268C489.271 353.717 488.779 354.151 488.269 353.949C488.159 353.904 488.074 353.829 488.023 353.732Z" fill="white" fill-opacity="0.1"/>
<path d="M355.127 273.882C354.889 273.433 355.39 272.999 355.899 273.201C356.009 273.246 356.094 273.321 356.145 273.418C356.375 273.867 355.882 274.301 355.373 274.099C355.262 274.055 355.177 273.98 355.127 273.882Z" fill="white" fill-opacity="0.1"/>
<path d="M486.744 271.8C486.506 271.351 487.007 270.917 487.516 271.119C487.627 271.164 487.712 271.239 487.762 271.336C487.992 271.785 487.499 272.219 486.99 272.017C486.88 271.972 486.795 271.898 486.744 271.8Z" fill="white" fill-opacity="0.1"/>
<path d="M410.144 332.127C409.914 331.678 410.408 331.243 410.919 331.446C411.029 331.49 411.115 331.565 411.166 331.663C411.395 332.112 410.902 332.546 410.391 332.344C410.28 332.299 410.195 332.224 410.144 332.127Z" fill="white" fill-opacity="0.1"/>
<path d="M822.312 42.732C822.542 42.283 822.049 41.8489 821.54 42.051C821.429 42.0959 821.344 42.1707 821.294 42.268C821.056 42.717 821.557 43.1511 822.066 42.949C822.176 42.9041 822.261 42.8293 822.312 42.732Z" fill="white" fill-opacity="0.1"/>
<path d="M788.189 131.732C788.418 131.283 787.926 130.849 787.417 131.051C787.306 131.096 787.221 131.171 787.17 131.268C786.933 131.717 787.434 132.151 787.943 131.949C788.053 131.904 788.138 131.829 788.189 131.732Z" fill="white" fill-opacity="0.8"/>
<path d="M680.248 84.7086C680.018 84.2595 680.511 83.8255 681.02 84.0275C681.13 84.0724 681.215 84.1473 681.266 84.2446C681.504 84.6936 681.003 85.1277 680.494 84.9256C680.383 84.8807 680.298 84.8058 680.248 84.7086Z" fill="white" fill-opacity="0.1"/>
<path d="M772.978 88.5289C772.748 88.0798 773.242 87.6458 773.753 87.8478C773.863 87.8927 773.949 87.9676 774 88.0649C774.229 88.5139 773.736 88.948 773.225 88.7459C773.114 88.701 773.029 88.6262 772.978 88.5289Z" fill="white" fill-opacity="0.1"/>
<path d="M829.255 116.732C829.018 116.283 829.519 115.849 830.028 116.051C830.138 116.096 830.223 116.171 830.274 116.268C830.503 116.717 830.011 117.151 829.502 116.949C829.391 116.904 829.306 116.829 829.255 116.732Z" fill="white" fill-opacity="0.1"/>
<path d="M718.923 111.732C718.686 111.283 719.187 110.849 719.696 111.051C719.806 111.096 719.891 111.171 719.942 111.268C720.171 111.717 719.679 112.151 719.17 111.949C719.059 111.904 718.974 111.829 718.923 111.732Z" fill="white" fill-opacity="0.8"/>
<path d="M824.706 79.732C824.468 79.283 824.969 78.8489 825.478 79.051C825.589 79.0959 825.673 79.1707 825.724 79.268C825.954 79.717 825.461 80.1511 824.952 79.949C824.841 79.9041 824.757 79.8293 824.706 79.732Z" fill="white" fill-opacity="0.1"/>
<path d="M746.827 58.1265C746.597 57.6775 747.091 57.2434 747.601 57.4455C747.712 57.4904 747.797 57.5652 747.848 57.6625C748.078 58.1116 747.584 58.5456 747.074 58.3436C746.963 58.2987 746.878 58.2238 746.827 58.1265Z" fill="white" fill-opacity="0.1"/>
<path d="M226.709 314.265C226.479 313.816 226.972 313.382 227.483 313.584C227.594 313.629 227.679 313.704 227.73 313.801C227.96 314.25 227.466 314.684 226.955 314.482C226.845 314.437 226.76 314.362 226.709 314.265Z" fill="white" fill-opacity="0.8"/>
<path d="M94.4655 77.732C94.2356 77.283 94.7293 76.8489 95.2401 77.051C95.3507 77.0959 95.4359 77.1707 95.4869 77.268C95.7168 77.717 95.2231 78.1511 94.7123 77.949C94.6017 77.9041 94.5165 77.8293 94.4655 77.732Z" fill="white" fill-opacity="0.1"/>
<path d="M370.622 27.7134C370.392 27.2656 370.885 26.8327 371.394 27.0342C371.504 27.079 371.589 27.1537 371.64 27.2507C371.878 27.6985 371.377 28.1389 370.868 27.9299C370.757 27.8851 370.672 27.8105 370.622 27.7134Z" fill="white" fill-opacity="0.1"/>
<path d="M248.507 9.15973C248.278 8.7107 248.771 8.27664 249.282 8.47871C249.393 8.52361 249.478 8.59844 249.529 8.69573C249.759 9.14476 249.265 9.57883 248.754 9.37676C248.644 9.33186 248.559 9.25702 248.507 9.15973Z" fill="white" fill-opacity="0.1"/>
<path d="M248.023 48.732C247.785 48.283 248.286 47.8489 248.796 48.051C248.906 48.0959 248.991 48.1707 249.042 48.268C249.271 48.717 248.779 49.1511 248.269 48.949C248.159 48.9041 248.074 48.8293 248.023 48.732Z" fill="white" fill-opacity="0.1"/>
<path d="M436.838 55.732C436.601 55.283 437.102 54.8489 437.611 55.051C437.721 55.0959 437.806 55.1707 437.857 55.268C438.086 55.717 437.594 56.1511 437.085 55.949C436.974 55.9041 436.889 55.8293 436.838 55.732Z" fill="white" fill-opacity="0.1"/>
<path d="M144.513 144.732C144.283 144.283 144.777 143.849 145.288 144.051C145.399 144.096 145.484 144.171 145.535 144.268C145.765 144.717 145.271 145.151 144.76 144.949C144.65 144.904 144.564 144.829 144.513 144.732Z" fill="white" fill-opacity="0.1"/>
<path d="M85.0464 132.169C84.8171 131.72 85.3095 131.286 85.8189 131.488C85.9293 131.533 86.0142 131.608 86.0651 131.705C86.3028 132.155 85.8019 132.589 85.2925 132.387C85.1822 132.342 85.0973 132.267 85.0464 132.169Z" fill="white" fill-opacity="0.1"/>
<path d="M338.493 544.993L404.493 478.993" stroke="url(#paint0_linear_9703_20961)" stroke-opacity="0.08" stroke-linecap="round"/>
<path d="M44.4932 653.993L153.493 544.993" stroke="url(#paint1_linear_9703_20961)" stroke-opacity="0.08" stroke-linecap="round"/>
<circle cx="433.5" cy="438" r="3" fill="white" fill-opacity="0.08"/>
<circle cx="294.5" cy="656" r="3" fill="white" fill-opacity="0.08"/>
<circle cx="105.5" cy="653" r="3" fill="white" fill-opacity="0.08"/>
<circle cx="223.5" cy="411" r="3" fill="white" fill-opacity="0.08"/>
<path d="M295.493 187.993L404.493 78.9931" stroke="url(#paint2_linear_9703_20961)" stroke-opacity="0.08" stroke-linecap="round"/>
<path d="M84.4932 293.993L193.493 184.993" stroke="url(#paint3_linear_9703_20961)" stroke-opacity="0.08" stroke-linecap="round"/>
<circle cx="473.5" cy="78" r="3" fill="white" fill-opacity="0.08"/>
<circle cx="334.5" cy="296" r="3" fill="white" fill-opacity="0.08"/>
<circle cx="145.5" cy="293" r="3" fill="white" fill-opacity="0.08"/>
<circle cx="263.5" cy="51" r="3" fill="white" fill-opacity="0.08"/>
</g>
<defs>
<linearGradient id="paint0_linear_9703_20961" x1="338.847" y1="545.347" x2="404.847" y2="479.347" gradientUnits="userSpaceOnUse">
<stop stop-color="white"/>
<stop offset="1" stop-color="white" stop-opacity="0"/>
</linearGradient>
<linearGradient id="paint1_linear_9703_20961" x1="44.8467" y1="654.347" x2="153.847" y2="545.347" gradientUnits="userSpaceOnUse">
<stop stop-color="white"/>
<stop offset="1" stop-color="white" stop-opacity="0"/>
</linearGradient>
<linearGradient id="paint2_linear_9703_20961" x1="295.847" y1="188.347" x2="404.847" y2="79.3467" gradientUnits="userSpaceOnUse">
<stop stop-color="white"/>
<stop offset="1" stop-color="white" stop-opacity="0"/>
</linearGradient>
<linearGradient id="paint3_linear_9703_20961" x1="84.8467" y1="294.347" x2="193.847" y2="185.347" gradientUnits="userSpaceOnUse">
<stop stop-color="white"/>
<stop offset="1" stop-color="white" stop-opacity="0"/>
</linearGradient>
<clipPath id="clip0_9703_20961">
<rect width="968" height="704" fill="white"/>
</clipPath>
</defs>
</svg>
