<svg width="20" height="20" viewBox="0 0 20 20" fill="none" xmlns="http://www.w3.org/2000/svg">
<path d="M0.406288 19.5927C0.27749 19.4641 0.175312 19.3113 0.105598 19.1432C0.0358835 18.975 0 18.7948 0 18.6128C0 18.4308 0.0358835 18.2505 0.105598 18.0824C0.175312 17.9142 0.27749 17.7615 0.406288 17.6328L3.34509 14.695L1.38522 12.7352C1.12533 12.4753 0.979321 12.1228 0.979321 11.7552C0.979321 11.3877 1.12533 11.0352 1.38522 10.7753C1.64512 10.5154 1.99761 10.3694 2.36516 10.3694C2.73271 10.3694 3.0852 10.5154 3.34509 10.7753L9.22271 16.6539C9.4826 16.9138 9.62861 17.2663 9.62861 17.6338C9.62861 18.0014 9.4826 18.3539 9.22271 18.6138C8.96281 18.8737 8.61032 19.0197 8.24277 19.0197C7.87523 19.0197 7.52273 18.8737 7.26284 18.6138L5.30397 16.6539L2.36516 19.5937C2.23653 19.7225 2.08378 19.8247 1.91563 19.8944C1.74749 19.9641 1.56725 20 1.38522 20C1.2032 20 1.02296 19.9641 0.854813 19.8944C0.686666 19.8247 0.533913 19.7225 0.405288 19.5937L0.406288 19.5927ZM18.9991 0H16.4942C16.2291 5.66337e-05 15.9748 0.105444 15.7873 0.292981L5.73794 10.3423L9.65768 14.2601L19.707 4.21072C19.8939 4.02332 19.9989 3.76946 19.999 3.50477V0.999934C19.999 0.734735 19.8937 0.480398 19.7061 0.292874C19.5186 0.10535 19.2643 0 18.9991 0ZM16.6542 14.695L18.6141 12.7352C18.874 12.4753 19.02 12.1228 19.02 11.7552C19.02 11.3877 18.874 11.0352 18.6141 10.7753C18.3542 10.5154 18.0017 10.3694 17.6342 10.3694C17.2666 10.3694 16.9141 10.5154 16.6542 10.7753L10.7766 16.6539C10.6479 16.7826 10.5458 16.9354 10.4762 17.1035C10.4065 17.2716 10.3707 17.4519 10.3707 17.6338C10.3707 17.8158 10.4065 17.996 10.4762 18.1642C10.5458 18.3323 10.6479 18.4851 10.7766 18.6138C10.9053 18.7425 11.0581 18.8445 11.2262 18.9142C11.3943 18.9838 11.5746 19.0197 11.7565 19.0197C11.9385 19.0197 12.1187 18.9838 12.2869 18.9142C12.455 18.8445 12.6078 18.7425 12.7365 18.6138L14.6953 16.6539L17.6342 19.5937C17.8941 19.8536 18.2465 19.9996 18.6141 19.9996C18.9816 19.9996 19.3341 19.8536 19.594 19.5937C19.8539 19.3338 19.9999 18.9813 19.9999 18.6138C19.9999 18.2462 19.8539 17.8937 19.594 17.6338L16.6542 14.695ZM3.50508 0H1.00025C0.73505 0 0.480713 0.10535 0.293189 0.292874C0.105665 0.480398 0.000314692 0.734735 0.000314692 0.999934V3.50477C0.000371326 3.76995 0.105758 4.02424 0.293295 4.21172L4.66801 8.58544L8.58575 4.66669L4.21204 0.292981C4.02456 0.105444 3.77026 5.66337e-05 3.50508 0Z" fill="#9DABBD"/>
</svg>
