<svg width="20" height="20" viewBox="0 0 20 20" fill="none" xmlns="http://www.w3.org/2000/svg">
<path fill-rule="evenodd" clip-rule="evenodd" d="M10.0002 2.29163C9.65498 2.29163 9.37516 2.57145 9.37516 2.91663C9.37516 3.2618 9.65498 3.54163 10.0002 3.54163C10.3453 3.54163 10.6252 3.2618 10.6252 2.91663C10.6252 2.57145 10.3453 2.29163 10.0002 2.29163ZM11.7673 3.54484C11.8372 3.34844 11.8752 3.13697 11.8752 2.91663C11.8752 1.88109 11.0357 1.04163 10.0002 1.04163C8.96463 1.04163 8.12516 1.88109 8.12516 2.91663C8.12516 3.13697 8.16317 3.34844 8.23299 3.54484C7.00305 3.60051 5.91441 4.37567 5.46375 5.53092L5.45181 5.56151L3.83674 11.4667C3.76771 11.6316 3.66248 11.779 3.52871 11.8979L3.41368 12.0001C2.96514 12.3988 2.7085 12.9703 2.7085 13.5705C2.7085 14.7308 3.64917 15.6715 4.80954 15.6715H15.1908C16.3512 15.6715 17.2918 14.7308 17.2918 13.5705C17.2918 12.9703 17.0352 12.3988 16.5866 12.0001L16.4716 11.8979C16.3378 11.779 16.2326 11.6316 16.1636 11.4667L14.5485 5.56151L14.5366 5.53092C14.0859 4.37566 12.9973 3.60051 11.7673 3.54484ZM8.37507 4.79163C7.61269 4.79163 6.92733 5.25307 6.63959 5.95688L5.02422 11.8632L5.01229 11.8938C4.87184 12.2538 4.64801 12.5754 4.35917 12.8321L4.24414 12.9344C4.06245 13.0959 3.9585 13.3274 3.9585 13.5705C3.9585 14.0405 4.33952 14.4215 4.80954 14.4215H15.1908C15.6608 14.4215 16.0418 14.0405 16.0418 13.5705C16.0418 13.3274 15.9379 13.0959 15.7562 12.9344L15.6412 12.8321C15.3523 12.5754 15.1285 12.2538 14.988 11.8938L14.9761 11.8632L13.3607 5.95688C13.073 5.25307 12.3876 4.79163 11.6253 4.79163H8.37507ZM7.24872 16.5707C7.53183 16.3732 7.92142 16.4426 8.1189 16.7257C8.53408 17.321 9.22194 17.7083 10.0002 17.7083C10.7784 17.7083 11.4662 17.321 11.8814 16.7257C12.0789 16.4426 12.4685 16.3732 12.7516 16.5707C13.0347 16.7682 13.1041 17.1577 12.9067 17.4409C12.2677 18.3569 11.2042 18.9583 10.0002 18.9583C8.7961 18.9583 7.7326 18.3569 7.09367 17.4409C6.89619 17.1577 6.96561 16.7682 7.24872 16.5707Z" fill="#7F8D9F"/>
</svg>
