<svg width="72" height="72" viewBox="0 0 72 72" fill="none" xmlns="http://www.w3.org/2000/svg">
<path d="M32.4583 41.4217C32.4583 39.4255 34.044 37.8072 36 37.8072C37.956 37.8072 39.5417 39.4255 39.5417 41.4217C39.5417 43.4179 37.956 45.0361 36 45.0361C34.044 45.0361 32.4583 43.4179 32.4583 41.4217Z" fill="white"/>
<path fill-rule="evenodd" clip-rule="evenodd" d="M22.5417 19.7349C22.5417 12.1493 28.5672 6 36 6C43.4328 6 49.4583 12.1493 49.4583 19.7349V22.6265C53.2033 22.6377 55.2509 22.7358 56.8589 23.572C58.4583 24.4037 59.7586 25.7307 60.5736 27.363C61.5 29.2186 61.5 31.6477 61.5 36.506V52.1205C61.5 56.9788 61.5 59.4079 60.5736 61.2635C59.7586 62.8958 58.4583 64.2228 56.8589 65.0545C55.0407 66 52.6604 66 47.9 66H24.1C19.3396 66 16.9593 66 15.1411 65.0545C13.5417 64.2228 12.2414 62.8958 11.4264 61.2635C10.5 59.4079 10.5 56.9788 10.5 52.1205V36.506C10.5 31.6477 10.5 29.2186 11.4264 27.363C12.2414 25.7307 13.5417 24.4037 15.1411 23.572C16.7491 22.7358 18.7967 22.6391 22.5417 22.628V19.7349ZM45.2083 19.7349V22.6265H26.7917V19.7349C26.7917 14.5448 30.9144 10.3373 36 10.3373C41.0856 10.3373 45.2083 14.5448 45.2083 19.7349ZM36 33.4699C31.6968 33.4699 28.2083 37.03 28.2083 41.4217C28.2083 45.0615 30.6046 48.1302 33.875 49.0742V52.988C33.875 54.1857 34.8264 55.1566 36 55.1566C37.1736 55.1566 38.125 54.1857 38.125 52.988V49.0742C41.3954 48.1302 43.7917 45.0615 43.7917 41.4217C43.7917 37.03 40.3032 33.4699 36 33.4699Z" fill="white"/>
</svg>
