<svg width="20" height="20" viewBox="0 0 20 20" fill="none" xmlns="http://www.w3.org/2000/svg">
<path fill-rule="evenodd" clip-rule="evenodd" d="M8.15354 3.54175C7.47922 3.54175 6.86277 3.92273 6.56121 4.52586C6.10151 5.44525 5.20709 6.06892 4.18548 6.18243L4.06836 6.19544C3.96144 6.20732 3.92403 6.21158 3.89375 6.21604C2.99865 6.34789 2.32538 7.10012 2.29318 8.0043C2.29209 8.03489 2.29199 8.07253 2.29199 8.18012V13.0834C2.29199 13.7938 2.29248 14.289 2.32398 14.6745C2.35488 15.0527 2.41249 15.2701 2.49636 15.4346C2.67612 15.7875 2.96296 16.0743 3.31576 16.2541C3.48036 16.3379 3.69766 16.3955 4.07589 16.4264C4.46142 16.4579 4.95661 16.4584 5.66699 16.4584H14.3337C15.044 16.4584 15.5392 16.4579 15.9248 16.4264C16.303 16.3955 16.5203 16.3379 16.6849 16.2541C17.0377 16.0743 17.3245 15.7875 17.5043 15.4346C17.5882 15.2701 17.6458 15.0527 17.6767 14.6745C17.7082 14.289 17.7087 13.7938 17.7087 13.0834V8.18012C17.7087 8.07253 17.7086 8.03488 17.7075 8.0043C17.6753 7.10012 17.002 6.34789 16.1069 6.21604C16.0766 6.21158 16.0392 6.20732 15.9323 6.19544L15.8152 6.18243C14.7936 6.06892 13.8991 5.44525 13.4394 4.52586C13.1379 3.92273 12.5214 3.54175 11.8471 3.54175H8.15354ZM5.44317 3.96685C5.95648 2.94024 7.00575 2.29175 8.15354 2.29175H11.8471C12.9949 2.29175 14.0442 2.94024 14.5575 3.96685C14.8275 4.50698 15.353 4.87339 15.9532 4.94007L16.0829 4.95448C16.1726 4.96444 16.2338 4.97125 16.2891 4.97938C17.7809 5.19913 18.903 6.45285 18.9567 7.95981C18.9587 8.0156 18.9587 8.07723 18.9587 8.16749V13.1102C18.9587 13.7875 18.9587 14.3339 18.9225 14.7763C18.8853 15.2318 18.8067 15.632 18.6181 16.0021C18.3184 16.5901 17.8404 17.0682 17.2524 17.3678C16.8822 17.5564 16.4821 17.6351 16.0265 17.6723C15.5841 17.7084 15.0378 17.7084 14.3604 17.7084H5.64022C4.96286 17.7084 4.41652 17.7084 3.9741 17.6723C3.51857 17.6351 3.11845 17.5564 2.74827 17.3678C2.16027 17.0682 1.6822 16.5901 1.3826 16.0021C1.19398 15.632 1.11535 15.2318 1.07813 14.7763C1.04198 14.3339 1.04199 13.7875 1.04199 13.1102L1.04199 8.16751C1.04199 8.07724 1.04199 8.0156 1.04397 7.95981C1.09763 6.45285 2.21976 5.19913 3.71159 4.97938C3.76682 4.97125 3.82809 4.96444 3.91782 4.95448L4.04744 4.94007C4.64764 4.87339 5.1731 4.50698 5.44317 3.96685ZM13.542 7.91675C13.542 7.57157 13.8218 7.29175 14.167 7.29175H15.0003C15.3455 7.29175 15.6253 7.57157 15.6253 7.91675C15.6253 8.26193 15.3455 8.54175 15.0003 8.54175H14.167C13.8218 8.54175 13.542 8.26193 13.542 7.91675ZM6.45866 11.2501C6.45866 9.29849 8.04874 7.70842 10.0003 7.70842C11.9519 7.70842 13.542 9.29849 13.542 11.2501C13.542 13.2017 11.9519 14.7917 10.0003 14.7917C8.04874 14.7917 6.45866 13.2017 6.45866 11.2501ZM10.0003 8.95842C8.73909 8.95842 7.70866 9.98885 7.70866 11.2501C7.70866 12.5113 8.73909 13.5417 10.0003 13.5417C11.2616 13.5417 12.292 12.5113 12.292 11.2501C12.292 9.98885 11.2616 8.95842 10.0003 8.95842Z" fill="#9DABBD"/>
</svg>
