<svg width="21" height="20" viewBox="0 0 21 20" fill="none" xmlns="http://www.w3.org/2000/svg">
<path d="M20.0157 7.21092L17.2169 2.85718H15.1377L17.6255 7.21092H20.0157ZM18.1406 5.75967C18.2123 5.75967 18.2825 5.78095 18.3422 5.82082C18.4018 5.86068 18.4483 5.91735 18.4758 5.98364C18.5032 6.04994 18.5104 6.12289 18.4964 6.19327C18.4824 6.26364 18.4479 6.32829 18.3971 6.37903C18.3464 6.42977 18.2817 6.46432 18.2114 6.47832C18.141 6.49232 18.068 6.48514 18.0017 6.45768C17.9355 6.43022 17.8788 6.38372 17.8389 6.32405C17.7991 6.26439 17.7778 6.19424 17.7778 6.12248C17.7778 6.02626 17.816 5.93398 17.884 5.86594C17.9521 5.7979 18.0444 5.75967 18.1406 5.75967ZM16.6893 4.30842C16.6176 4.30842 16.5474 4.28715 16.4878 4.24728C16.4281 4.20741 16.3816 4.15075 16.3541 4.08446C16.3267 4.01816 16.3195 3.94521 16.3335 3.87483C16.3475 3.80445 16.3821 3.73981 16.4328 3.68907C16.4835 3.63833 16.5482 3.60377 16.6186 3.58977C16.6889 3.57577 16.7619 3.58296 16.8282 3.61042C16.8945 3.63788 16.9511 3.68438 16.991 3.74405C17.0309 3.80371 17.0522 3.87386 17.0522 3.94561C17.0522 4.04184 17.0139 4.13412 16.9459 4.20216C16.8778 4.2702 16.7856 4.30842 16.6893 4.30842ZM14.3019 2.85718H11.9728V7.21092H16.7898L14.3019 2.85718ZM8.34467 7.21092V2.85718H6.01551L3.52766 7.21092H8.34467ZM0 10.1134H2.90249V18.0953H0V10.1134ZM5.17982 2.85718H3.10059L0.301723 7.21092H2.69197L5.17982 2.85718ZM3.62812 3.5828C3.69988 3.5828 3.77002 3.60408 3.82969 3.64395C3.88935 3.68381 3.93585 3.74048 3.96331 3.80677C3.99077 3.87307 3.99796 3.94602 3.98396 4.01639C3.96996 4.08677 3.9354 4.15142 3.88466 4.20216C3.83392 4.2529 3.76928 4.28745 3.6989 4.30145C3.62852 4.31545 3.55557 4.30827 3.48928 4.28081C3.42298 4.25335 3.36632 4.20684 3.32645 4.14718C3.28658 4.08752 3.26531 4.01737 3.26531 3.94561C3.26531 3.84939 3.30353 3.75711 3.37157 3.68907C3.43961 3.62103 3.53189 3.5828 3.62812 3.5828ZM2.17687 6.4853C2.10511 6.4853 2.03497 6.46402 1.9753 6.42415C1.91564 6.38428 1.86914 6.32762 1.84168 6.26133C1.81422 6.19503 1.80703 6.12208 1.82103 6.0517C1.83503 5.98132 1.86958 5.91668 1.92032 5.86594C1.97106 5.8152 2.03571 5.78064 2.10609 5.76664C2.17647 5.75264 2.24942 5.75983 2.31571 5.78729C2.38201 5.81475 2.43867 5.86125 2.47854 5.92092C2.5184 5.98058 2.53968 6.05073 2.53968 6.12248C2.53968 6.21871 2.50146 6.31099 2.43342 6.37903C2.36538 6.44707 2.27309 6.4853 2.17687 6.4853ZM11.2472 2.85718H9.0703V7.21092H11.2472V2.85718ZM10.1587 6.4853C10.087 6.4853 10.0168 6.46402 9.95716 6.42415C9.8975 6.38428 9.851 6.32762 9.82354 6.26133C9.79608 6.19503 9.78889 6.12208 9.80289 6.0517C9.81689 5.98132 9.85144 5.91668 9.90218 5.86594C9.95292 5.8152 10.0176 5.78064 10.0879 5.76664C10.1583 5.75264 10.2313 5.75983 10.2976 5.78729C10.3639 5.81475 10.4205 5.86125 10.4604 5.92092C10.5003 5.98058 10.5215 6.05073 10.5215 6.12248C10.5215 6.21871 10.4833 6.31099 10.4153 6.37903C10.3472 6.44707 10.255 6.4853 10.1587 6.4853ZM10.1587 4.30842C10.087 4.30842 10.0168 4.28715 9.95716 4.24728C9.8975 4.20741 9.851 4.15075 9.82354 4.08446C9.79608 4.01816 9.78889 3.94521 9.80289 3.87483C9.81689 3.80445 9.85144 3.73981 9.90218 3.68907C9.95292 3.63833 10.0176 3.60377 10.0879 3.58977C10.1583 3.57577 10.2313 3.58296 10.2976 3.61042C10.3639 3.63788 10.4205 3.68438 10.4604 3.74405C10.5003 3.80371 10.5215 3.87386 10.5215 3.94561C10.5215 4.04184 10.4833 4.13412 10.4153 4.20216C10.3472 4.2702 10.255 4.30842 10.1587 4.30842ZM5.44218 14.1043C5.44255 13.3069 5.64506 12.5226 6.0308 11.8247C6.41654 11.1267 6.97292 10.538 7.64794 10.1134H3.62812V18.0953H7.64794C6.97292 17.6707 6.41654 17.082 6.0308 16.384C5.64506 15.6861 5.44255 14.9018 5.44218 14.1043ZM17.415 10.1134H20.3175V18.0953H17.415V10.1134ZM0 7.93654H20.3175V9.38779H0V7.93654Z" fill="#9DABBD"/>
<path d="M14.1498 14.1042C14.1498 13.3149 13.9158 12.5433 13.4772 11.887C13.0387 11.2307 12.4154 10.7191 11.6862 10.4171C10.9569 10.115 10.1545 10.036 9.38031 10.19C8.60614 10.344 7.89503 10.7241 7.33689 11.2822C6.77874 11.8403 6.39865 12.5515 6.24466 13.3256C6.09066 14.0998 6.1697 14.9022 6.47176 15.6315C6.77383 16.3607 7.28535 16.984 7.94166 17.4225C8.59796 17.8611 9.36957 18.0951 10.1589 18.0951C11.217 18.0939 12.2314 17.6731 12.9796 16.9249C13.7278 16.1767 14.1486 15.1623 14.1498 14.1042ZM12.3098 16.1463C12.338 16.2169 12.3434 16.2945 12.3252 16.3682C12.3069 16.4419 12.266 16.5081 12.2082 16.5573C12.1504 16.6066 12.0786 16.6364 12.0029 16.6427C11.9272 16.6489 11.8514 16.6313 11.7863 16.5922L10.1589 15.6157L8.53151 16.5922C8.46638 16.6313 8.39063 16.6489 8.31494 16.6427C8.23924 16.6364 8.16742 16.6066 8.1096 16.5573C8.05177 16.5081 8.01086 16.4419 7.99263 16.3682C7.9744 16.2945 7.97976 16.2169 8.00797 16.1463L8.64475 14.5545L7.36266 13.2724C7.31189 13.2217 7.27731 13.157 7.26329 13.0866C7.24927 13.0162 7.25645 12.9433 7.28391 12.877C7.31138 12.8106 7.3579 12.754 7.41758 12.7141C7.47727 12.6742 7.54744 12.6529 7.61922 12.653H9.18765L9.82203 11.067C9.84896 10.9996 9.89544 10.9419 9.95549 10.9013C10.0155 10.8606 10.0864 10.8389 10.1589 10.8389C10.2314 10.8389 10.3023 10.8606 10.3623 10.9013C10.4224 10.9419 10.4688 10.9996 10.4958 11.067L11.1301 12.653H12.6986C12.7703 12.653 12.8405 12.6742 12.9002 12.7141C12.9598 12.754 13.0063 12.8106 13.0338 12.8769C13.0613 12.9432 13.0684 13.0162 13.0544 13.0866C13.0404 13.1569 13.0059 13.2216 12.9551 13.2723L11.673 14.5544L12.3098 16.1463Z" fill="#9DABBD"/>
<path d="M14.8754 14.1042C14.8751 14.9016 14.6725 15.686 14.2868 16.3839C13.9011 17.0818 13.3447 17.6706 12.6697 18.0951H16.6895V10.1133H12.6697C13.3447 10.5378 13.9011 11.1266 14.2868 11.8245C14.6725 12.5225 14.8751 13.3068 14.8754 14.1042ZM10.5476 13.1505L10.1589 12.1786L9.77013 13.1505C9.7432 13.2178 9.69671 13.2756 9.63667 13.3162C9.57662 13.3569 9.50577 13.3786 9.43326 13.3786H8.49512L9.327 14.2105C9.37721 14.2607 9.41158 14.3245 9.42586 14.3941C9.44013 14.4636 9.43369 14.5358 9.40732 14.6018L9.08169 15.4159L9.97222 14.8815C10.0286 14.8477 10.0931 14.8298 10.1589 14.8298C10.2246 14.8298 10.2892 14.8477 10.3455 14.8815L11.2361 15.4159L10.9104 14.6018C10.8841 14.5358 10.8776 14.4636 10.8919 14.3941C10.9062 14.3245 10.9406 14.2607 10.9908 14.2105L11.8227 13.3786H10.8845C10.812 13.3786 10.7411 13.3569 10.6811 13.3162C10.6211 13.2756 10.5746 13.2178 10.5476 13.1505Z" fill="#9DABBD"/>
</svg>
