<svg width="18" height="17" viewBox="0 0 18 17" fill="none" xmlns="http://www.w3.org/2000/svg">
<path d="M4.00033 6.99992C5.84127 6.99992 7.33366 5.50753 7.33366 3.66659C7.33366 1.82564 5.84127 0.333252 4.00033 0.333252C2.15938 0.333252 0.666992 1.82564 0.666992 3.66659C0.666992 5.50753 2.15938 6.99992 4.00033 6.99992Z" fill="#616F81"/>
<path d="M4.00033 16.9999C5.84127 16.9999 7.33366 15.5075 7.33366 13.6666C7.33366 11.8256 5.84127 10.3333 4.00033 10.3333C2.15938 10.3333 0.666992 11.8256 0.666992 13.6666C0.666992 15.5075 2.15938 16.9999 4.00033 16.9999Z" fill="#616F81"/>
<path d="M14.0003 6.99992C15.8413 6.99992 17.3337 5.50753 17.3337 3.66659C17.3337 1.82564 15.8413 0.333252 14.0003 0.333252C12.1594 0.333252 10.667 1.82564 10.667 3.66659C10.667 5.50753 12.1594 6.99992 14.0003 6.99992Z" fill="#616F81"/>
<path d="M14.0003 16.9999C15.8413 16.9999 17.3337 15.5075 17.3337 13.6666C17.3337 11.8256 15.8413 10.3333 14.0003 10.3333C12.1594 10.3333 10.667 11.8256 10.667 13.6666C10.667 15.5075 12.1594 16.9999 14.0003 16.9999Z" fill="#616F81"/>
</svg>
