<svg width="20" height="20" viewBox="0 0 20 20" fill="none" xmlns="http://www.w3.org/2000/svg">
<path d="M4.99984 8.33329C6.84079 8.33329 8.33317 6.84091 8.33317 4.99996C8.33317 3.15901 6.84079 1.66663 4.99984 1.66663C3.15889 1.66663 1.6665 3.15901 1.6665 4.99996C1.6665 6.84091 3.15889 8.33329 4.99984 8.33329Z" fill="white"/>
<path d="M4.99984 18.3333C6.84079 18.3333 8.33317 16.8409 8.33317 15C8.33317 13.159 6.84079 11.6666 4.99984 11.6666C3.15889 11.6666 1.6665 13.159 1.6665 15C1.6665 16.8409 3.15889 18.3333 4.99984 18.3333Z" fill="white"/>
<path d="M14.9998 8.33329C16.8408 8.33329 18.3332 6.84091 18.3332 4.99996C18.3332 3.15901 16.8408 1.66663 14.9998 1.66663C13.1589 1.66663 11.6665 3.15901 11.6665 4.99996C11.6665 6.84091 13.1589 8.33329 14.9998 8.33329Z" fill="white"/>
<path d="M14.9998 18.3333C16.8408 18.3333 18.3332 16.8409 18.3332 15C18.3332 13.159 16.8408 11.6666 14.9998 11.6666C13.1589 11.6666 11.6665 13.159 11.6665 15C11.6665 16.8409 13.1589 18.3333 14.9998 18.3333Z" fill="white"/>
</svg>
