<svg width="20" height="20" viewBox="0 0 20 20" fill="none" xmlns="http://www.w3.org/2000/svg">
<path fill-rule="evenodd" clip-rule="evenodd" d="M10.0003 2.29163C5.74313 2.29163 2.29199 5.74276 2.29199 9.99996C2.29199 14.2572 5.74313 17.7083 10.0003 17.7083C14.2575 17.7083 17.7087 14.2572 17.7087 9.99996C17.7087 5.74276 14.2575 2.29163 10.0003 2.29163ZM1.04199 9.99996C1.04199 5.05241 5.05277 1.04163 10.0003 1.04163C14.9479 1.04163 18.9587 5.05241 18.9587 9.99996C18.9587 14.9475 14.9479 18.9583 10.0003 18.9583C5.05277 18.9583 1.04199 14.9475 1.04199 9.99996ZM13.893 6.9912C14.1484 7.22339 14.1672 7.61867 13.935 7.87408L9.44447 12.8137C9.11979 13.1708 8.55681 13.1667 8.23747 12.8047L6.05945 10.3363C5.83108 10.0775 5.85576 9.68253 6.11459 9.45415C6.37342 9.22577 6.76838 9.25046 6.99675 9.50928L8.84987 11.6095L13.0101 7.03324C13.2423 6.77783 13.6376 6.75901 13.893 6.9912Z" fill="#80BD29"/>
</svg>
