<svg width="16" height="16" viewBox="0 0 16 16" fill="none" xmlns="http://www.w3.org/2000/svg">
<path d="M5.91227 6.31883C6.02528 6.23802 6.16785 6.16906 6.33268 6.1217V7.43497C6.16785 7.38761 6.02528 7.31865 5.91227 7.23784C5.69546 7.08278 5.61971 6.91349 5.61971 6.77834C5.61971 6.64318 5.69546 6.47389 5.91227 6.31883Z" fill="#9DABBD"/>
<path d="M7.75308 9.68784C7.64008 9.76865 7.4975 9.83761 7.33268 9.88497V8.5717C7.4975 8.61906 7.64008 8.68802 7.75308 8.76883C7.9699 8.92389 8.04565 9.09318 8.04565 9.22834C8.04565 9.36349 7.9699 9.53278 7.75308 9.68784Z" fill="#9DABBD"/>
<path fill-rule="evenodd" clip-rule="evenodd" d="M12.333 8C12.333 11.0376 9.87057 13.5 6.83301 13.5C3.79544 13.5 1.33301 11.0376 1.33301 8C1.33301 4.96243 3.79544 2.5 6.83301 2.5C9.87057 2.5 12.333 4.96243 12.333 8ZM7.33268 4.67833C7.33268 4.40219 7.10882 4.17833 6.83268 4.17833C6.55654 4.17833 6.33268 4.40219 6.33268 4.67833V5.09683C5.95771 5.16318 5.61279 5.30361 5.33058 5.50543C4.92743 5.79373 4.61971 6.23694 4.61971 6.77834C4.61971 7.31973 4.92743 7.76294 5.33058 8.05124C5.61279 8.25306 5.95771 8.39349 6.33268 8.45984V9.88497C6.16785 9.83761 6.02528 9.76865 5.91227 9.68784C5.69546 9.53278 5.61971 9.36349 5.61971 9.22834C5.61971 8.95219 5.39585 8.72834 5.11971 8.72834C4.84357 8.72834 4.61971 8.95219 4.61971 9.22834C4.61971 9.76973 4.92743 10.2129 5.33058 10.5012C5.61279 10.7031 5.95771 10.8435 6.33268 10.9098V11.3283C6.33268 11.6045 6.55654 11.8283 6.83268 11.8283C7.10882 11.8283 7.33268 11.6045 7.33268 11.3283V10.9098C7.70765 10.8435 8.05257 10.7031 8.33478 10.5012C8.73793 10.2129 9.04565 9.76973 9.04565 9.22834C9.04565 8.68694 8.73793 8.24373 8.33478 7.95543C8.05257 7.75361 7.70765 7.61318 7.33268 7.54683V6.1217C7.4975 6.16906 7.64008 6.23802 7.75308 6.31883C7.9699 6.47389 8.04565 6.64318 8.04565 6.77834C8.04565 7.05448 8.2695 7.27834 8.54565 7.27834C8.82179 7.27834 9.04565 7.05448 9.04565 6.77834C9.04565 6.23694 8.73793 5.79373 8.33478 5.50543C8.05257 5.30361 7.70765 5.16318 7.33268 5.09683V4.67833Z" fill="#9DABBD"/>
<path d="M13.4303 4.53576C13.2549 4.32247 12.9398 4.29175 12.7265 4.46714C12.5132 4.64253 12.4825 4.95762 12.6579 5.17091C12.741 5.27191 12.8197 5.3768 12.8937 5.48527C13.3803 6.19793 13.6664 7.06533 13.6664 8.00333C13.6664 8.94134 13.3803 9.80873 12.8937 10.5214C12.8197 10.6299 12.741 10.7348 12.6579 10.8358C12.4825 11.049 12.5132 11.3641 12.7265 11.5395C12.9398 11.7149 13.2549 11.6842 13.4303 11.4709C13.5322 11.347 13.6288 11.2183 13.7196 11.0853C14.3168 10.2106 14.6664 9.14747 14.6664 8.00333C14.6664 6.85919 14.3168 5.7961 13.7196 4.9214C13.6288 4.78837 13.5322 4.6597 13.4303 4.53576Z" fill="#9DABBD"/>
</svg>
