<svg width="20" height="21" viewBox="0 0 20 21" fill="none" xmlns="http://www.w3.org/2000/svg">
<path d="M20 10.0336C20 15.5564 15.5229 20.0336 10 20.0336C7.08857 20.0336 4.46775 18.7895 2.64041 16.8038C2.15897 16.2808 1.73441 15.7082 1.37388 15.0956C0.500816 13.6107 0 11.8805 0 10.0336C0 4.51071 4.47714 0.0335693 10 0.0335693C11.8473 0.0335693 13.5775 0.534386 15.062 1.40785C15.6747 1.76812 16.2472 2.1927 16.7698 2.67439C18.7555 4.50092 20 7.12214 20 10.0336Z" fill="#9DABBD"/>
<path d="M20.0001 10.0336C20.0001 15.432 15.723 19.8311 10.3724 20.0266C5.02177 19.8311 0.744629 15.432 0.744629 10.0336C0.744629 4.63522 5.02177 0.236038 10.3724 0.0405273C15.723 0.236038 20.0001 4.63522 20.0001 10.0336Z" fill="#FFDE50"/>
<path d="M17.7707 10.0336C17.7707 14.325 14.2915 17.8042 10.0001 17.8042C8.50541 17.8042 7.10949 17.3821 5.92459 16.6507C5.40952 16.3328 4.93324 15.956 4.50541 15.5278C4.19087 15.2136 3.90384 14.8731 3.64745 14.5099C3.29127 14.0056 2.99666 13.4605 2.7699 12.8862C2.43194 12.0311 2.24174 11.1013 2.23031 10.1291C2.22949 10.0972 2.22949 10.0654 2.22949 10.0336C2.22949 5.74212 5.70827 2.26294 10.0001 2.26294C10.0319 2.26294 10.0642 2.26294 10.096 2.26376C11.0683 2.27518 11.9977 2.4658 12.8528 2.80335C13.4269 3.03027 13.972 3.32487 14.4764 3.6809C14.8401 3.93804 15.1805 4.22498 15.4944 4.53886C15.9226 4.96661 16.2995 5.44289 16.6172 5.95804C17.3487 7.14294 17.7707 8.53886 17.7707 10.0336Z" fill="#FAA300"/>
<path d="M15.4944 4.53886L4.50541 15.5278C4.19087 15.2136 3.90384 14.8731 3.64745 14.5099C3.29127 14.0056 2.99666 13.4605 2.7699 12.8862C2.43194 12.0311 2.24174 11.1013 2.23031 10.1291C2.22949 10.0972 2.22949 10.0654 2.22949 10.0336C2.22949 5.74212 5.70827 2.26294 10.0001 2.26294C10.0319 2.26294 10.0642 2.26294 10.096 2.26376C11.0683 2.27518 11.9977 2.4658 12.8528 2.80335C13.4269 3.03027 13.972 3.32487 14.4764 3.6809C14.8401 3.93804 15.1805 4.22498 15.4944 4.53886Z" fill="#FFBD00"/>
<path d="M17.7704 10.0336C17.7704 14.325 14.2912 17.8042 9.99981 17.8042C9.85246 17.8042 9.70634 17.8001 9.56104 17.7919C13.6484 17.5646 16.8925 14.1776 16.8925 10.0336C16.8925 5.88947 13.6484 2.50253 9.56104 2.27518C9.70634 2.26702 9.85246 2.26294 9.99981 2.26294C14.2912 2.26294 17.7704 5.74212 17.7704 10.0336Z" fill="#F68E00"/>
<path d="M10.7643 9.43642V6.28944C11.2547 6.56001 11.5878 7.08222 11.5878 7.68087C11.5878 8.10316 11.9301 8.44548 12.3524 8.44548C12.7747 8.44548 13.117 8.10316 13.117 7.68087C13.117 6.22573 12.1147 5.0005 10.7643 4.65871V4.03634C10.7643 3.61406 10.422 3.27173 9.99967 3.27173C9.57739 3.27173 9.23506 3.61406 9.23506 4.03634V4.65867C7.88465 5.0005 6.88232 6.22569 6.88232 7.68083C6.88232 8.54969 7.13751 9.22724 7.66245 9.75218C8.04518 10.1349 8.55359 10.4181 9.23506 10.6258V13.7777C8.74461 13.5071 8.41155 12.985 8.41155 12.3863C8.41155 11.964 8.06922 11.6217 7.64694 11.6217C7.22465 11.6217 6.88232 11.964 6.88232 12.3863C6.88232 13.8414 7.88465 15.0666 9.23506 15.4085V16.0308C9.23506 16.4531 9.57739 16.7954 9.99967 16.7954C10.422 16.7954 10.7643 16.4531 10.7643 16.0308V15.4085C12.1147 15.0666 13.117 13.8415 13.117 12.3863C13.117 11.5295 12.8509 10.829 12.3261 10.3041C11.9447 9.92267 11.4299 9.63671 10.7643 9.43642ZM8.74375 8.67087C8.58906 8.51622 8.41155 8.26389 8.41155 7.68083C8.41155 7.08218 8.74461 6.56001 9.23506 6.2894V8.99618C9.02886 8.90067 8.86559 8.79271 8.74375 8.67087ZM10.7643 13.7777V11.0625C11.4288 11.372 11.5878 11.8147 11.5878 12.3863C11.5878 12.985 11.2547 13.5071 10.7643 13.7777Z" fill="#FFEA94"/>
</svg>
