<svg width="20" height="20" viewBox="0 0 20 20" fill="none" xmlns="http://www.w3.org/2000/svg">
<path fill-rule="evenodd" clip-rule="evenodd" d="M10.6402 1.04199H14.3604C15.0378 1.04199 15.5841 1.04198 16.0265 1.07813C16.4821 1.11535 16.8822 1.19398 17.2524 1.3826C17.8404 1.6822 18.3184 2.16027 18.6181 2.74827C18.8067 3.11845 18.8853 3.51857 18.9225 3.9741C18.9587 4.41652 18.9587 4.96286 18.9587 5.64022V9.36043C18.9587 10.0378 18.9587 10.5841 18.9225 11.0265C18.8853 11.4821 18.8067 11.8822 18.6181 12.2524C18.3184 12.8404 17.8404 13.3184 17.2524 13.6181C16.8361 13.8302 16.3796 13.904 15.8474 13.935C15.5028 13.955 15.2071 13.6919 15.1871 13.3474C15.167 13.0028 15.4301 12.7071 15.7747 12.6871C16.2469 12.6596 16.4983 12.5994 16.6849 12.5043C17.0377 12.3245 17.3245 12.0377 17.5043 11.6849C17.5882 11.5203 17.6458 11.303 17.6767 10.9248C17.7082 10.5392 17.7087 10.044 17.7087 9.33366V5.66699C17.7087 4.95661 17.7082 4.46142 17.6767 4.07589C17.6458 3.69766 17.5882 3.48036 17.5043 3.31576C17.3245 2.96296 17.0377 2.67612 16.6849 2.49636C16.5203 2.41249 16.303 2.35488 15.9248 2.32398C15.5392 2.29248 15.044 2.29199 14.3337 2.29199H10.667C9.95661 2.29199 9.46142 2.29248 9.07589 2.32398C8.69766 2.35488 8.48036 2.41249 8.31576 2.49636C7.96296 2.67612 7.67612 2.96296 7.49636 3.31576C7.40282 3.49934 7.34284 3.74618 7.31482 4.20508C7.29378 4.54962 6.99743 4.81187 6.65289 4.79083C6.30835 4.76979 6.0461 4.47344 6.06714 4.1289C6.09899 3.60728 6.17359 3.15847 6.3826 2.74827C6.6822 2.16027 7.16026 1.6822 7.74827 1.3826C8.11845 1.19398 8.51857 1.11535 8.9741 1.07813C9.41653 1.04198 9.96287 1.04199 10.6402 1.04199ZM5.64024 6.04199H9.36041C10.0378 6.04199 10.5841 6.04198 11.0265 6.07813C11.4821 6.11535 11.8822 6.19398 12.2524 6.3826C12.8404 6.6822 13.3184 7.16027 13.6181 7.74827C13.8067 8.11845 13.8853 8.51857 13.9225 8.9741C13.9587 9.41652 13.9587 9.96286 13.9587 10.6402V14.3604C13.9587 15.0378 13.9587 15.5841 13.9225 16.0265C13.8853 16.4821 13.8067 16.8822 13.6181 17.2524C13.3184 17.8404 12.8404 18.3184 12.2524 18.6181C11.8822 18.8067 11.4821 18.8853 11.0265 18.9225C10.5841 18.9587 10.0378 18.9587 9.36043 18.9587H5.64022C4.96286 18.9587 4.41652 18.9587 3.9741 18.9225C3.51857 18.8853 3.11845 18.8067 2.74827 18.6181C2.16027 18.3184 1.6822 17.8404 1.3826 17.2524C1.19398 16.8822 1.11535 16.4821 1.07813 16.0265C1.04198 15.5841 1.04199 15.0378 1.04199 14.3604V10.6402C1.04199 9.96287 1.04198 9.41653 1.07813 8.9741C1.11535 8.51857 1.19398 8.11845 1.3826 7.74827C1.6822 7.16027 2.16027 6.6822 2.74827 6.3826C3.11845 6.19398 3.51857 6.11535 3.9741 6.07813C4.41653 6.04198 4.96288 6.04199 5.64024 6.04199ZM4.07589 7.32398C3.69766 7.35488 3.48036 7.41249 3.31576 7.49636C2.96296 7.67612 2.67612 7.96296 2.49636 8.31576C2.41249 8.48036 2.35488 8.69766 2.32398 9.07589C2.29248 9.46142 2.29199 9.95661 2.29199 10.667V14.3337C2.29199 15.044 2.29248 15.5392 2.32398 15.9248C2.35488 16.303 2.41249 16.5203 2.49636 16.6849C2.67612 17.0377 2.96296 17.3245 3.31576 17.5043C3.48036 17.5882 3.69766 17.6458 4.07589 17.6767C4.46142 17.7082 4.95661 17.7087 5.66699 17.7087H9.33366C10.044 17.7087 10.5392 17.7082 10.9248 17.6767C11.303 17.6458 11.5203 17.5882 11.6849 17.5043C12.0377 17.3245 12.3245 17.0377 12.5043 16.6849C12.5882 16.5203 12.6458 16.303 12.6767 15.9248C12.7082 15.5392 12.7087 15.044 12.7087 14.3337V10.667C12.7087 9.95661 12.7082 9.46142 12.6767 9.07589C12.6458 8.69766 12.5882 8.48036 12.5043 8.31576C12.3245 7.96296 12.0377 7.67612 11.6849 7.49636C11.5203 7.41249 11.303 7.35488 10.9248 7.32398C10.5392 7.29248 10.044 7.29199 9.33366 7.29199H5.66699C4.95661 7.29199 4.46142 7.29248 4.07589 7.32398Z" fill="#616F81"/>
</svg>
