<svg width="21" height="21" viewBox="0 0 21 21" fill="none" xmlns="http://www.w3.org/2000/svg">
<path fill-rule="evenodd" clip-rule="evenodd" d="M14.4499 2.14087C11.1674 1.55286 8.96707 1.5537 5.68492 2.14101C4.88538 2.28408 4.31787 2.98359 4.31787 3.78367V4.08102L3.24256 4.18855C2.3861 4.27419 1.73389 4.99488 1.73389 5.85561V7.01889C1.73389 9.0111 2.92549 10.7237 4.63307 11.4852C5.35181 13.5605 7.22583 15.0962 9.48583 15.3232V17.2041H7.48324C7.16215 17.2041 6.90185 17.4644 6.90185 17.7855C6.90185 18.1066 7.16215 18.3669 7.48324 18.3669H12.6512C12.9723 18.3669 13.2326 18.1066 13.2326 17.7855C13.2326 17.4644 12.9723 17.2041 12.6512 17.2041H10.6486V15.3232C12.9086 15.0962 14.7826 13.5605 15.5014 11.4852C17.2089 10.7237 18.4006 9.01112 18.4006 7.01889V5.85561C18.4006 4.99488 17.7483 4.27419 16.8919 4.18855L15.8166 4.08102V3.78342C15.8166 2.98353 15.2493 2.28407 14.4499 2.14087ZM3.35826 5.34557L4.31787 5.24961V9.60287C4.31787 9.72104 4.32143 9.83839 4.32846 9.9548C3.45653 9.27265 2.89668 8.21074 2.89668 7.01889V5.85561C2.89668 5.59227 3.09622 5.37177 3.35826 5.34557ZM17.2378 7.01889C17.2378 8.21073 16.6779 9.27263 15.806 9.9548C15.813 9.83839 15.8166 9.72105 15.8166 9.60287V5.24961L16.7762 5.34557C17.0382 5.37177 17.2378 5.59227 17.2378 5.85561V7.01889Z" fill="#9DABBD"/>
</svg>
