<svg width="20" height="21" viewBox="0 0 20 21" fill="none" xmlns="http://www.w3.org/2000/svg">
<path d="M12.8913 2.50888C12.5709 2.48792 12.2942 2.73068 12.2732 3.05109C12.2523 3.3715 12.495 3.64823 12.8154 3.66919C13.3196 3.70216 13.8417 3.74376 14.3908 3.79411C15.0674 3.85616 15.6263 4.36905 15.7565 5.05553L17.0502 11.8763H14.4086C13.5969 11.8763 12.8563 12.3368 12.4945 13.0635C12.3285 13.397 11.99 13.6062 11.6213 13.6062H8.37934C8.01067 13.6062 7.67219 13.397 7.50613 13.0635C7.14431 12.3368 6.40373 11.8763 5.59203 11.8763H2.95043L4.24358 5.0587C4.37398 4.37126 4.93443 3.85768 5.6128 3.79606C6.17543 3.74495 6.70968 3.70267 7.22525 3.6692C7.54568 3.64841 7.78857 3.37179 7.76777 3.05137C7.74697 2.73095 7.47036 2.48806 7.14993 2.50886C6.62302 2.54306 6.07871 2.58616 5.50761 2.63804C4.2975 2.74795 3.32557 3.65892 3.10116 4.84201L1.66699 12.4031V15.4425C1.66699 16.8654 2.7557 18.0636 4.18258 18.1664C8.54888 18.4812 11.4581 18.473 15.8127 18.1635C17.2414 18.062 18.3337 16.8634 18.3337 15.438V12.4031L16.8989 4.83884C16.6749 3.65781 15.7056 2.74702 14.4969 2.63618C13.9391 2.58503 13.4069 2.54259 12.8913 2.50888Z" fill="#7F8D9F"/>
<path fill-rule="evenodd" clip-rule="evenodd" d="M10.0003 1.73242C10.3214 1.73242 10.5817 1.99272 10.5817 2.31382V9.47202L11.9222 8.17857C12.1533 7.95562 12.5213 7.96219 12.7443 8.19326C12.9672 8.42432 12.9607 8.79238 12.7296 9.01534L10.0003 11.6489L7.27104 9.01534C7.03997 8.79238 7.0334 8.42432 7.25636 8.19326C7.47932 7.96219 7.84738 7.95562 8.07845 8.17857L9.41893 9.47202V2.31382C9.41893 1.99272 9.67923 1.73242 10.0003 1.73242Z" fill="#7F8D9F"/>
</svg>
