<svg width="20" height="21" viewBox="0 0 20 21" fill="none" xmlns="http://www.w3.org/2000/svg">
<path fill-rule="evenodd" clip-rule="evenodd" d="M18.3337 10.3331C18.3337 14.9355 14.6027 18.6664 10.0003 18.6664C5.39795 18.6664 1.66699 14.9355 1.66699 10.3331C1.66699 5.73072 5.39795 1.99976 10.0003 1.99976C14.6027 1.99976 18.3337 5.73072 18.3337 10.3331ZM10.6253 5.24052C10.6253 4.89534 10.3455 4.61552 10.0003 4.61552C9.65516 4.61552 9.37534 4.89534 9.37534 5.24052V10.0742L6.78062 12.6689C6.53655 12.913 6.53655 13.3088 6.78062 13.5528C7.0247 13.7969 7.42043 13.7969 7.66451 13.5528L10.4152 10.8022C10.5497 10.6676 10.6253 10.4851 10.6253 10.2948V5.24052Z" fill="#9DABBD"/>
</svg>
