<svg width="18" height="19" viewBox="0 0 18 19" fill="none" xmlns="http://www.w3.org/2000/svg">
<g clip-path="url(#clip0_9928_6966)">
<path fill-rule="evenodd" clip-rule="evenodd" d="M3.9375 2.95825C3.9375 2.44048 4.35723 2.02075 4.875 2.02075H14.8478C15.3656 2.02075 15.7853 2.44048 15.7853 2.95825V10.7461C16.4646 10.7425 17.0625 11.3138 17.0625 12.047C17.0625 12.4424 16.885 12.8212 16.5727 13.0695L13.4413 15.5591C12.3845 16.3992 11.0462 16.7769 9.71733 16.6052L5.58881 16.0718H3.88534C3.79014 16.2937 3.57267 16.4594 3.3 16.4594H1.575C1.20559 16.4594 0.9375 16.1552 0.9375 15.8194V11.3235C0.9375 10.9877 1.20557 10.6835 1.575 10.6835H3.3C3.45161 10.6835 3.58615 10.7347 3.69209 10.8183C3.76991 10.7715 3.85161 10.7216 3.9375 10.669V2.95825ZM5.0625 10.0187C5.17596 9.96087 5.29093 9.90561 5.40657 9.85455C5.82431 9.67007 6.29288 9.52075 6.76592 9.52075H10.2433C10.9202 9.52075 11.4375 10.0826 11.4375 10.7362C11.4375 11.2808 11.0777 11.7746 10.5372 11.9142L8.92738 12.3302L11.1797 12.5418C11.6631 12.5872 11.972 12.5413 12.3724 12.3344L12.3757 12.3327L14.6603 11.1713V3.14575H13.4675V5.67697C13.4675 5.98763 13.2157 6.23947 12.905 6.23947C12.5943 6.23947 12.3425 5.98763 12.3425 5.67697V3.14575H5.0625V10.0187ZM8.33028 12.2741C8.33012 12.2741 8.33043 12.2741 8.33028 12.2741V12.2741ZM3.9375 11.9767V14.9468H5.66118L9.86148 15.4895C10.8846 15.6216 11.9192 15.3319 12.7412 14.6784L15.8725 12.1889C15.91 12.1591 15.9375 12.1077 15.9375 12.047C15.9375 11.9738 15.9032 11.9237 15.8601 11.8962C15.8183 11.8694 15.7746 11.8664 15.7296 11.8897L15.7263 11.8914L12.8888 13.3338C12.8883 13.3341 12.8878 13.3344 12.8872 13.3347C12.2633 13.6567 11.7317 13.7236 11.0744 13.6619L8.22504 13.3941C7.69308 13.3442 7.3125 12.8901 7.3125 12.3784C7.3125 11.9234 7.61331 11.5078 8.06964 11.3899L10.2558 10.825C10.2777 10.8193 10.3125 10.7908 10.3125 10.7362C10.3125 10.7051 10.3008 10.6812 10.2857 10.6656C10.271 10.6504 10.2563 10.6458 10.2433 10.6458H6.76592C6.51761 10.6458 6.21501 10.7274 5.86103 10.8837C5.51112 11.0382 5.15162 11.2469 4.79201 11.4654C4.72405 11.5066 4.6551 11.5489 4.58571 11.5915C4.3683 11.7248 4.1466 11.8608 3.9375 11.9767ZM2.0625 11.8085V15.3344H2.8125V11.8085H2.0625Z" fill="#9DABBD"/>
</g>
<defs>
<clipPath id="clip0_9928_6966">
<rect width="18" height="18" fill="white" transform="translate(0 0.333252)"/>
</clipPath>
</defs>
</svg>
