<svg width="18" height="19" viewBox="0 0 18 19" fill="none" xmlns="http://www.w3.org/2000/svg">
<g clip-path="url(#clip0_9928_6954)">
<path fill-rule="evenodd" clip-rule="evenodd" d="M9 2.39575C5.16852 2.39575 2.0625 5.50178 2.0625 9.33325C2.0625 13.1647 5.16852 16.2708 9 16.2708C12.8315 16.2708 15.9375 13.1647 15.9375 9.33325C15.9375 5.50178 12.8315 2.39575 9 2.39575ZM0.9375 9.33325C0.9375 4.88046 4.5472 1.27075 9 1.27075C13.4528 1.27075 17.0625 4.88046 17.0625 9.33325C17.0625 13.786 13.4528 17.3958 9 17.3958C4.5472 17.3958 0.9375 13.786 0.9375 9.33325ZM9 4.18742C9.31066 4.18742 9.5625 4.43926 9.5625 4.74992V9.29873C9.5625 9.47002 9.49446 9.63429 9.37334 9.75541L6.89775 12.231C6.67808 12.4507 6.32192 12.4507 6.10225 12.231C5.88258 12.0113 5.88258 11.6552 6.10225 11.4355L8.4375 9.10026V4.74992C8.4375 4.43926 8.68934 4.18742 9 4.18742Z" fill="#9DABBD"/>
</g>
<defs>
<clipPath id="clip0_9928_6954">
<rect width="18" height="18" fill="white" transform="translate(0 0.333252)"/>
</clipPath>
</defs>
</svg>
