<svg width="1440" height="674" viewBox="0 0 1440 674" fill="none" xmlns="http://www.w3.org/2000/svg">
<g clip-path="url(#clip0_12263_45155)">
<g filter="url(#filter0_f_12263_45155)">
<path d="M665.09 -139.164C662.879 -170.989 688.099 -198.022 720 -198.022C751.901 -198.022 777.121 -170.989 774.91 -139.164L720 650.978L665.09 -139.164Z" fill="#9658FB" fill-opacity="0.6"/>
</g>
<g filter="url(#filter1_f_12263_45155)">
<path d="M716.411 -167.604C706.653 -180.559 710.624 -197.148 725.153 -204.125C739.683 -211.103 758.94 -205.669 767.549 -192.162L1150.67 408.911L716.411 -167.604Z" fill="#9658FB" fill-opacity="0.6"/>
</g>
<g filter="url(#filter2_f_12263_45155)">
<path d="M649.555 -191.979C658.164 -205.485 677.422 -210.919 691.951 -203.942C706.481 -196.965 710.452 -180.376 700.694 -167.421L266.432 409.095L649.555 -191.979Z" fill="#9658FB" fill-opacity="0.6"/>
</g>
<g filter="url(#filter3_f_12263_45155)">
<path d="M587.997 -180.603C595.554 -186.569 608.148 -186.681 615.889 -180.85C623.629 -175.019 623.482 -165.531 615.562 -159.839L14.1139 272.472L587.997 -180.603Z" fill="#9658FB" fill-opacity="0.6"/>
</g>
<g filter="url(#filter4_f_12263_45155)">
<path d="M687.468 -344.785C694.832 -352.87 707.42 -353.321 715.345 -345.785C723.27 -338.248 723.426 -325.677 715.69 -317.946L128.266 269.13L687.468 -344.785Z" fill="#9658FB"/>
</g>
<g filter="url(#filter5_f_12263_45155)">
<path d="M701.159 -350.145C693.239 -357.687 693.092 -370.257 700.832 -377.982C708.573 -385.708 721.167 -385.56 728.724 -377.656L1302.61 222.616L701.159 -350.145Z" fill="#9658FB"/>
</g>
<g filter="url(#filter6_f_12263_45155)">
<path d="M824.438 -160.096C816.519 -165.789 816.371 -175.276 824.111 -181.107C831.852 -186.938 844.446 -186.827 852.003 -180.861L1425.89 272.214L824.438 -160.096Z" fill="#9658FB" fill-opacity="0.6"/>
</g>
<g opacity="0.7">
<path opacity="0.11" d="M342.477 347.496C343.426 347.535 344.227 346.797 344.266 345.848C344.305 344.899 343.567 344.098 342.618 344.059C341.669 344.02 340.868 344.758 340.829 345.707C340.79 346.656 341.527 347.457 342.477 347.496Z" fill="white" fill-opacity="0.44"/>
<path d="M347.665 357.17C348.376 357.199 348.977 356.646 349.006 355.934C349.036 355.223 348.482 354.622 347.771 354.593C347.059 354.564 346.459 355.117 346.429 355.828C346.4 356.54 346.953 357.141 347.665 357.17Z" fill="white" fill-opacity="0.44"/>
<path d="M376.749 340.305C377.46 340.334 378.061 339.781 378.09 339.069C378.12 338.358 377.566 337.757 376.855 337.728C376.143 337.699 375.543 338.252 375.513 338.963C375.484 339.675 376.037 340.275 376.749 340.305Z" fill="white" fill-opacity="0.44"/>
<path d="M303.819 335.582C304.531 335.611 305.131 335.058 305.161 334.347C305.19 333.635 304.637 333.034 303.925 333.005C303.214 332.976 302.613 333.529 302.584 334.241C302.554 334.952 303.108 335.553 303.819 335.582Z" fill="white" fill-opacity="0.44"/>
<path opacity="0.11" d="M260.453 354.446C261.402 354.485 262.203 353.747 262.242 352.798C262.281 351.849 261.543 351.048 260.594 351.009C259.645 350.97 258.844 351.708 258.805 352.657C258.766 353.606 259.504 354.407 260.453 354.446Z" fill="white" fill-opacity="0.44"/>
<path d="M244.915 334.882C245.389 334.902 245.789 334.533 245.809 334.059C245.828 333.585 245.46 333.185 244.985 333.165C244.511 333.146 244.111 333.514 244.092 333.988C244.072 334.463 244.441 334.863 244.915 334.882Z" fill="white" fill-opacity="0.44"/>
<path d="M338.511 380.876C338.985 380.896 339.385 380.527 339.404 380.053C339.424 379.579 339.055 379.179 338.581 379.159C338.107 379.14 337.707 379.508 337.687 379.983C337.668 380.457 338.036 380.857 338.511 380.876Z" fill="white" fill-opacity="0.44"/>
<path d="M525.754 388.589C526.228 388.609 526.628 388.24 526.647 387.766C526.667 387.292 526.298 386.892 525.824 386.872C525.35 386.853 524.95 387.221 524.931 387.695C524.911 388.169 525.28 388.57 525.754 388.589Z" fill="white" fill-opacity="0.44"/>
<path d="M621.279 346.055C621.753 346.075 622.153 345.706 622.173 345.232C622.192 344.758 621.824 344.358 621.35 344.338C620.876 344.319 620.475 344.687 620.456 345.161C620.436 345.635 620.805 346.036 621.279 346.055Z" fill="white" fill-opacity="0.44"/>
<path d="M652.2 410.133C652.674 410.153 653.074 409.784 653.094 409.31C653.113 408.836 652.745 408.436 652.271 408.416C651.796 408.397 651.396 408.765 651.377 409.239C651.357 409.713 651.726 410.114 652.2 410.133Z" fill="white" fill-opacity="0.44"/>
<path d="M53.3855 347.65C53.8597 347.669 54.2598 347.301 54.2793 346.827C54.2988 346.352 53.9303 345.952 53.4561 345.933C52.982 345.913 52.5818 346.282 52.5623 346.756C52.5429 347.23 52.9114 347.63 53.3855 347.65Z" fill="white" fill-opacity="0.44"/>
<path opacity="0.11" d="M42.4129 300.738C42.887 300.757 43.2872 300.389 43.3067 299.914C43.3262 299.44 42.9576 299.04 42.4835 299.021C42.0094 299.001 41.6092 299.37 41.5897 299.844C41.5702 300.318 41.9387 300.718 42.4129 300.738Z" fill="white" fill-opacity="0.44"/>
<path opacity="0.11" d="M4.67459 318.978C5.14872 318.997 5.54888 318.629 5.56838 318.155C5.58788 317.681 5.21933 317.28 4.7452 317.261C4.27107 317.241 3.87091 317.61 3.85142 318.084C3.83192 318.558 4.20047 318.958 4.67459 318.978Z" fill="white" fill-opacity="0.44"/>
<path opacity="0.11" d="M30.8953 371.676C31.3694 371.696 31.7696 371.327 31.7891 370.853C31.8086 370.379 31.44 369.979 30.9659 369.959C30.4918 369.94 30.0916 370.308 30.0721 370.782C30.0526 371.256 30.4212 371.657 30.8953 371.676Z" fill="white" fill-opacity="0.44"/>
<path opacity="0.11" d="M236.72 345.725C237.194 345.744 237.594 345.376 237.613 344.902C237.633 344.428 237.264 344.027 236.79 344.008C236.316 343.988 235.916 344.357 235.896 344.831C235.877 345.305 236.245 345.705 236.72 345.725Z" fill="white" fill-opacity="0.44"/>
<path opacity="0.11" d="M335.534 411.738C336.008 411.757 336.408 411.389 336.428 410.914C336.447 410.44 336.079 410.04 335.605 410.021C335.13 410.001 334.73 410.37 334.711 410.844C334.691 411.318 335.06 411.718 335.534 411.738Z" fill="white" fill-opacity="0.44"/>
<path opacity="0.11" d="M500.785 409.924C501.259 409.944 501.659 409.575 501.679 409.101C501.698 408.627 501.33 408.227 500.856 408.207C500.381 408.188 499.981 408.556 499.962 409.03C499.942 409.504 500.311 409.905 500.785 409.924Z" fill="white" fill-opacity="0.44"/>
<path opacity="0.3" d="M93.7801 327.801C94.2542 327.821 94.6543 327.452 94.6738 326.978C94.6933 326.504 94.3248 326.104 93.8507 326.084C93.3765 326.065 92.9764 326.433 92.9569 326.907C92.9374 327.381 93.3059 327.782 93.7801 327.801Z" fill="white" fill-opacity="0.44"/>
<path d="M293.231 289.541C293.705 289.561 294.106 289.192 294.125 288.718C294.145 288.244 293.776 287.844 293.302 287.824C292.828 287.805 292.428 288.173 292.408 288.648C292.389 289.122 292.757 289.522 293.231 289.541Z" fill="white" fill-opacity="0.44"/>
<path d="M425.566 293.268C426.04 293.287 426.44 292.919 426.46 292.445C426.479 291.971 426.111 291.57 425.637 291.551C425.163 291.531 424.763 291.9 424.743 292.374C424.724 292.848 425.092 293.248 425.566 293.268Z" fill="white" fill-opacity="0.44"/>
<path d="M231.581 366.158C232.055 366.178 232.455 365.809 232.475 365.335C232.494 364.861 232.126 364.461 231.651 364.442C231.177 364.422 230.777 364.791 230.758 365.265C230.738 365.739 231.107 366.139 231.581 366.158Z" fill="white" fill-opacity="0.44"/>
<path opacity="0.3" d="M171.457 363.689C171.931 363.708 172.331 363.34 172.351 362.866C172.37 362.391 172.002 361.991 171.527 361.972C171.053 361.952 170.653 362.321 170.634 362.795C170.614 363.269 170.983 363.669 171.457 363.689Z" fill="white" fill-opacity="0.44"/>
<path opacity="0.11" d="M103.225 307.547C103.699 307.567 104.1 307.198 104.119 306.724C104.139 306.25 103.77 305.85 103.296 305.83C102.822 305.811 102.422 306.179 102.402 306.653C102.383 307.128 102.751 307.528 103.225 307.547Z" fill="white" fill-opacity="0.44"/>
<path opacity="0.3" d="M307.849 310.802C308.324 310.822 308.724 310.453 308.743 309.979C308.763 309.505 308.394 309.105 307.92 309.085C307.446 309.066 307.046 309.434 307.026 309.908C307.007 310.382 307.375 310.783 307.849 310.802Z" fill="white" fill-opacity="0.44"/>
<path opacity="0.3" d="M245.513 383.082C245.988 383.102 246.388 382.733 246.407 382.259C246.427 381.785 246.058 381.385 245.584 381.365C245.11 381.346 244.71 381.714 244.69 382.189C244.671 382.663 245.039 383.063 245.513 383.082Z" fill="white" fill-opacity="0.44"/>
<path opacity="0.3" d="M141.234 387.393C141.708 387.412 142.108 387.044 142.128 386.57C142.147 386.096 141.779 385.695 141.305 385.676C140.831 385.656 140.43 386.025 140.411 386.499C140.391 386.973 140.76 387.373 141.234 387.393Z" fill="white" fill-opacity="0.44"/>
<path opacity="0.3" d="M118.689 328.831C119.163 328.851 119.564 328.482 119.583 328.008C119.603 327.534 119.234 327.134 118.76 327.114C118.286 327.095 117.886 327.464 117.866 327.938C117.847 328.412 118.215 328.812 118.689 328.831Z" fill="white" fill-opacity="0.44"/>
<path opacity="0.3" d="M653.018 348.22C653.492 348.24 653.893 347.871 653.912 347.397C653.932 346.923 653.563 346.523 653.089 346.503C652.615 346.484 652.215 346.852 652.195 347.326C652.176 347.8 652.544 348.201 653.018 348.22Z" fill="white" fill-opacity="0.44"/>
<path opacity="0.11" d="M516.188 307.321C516.662 307.34 517.063 306.972 517.082 306.497C517.102 306.023 516.733 305.623 516.259 305.604C515.785 305.584 515.385 305.953 515.365 306.427C515.346 306.901 515.714 307.301 516.188 307.321Z" fill="white" fill-opacity="0.44"/>
<path opacity="0.11" d="M628.315 384.198C628.789 384.217 629.19 383.849 629.209 383.374C629.229 382.9 628.86 382.5 628.386 382.481C627.912 382.461 627.512 382.83 627.492 383.304C627.473 383.778 627.841 384.178 628.315 384.198Z" fill="white" fill-opacity="0.44"/>
<path opacity="0.3" d="M410.692 382.993C411.641 383.032 412.442 382.294 412.481 381.345C412.52 380.396 411.783 379.595 410.834 379.556C409.885 379.517 409.084 380.255 409.045 381.204C409.006 382.153 409.743 382.954 410.692 382.993Z" fill="white" fill-opacity="0.44"/>
<path opacity="0.11" d="M462.434 359.315C463.383 359.354 464.184 358.616 464.223 357.667C464.262 356.718 463.524 355.917 462.575 355.878C461.626 355.839 460.825 356.577 460.786 357.526C460.747 358.475 461.485 359.276 462.434 359.315Z" fill="white" fill-opacity="0.44"/>
<path d="M463.242 329.24C463.954 329.27 464.554 328.716 464.583 328.005C464.613 327.293 464.06 326.693 463.348 326.663C462.636 326.634 462.036 327.187 462.007 327.899C461.977 328.61 462.53 329.211 463.242 329.24Z" fill="white" fill-opacity="0.44"/>
<path d="M400.268 416.98C400.98 417.01 401.581 416.457 401.61 415.745C401.639 415.033 401.086 414.433 400.374 414.404C399.663 414.374 399.062 414.927 399.033 415.639C399.004 416.351 399.557 416.951 400.268 416.98Z" fill="white" fill-opacity="0.44"/>
<path d="M684.71 445.886C685.421 445.915 686.022 445.362 686.051 444.65C686.081 443.939 685.527 443.338 684.816 443.309C684.104 443.28 683.504 443.833 683.474 444.544C683.445 445.256 683.998 445.856 684.71 445.886Z" fill="white" fill-opacity="0.44"/>
<path d="M127.892 408.357C128.604 408.387 129.205 407.834 129.234 407.122C129.263 406.41 128.71 405.81 127.998 405.781C127.287 405.751 126.686 406.304 126.657 407.016C126.628 407.728 127.181 408.328 127.892 408.357Z" fill="white" fill-opacity="0.44"/>
<path d="M14.4754 383.906C15.187 383.936 15.7876 383.382 15.8169 382.671C15.8462 381.959 15.293 381.359 14.5814 381.329C13.8698 381.3 13.2692 381.853 13.24 382.565C13.2107 383.276 13.7638 383.877 14.4754 383.906Z" fill="white" fill-opacity="0.44"/>
<path d="M1.28795 348.948C1.99954 348.978 2.60012 348.424 2.62939 347.713C2.65865 347.001 2.10552 346.401 1.39392 346.371C0.68233 346.342 0.0817431 346.895 0.0524792 347.607C0.0232153 348.318 0.576355 348.919 1.28795 348.948Z" fill="white" fill-opacity="0.44"/>
<path d="M421.31 344.72C422.022 344.749 422.623 344.196 422.652 343.484C422.681 342.773 422.128 342.172 421.416 342.143C420.705 342.114 420.104 342.667 420.075 343.378C420.046 344.09 420.599 344.691 421.31 344.72Z" fill="white" fill-opacity="0.44"/>
<path d="M269.248 402.126C269.96 402.155 270.56 401.602 270.589 400.891C270.619 400.179 270.065 399.578 269.354 399.549C268.642 399.52 268.042 400.073 268.012 400.785C267.983 401.496 268.536 402.097 269.248 402.126Z" fill="white" fill-opacity="0.44"/>
<path d="M484.169 447.965C484.88 447.994 485.481 447.441 485.51 446.729C485.54 446.018 484.986 445.417 484.275 445.388C483.563 445.359 482.963 445.912 482.933 446.623C482.904 447.335 483.457 447.936 484.169 447.965Z" fill="white" fill-opacity="0.44"/>
<path d="M714.168 398.914C714.879 398.943 715.48 398.39 715.509 397.679C715.539 396.967 714.985 396.366 714.274 396.337C713.562 396.308 712.962 396.861 712.932 397.573C712.903 398.284 713.456 398.885 714.168 398.914Z" fill="white" fill-opacity="0.44"/>
<path d="M736.729 352.525C737.441 352.555 738.042 352.002 738.071 351.29C738.1 350.578 737.547 349.978 736.835 349.948C736.124 349.919 735.523 350.472 735.494 351.184C735.465 351.896 736.018 352.496 736.729 352.525Z" fill="white" fill-opacity="0.44"/>
<path opacity="0.3" d="M534.066 333.009C535.015 333.048 535.816 332.31 535.855 331.361C535.894 330.412 535.157 329.611 534.208 329.572C533.259 329.533 532.458 330.27 532.419 331.219C532.38 332.168 533.117 332.969 534.066 333.009Z" fill="white" fill-opacity="0.44"/>
<path d="M536.569 272.025C537.518 272.064 538.319 271.326 538.358 270.377C538.397 269.428 537.66 268.627 536.711 268.588C535.762 268.549 534.961 269.287 534.922 270.236C534.882 271.185 535.62 271.986 536.569 272.025Z" fill="white" fill-opacity="0.44"/>
<path d="M577.521 353.722C578.233 353.751 578.834 353.198 578.863 352.486C578.892 351.775 578.339 351.174 577.627 351.145C576.916 351.116 576.315 351.669 576.286 352.38C576.257 353.092 576.81 353.692 577.521 353.722Z" fill="white" fill-opacity="0.44"/>
<path opacity="0.3" d="M620.556 321.94C621.505 321.979 622.306 321.241 622.345 320.292C622.384 319.343 621.646 318.542 620.697 318.503C619.748 318.464 618.947 319.202 618.908 320.151C618.869 321.1 619.607 321.901 620.556 321.94Z" fill="white" fill-opacity="0.44"/>
<path opacity="0.3" d="M703.077 386.417C704.026 386.456 704.827 385.718 704.866 384.769C704.905 383.82 704.168 383.019 703.218 382.98C702.269 382.941 701.468 383.679 701.429 384.628C701.39 385.577 702.128 386.378 703.077 386.417Z" fill="white" fill-opacity="0.44"/>
<path opacity="0.3" d="M602.516 384.004C603.465 384.043 604.266 383.305 604.305 382.356C604.344 381.407 603.606 380.606 602.657 380.567C601.708 380.528 600.907 381.265 600.868 382.215C600.829 383.164 601.567 383.965 602.516 384.004Z" fill="white" fill-opacity="0.44"/>
<path opacity="0.3" d="M108.911 378.326C109.86 378.365 110.661 377.627 110.7 376.678C110.739 375.729 110.001 374.928 109.052 374.889C108.103 374.85 107.302 375.588 107.263 376.537C107.224 377.486 107.962 378.287 108.911 378.326Z" fill="white" fill-opacity="0.44"/>
<path opacity="0.3" d="M41.2773 328.219C42.2263 328.258 43.0273 327.521 43.0664 326.572C43.1054 325.623 42.3677 324.822 41.4186 324.783C40.4696 324.744 39.6686 325.481 39.6295 326.43C39.5905 327.379 40.3282 328.18 41.2773 328.219Z" fill="white" fill-opacity="0.44"/>
<path opacity="0.11" d="M668.922 359.202C669.871 359.241 670.672 358.503 670.711 357.554C670.75 356.605 670.012 355.804 669.063 355.765C668.114 355.726 667.313 356.464 667.274 357.413C667.235 358.362 667.973 359.163 668.922 359.202Z" fill="white" fill-opacity="0.44"/>
<path opacity="0.3" d="M165.305 304.075C166.254 304.114 167.055 303.376 167.094 302.427C167.133 301.478 166.395 300.677 165.446 300.638C164.497 300.599 163.696 301.337 163.657 302.286C163.618 303.235 164.356 304.036 165.305 304.075Z" fill="white" fill-opacity="0.44"/>
<path opacity="0.11" d="M142.822 285.941C143.771 285.98 144.572 285.242 144.611 284.293C144.65 283.344 143.913 282.543 142.964 282.504C142.014 282.465 141.213 283.203 141.174 284.152C141.135 285.101 141.873 285.902 142.822 285.941Z" fill="white" fill-opacity="0.44"/>
<path opacity="0.3" d="M133.695 340.631C134.644 340.67 135.445 339.932 135.484 338.983C135.523 338.034 134.786 337.233 133.837 337.194C132.888 337.155 132.087 337.892 132.047 338.841C132.008 339.791 132.746 340.592 133.695 340.631Z" fill="white" fill-opacity="0.44"/>
<path d="M187.402 341.98C188.114 342.009 188.714 341.456 188.744 340.744C188.773 340.032 188.22 339.432 187.508 339.403C186.797 339.373 186.196 339.926 186.167 340.638C186.137 341.35 186.691 341.95 187.402 341.98Z" fill="white" fill-opacity="0.44"/>
<path opacity="0.11" d="M650.281 97.4245C651.23 97.4636 652.031 96.7258 652.07 95.7768C652.109 94.8277 651.372 94.0267 650.423 93.9877C649.473 93.9486 648.672 94.6864 648.633 95.6354C648.594 96.5845 649.332 97.3855 650.281 97.4245Z" fill="white" fill-opacity="0.44"/>
<path d="M655.471 107.103C656.182 107.132 656.783 106.579 656.812 105.867C656.841 105.156 656.288 104.555 655.577 104.526C654.865 104.496 654.264 105.05 654.235 105.761C654.206 106.473 654.759 107.073 655.471 107.103Z" fill="white" fill-opacity="0.44"/>
<path d="M684.559 90.2334C685.271 90.2627 685.872 89.7096 685.901 88.998C685.93 88.2864 685.377 87.6858 684.665 87.6565C683.954 87.6272 683.353 88.1804 683.324 88.892C683.295 89.6036 683.848 90.2041 684.559 90.2334Z" fill="white" fill-opacity="0.44"/>
<path d="M611.626 85.5098C612.337 85.5391 612.938 84.9859 612.967 84.2743C612.997 83.5627 612.443 82.9621 611.732 82.9329C611.02 82.9036 610.42 83.4568 610.39 84.1684C610.361 84.8799 610.914 85.4805 611.626 85.5098Z" fill="white" fill-opacity="0.44"/>
<path opacity="0.11" d="M568.262 104.377C569.211 104.416 570.012 103.678 570.051 102.729C570.09 101.78 569.352 100.979 568.403 100.94C567.454 100.901 566.653 101.639 566.614 102.588C566.575 103.537 567.313 104.338 568.262 104.377Z" fill="white" fill-opacity="0.44"/>
<path d="M552.72 84.8108C553.194 84.8303 553.594 84.4618 553.613 83.9877C553.633 83.5136 553.264 83.1134 552.79 83.0939C552.316 83.0744 551.916 83.443 551.896 83.9171C551.877 84.3912 552.245 84.7913 552.72 84.8108Z" fill="white" fill-opacity="0.44"/>
<path d="M646.319 130.815C646.793 130.834 647.193 130.466 647.213 129.992C647.232 129.517 646.864 129.117 646.39 129.098C645.916 129.078 645.515 129.447 645.496 129.921C645.476 130.395 645.845 130.795 646.319 130.815Z" fill="white" fill-opacity="0.44"/>
<path d="M833.563 138.524C834.037 138.543 834.438 138.175 834.457 137.701C834.477 137.226 834.108 136.826 833.634 136.807C833.16 136.787 832.76 137.156 832.74 137.63C832.721 138.104 833.089 138.504 833.563 138.524Z" fill="white" fill-opacity="0.44"/>
<path d="M929.084 95.9857C929.558 96.0052 929.958 95.6366 929.978 95.1625C929.997 94.6883 929.629 94.2882 929.154 94.2687C928.68 94.2492 928.28 94.6177 928.261 95.0919C928.241 95.566 928.61 95.9662 929.084 95.9857Z" fill="white" fill-opacity="0.44"/>
<path d="M960.008 160.07C960.482 160.089 960.882 159.721 960.901 159.246C960.921 158.772 960.552 158.372 960.078 158.353C959.604 158.333 959.204 158.702 959.184 159.176C959.165 159.65 959.533 160.05 960.008 160.07Z" fill="white" fill-opacity="0.44"/>
<path d="M361.199 97.5765C361.673 97.596 362.073 97.2274 362.093 96.7533C362.112 96.2792 361.744 95.879 361.27 95.8595C360.795 95.84 360.395 96.2086 360.376 96.6827C360.356 97.1568 360.725 97.557 361.199 97.5765Z" fill="white" fill-opacity="0.44"/>
<path opacity="0.11" d="M350.225 50.6673C350.699 50.6868 351.1 50.3182 351.119 49.8441C351.139 49.37 350.77 48.9698 350.296 48.9503C349.822 48.9308 349.422 49.2994 349.402 49.7735C349.383 50.2476 349.751 50.6478 350.225 50.6673Z" fill="white" fill-opacity="0.44"/>
<path opacity="0.11" d="M312.486 68.9085C312.96 68.928 313.36 68.5595 313.38 68.0853C313.399 67.6112 313.031 67.2111 312.557 67.1916C312.083 67.1721 311.682 67.5406 311.663 68.0147C311.643 68.4889 312.012 68.889 312.486 68.9085Z" fill="white" fill-opacity="0.44"/>
<path opacity="0.11" d="M338.71 121.61C339.184 121.629 339.584 121.261 339.604 120.787C339.623 120.312 339.254 119.912 338.78 119.893C338.306 119.873 337.906 120.242 337.887 120.716C337.867 121.19 338.236 121.59 338.71 121.61Z" fill="white" fill-opacity="0.44"/>
<path opacity="0.11" d="M544.526 95.6556C545 95.6751 545.4 95.3065 545.42 94.8324C545.439 94.3582 545.071 93.9581 544.597 93.9386C544.123 93.9191 543.722 94.2876 543.703 94.7618C543.683 95.2359 544.052 95.6361 544.526 95.6556Z" fill="white" fill-opacity="0.44"/>
<path opacity="0.11" d="M643.339 161.669C643.813 161.689 644.213 161.32 644.232 160.846C644.252 160.372 643.883 159.972 643.409 159.952C642.935 159.933 642.535 160.301 642.515 160.775C642.496 161.25 642.865 161.65 643.339 161.669Z" fill="white" fill-opacity="0.44"/>
<path opacity="0.11" d="M808.594 159.854C809.068 159.873 809.468 159.505 809.487 159.031C809.507 158.557 809.138 158.156 808.664 158.137C808.19 158.117 807.79 158.486 807.77 158.96C807.751 159.434 808.119 159.834 808.594 159.854Z" fill="white" fill-opacity="0.44"/>
<path opacity="0.3" d="M401.592 77.7318C402.066 77.7513 402.466 77.3827 402.485 76.9086C402.505 76.4345 402.136 76.0343 401.662 76.0148C401.188 75.9953 400.788 76.3639 400.768 76.838C400.749 77.3121 401.117 77.7123 401.592 77.7318Z" fill="white" fill-opacity="0.44"/>
<path d="M601.044 39.4769C601.518 39.4964 601.918 39.1278 601.938 38.6537C601.957 38.1796 601.588 37.7794 601.114 37.7599C600.64 37.7404 600.24 38.109 600.221 38.5831C600.201 39.0572 600.57 39.4574 601.044 39.4769Z" fill="white" fill-opacity="0.44"/>
<path d="M733.377 43.1995C733.851 43.219 734.251 42.8505 734.271 42.3764C734.29 41.9022 733.921 41.5021 733.447 41.4826C732.973 41.4631 732.573 41.8316 732.554 42.3058C732.534 42.7799 732.903 43.18 733.377 43.1995Z" fill="white" fill-opacity="0.44"/>
<path d="M539.387 116.091C539.862 116.111 540.262 115.742 540.281 115.268C540.301 114.794 539.932 114.394 539.458 114.374C538.984 114.355 538.584 114.723 538.564 115.197C538.545 115.671 538.913 116.072 539.387 116.091Z" fill="white" fill-opacity="0.44"/>
<path opacity="0.3" d="M479.261 113.617C479.735 113.637 480.135 113.268 480.154 112.794C480.174 112.32 479.805 111.92 479.331 111.901C478.857 111.881 478.457 112.25 478.437 112.724C478.418 113.198 478.786 113.598 479.261 113.617Z" fill="white" fill-opacity="0.44"/>
<path opacity="0.11" d="M411.032 57.473C411.506 57.4925 411.906 57.1239 411.926 56.6498C411.945 56.1757 411.577 55.7755 411.103 55.756C410.628 55.7365 410.228 56.1051 410.209 56.5792C410.189 57.0533 410.558 57.4535 411.032 57.473Z" fill="white" fill-opacity="0.44"/>
<path opacity="0.3" d="M615.662 60.7298C616.136 60.7493 616.536 60.3808 616.556 59.9066C616.575 59.4325 616.207 59.0323 615.733 59.0128C615.258 58.9933 614.858 59.3619 614.839 59.836C614.819 60.3102 615.188 60.7103 615.662 60.7298Z" fill="white" fill-opacity="0.44"/>
<path opacity="0.3" d="M553.321 133.013C553.795 133.033 554.195 132.664 554.215 132.19C554.234 131.716 553.866 131.316 553.392 131.296C552.918 131.277 552.517 131.645 552.498 132.119C552.478 132.593 552.847 132.994 553.321 133.013Z" fill="white" fill-opacity="0.44"/>
<path opacity="0.3" d="M449.041 137.325C449.515 137.345 449.915 136.976 449.935 136.502C449.954 136.028 449.586 135.628 449.111 135.609C448.637 135.589 448.237 135.958 448.218 136.432C448.198 136.906 448.567 137.306 449.041 137.325Z" fill="white" fill-opacity="0.44"/>
<path opacity="0.3" d="M426.502 78.764C426.976 78.7835 427.376 78.4149 427.396 77.9408C427.415 77.4667 427.046 77.0665 426.572 77.047C426.098 77.0275 425.698 77.3961 425.679 77.8702C425.659 78.3443 426.028 78.7445 426.502 78.764Z" fill="white" fill-opacity="0.44"/>
<path opacity="0.3" d="M960.827 98.1527C961.301 98.1722 961.701 97.8036 961.721 97.3295C961.74 96.8554 961.372 96.4552 960.898 96.4357C960.423 96.4162 960.023 96.7848 960.004 97.2589C959.984 97.733 960.353 98.1332 960.827 98.1527Z" fill="white" fill-opacity="0.44"/>
<path opacity="0.11" d="M823.999 57.2542C824.473 57.2737 824.873 56.9052 824.893 56.431C824.912 55.9569 824.544 55.5568 824.069 55.5373C823.595 55.5178 823.195 55.8863 823.176 56.3604C823.156 56.8345 823.525 57.2347 823.999 57.2542Z" fill="white" fill-opacity="0.44"/>
<path opacity="0.11" d="M936.118 134.124C936.592 134.144 936.992 133.775 937.012 133.301C937.031 132.827 936.663 132.427 936.189 132.407C935.714 132.388 935.314 132.756 935.295 133.231C935.275 133.705 935.644 134.105 936.118 134.124Z" fill="white" fill-opacity="0.44"/>
<path opacity="0.3" d="M718.502 132.925C719.451 132.964 720.252 132.226 720.291 131.277C720.33 130.328 719.592 129.527 718.643 129.488C717.694 129.449 716.893 130.186 716.854 131.135C716.815 132.085 717.553 132.885 718.502 132.925Z" fill="white" fill-opacity="0.44"/>
<path opacity="0.11" d="M770.242 109.244C771.191 109.283 771.992 108.545 772.031 107.596C772.07 106.647 771.333 105.846 770.383 105.807C769.434 105.768 768.633 106.506 768.594 107.455C768.555 108.404 769.293 109.205 770.242 109.244Z" fill="white" fill-opacity="0.44"/>
<path d="M771.053 79.168C771.764 79.1972 772.365 78.6441 772.394 77.9325C772.423 77.2209 771.87 76.6203 771.159 76.5911C770.447 76.5618 769.846 77.1149 769.817 77.8265C769.788 78.5381 770.341 79.1387 771.053 79.168Z" fill="white" fill-opacity="0.44"/>
<path d="M708.084 166.917C708.795 166.946 709.396 166.393 709.425 165.682C709.455 164.97 708.901 164.369 708.19 164.34C707.478 164.311 706.878 164.864 706.848 165.576C706.819 166.287 707.372 166.888 708.084 166.917Z" fill="white" fill-opacity="0.44"/>
<path d="M992.519 195.816C993.231 195.846 993.832 195.293 993.861 194.581C993.89 193.869 993.337 193.269 992.625 193.24C991.914 193.21 991.313 193.763 991.284 194.475C991.255 195.187 991.808 195.787 992.519 195.816Z" fill="white" fill-opacity="0.44"/>
<path d="M435.698 158.285C436.41 158.314 437.01 157.761 437.04 157.05C437.069 156.338 436.516 155.738 435.804 155.708C435.093 155.679 434.492 156.232 434.463 156.944C434.433 157.655 434.987 158.256 435.698 158.285Z" fill="white" fill-opacity="0.44"/>
<path d="M322.289 133.838C323.001 133.867 323.601 133.314 323.63 132.602C323.66 131.891 323.106 131.29 322.395 131.261C321.683 131.232 321.083 131.785 321.053 132.496C321.024 133.208 321.577 133.809 322.289 133.838Z" fill="white" fill-opacity="0.44"/>
<path d="M309.1 98.8838C309.812 98.9131 310.413 98.3599 310.442 97.6484C310.471 96.9368 309.918 96.3362 309.206 96.3069C308.495 96.2776 307.894 96.8308 307.865 97.5424C307.836 98.254 308.389 98.8546 309.1 98.8838Z" fill="white" fill-opacity="0.44"/>
<path d="M729.118 94.6533C729.83 94.6826 730.43 94.1295 730.46 93.4179C730.489 92.7063 729.936 92.1057 729.224 92.0764C728.512 92.0472 727.912 92.6003 727.883 93.3119C727.853 94.0235 728.406 94.6241 729.118 94.6533Z" fill="white" fill-opacity="0.44"/>
<path d="M577.056 152.06C577.767 152.089 578.368 151.536 578.397 150.824C578.426 150.113 577.873 149.512 577.162 149.483C576.45 149.453 575.849 150.007 575.82 150.718C575.791 151.43 576.344 152.03 577.056 152.06Z" fill="white" fill-opacity="0.44"/>
<path d="M791.978 197.892C792.69 197.921 793.291 197.368 793.32 196.656C793.349 195.945 792.796 195.344 792.084 195.315C791.373 195.285 790.772 195.839 790.743 196.55C790.714 197.262 791.267 197.862 791.978 197.892Z" fill="white" fill-opacity="0.44"/>
<path d="M1021.98 148.845C1022.69 148.874 1023.29 148.321 1023.32 147.609C1023.35 146.898 1022.79 146.297 1022.08 146.268C1021.37 146.239 1020.77 146.792 1020.74 147.503C1020.71 148.215 1021.27 148.815 1021.98 148.845Z" fill="white" fill-opacity="0.44"/>
<path d="M1044.53 102.457C1045.25 102.486 1045.85 101.933 1045.88 101.222C1045.91 100.51 1045.35 99.9094 1044.64 99.8801C1043.93 99.8509 1043.33 100.404 1043.3 101.116C1043.27 101.827 1043.82 102.428 1044.53 102.457Z" fill="white" fill-opacity="0.44"/>
<path opacity="0.3" d="M841.875 82.9391C842.824 82.9782 843.625 82.2404 843.664 81.2914C843.703 80.3423 842.965 79.5413 842.016 79.5023C841.067 79.4633 840.266 80.201 840.227 81.15C840.188 82.0991 840.926 82.9001 841.875 82.9391Z" fill="white" fill-opacity="0.44"/>
<path d="M844.376 21.9548C845.325 21.9938 846.126 21.2561 846.165 20.307C846.204 19.358 845.466 18.557 844.517 18.5179C843.568 18.4789 842.767 19.2166 842.728 20.1657C842.689 21.1148 843.427 21.9158 844.376 21.9548Z" fill="white" fill-opacity="0.44"/>
<path d="M885.326 103.652C886.038 103.682 886.638 103.128 886.667 102.417C886.697 101.705 886.144 101.105 885.432 101.075C884.72 101.046 884.12 101.599 884.091 102.311C884.061 103.023 884.614 103.623 885.326 103.652Z" fill="white" fill-opacity="0.44"/>
<path opacity="0.3" d="M928.363 71.8708C929.312 71.9098 930.113 71.1721 930.152 70.223C930.191 69.274 929.454 68.473 928.505 68.4339C927.555 68.3949 926.754 69.1327 926.715 70.0817C926.676 71.0308 927.414 71.8318 928.363 71.8708Z" fill="white" fill-opacity="0.44"/>
<path opacity="0.3" d="M1010.88 136.352C1011.83 136.391 1012.63 135.654 1012.67 134.704C1012.71 133.755 1011.98 132.954 1011.03 132.915C1010.08 132.876 1009.28 133.614 1009.24 134.563C1009.2 135.512 1009.94 136.313 1010.88 136.352Z" fill="white" fill-opacity="0.44"/>
<path opacity="0.3" d="M910.325 133.931C911.274 133.97 912.075 133.233 912.114 132.284C912.153 131.335 911.416 130.534 910.466 130.494C909.517 130.455 908.716 131.193 908.677 132.142C908.638 133.091 909.376 133.892 910.325 133.931Z" fill="white" fill-opacity="0.44"/>
<path opacity="0.3" d="M416.727 128.254C417.676 128.293 418.477 127.555 418.516 126.606C418.555 125.657 417.817 124.856 416.868 124.817C415.919 124.778 415.118 125.515 415.079 126.465C415.04 127.414 415.777 128.215 416.727 128.254Z" fill="white" fill-opacity="0.44"/>
<path opacity="0.3" d="M349.091 78.154C350.04 78.193 350.841 77.4553 350.88 76.5062C350.919 75.5572 350.181 74.7562 349.232 74.7172C348.283 74.6781 347.482 75.4158 347.443 76.3649C347.404 77.314 348.142 78.115 349.091 78.154Z" fill="white" fill-opacity="0.44"/>
<path opacity="0.11" d="M976.73 109.135C977.679 109.174 978.48 108.437 978.52 107.488C978.559 106.539 977.821 105.738 976.872 105.699C975.923 105.66 975.122 106.397 975.083 107.346C975.044 108.295 975.781 109.096 976.73 109.135Z" fill="white" fill-opacity="0.44"/>
<path opacity="0.3" d="M473.112 54.0065C474.061 54.0455 474.862 53.3078 474.901 52.3588C474.94 51.4097 474.203 50.6087 473.254 50.5697C472.305 50.5307 471.504 51.2684 471.464 52.2174C471.425 53.1665 472.163 53.9675 473.112 54.0065Z" fill="white" fill-opacity="0.44"/>
<path opacity="0.11" d="M450.63 35.8728C451.579 35.9118 452.38 35.1741 452.419 34.225C452.458 33.276 451.72 32.4749 450.771 32.4359C449.822 32.3969 449.021 33.1346 448.982 34.0837C448.943 35.0327 449.681 35.8337 450.63 35.8728Z" fill="white" fill-opacity="0.44"/>
<path opacity="0.3" d="M441.501 90.5603C442.45 90.5993 443.251 89.8616 443.29 88.9125C443.329 87.9635 442.591 87.1624 441.642 87.1234C440.693 87.0844 439.892 87.8221 439.853 88.7712C439.814 89.7202 440.552 90.5212 441.501 90.5603Z" fill="white" fill-opacity="0.44"/>
<path d="M495.209 91.9063C495.92 91.9355 496.521 91.3824 496.55 90.6708C496.58 89.9592 496.026 89.3586 495.315 89.3294C494.603 89.3001 494.003 89.8532 493.973 90.5648C493.944 91.2764 494.497 91.877 495.209 91.9063Z" fill="white" fill-opacity="0.44"/>
<path opacity="0.11" d="M1096.37 250.573C1097.32 250.612 1098.12 249.874 1098.16 248.925C1098.2 247.976 1097.47 247.175 1096.52 247.136C1095.57 247.097 1094.77 247.835 1094.73 248.784C1094.69 249.733 1095.43 250.534 1096.37 250.573Z" fill="white" fill-opacity="0.44"/>
<path d="M1101.56 260.247C1102.27 260.276 1102.87 259.723 1102.9 259.012C1102.93 258.3 1102.38 257.699 1101.67 257.67C1100.96 257.641 1100.36 258.194 1100.33 258.906C1100.3 259.617 1100.85 260.218 1101.56 260.247Z" fill="white" fill-opacity="0.44"/>
<path d="M1130.66 243.389C1131.37 243.418 1131.97 242.865 1132 242.153C1132.03 241.442 1131.47 240.841 1130.76 240.812C1130.05 240.783 1129.45 241.336 1129.42 242.047C1129.39 242.759 1129.94 243.359 1130.66 243.389Z" fill="white" fill-opacity="0.44"/>
<path d="M1057.72 238.656C1058.43 238.686 1059.03 238.132 1059.06 237.421C1059.09 236.709 1058.54 236.109 1057.82 236.079C1057.11 236.05 1056.51 236.603 1056.48 237.315C1056.45 238.026 1057.01 238.627 1057.72 238.656Z" fill="white" fill-opacity="0.44"/>
<path opacity="0.11" d="M1014.35 257.519C1015.3 257.558 1016.1 256.821 1016.14 255.871C1016.18 254.922 1015.44 254.121 1014.49 254.082C1013.54 254.043 1012.74 254.781 1012.7 255.73C1012.66 256.679 1013.4 257.48 1014.35 257.519Z" fill="white" fill-opacity="0.44"/>
<path d="M998.816 237.957C999.29 237.977 999.69 237.608 999.71 237.134C999.729 236.66 999.361 236.26 998.887 236.24C998.413 236.221 998.013 236.589 997.993 237.064C997.974 237.538 998.342 237.938 998.816 237.957Z" fill="white" fill-opacity="0.44"/>
<path d="M1092.41 283.957C1092.89 283.977 1093.29 283.608 1093.31 283.134C1093.33 282.66 1092.96 282.26 1092.48 282.24C1092.01 282.221 1091.61 282.589 1091.59 283.064C1091.57 283.538 1091.94 283.938 1092.41 283.957Z" fill="white" fill-opacity="0.44"/>
<path d="M1279.66 291.667C1280.13 291.687 1280.53 291.318 1280.55 290.844C1280.57 290.37 1280.2 289.97 1279.73 289.95C1279.25 289.931 1278.85 290.299 1278.83 290.774C1278.81 291.248 1279.18 291.648 1279.66 291.667Z" fill="white" fill-opacity="0.44"/>
<path d="M1278.37 180.495C1278.84 180.515 1279.24 180.146 1279.26 179.672C1279.28 179.198 1278.91 178.798 1278.44 178.778C1277.96 178.759 1277.56 179.128 1277.54 179.602C1277.52 180.076 1277.89 180.476 1278.37 180.495Z" fill="white" fill-opacity="0.44"/>
<path d="M1406.1 313.209C1406.57 313.229 1406.97 312.86 1406.99 312.386C1407.01 311.912 1406.65 311.512 1406.17 311.492C1405.7 311.473 1405.3 311.841 1405.28 312.316C1405.26 312.79 1405.63 313.19 1406.1 313.209Z" fill="white" fill-opacity="0.44"/>
<path d="M807.289 250.726C807.763 250.745 808.163 250.377 808.183 249.903C808.202 249.429 807.834 249.028 807.359 249.009C806.885 248.989 806.485 249.358 806.466 249.832C806.446 250.306 806.815 250.706 807.289 250.726Z" fill="white" fill-opacity="0.44"/>
<path opacity="0.11" d="M796.319 203.817C796.793 203.836 797.193 203.468 797.213 202.994C797.232 202.519 796.864 202.119 796.39 202.1C795.916 202.08 795.515 202.449 795.496 202.923C795.476 203.397 795.845 203.797 796.319 203.817Z" fill="white" fill-opacity="0.44"/>
<path opacity="0.11" d="M758.581 222.057C759.055 222.076 759.455 221.708 759.475 221.234C759.494 220.76 759.126 220.359 758.651 220.34C758.177 220.32 757.777 220.689 757.758 221.163C757.738 221.637 758.107 222.037 758.581 222.057Z" fill="white" fill-opacity="0.44"/>
<path opacity="0.11" d="M784.804 274.756C785.278 274.776 785.678 274.407 785.697 273.933C785.717 273.459 785.348 273.059 784.874 273.039C784.4 273.02 784 273.388 783.98 273.862C783.961 274.337 784.329 274.737 784.804 274.756Z" fill="white" fill-opacity="0.44"/>
<path opacity="0.11" d="M990.623 248.798C991.097 248.818 991.497 248.449 991.517 247.975C991.536 247.501 991.168 247.101 990.693 247.081C990.219 247.062 989.819 247.43 989.8 247.904C989.78 248.379 990.149 248.779 990.623 248.798Z" fill="white" fill-opacity="0.44"/>
<path opacity="0.11" d="M1089.42 314.806C1089.9 314.825 1090.3 314.457 1090.32 313.983C1090.33 313.509 1089.97 313.109 1089.49 313.089C1089.02 313.07 1088.62 313.438 1088.6 313.912C1088.58 314.386 1088.95 314.786 1089.42 314.806Z" fill="white" fill-opacity="0.44"/>
<path opacity="0.11" d="M1254.69 313.004C1255.16 313.024 1255.56 312.655 1255.58 312.181C1255.6 311.707 1255.23 311.307 1254.76 311.287C1254.29 311.268 1253.89 311.636 1253.87 312.11C1253.85 312.585 1254.22 312.985 1254.69 313.004Z" fill="white" fill-opacity="0.44"/>
<path opacity="0.3" d="M847.687 230.878C848.161 230.898 848.562 230.529 848.581 230.055C848.601 229.581 848.232 229.181 847.758 229.161C847.284 229.142 846.884 229.51 846.864 229.984C846.845 230.459 847.213 230.859 847.687 230.878Z" fill="white" fill-opacity="0.44"/>
<path d="M1047.13 192.624C1047.61 192.644 1048.01 192.275 1048.03 191.801C1048.04 191.327 1047.68 190.927 1047.2 190.907C1046.73 190.888 1046.33 191.256 1046.31 191.731C1046.29 192.205 1046.66 192.605 1047.13 192.624Z" fill="white" fill-opacity="0.44"/>
<path d="M1179.47 196.345C1179.95 196.365 1180.35 195.996 1180.37 195.522C1180.39 195.048 1180.02 194.648 1179.54 194.628C1179.07 194.609 1178.67 194.977 1178.65 195.451C1178.63 195.925 1179 196.326 1179.47 196.345Z" fill="white" fill-opacity="0.44"/>
<path d="M985.479 269.237C985.953 269.256 986.354 268.888 986.373 268.413C986.393 267.939 986.024 267.539 985.55 267.52C985.076 267.5 984.676 267.869 984.656 268.343C984.637 268.817 985.005 269.217 985.479 269.237Z" fill="white" fill-opacity="0.44"/>
<path opacity="0.3" d="M925.36 266.769C925.834 266.788 926.234 266.42 926.254 265.946C926.273 265.472 925.905 265.071 925.431 265.052C924.957 265.032 924.556 265.401 924.537 265.875C924.517 266.349 924.886 266.749 925.36 266.769Z" fill="white" fill-opacity="0.44"/>
<path opacity="0.11" d="M857.128 210.622C857.602 210.642 858.002 210.273 858.022 209.799C858.041 209.325 857.672 208.925 857.198 208.905C856.724 208.886 856.324 209.254 856.305 209.729C856.285 210.203 856.654 210.603 857.128 210.622Z" fill="white" fill-opacity="0.44"/>
<path opacity="0.3" d="M1061.75 213.876C1062.22 213.896 1062.63 213.527 1062.64 213.053C1062.66 212.579 1062.3 212.179 1061.82 212.159C1061.35 212.14 1060.95 212.508 1060.93 212.983C1060.91 213.457 1061.28 213.857 1061.75 213.876Z" fill="white" fill-opacity="0.44"/>
<path opacity="0.3" d="M999.417 286.162C999.891 286.182 1000.29 285.813 1000.31 285.339C1000.33 284.865 999.961 284.465 999.487 284.445C999.013 284.426 998.613 284.794 998.594 285.269C998.574 285.743 998.943 286.143 999.417 286.162Z" fill="white" fill-opacity="0.44"/>
<path opacity="0.3" d="M895.135 290.472C895.609 290.492 896.009 290.123 896.028 289.649C896.048 289.175 895.679 288.775 895.205 288.755C894.731 288.736 894.331 289.104 894.311 289.578C894.292 290.052 894.66 290.453 895.135 290.472Z" fill="white" fill-opacity="0.44"/>
<path opacity="0.3" d="M872.595 231.91C873.07 231.929 873.47 231.56 873.489 231.086C873.509 230.612 873.14 230.212 872.666 230.193C872.192 230.173 871.792 230.542 871.772 231.016C871.753 231.49 872.121 231.89 872.595 231.91Z" fill="white" fill-opacity="0.44"/>
<path opacity="0.3" d="M1310.11 182.659C1310.59 182.679 1310.99 182.31 1311 181.836C1311.02 181.362 1310.66 180.962 1310.18 180.943C1309.71 180.923 1309.31 181.292 1309.29 181.766C1309.27 182.24 1309.64 182.64 1310.11 182.659Z" fill="white" fill-opacity="0.44"/>
<path opacity="0.11" d="M1270.09 210.399C1270.56 210.418 1270.96 210.05 1270.98 209.576C1271 209.101 1270.63 208.701 1270.16 208.682C1269.69 208.662 1269.28 209.031 1269.27 209.505C1269.25 209.979 1269.61 210.379 1270.09 210.399Z" fill="white" fill-opacity="0.44"/>
<path opacity="0.11" d="M1382.21 287.275C1382.69 287.294 1383.09 286.926 1383.11 286.452C1383.12 285.977 1382.76 285.577 1382.28 285.558C1381.81 285.538 1381.41 285.907 1381.39 286.381C1381.37 286.855 1381.74 287.255 1382.21 287.275Z" fill="white" fill-opacity="0.44"/>
<path opacity="0.3" d="M1164.59 286.071C1165.54 286.11 1166.34 285.372 1166.38 284.423C1166.42 283.474 1165.68 282.673 1164.73 282.634C1163.78 282.595 1162.98 283.333 1162.94 284.282C1162.9 285.231 1163.64 286.032 1164.59 286.071Z" fill="white" fill-opacity="0.44"/>
<path opacity="0.11" d="M1216.33 262.39C1217.28 262.429 1218.08 261.692 1218.12 260.743C1218.16 259.794 1217.42 258.993 1216.47 258.953C1215.52 258.914 1214.72 259.652 1214.68 260.601C1214.64 261.55 1215.38 262.351 1216.33 262.39Z" fill="white" fill-opacity="0.44"/>
<path d="M1217.14 232.313C1217.85 232.343 1218.45 231.79 1218.48 231.078C1218.51 230.366 1217.96 229.766 1217.25 229.737C1216.54 229.707 1215.94 230.26 1215.91 230.972C1215.88 231.684 1216.43 232.284 1217.14 232.313Z" fill="white" fill-opacity="0.44"/>
<path d="M1154.17 320.059C1154.88 320.088 1155.48 319.535 1155.51 318.823C1155.54 318.112 1154.99 317.511 1154.28 317.482C1153.57 317.452 1152.97 318.006 1152.94 318.717C1152.91 319.429 1153.46 320.029 1154.17 320.059Z" fill="white" fill-opacity="0.44"/>
<path d="M1438.61 348.964C1439.32 348.993 1439.92 348.44 1439.95 347.728C1439.98 347.017 1439.42 346.416 1438.71 346.387C1438 346.358 1437.4 346.911 1437.37 347.622C1437.34 348.334 1437.89 348.935 1438.61 348.964Z" fill="white" fill-opacity="0.44"/>
<path d="M881.794 311.434C882.505 311.463 883.106 310.91 883.135 310.198C883.164 309.487 882.611 308.886 881.9 308.857C881.188 308.827 880.588 309.381 880.558 310.092C880.529 310.804 881.082 311.404 881.794 311.434Z" fill="white" fill-opacity="0.44"/>
<path d="M768.385 286.987C769.096 287.017 769.697 286.463 769.726 285.752C769.755 285.04 769.202 284.44 768.491 284.41C767.779 284.381 767.178 284.934 767.149 285.646C767.12 286.357 767.673 286.958 768.385 286.987Z" fill="white" fill-opacity="0.44"/>
<path d="M755.198 252.027C755.91 252.057 756.51 251.503 756.54 250.792C756.569 250.08 756.016 249.48 755.304 249.45C754.593 249.421 753.992 249.974 753.963 250.686C753.933 251.397 754.487 251.998 755.198 252.027Z" fill="white" fill-opacity="0.44"/>
<path d="M1175.21 247.797C1175.92 247.826 1176.52 247.273 1176.55 246.561C1176.58 245.85 1176.03 245.249 1175.32 245.22C1174.61 245.191 1174.01 245.744 1173.98 246.455C1173.95 247.167 1174.5 247.768 1175.21 247.797Z" fill="white" fill-opacity="0.44"/>
<path d="M1023.15 305.204C1023.86 305.233 1024.46 304.68 1024.49 303.969C1024.52 303.257 1023.97 302.656 1023.25 302.627C1022.54 302.598 1021.94 303.151 1021.91 303.863C1021.88 304.574 1022.44 305.175 1023.15 305.204Z" fill="white" fill-opacity="0.44"/>
<path d="M1238.07 351.04C1238.78 351.069 1239.38 350.516 1239.41 349.805C1239.44 349.093 1238.89 348.492 1238.18 348.463C1237.47 348.434 1236.87 348.987 1236.84 349.699C1236.81 350.41 1237.36 351.011 1238.07 351.04Z" fill="white" fill-opacity="0.44"/>
<path d="M1371.26 233.355C1371.97 233.385 1372.57 232.832 1372.6 232.12C1372.63 231.408 1372.08 230.808 1371.37 230.779C1370.66 230.749 1370.06 231.302 1370.03 232.014C1370 232.726 1370.55 233.326 1371.26 233.355Z" fill="white" fill-opacity="0.44"/>
<path d="M1312.92 129.608C1313.63 129.638 1314.23 129.085 1314.26 128.373C1314.29 127.661 1313.74 127.061 1313.03 127.032C1312.32 127.002 1311.72 127.555 1311.69 128.267C1311.66 128.979 1312.21 129.579 1312.92 129.608Z" fill="white" fill-opacity="0.44"/>
<path opacity="0.3" d="M1287.96 236.081C1288.91 236.12 1289.71 235.382 1289.75 234.433C1289.79 233.484 1289.05 232.683 1288.1 232.644C1287.15 232.605 1286.35 233.343 1286.31 234.292C1286.27 235.241 1287.01 236.042 1287.96 236.081Z" fill="white" fill-opacity="0.44"/>
<path d="M1193.66 106.469C1194.6 106.508 1195.41 105.771 1195.44 104.822C1195.48 103.873 1194.75 103.072 1193.8 103.033C1192.85 102.994 1192.05 103.731 1192.01 104.68C1191.97 105.629 1192.71 106.43 1193.66 106.469Z" fill="white" fill-opacity="0.44"/>
<path d="M1331.42 256.805C1332.13 256.834 1332.73 256.281 1332.76 255.569C1332.79 254.858 1332.24 254.257 1331.53 254.228C1330.81 254.199 1330.21 254.752 1330.18 255.463C1330.16 256.175 1330.71 256.775 1331.42 256.805Z" fill="white" fill-opacity="0.44"/>
<path opacity="0.3" d="M1277.64 156.38C1278.59 156.419 1279.39 155.681 1279.43 154.732C1279.47 153.783 1278.73 152.982 1277.79 152.943C1276.84 152.904 1276.04 153.641 1276 154.591C1275.96 155.54 1276.7 156.341 1277.64 156.38Z" fill="white" fill-opacity="0.44"/>
<path opacity="0.3" d="M1360.16 220.859C1361.11 220.898 1361.92 220.16 1361.95 219.211C1361.99 218.262 1361.26 217.461 1360.31 217.422C1359.36 217.383 1358.56 218.121 1358.52 219.07C1358.48 220.019 1359.22 220.82 1360.16 220.859Z" fill="white" fill-opacity="0.44"/>
<path opacity="0.3" d="M1356.41 287.082C1357.36 287.121 1358.16 286.383 1358.2 285.434C1358.24 284.485 1357.5 283.684 1356.55 283.645C1355.61 283.606 1354.8 284.344 1354.77 285.293C1354.73 286.242 1355.46 287.043 1356.41 287.082Z" fill="white" fill-opacity="0.44"/>
<path opacity="0.3" d="M862.817 281.401C863.766 281.44 864.567 280.702 864.606 279.753C864.645 278.804 863.908 278.003 862.959 277.964C862.01 277.925 861.209 278.663 861.17 279.612C861.131 280.561 861.868 281.362 862.817 281.401Z" fill="white" fill-opacity="0.44"/>
<path opacity="0.3" d="M795.182 231.298C796.131 231.337 796.932 230.599 796.971 229.65C797.01 228.701 796.272 227.9 795.323 227.861C794.374 227.822 793.573 228.559 793.534 229.508C793.495 230.458 794.233 231.259 795.182 231.298Z" fill="white" fill-opacity="0.44"/>
<path opacity="0.11" d="M1326.01 193.64C1326.96 193.679 1327.76 192.942 1327.8 191.993C1327.84 191.044 1327.1 190.243 1326.15 190.203C1325.2 190.164 1324.4 190.902 1324.36 191.851C1324.32 192.8 1325.06 193.601 1326.01 193.64Z" fill="white" fill-opacity="0.44"/>
<path opacity="0.3" d="M919.203 207.152C920.152 207.191 920.953 206.453 920.992 205.504C921.031 204.555 920.293 203.754 919.344 203.715C918.395 203.676 917.594 204.414 917.555 205.363C917.516 206.312 918.254 207.113 919.203 207.152Z" fill="white" fill-opacity="0.44"/>
<path opacity="0.11" d="M896.72 189.019C897.669 189.058 898.47 188.321 898.509 187.371C898.548 186.422 897.81 185.621 896.861 185.582C895.912 185.543 895.111 186.281 895.072 187.23C895.033 188.179 895.771 188.98 896.72 189.019Z" fill="white" fill-opacity="0.44"/>
<path opacity="0.3" d="M887.599 243.71C888.548 243.749 889.349 243.011 889.388 242.062C889.427 241.113 888.689 240.312 887.74 240.273C886.791 240.234 885.99 240.971 885.951 241.921C885.912 242.87 886.65 243.671 887.599 243.71Z" fill="white" fill-opacity="0.44"/>
<path d="M941.304 245.051C942.015 245.08 942.616 244.527 942.645 243.815C942.674 243.104 942.121 242.503 941.41 242.474C940.698 242.445 940.097 242.998 940.068 243.709C940.039 244.421 940.592 245.022 941.304 245.051Z" fill="white" fill-opacity="0.44"/>
</g>
</g>
<defs>
<filter id="filter0_f_12263_45155" x="498.886" y="-364.092" width="442.229" height="1181.14" filterUnits="userSpaceOnUse" color-interpolation-filters="sRGB">
<feFlood flood-opacity="0" result="BackgroundImageFix"/>
<feBlend mode="normal" in="SourceGraphic" in2="BackgroundImageFix" result="shape"/>
<feGaussianBlur stdDeviation="83.0348" result="effect1_foregroundBlur_12263_45155"/>
</filter>
<filter id="filter1_f_12263_45155" x="576.822" y="-341.408" width="708.086" height="884.555" filterUnits="userSpaceOnUse" color-interpolation-filters="sRGB">
<feFlood flood-opacity="0" result="BackgroundImageFix"/>
<feBlend mode="normal" in="SourceGraphic" in2="BackgroundImageFix" result="shape"/>
<feGaussianBlur stdDeviation="67.118" result="effect1_foregroundBlur_12263_45155"/>
</filter>
<filter id="filter2_f_12263_45155" x="132.196" y="-341.224" width="708.087" height="884.555" filterUnits="userSpaceOnUse" color-interpolation-filters="sRGB">
<feFlood flood-opacity="0" result="BackgroundImageFix"/>
<feBlend mode="normal" in="SourceGraphic" in2="BackgroundImageFix" result="shape"/>
<feGaussianBlur stdDeviation="67.118" result="effect1_foregroundBlur_12263_45155"/>
</filter>
<filter id="filter3_f_12263_45155" x="-141.778" y="-341.044" width="919.271" height="769.408" filterUnits="userSpaceOnUse" color-interpolation-filters="sRGB">
<feFlood flood-opacity="0" result="BackgroundImageFix"/>
<feBlend mode="normal" in="SourceGraphic" in2="BackgroundImageFix" result="shape"/>
<feGaussianBlur stdDeviation="77.9464" result="effect1_foregroundBlur_12263_45155"/>
</filter>
<filter id="filter4_f_12263_45155" x="-15.2541" y="-494.675" width="880.165" height="907.325" filterUnits="userSpaceOnUse" color-interpolation-filters="sRGB">
<feFlood flood-opacity="0" result="BackgroundImageFix"/>
<feBlend mode="normal" in="SourceGraphic" in2="BackgroundImageFix" result="shape"/>
<feGaussianBlur stdDeviation="71.7599" result="effect1_foregroundBlur_12263_45155"/>
</filter>
<filter id="filter5_f_12263_45155" x="551.602" y="-527.201" width="894.524" height="893.337" filterUnits="userSpaceOnUse" color-interpolation-filters="sRGB">
<feFlood flood-opacity="0" result="BackgroundImageFix"/>
<feBlend mode="normal" in="SourceGraphic" in2="BackgroundImageFix" result="shape"/>
<feGaussianBlur stdDeviation="71.7599" result="effect1_foregroundBlur_12263_45155"/>
</filter>
<filter id="filter6_f_12263_45155" x="662.509" y="-341.302" width="919.27" height="769.409" filterUnits="userSpaceOnUse" color-interpolation-filters="sRGB">
<feFlood flood-opacity="0" result="BackgroundImageFix"/>
<feBlend mode="normal" in="SourceGraphic" in2="BackgroundImageFix" result="shape"/>
<feGaussianBlur stdDeviation="77.9464" result="effect1_foregroundBlur_12263_45155"/>
</filter>
<clipPath id="clip0_12263_45155">
<rect width="1440" height="674" fill="white"/>
</clipPath>
</defs>
</svg>
