<svg width="19" height="17" viewBox="0 0 19 17" fill="none" xmlns="http://www.w3.org/2000/svg">
<path d="M14.5058 16.625C15.4269 16.625 16.22 16.1022 16.8183 15.5049C17.4271 14.8971 17.9181 14.1315 18.2431 13.46C18.2505 13.4447 18.2565 13.4289 18.2627 13.4131C18.6191 12.492 18.7202 11.0054 18.5283 9.13965C18.3338 7.24982 17.8315 4.89799 16.9121 2.2041C16.8702 2.08147 16.7906 1.97519 16.6855 1.89941C15.2404 0.859162 13.7914 0.534697 12.3525 0.378906C12.07 0.348331 11.8024 0.511917 11.7011 0.777344L11.3183 1.78223C11.2502 1.96116 11.2156 2.05113 11.1425 2.0957C11.0693 2.14023 10.9704 2.12916 10.7734 2.10645C10.4016 2.06358 10.0346 2.042 9.66597 2.04199C9.29734 2.04199 8.93029 2.06359 8.55855 2.10645C8.36159 2.12916 8.26269 2.14023 8.18941 2.0957C8.1162 2.05116 8.08183 1.96127 8.01363 1.78223L7.63082 0.777344C7.52959 0.511881 7.26192 0.34833 6.97945 0.378906C5.54045 0.534689 4.09159 0.859118 2.64644 1.89941C2.54128 1.97519 2.46178 2.08145 2.41988 2.2041C1.50043 4.89799 0.998146 7.24982 0.803667 9.13965C0.611708 11.0054 0.712855 12.492 1.06929 13.4131C1.0754 13.4289 1.08145 13.4447 1.08882 13.46C1.41381 14.1315 1.9048 14.8971 2.51363 15.5049C3.11196 16.1022 3.90511 16.625 4.82613 16.625C5.05741 16.6249 5.2566 16.5213 5.36421 16.459C5.49671 16.3823 5.63331 16.282 5.76363 16.1738C6.02606 15.956 6.31435 15.6651 6.58199 15.3506C6.84958 15.0361 7.11092 14.68 7.30855 14.3281C7.37399 14.2116 7.40719 14.1532 7.40718 14.0879C7.40715 14.0218 7.37556 13.9492 7.3271 13.9043C7.27912 13.8598 7.20435 13.8423 7.05562 13.8066C6.47424 13.6672 5.88302 13.4821 5.27632 13.251C4.95394 13.128 4.79224 12.7668 4.915 12.4443C5.03788 12.1218 5.39907 11.9601 5.72164 12.083C8.49494 13.1395 10.837 13.1395 13.6103 12.083C13.9328 11.9603 14.2941 12.1218 14.4169 12.4443C14.5396 12.7668 14.3771 13.1281 14.0546 13.251C13.7326 13.4164 12.8975 13.6447 12.2744 13.7988C12.1202 13.837 12.0426 13.8562 11.9931 13.9063C11.952 13.948 11.9241 14.0137 11.9218 14.0723C11.9192 14.1426 11.9539 14.2045 12.0234 14.3281C12.221 14.6799 12.4814 15.0361 12.749 15.3506C13.0167 15.6652 13.3058 15.9559 13.5683 16.1738C13.6986 16.2819 13.8343 16.3823 13.9668 16.459C14.0743 16.5212 14.2741 16.625 14.5058 16.625ZM5.90914 8.91699C4.99035 8.91676 4.24898 8.16835 4.24898 7.25C4.24898 6.33165 4.99035 5.58324 5.90914 5.58301H5.92183C6.84081 5.58301 7.58296 6.33151 7.58296 7.25C7.58296 8.1685 6.84081 8.91699 5.92183 8.91699H5.90914ZM13.4091 8.91699C12.4903 8.91676 11.749 8.16835 11.749 7.25C11.749 6.33165 12.4903 5.58324 13.4091 5.58301H13.4218C14.3408 5.58301 15.083 6.33151 15.083 7.25C15.083 8.16849 14.3408 8.91699 13.4218 8.91699H13.4091Z" fill="#9DABBD"/>
</svg>
