<svg width="20" height="21" viewBox="0 0 20 21" fill="none" xmlns="http://www.w3.org/2000/svg">
<path fill-rule="evenodd" clip-rule="evenodd" d="M20 10.5C20 16.0228 15.5228 20.5 10 20.5C4.47715 20.5 0 16.0228 0 10.5C0 4.97715 4.47715 0.5 10 0.5C15.5228 0.5 20 4.97715 20 10.5ZM14.7216 7.94897C15.0003 7.64247 14.9777 7.16814 14.6712 6.88951C14.3647 6.61088 13.8904 6.63347 13.6117 6.93996L8.61947 12.4314L6.39573 9.91121C6.12168 9.60062 5.64773 9.57099 5.33714 9.84505C5.02654 10.1191 4.99692 10.593 5.27097 10.9036L7.88459 13.8657C8.26781 14.3001 8.94338 14.3051 9.33299 13.8765L14.7216 7.94897Z" fill="#F1F5F9"/>
</svg>
