<svg width="20" height="20" viewBox="0 0 20 20" fill="none" xmlns="http://www.w3.org/2000/svg">
<path fill-rule="evenodd" clip-rule="evenodd" d="M4.53496 2.70826C4.5508 2.70826 4.56687 2.70826 4.58318 2.70826H15.4165C15.4328 2.70826 15.4489 2.70826 15.4647 2.70826C15.8053 2.7082 16.0372 2.70816 16.2411 2.735C17.6434 2.91961 18.7468 4.02308 18.9314 5.42537C18.9583 5.6292 18.9582 5.86115 18.9582 6.20171C18.9582 6.21755 18.9582 6.23362 18.9582 6.24993V12.6934C18.9582 13.3707 18.9582 13.9171 18.922 14.3595C18.8848 14.815 18.8062 15.2151 18.6176 15.5853C18.318 16.1733 17.8399 16.6514 17.2519 16.951C16.8817 17.1396 16.4816 17.2182 16.0261 17.2555C15.5837 17.2916 15.0373 17.2916 14.36 17.2916H5.63974C4.96239 17.2916 4.41604 17.2916 3.97362 17.2555C3.51809 17.2182 3.11798 17.1396 2.74779 16.951C2.15979 16.6514 1.68172 16.1733 1.38212 15.5853C1.1935 15.2151 1.11487 14.815 1.07765 14.3595C1.0415 13.9171 1.04151 13.3707 1.04151 12.6934L1.04151 6.24993C1.04151 6.23362 1.04151 6.21755 1.04151 6.20171C1.04145 5.86115 1.04141 5.6292 1.06825 5.42537C1.25286 4.02308 2.35633 2.91961 3.75862 2.735C3.96245 2.70816 4.1944 2.7082 4.53496 2.70826ZM4.58318 3.95826C4.1763 3.95826 4.03338 3.95961 3.92178 3.9743C3.0804 4.08507 2.41832 4.74715 2.30756 5.58853C2.29858 5.6567 2.29458 5.73655 2.29283 5.88111L9.65849 9.93222C9.78186 10.0001 9.85182 10.0383 9.90613 10.0642C9.93967 10.0802 9.95452 10.0852 9.95851 10.0864C9.98579 10.0919 10.0139 10.0919 10.0412 10.0864C10.0452 10.0852 10.06 10.0802 10.0936 10.0642C10.1479 10.0383 10.2178 10.0001 10.3412 9.93222L17.7069 5.88111C17.7051 5.73655 17.7011 5.6567 17.6921 5.58853C17.5814 4.74715 16.9193 4.08507 16.0779 3.9743C15.9663 3.95961 15.8234 3.95826 15.4165 3.95826H4.58318ZM17.7082 7.30697L10.9436 11.0275C10.9282 11.036 10.9127 11.0445 10.8971 11.0532C10.7109 11.1561 10.5119 11.2661 10.2912 11.3111C10.0989 11.3503 9.90075 11.3503 9.7085 11.3111C9.48775 11.2661 9.2888 11.1561 9.10261 11.0532C9.08701 11.0445 9.07151 11.036 9.05609 11.0275L2.29151 7.30697V12.6666C2.29151 13.377 2.292 13.8722 2.3235 14.2577C2.3544 14.6359 2.41201 14.8532 2.49588 15.0178C2.67564 15.3706 2.96248 15.6575 3.31528 15.8372C3.47988 15.9211 3.69718 15.9787 4.07541 16.0096C4.46094 16.0411 4.95614 16.0416 5.66651 16.0416H14.3332C15.0436 16.0416 15.5388 16.0411 15.9243 16.0096C16.3025 15.9787 16.5198 15.9211 16.6844 15.8372C17.0372 15.6575 17.3241 15.3706 17.5038 15.0178C17.5877 14.8532 17.6453 14.6359 17.6762 14.2577C17.7077 13.8722 17.7082 13.377 17.7082 12.6666V7.30697Z" fill="#616F81"/>
</svg>
