<svg width="18" height="17" viewBox="0 0 18 17" fill="none" xmlns="http://www.w3.org/2000/svg">
<path fill-rule="evenodd" clip-rule="evenodd" d="M0.875 1.85161C0.875 1.50643 1.15482 1.22661 1.5 1.22661H8.01961C8.36479 1.22661 8.64461 1.50643 8.64461 1.85161C8.64461 2.19679 8.36479 2.47661 8.01961 2.47661H1.5C1.15482 2.47661 0.875 2.19679 0.875 1.85161ZM2.27206 5.55531C2.27206 5.21013 2.55188 4.93031 2.89706 4.93031H6.15686C6.50204 4.93031 6.78186 5.21013 6.78186 5.55531C6.78186 5.90049 6.50204 6.18031 6.15686 6.18031H2.89706C2.55188 6.18031 2.27206 5.90049 2.27206 5.55531ZM0.875 11.1109C0.875 10.7657 1.15482 10.4859 1.5 10.4859H4.7598C5.10498 10.4859 5.3848 10.7657 5.3848 11.1109C5.3848 11.456 5.10498 11.7359 4.7598 11.7359H1.5C1.15482 11.7359 0.875 11.456 0.875 11.1109ZM0.875 14.8146C0.875 14.4694 1.15482 14.1896 1.5 14.1896H8.01961C8.36479 14.1896 8.64461 14.4694 8.64461 14.8146C8.64461 15.1597 8.36479 15.4396 8.01961 15.4396H1.5C1.15482 15.4396 0.875 15.1597 0.875 14.8146Z" fill="#9DABBD"/>
<path d="M7.26123 8.58402L13.0096 0.0860416C13.1247 -0.0839765 13.3859 0.0162729 13.3627 0.22152L12.8274 4.95711C12.7687 5.47655 13.115 5.95333 13.619 6.04687L16.5344 6.58794C17.242 6.71927 17.5696 7.56244 17.1425 8.15313L11.0454 16.585C10.9225 16.755 10.6591 16.6372 10.6982 16.4297L11.5657 11.825C11.6678 11.2831 11.317 10.7603 10.7851 10.6616L7.88714 10.1237C7.1926 9.99485 6.86013 9.17698 7.26123 8.58402Z" fill="#9DABBD"/>
</svg>
