<svg width="16" height="17" viewBox="0 0 16 17" fill="none" xmlns="http://www.w3.org/2000/svg">
<path fill-rule="evenodd" clip-rule="evenodd" d="M2.31279 2.81295C2.50805 2.61769 2.82463 2.61769 3.01989 2.81295L4.87526 4.66831C5.78269 4.26875 6.8291 3.99984 7.99968 3.99984C11.3427 3.99984 13.6611 6.18522 14.6863 7.3852C14.6932 7.39323 14.7 7.40123 14.7068 7.4092C14.8727 7.60303 15.0253 7.78128 15.1149 8.08688C15.1544 8.22165 15.1663 8.37508 15.1663 8.49984C15.1663 8.62459 15.1544 8.77802 15.1149 8.9128C15.0253 9.21839 14.8727 9.39665 14.7068 9.59048C14.7 9.59845 14.6932 9.60644 14.6863 9.61447C14.1445 10.2487 13.2566 11.1411 12.0576 11.8507L13.6866 13.4796C13.8818 13.6749 13.8818 13.9915 13.6866 14.1867C13.4913 14.382 13.1747 14.382 12.9795 14.1867L2.31279 3.52006C2.11753 3.3248 2.11753 3.00821 2.31279 2.81295ZM11.3247 11.1177C12.5088 10.4669 13.3926 9.58924 13.926 8.96491C14.1119 8.74734 14.1302 8.71695 14.1553 8.6314C14.1553 8.63142 14.1553 8.63155 14.1553 8.6314C14.1557 8.62972 14.1588 8.61687 14.1616 8.59161C14.1646 8.56533 14.1663 8.53365 14.1663 8.49984C14.1663 8.46602 14.1646 8.43434 14.1616 8.40807C14.1585 8.37996 14.1551 8.36746 14.1553 8.36831C14.1302 8.28273 14.1119 8.25237 13.926 8.03476C12.9595 6.90344 10.8953 4.99984 7.99968 4.99984C7.13727 4.99984 6.34966 5.16799 5.64187 5.43493L6.62104 6.41409C7.01617 6.1525 7.49035 5.99984 7.99967 5.99984C9.38039 5.99984 10.4997 7.11913 10.4997 8.49984C10.4997 9.00916 10.347 9.48334 10.0854 9.87848L11.3247 11.1177ZM9.35358 9.14664C9.44732 8.95083 9.49967 8.7316 9.49967 8.49984C9.49967 7.67141 8.8281 6.99984 7.99967 6.99984C7.76792 6.99984 7.54868 7.05219 7.35287 7.14593L9.35358 9.14664ZM3.81118 5.80498C3.97556 6.02687 3.92893 6.34 3.70705 6.50438C2.9981 7.02958 2.44767 7.5966 2.07334 8.03476C1.88744 8.25236 1.86912 8.28273 1.84402 8.3683C1.84404 8.36823 1.84407 8.36812 1.84402 8.3683C1.84362 8.36997 1.84055 8.38279 1.83773 8.40807C1.83479 8.43434 1.83301 8.46602 1.83301 8.49984C1.83301 8.53365 1.83479 8.56533 1.83773 8.59161C1.84055 8.61688 1.84359 8.62954 1.84399 8.63121C1.84403 8.6314 1.84401 8.6313 1.84399 8.63121C1.86909 8.71679 1.88743 8.74731 2.07334 8.96491C3.03986 10.0962 5.10403 11.9998 7.99968 11.9998C8.5307 11.9998 9.03258 11.9361 9.50443 11.8253C9.77325 11.7621 10.0424 11.9288 10.1055 12.1976C10.1687 12.4665 10.002 12.7356 9.73316 12.7987C9.19007 12.9264 8.61144 12.9998 7.99968 12.9998C4.65664 12.9998 2.33822 10.8145 1.31303 9.61447C1.30617 9.60644 1.29932 9.59844 1.2925 9.59048C1.12662 9.39665 0.974063 9.21839 0.884438 8.9128C0.844911 8.77802 0.833008 8.62459 0.833008 8.49984C0.833008 8.37508 0.844911 8.22165 0.884438 8.08688C0.974063 7.78129 1.12662 7.60303 1.2925 7.4092C1.29932 7.40123 1.30617 7.39323 1.31303 7.3852C1.723 6.90533 2.3276 6.28178 3.11178 5.70085C3.33367 5.53648 3.6468 5.5831 3.81118 5.80498ZM5.95967 8.2056C6.23441 8.17788 6.47962 8.37812 6.50735 8.65287C6.57858 9.35872 7.14079 9.92093 7.84664 9.99216C8.12139 10.0199 8.32164 10.2651 8.29391 10.5398C8.26618 10.8146 8.02097 11.0148 7.74623 10.9871C6.56752 10.8681 5.63136 9.932 5.5124 8.75328C5.48467 8.47854 5.68492 8.23333 5.95967 8.2056Z" fill="#616F81"/>
</svg>
