<svg width="16" height="16" viewBox="0 0 16 16" fill="none" xmlns="http://www.w3.org/2000/svg">
<path fill-rule="evenodd" clip-rule="evenodd" d="M7.99968 3.5C4.65664 3.5 2.33822 5.68538 1.31303 6.88536L1.2925 6.90936C1.12662 7.10319 0.974063 7.28145 0.884438 7.58704C0.844911 7.72182 0.833008 7.87524 0.833008 8C0.833008 8.12476 0.844911 8.27818 0.884438 8.41296C0.974063 8.71855 1.12662 8.89681 1.2925 9.09064L1.31303 9.11464C2.33822 10.3146 4.65664 12.5 7.99968 12.5C11.3427 12.5 13.6611 10.3146 14.6863 9.11464L14.7068 9.09064C14.8727 8.89681 15.0253 8.71855 15.1149 8.41296C15.1544 8.27818 15.1663 8.12476 15.1663 8C15.1663 7.87524 15.1544 7.72182 15.1149 7.58704C15.0253 7.28145 14.8727 7.10319 14.7068 6.90936L14.6863 6.88536C13.6611 5.68538 11.3427 3.5 7.99968 3.5ZM7.99968 4.5C5.10403 4.5 3.03986 6.4036 2.07334 7.53492C1.88744 7.75252 1.86912 7.78289 1.84402 7.86846C1.84362 7.87013 1.84055 7.88295 1.83773 7.90823C1.83479 7.93451 1.83301 7.96619 1.83301 8C1.83301 8.03381 1.83479 8.06549 1.83773 8.09177C1.84055 8.11705 1.84359 8.12971 1.84399 8.13138C1.86908 8.21695 1.88744 8.24748 2.07334 8.46508C3.03986 9.5964 5.10403 11.5 7.99968 11.5C10.8953 11.5 12.9595 9.5964 13.926 8.46508C14.1119 8.2475 14.1303 8.21692 14.1554 8.13138C14.1558 8.12969 14.1588 8.11703 14.1616 8.09177C14.1646 8.0655 14.1663 8.03381 14.1663 8C14.1663 7.96619 14.1646 7.9345 14.1616 7.90823C14.1588 7.88297 14.1557 7.87012 14.1553 7.86843C14.1302 7.78288 14.1119 7.7525 13.926 7.53492C12.9595 6.4036 10.8953 4.5 7.99968 4.5Z" fill="#616F81"/>
<path fill-rule="evenodd" clip-rule="evenodd" d="M7.99967 6.5C7.17125 6.5 6.49967 7.17157 6.49967 8C6.49967 8.82843 7.17125 9.5 7.99967 9.5C8.8281 9.5 9.49967 8.82843 9.49967 8C9.49967 7.17157 8.8281 6.5 7.99967 6.5ZM5.49967 8C5.49967 6.61929 6.61896 5.5 7.99967 5.5C9.38039 5.5 10.4997 6.61929 10.4997 8C10.4997 9.38071 9.38039 10.5 7.99967 10.5C6.61896 10.5 5.49967 9.38071 5.49967 8Z" fill="#616F81"/>
</svg>
