<svg width="20" height="21" viewBox="0 0 20 21" fill="none" xmlns="http://www.w3.org/2000/svg">
<path d="M10.0003 11.6217C9.54485 11.6217 9.08332 11.4468 8.73343 11.097L7.8106 10.1741C7.73093 10.4081 7.6877 10.659 7.6877 10.9199C7.6877 12.1971 8.72304 13.2324 10.0002 13.2324C11.2774 13.2324 12.3127 12.1971 12.3127 10.9199C12.3127 10.659 12.2695 10.4083 12.1899 10.1743L11.2672 11.097C10.9173 11.4468 10.4558 11.6217 10.0003 11.6217Z" fill="#7F8D9F"/>
<path d="M13.2972 6.14909H14.0039C14.0015 6.19743 14.0003 6.24605 14.0003 6.29492C14.0003 7.91726 15.3155 9.23242 16.9378 9.23242C16.9867 9.23242 17.0353 9.23123 17.0837 9.22885V12.611C17.0353 12.6086 16.9867 12.6074 16.9378 12.6074C15.3155 12.6074 14.0003 13.9226 14.0003 15.5449C14.0003 15.5938 14.0015 15.6424 14.0039 15.6908H5.99676C5.99913 15.6424 6.00033 15.5938 6.00033 15.5449C6.00033 13.9226 4.68516 12.6074 3.06283 12.6074C3.01395 12.6074 2.96533 12.6086 2.91699 12.611V9.22885C2.96533 9.23123 3.01395 9.23242 3.06283 9.23242C4.68516 9.23242 6.00033 7.91726 6.00033 6.29492C6.00033 6.24605 5.99913 6.19743 5.99676 6.14909H6.70344C7.19663 5.87131 7.80402 5.87131 8.29721 6.14909H8.37533V4.89909H5.98947C5.71424 4.89909 5.46385 4.89909 5.23768 4.9016C4.43655 4.91049 3.80857 4.9453 3.2709 5.21926C2.71817 5.50089 2.26879 5.95027 1.98716 6.50299C1.7132 7.04067 1.67839 7.66865 1.6695 8.46978C1.66699 8.69595 1.66699 8.94634 1.66699 9.22157V12.6183C1.66699 12.8935 1.66699 13.1439 1.6695 13.3701C1.67839 14.1712 1.7132 14.7992 1.98716 15.3369C2.26879 15.8896 2.71817 16.339 3.27089 16.6206C3.80857 16.8945 4.43655 16.9294 5.23768 16.9382C5.46383 16.9408 5.71419 16.9408 5.98939 16.9408H14.0113C14.2865 16.9408 14.5368 16.9408 14.763 16.9382C15.5641 16.9294 16.1921 16.8945 16.7298 16.6206C17.2825 16.339 17.7319 15.8896 18.0135 15.3369C18.2874 14.7992 18.3223 14.1712 18.3312 13.3701C18.3337 13.1439 18.3337 12.8936 18.3337 12.6184V9.22149C18.3337 8.94629 18.3337 8.69593 18.3312 8.46978C18.3223 7.66865 18.2874 7.04067 18.0135 6.50299C17.7319 5.95027 17.2825 5.50089 16.7298 5.21926C16.1921 4.9453 15.5641 4.91049 14.763 4.9016C14.5368 4.89909 14.2864 4.89909 14.0112 4.89909H11.6253V6.14909H11.7034C12.1966 5.87131 12.804 5.87131 13.2972 6.14909Z" fill="#7F8D9F"/>
<path d="M4.75033 10.9199C4.75033 10.5747 5.03015 10.2949 5.37533 10.2949H5.38303C5.72821 10.2949 6.00803 10.5747 6.00803 10.9199C6.00803 11.2651 5.72821 11.5449 5.38303 11.5449H5.37533C5.03015 11.5449 4.75033 11.2651 4.75033 10.9199Z" fill="#7F8D9F"/>
<path d="M14.0003 10.9199C14.0003 10.5747 14.2801 10.2949 14.6253 10.2949H14.633C14.9782 10.2949 15.258 10.5747 15.258 10.9199C15.258 11.2651 14.9782 11.5449 14.633 11.5449H14.6253C14.2801 11.5449 14.0003 11.2651 14.0003 10.9199Z" fill="#7F8D9F"/>
<path d="M7.04385 7.89337L9.426 10.4405C9.57691 10.6018 9.78493 10.6908 10.0003 10.6908C10.2157 10.6908 10.4237 10.6018 10.5747 10.4405L12.9568 7.89337C13.1926 7.64127 13.1793 7.24576 12.9272 7.00998C12.6751 6.77421 12.2796 6.78744 12.0439 7.03955L10.6253 8.5563V2.98242C10.6253 2.63724 10.3455 2.35742 10.0003 2.35742C9.65515 2.35742 9.37533 2.63724 9.37533 2.98242V8.5563L7.9568 7.03955C7.72102 6.78744 7.32552 6.77421 7.07341 7.00998C6.82131 7.24576 6.80807 7.64127 7.04385 7.89337Z" fill="#7F8D9F"/>
</svg>
