<svg width="21" height="20" viewBox="0 0 21 20" fill="none" xmlns="http://www.w3.org/2000/svg">
<path d="M7.17151 18.8856C7.2622 18.9736 7.31314 19.0929 7.31314 19.2174C7.31314 19.3418 7.2622 19.4611 7.17151 19.5491L6.84937 19.8626C6.75866 19.9506 6.63565 20 6.50739 20C6.37913 20 6.25612 19.9506 6.16541 19.8626L0.475118 14.3422C0.384438 14.2542 0.333496 14.1349 0.333496 14.0104C0.333496 13.886 0.384438 13.7667 0.475118 13.6787L0.797265 13.3661C0.887973 13.2782 1.01098 13.2287 1.13924 13.2287C1.2675 13.2287 1.39051 13.2782 1.48122 13.3661L7.17151 18.8856ZM15.9711 1.3136L12.7573 4.43138C12.6632 4.53387 12.613 4.66739 12.6171 4.8046C12.6212 4.94181 12.6792 5.07232 12.7792 5.16938C12.8793 5.26644 13.0138 5.32271 13.1552 5.32667C13.2967 5.33062 13.4343 5.28196 13.54 5.19064L17.5102 1.33894C17.6585 1.2034 17.8554 1.12925 18.0592 1.13221C18.2629 1.13517 18.4575 1.215 18.6015 1.35478C18.7456 1.49456 18.8279 1.68329 18.831 1.88095C18.834 2.07861 18.7576 2.26965 18.6179 2.41355L14.6476 6.26525C14.5535 6.36774 14.5034 6.50127 14.5074 6.63848C14.5115 6.77569 14.5695 6.9062 14.6696 7.00326C14.7696 7.10032 14.9041 7.15659 15.0456 7.16054C15.187 7.1645 15.3246 7.11583 15.4303 7.02452L18.644 3.90674C18.7932 3.77564 18.9887 3.7052 19.1899 3.70998C19.3911 3.71477 19.5828 3.79442 19.7252 3.93245C19.8676 4.07049 19.9499 4.25635 19.955 4.45158C19.9601 4.64682 19.8877 4.83648 19.7527 4.98135L15.0259 9.56699C14.9318 9.66947 14.8816 9.803 14.8857 9.94021C14.8898 10.0774 14.9478 10.2079 15.0478 10.305C15.1479 10.402 15.2824 10.4583 15.4238 10.4623C15.5652 10.4662 15.7029 10.4176 15.8085 10.3263L19.0223 7.20847C19.1715 7.07737 19.3669 7.00693 19.5682 7.01171C19.7694 7.0165 19.9611 7.09615 20.1035 7.23419C20.2459 7.37222 20.3281 7.55808 20.3332 7.75331C20.3384 7.94855 20.2659 8.13822 20.1309 8.28308L13.54 14.6773C13.1163 15.0876 12.5672 15.3539 11.9747 15.4365L11.8847 15.4487C10.8178 15.5966 9.82897 16.076 9.06667 16.8152L8.51911 17.3474C8.3377 17.5233 8.09168 17.6221 7.83516 17.6221C7.57863 17.6221 7.33261 17.5233 7.1512 17.3474L3.25158 13.5642C3.07022 13.3882 2.96833 13.1495 2.96833 12.9006C2.96833 12.6518 3.07022 12.4131 3.25158 12.2371L3.85621 11.6505C4.51483 11.0118 4.97567 10.2067 5.18639 9.32672L6.85517 2.35724C6.86403 2.31745 6.86857 2.27687 6.86872 2.23617C6.86859 2.03455 6.95102 1.84114 7.09789 1.69848C7.24475 1.55583 7.44401 1.47562 7.65183 1.47549C7.85966 1.47537 8.05902 1.55534 8.20606 1.69782C8.35311 1.8403 8.43579 2.03361 8.43592 2.23523V5.1775C8.43571 5.28383 8.46805 5.38781 8.52884 5.47628C8.58963 5.56475 8.67613 5.63371 8.77737 5.67443C8.87861 5.71514 8.99004 5.72577 9.09751 5.70498C9.20499 5.68418 9.30368 5.63289 9.38107 5.55761L14.8634 0.238985C14.9353 0.164919 15.0218 0.10561 15.1178 0.0645736C15.2137 0.023537 15.3172 0.00160762 15.4221 8.51206e-05C15.5269 -0.00143738 15.631 0.017478 15.7282 0.0557102C15.8254 0.0939424 15.9137 0.150713 15.9879 0.222659C16.062 0.294604 16.1206 0.38026 16.16 0.47455C16.1994 0.56884 16.2189 0.669846 16.2173 0.771581C16.2157 0.873316 16.1931 0.97371 16.1508 1.06681C16.1085 1.15992 16.0474 1.24384 15.9711 1.3136ZM12.1546 9.45342C12.1787 9.43432 12.1954 9.40786 12.2019 9.37836C12.2085 9.34887 12.2045 9.31809 12.1907 9.29106C12.1769 9.26403 12.154 9.24234 12.1259 9.22956C12.0977 9.21677 12.0659 9.21364 12.0356 9.22067L8.32853 10.1676C8.30514 10.1733 8.28372 10.1849 8.26649 10.2013C8.24926 10.2176 8.23686 10.2382 8.23054 10.2608C8.22423 10.2833 8.22425 10.3071 8.23059 10.3297C8.23693 10.3523 8.24937 10.3728 8.26662 10.3891L9.0628 11.1615L7.41917 12.4023C7.39296 12.4203 7.37424 12.4469 7.36635 12.4771C7.35846 12.5074 7.36193 12.5394 7.37612 12.5674C7.39032 12.5953 7.41432 12.6175 7.44383 12.6299C7.47334 12.6423 7.50644 12.6441 7.5372 12.635L11.2453 11.6881C11.2687 11.6824 11.2901 11.6708 11.3073 11.6544C11.3245 11.6381 11.3369 11.6175 11.3433 11.5949C11.3496 11.5724 11.3496 11.5486 11.3432 11.526C11.3369 11.5034 11.3244 11.4829 11.3072 11.4666L10.51 10.6942L12.1546 9.45342Z" fill="#9DABBD"/>
</svg>
