<svg width="17" height="17" viewBox="0 0 17 17" fill="none" xmlns="http://www.w3.org/2000/svg">
<path d="M8.5 16.833C13.1024 16.833 16.833 13.1024 16.833 8.5C16.833 3.89763 13.1024 0.166992 8.5 0.166992C3.89763 0.166992 0.166992 3.89763 0.166992 8.5C0.166992 13.1024 3.89763 16.833 8.5 16.833ZM8.5 13.666C5.64679 13.6658 3.33318 11.3532 3.33301 8.5C3.33318 5.64679 5.64679 3.33318 8.5 3.33301C9.83706 3.33309 11.057 3.84282 11.9736 4.67578L12.1533 4.84668L12.2217 4.92188C12.5422 5.31465 12.5195 5.89455 12.1533 6.26074C11.7871 6.62693 11.2072 6.64965 10.8145 6.3291L10.5137 6.05566C9.96595 5.60367 9.26506 5.33308 8.5 5.33301C6.75136 5.33318 5.33318 6.75136 5.33301 8.5C5.33318 10.2486 6.75136 11.6658 8.5 11.666C9.89917 11.6659 11.0862 10.7586 11.5049 9.5H8.5V7.5L13.666 7.5V8.5C13.6658 11.3532 11.3532 13.6658 8.5 13.666Z" fill="#9DABBD"/>
</svg>
