<svg width="18" height="19" viewBox="0 0 18 19" fill="none" xmlns="http://www.w3.org/2000/svg">
<g clip-path="url(#clip0_9928_4699)">
<path fill-rule="evenodd" clip-rule="evenodd" d="M3.40514 5.5477C3.09001 5.45435 2.77289 5.60843 2.63031 5.87033L2.61425 5.89983L2.60181 5.93104C1.99017 7.46579 1.74473 8.03722 1.04181 9.3379L1.03559 9.34785C0.878019 9.60419 0.898024 9.99093 1.20094 10.2134L2.17098 10.926C2.44208 11.1251 2.77307 11.0719 2.98647 10.8964L6.63021 14.4646C7.5339 15.3496 8.92785 15.5245 10.0275 14.8964L12.3814 13.5517C12.8707 13.2722 13.2034 12.7903 13.2902 12.2441L14.9793 10.8658C15.1901 11.0652 15.5432 11.1363 15.8295 10.926L16.7996 10.2134C17.1025 9.99093 17.1225 9.60418 16.9649 9.34785L16.9587 9.33791C16.2558 8.03723 16.0103 7.4658 15.3987 5.93104L15.3862 5.89983L15.3702 5.87033C15.2276 5.60843 14.9105 5.45435 14.5953 5.5477L13.4013 5.90137C13.0754 5.99791 12.8978 6.31464 12.9456 6.62233H9.62157C9.16107 6.62233 8.72368 6.77598 8.36639 7.0441L5.04352 6.67868C5.12391 6.35425 4.94502 6.00382 4.59915 5.90137L3.40514 5.5477ZM2.20273 9.55338L2.46878 9.74881L2.48799 9.72302C3.21043 8.75144 3.53085 8.11957 3.8062 7.02996C3.82078 6.97228 3.83525 6.91323 3.84965 6.85266L3.48776 6.74547C3.02114 7.90683 2.74894 8.52449 2.20273 9.55338ZM13.2246 7.74733C13.4762 8.5938 13.7915 9.22628 14.3022 9.96626L12.762 11.2232L10.2731 9.05676C9.74244 8.5948 9.01876 8.67706 8.54258 8.92731C8.30044 9.05458 8.01511 9.15749 7.70271 9.24279L8.93952 8.03162C9.1264 7.84862 9.37041 7.74733 9.6216 7.74733H13.2246ZM9.53451 9.90532L12.1505 12.1825C12.0957 12.3432 11.9821 12.4842 11.8234 12.5749L9.46949 13.9195C8.80337 14.3 7.95915 14.1914 7.41736 13.6609L3.6766 9.99764C4.1938 9.25329 4.51272 8.62162 4.76622 7.77996L7.30364 8.059L6.39498 8.94882C5.75065 9.5798 6.29569 10.6756 7.20415 10.507C7.82638 10.3915 8.50029 10.2204 9.06595 9.92316C9.28958 9.80563 9.47162 9.85057 9.53451 9.90532ZM14.5128 6.74547C14.9794 7.90683 15.2516 8.52449 15.7978 9.55338L15.5318 9.74881L15.5216 9.73509C14.7959 8.76091 14.4739 8.12976 14.1985 7.04624C14.1825 6.98341 14.1667 6.91894 14.1509 6.85266L14.5128 6.74547Z" fill="#F8A605"/>
</g>
<defs>
<clipPath id="clip0_9928_4699">
<rect width="18" height="18" fill="white" transform="translate(0 0.833252)"/>
</clipPath>
</defs>
</svg>
