<svg width="21" height="21" viewBox="0 0 21 21" fill="none" xmlns="http://www.w3.org/2000/svg">
<path d="M13.3913 2.50888C13.0709 2.48792 12.7942 2.73068 12.7732 3.05109C12.7523 3.3715 12.995 3.64823 13.3154 3.66919C13.8196 3.70216 14.3417 3.74376 14.8908 3.79411C15.5674 3.85616 16.1263 4.36905 16.2565 5.05553L17.5502 11.8763H14.9086C14.0969 11.8763 13.3563 12.3368 12.9945 13.0635C12.8285 13.397 12.49 13.6062 12.1213 13.6062H8.87934C8.51067 13.6062 8.17219 13.397 8.00613 13.0635C7.64431 12.3368 6.90373 11.8763 6.09203 11.8763H3.45043L4.74358 5.0587C4.87398 4.37126 5.43443 3.85768 6.1128 3.79606C6.67543 3.74495 7.20968 3.70267 7.72525 3.6692C8.04568 3.64841 8.28857 3.37179 8.26777 3.05137C8.24697 2.73095 7.97036 2.48806 7.64993 2.50886C7.12302 2.54306 6.57871 2.58616 6.00761 2.63804C4.7975 2.74795 3.82557 3.65892 3.60116 4.84201L2.16699 12.4031V15.4425C2.16699 16.8654 3.2557 18.0636 4.68258 18.1664C9.04888 18.4812 11.9581 18.473 16.3127 18.1635C17.7414 18.062 18.8337 16.8634 18.8337 15.438V12.4031L17.3989 4.83884C17.1749 3.65781 16.2056 2.74702 14.9969 2.63618C14.4391 2.58503 13.9069 2.54259 13.3913 2.50888Z" fill="#F1F5F9"/>
<path fill-rule="evenodd" clip-rule="evenodd" d="M10.5003 1.73242C10.8214 1.73242 11.0817 1.99272 11.0817 2.31382V9.47202L12.4222 8.17857C12.6533 7.95562 13.0213 7.96219 13.2443 8.19326C13.4672 8.42432 13.4607 8.79238 13.2296 9.01534L10.5003 11.6489L7.77104 9.01534C7.53997 8.79238 7.5334 8.42432 7.75636 8.19326C7.97932 7.96219 8.34738 7.95562 8.57845 8.17857L9.91893 9.47202V2.31382C9.91893 1.99272 10.1792 1.73242 10.5003 1.73242Z" fill="#F1F5F9"/>
</svg>
