<svg width="16" height="16" viewBox="0 0 16 16" fill="none" xmlns="http://www.w3.org/2000/svg">
<path fill-rule="evenodd" clip-rule="evenodd" d="M13.3337 3.85548V8.31554C13.3337 9.44041 13.3337 10.0028 13.1825 10.5073C13.0487 10.9536 12.8298 11.365 12.5397 11.7153C12.212 12.1111 11.761 12.3963 10.8591 12.9666L8.50933 14.4525C8.32408 14.5697 8.23144 14.6282 8.13277 14.6511C8.04548 14.6714 7.95517 14.6714 7.86788 14.6511C7.76921 14.6282 7.67657 14.5697 7.49134 14.4525L5.14156 12.9666C4.23964 12.3963 3.78868 12.1111 3.46091 11.7153C3.17087 11.365 2.95197 10.9536 2.81819 10.5073C2.66699 10.0028 2.66699 9.44041 2.66699 8.31554V3.85548C2.66699 3.53931 2.66699 3.38123 2.71815 3.25351C2.7639 3.13932 2.83484 3.04455 2.92884 2.97211C3.03397 2.89108 3.18003 2.85673 3.47216 2.78801C4.03136 2.65648 4.77365 2.47184 5.33366 2.2959C6.07946 2.06159 7.09586 1.65614 7.6329 1.43636C7.77186 1.37949 7.84134 1.35106 7.90935 1.34035C7.97146 1.33056 8.02919 1.33056 8.0913 1.34035C8.15932 1.35106 8.22879 1.37949 8.36775 1.43636C8.90479 1.65614 9.92119 2.06159 10.667 2.2959C11.227 2.47184 11.9693 2.65648 12.5285 2.78801C12.8206 2.85673 12.9667 2.89108 13.0718 2.97211C13.1658 3.04455 13.2368 3.13932 13.2825 3.25351C13.3337 3.38123 13.3337 3.53931 13.3337 3.85548ZM8.50033 5.33301C8.50033 5.05687 8.27647 4.83301 8.00033 4.83301C7.72418 4.83301 7.50033 5.05687 7.50033 5.33301V8.66634C7.50033 8.94248 7.72418 9.16634 8.00033 9.16634C8.27647 9.16634 8.50033 8.94248 8.50033 8.66634V5.33301ZM8.00033 9.83301C7.72419 9.83301 7.50033 10.0569 7.50033 10.333C7.50033 10.6091 7.72419 10.833 8.00033 10.833H8.007C8.28314 10.833 8.507 10.6091 8.507 10.333C8.507 10.0569 8.28314 9.83301 8.007 9.83301H8.00033Z" fill="#9DABBD"/>
</svg>
