<svg width="21" height="20" viewBox="0 0 21 20" fill="none" xmlns="http://www.w3.org/2000/svg">
<path d="M4.70836 18.441L3.15953 20L0.666504 17.4907L2.21534 15.9317L4.70836 18.441ZM2.50241 15.6399L4.04799 14.0842L6.54055 16.5931L4.99502 18.1488L2.50241 15.6399ZM8.38278 14.7425L6.83395 16.3015L4.34092 13.7922L5.88511 12.2379L8.38278 14.7425ZM10.2526 14.8362L9.67116 15.4214L8.87581 14.6208C8.86185 14.5927 8.8386 14.574 8.81534 14.56L6.07581 11.8025C6.0572 11.7744 6.0386 11.751 6.01069 11.7369L5.18278 10.9036L5.76418 10.3184L6.20604 10.7631L8.95023 13.5253L9.8386 14.4195L10.2526 14.8362ZM19.5874 0.529053C19.2339 2.19104 18.4246 3.69853 17.22 4.91108L9.09906 13.0852L6.63395 10.604L7.84325 9.39141L8.29441 9.61613C8.37813 9.65827 8.47116 9.63954 8.53162 9.57868L9.14092 8.96538C9.20139 8.90452 9.21999 8.80621 9.17813 8.72662L8.95488 8.2725L9.89906 7.32212L10.313 7.56557C10.3921 7.61239 10.4944 7.59834 10.5595 7.5328L11.313 6.77437C11.3781 6.70883 11.3921 6.61051 11.3456 6.52624L11.1037 6.10958L11.8944 5.3137L12.3084 5.55714C12.3874 5.60396 12.4898 5.58991 12.5549 5.52437L13.3363 4.73785C13.4014 4.67231 13.4153 4.574 13.3688 4.48973L13.127 4.07306L14.7316 2.45321C15.0805 2.34085 17.4339 1.52624 19.5874 0.529053Z" fill="#9DABBD"/>
<path d="M20.0477 0.308989C20.257 0.205993 20.4663 0.102996 20.6663 0C20.5686 2.19569 19.6709 4.25094 18.1221 5.80993L9.99651 13.9888L9.38721 13.3755L17.5128 5.20599C18.843 3.86236 19.7221 2.17228 20.0477 0.308989Z" fill="black"/>
</svg>
