<svg width="20" height="20" viewBox="0 0 20 20" fill="none" xmlns="http://www.w3.org/2000/svg">
<path fill-rule="evenodd" clip-rule="evenodd" d="M6.87484 1.04163C7.22002 1.04163 7.49984 1.32145 7.49984 1.66663V3.74996C7.49984 4.09514 7.22002 4.37496 6.87484 4.37496C6.52966 4.37496 6.24984 4.09514 6.24984 3.74996V1.66663C6.24984 1.32145 6.52966 1.04163 6.87484 1.04163ZM10.2945 2.92888C12.1657 1.05762 15.1996 1.05762 17.0709 2.92888C18.9422 4.80014 18.9422 7.83406 17.0709 9.70532L15.2295 11.5467C14.9854 11.7908 14.5897 11.7908 14.3456 11.5467C14.1015 11.3027 14.1015 10.9069 14.3456 10.6629L16.187 8.82144C17.5701 7.43833 17.5701 5.19587 16.187 3.81276C14.8039 2.42966 12.5615 2.42966 11.1784 3.81276L9.33693 5.65419C9.09285 5.89826 8.69712 5.89826 8.45305 5.65419C8.20897 5.41011 8.20897 5.01438 8.45305 4.7703L10.2945 2.92888ZM2.26623 2.26635C2.51031 2.02227 2.90603 2.02227 3.15011 2.26635L4.71261 3.82885C4.95669 4.07293 4.95669 4.46866 4.71261 4.71273C4.46853 4.95681 4.07281 4.95681 3.82873 4.71273L2.26623 3.15023C2.02215 2.90616 2.02215 2.51043 2.26623 2.26635ZM1.0415 6.87496C1.0415 6.52978 1.32133 6.24996 1.6665 6.24996H3.74984C4.09502 6.24996 4.37484 6.52978 4.37484 6.87496C4.37484 7.22014 4.09502 7.49996 3.74984 7.49996H1.6665C1.32133 7.49996 1.0415 7.22014 1.0415 6.87496ZM5.65408 8.45315C5.89816 8.69723 5.89816 9.09296 5.65408 9.33704L3.81266 11.1785C2.42955 12.5616 2.42955 14.804 3.81266 16.1871C5.19577 17.5702 7.43822 17.5702 8.82133 16.1871L10.6628 14.3457C10.9068 14.1016 11.3026 14.1016 11.5466 14.3457C11.7907 14.5898 11.7907 14.9855 11.5466 15.2296L9.70522 17.071C7.83395 18.9423 4.80004 18.9423 2.92877 17.071C1.05751 15.1998 1.05751 12.1658 2.92877 10.2946L4.7702 8.45315C5.01428 8.20907 5.41 8.20907 5.65408 8.45315ZM15.6248 13.125C15.6248 12.7798 15.9047 12.5 16.2498 12.5H18.3332C18.6783 12.5 18.9582 12.7798 18.9582 13.125C18.9582 13.4701 18.6783 13.75 18.3332 13.75H16.2498C15.9047 13.75 15.6248 13.4701 15.6248 13.125ZM15.2871 15.2872C15.5311 15.0431 15.9269 15.0431 16.1709 15.2872L17.7334 16.8497C17.9775 17.0938 17.9775 17.4895 17.7334 17.7336C17.4894 17.9776 17.0936 17.9776 16.8496 17.7336L15.2871 16.1711C15.043 15.927 15.043 15.5313 15.2871 15.2872ZM13.1248 15.625C13.47 15.625 13.7498 15.9048 13.7498 16.25V18.3333C13.7498 18.6785 13.47 18.9583 13.1248 18.9583C12.7797 18.9583 12.4998 18.6785 12.4998 18.3333V16.25C12.4998 15.9048 12.7797 15.625 13.1248 15.625Z" fill="#F8A605"/>
</svg>
