<svg width="302" height="56" viewBox="0 0 302 56" fill="none" xmlns="http://www.w3.org/2000/svg">
<g filter="url(#filter0_d_10563_31726)">
<path d="M0.25 43.75V0H12.75V37.5H37.75V43.75H0.25ZM44.25 43.75V37.5H38V18.75H44.25V12.5H75.5V18.75H81.75V37.5H75.5V43.75H44.25ZM50.5 37.5H69.25V18.75H50.5V37.5ZM88.25 43.75V37.5H82V31.25H88.25V25H113.25V18.75H88.25V12.5H119.5V18.75H125.75V43.75H88.25ZM94.5 37.5H113.25V31.25H94.5V37.5ZM132.25 43.75V37.5H126V18.75H132.25V12.5H157.25V0H169.75V43.75H132.25ZM138.5 37.5H157.25V18.75H138.5V37.5ZM188.75 6.25V0H201.25V6.25H188.75ZM176.25 43.75V37.5H188.75V18.75H182.5V12.5H201.25V37.5H213.75V43.75H176.25ZM214 43.75V12.5H251.5V18.75H257.75V43.75H245.25V18.75H226.5V43.75H214ZM264.25 50V43.75H289.25V37.5H264.25V31.25H258V18.75H264.25V12.5H301.75V43.75H295.5V50H264.25ZM270.5 31.25H289.25V18.75H270.5V31.25Z" fill="url(#paint0_linear_10563_31726)"/>
</g>
<defs>
<filter id="filter0_d_10563_31726" x="0.25" y="0" width="301.5" height="56" filterUnits="userSpaceOnUse" color-interpolation-filters="sRGB">
<feFlood flood-opacity="0" result="BackgroundImageFix"/>
<feColorMatrix in="SourceAlpha" type="matrix" values="0 0 0 0 0 0 0 0 0 0 0 0 0 0 0 0 0 0 127 0" result="hardAlpha"/>
<feOffset dy="6"/>
<feComposite in2="hardAlpha" operator="out"/>
<feColorMatrix type="matrix" values="0 0 0 0 0.298039 0 0 0 0 0.109804 0 0 0 0 0.588235 0 0 0 1 0"/>
<feBlend mode="normal" in2="BackgroundImageFix" result="effect1_dropShadow_10563_31726"/>
<feBlend mode="normal" in="SourceGraphic" in2="effect1_dropShadow_10563_31726" result="shape"/>
</filter>
<linearGradient id="paint0_linear_10563_31726" x1="151" y1="0" x2="151" y2="50" gradientUnits="userSpaceOnUse">
<stop stop-color="#9658FB"/>
<stop offset="1" stop-color="#7D2EFA"/>
</linearGradient>
</defs>
</svg>
