<svg width="20" height="21" viewBox="0 0 20 21" fill="none" xmlns="http://www.w3.org/2000/svg">
<path fill-rule="evenodd" clip-rule="evenodd" d="M6.04167 5.49984C6.04167 3.31371 7.81387 1.5415 10 1.5415C12.1861 1.5415 13.9583 3.31371 13.9583 5.49984V5.70856C14.4413 5.70994 14.8486 5.71617 15.1929 5.74431C15.6484 5.78153 16.0485 5.86016 16.4187 6.04878C17.0067 6.34838 17.4848 6.82644 17.7844 7.41445C17.973 7.78463 18.0516 8.18475 18.0889 8.64028C18.125 9.0827 18.125 9.62904 18.125 10.3064V14.8599C18.125 15.5373 18.125 16.0836 18.0889 16.5261C18.0516 16.9816 17.973 17.3817 17.7844 17.7519C17.4848 18.3399 17.0067 18.818 16.4187 19.1176C16.0485 19.3062 15.6484 19.3848 15.1929 19.422C14.7505 19.4582 14.2041 19.4582 13.5268 19.4582H6.47323C5.79587 19.4582 5.24953 19.4582 4.80711 19.422C4.35158 19.3848 3.95146 19.3062 3.58128 19.1176C2.99327 18.818 2.51521 18.3399 2.2156 17.7519C2.02699 17.3817 1.94835 16.9816 1.91114 16.5261C1.87499 16.0836 1.87499 15.5373 1.875 14.8599V10.3064C1.87499 9.62905 1.87499 9.08271 1.91114 8.64028C1.94835 8.18475 2.02699 7.78463 2.2156 7.41445C2.51521 6.82644 2.99327 6.34838 3.58128 6.04878C3.95146 5.86016 4.35158 5.78153 4.80711 5.74431C5.15143 5.71617 5.55869 5.70994 6.04167 5.70856V5.49984ZM6.5 6.95817C5.78962 6.95817 5.29443 6.95866 4.9089 6.99016C4.53067 7.02106 4.31337 7.07867 4.14877 7.16253C3.79596 7.3423 3.50913 7.62914 3.32936 7.98194C3.2455 8.14654 3.18789 8.36384 3.15699 8.74207C3.12549 9.1276 3.125 9.62279 3.125 10.3332V14.8332C3.125 15.5435 3.12549 16.0387 3.15699 16.4243C3.18789 16.8025 3.2455 17.0198 3.32936 17.1844C3.50913 17.5372 3.79596 17.824 4.14877 18.0038C4.31337 18.0877 4.53067 18.1453 4.9089 18.1762C5.29443 18.2077 5.78962 18.2082 6.5 18.2082H13.5C14.2104 18.2082 14.7056 18.2077 15.0911 18.1762C15.4693 18.1453 15.6866 18.0877 15.8512 18.0038C16.204 17.824 16.4909 17.5372 16.6706 17.1844C16.7545 17.0198 16.8121 16.8025 16.843 16.4243C16.8745 16.0387 16.875 15.5435 16.875 14.8332V10.3332C16.875 9.62279 16.8745 9.1276 16.843 8.74207C16.8121 8.36384 16.7545 8.14654 16.6706 7.98194C16.4909 7.62914 16.204 7.3423 15.8512 7.16253C15.6866 7.07867 15.4693 7.02106 15.0911 6.99016C14.7056 6.95866 14.2104 6.95817 13.5 6.95817H6.5ZM12.7083 5.70817H7.29167V5.49984C7.29167 4.00407 8.50423 2.7915 10 2.7915C11.4958 2.7915 12.7083 4.00407 12.7083 5.49984V5.70817ZM10 10.7082C9.4247 10.7082 8.95833 11.1745 8.95833 11.7498C8.95833 12.3251 9.4247 12.7915 10 12.7915C10.5753 12.7915 11.0417 12.3251 11.0417 11.7498C11.0417 11.1745 10.5753 10.7082 10 10.7082ZM7.70833 11.7498C7.70833 10.4842 8.73435 9.45817 10 9.45817C11.2657 9.45817 12.2917 10.4842 12.2917 11.7498C12.2917 12.7988 11.5869 13.6832 10.625 13.9552V15.0832C10.625 15.4283 10.3452 15.7082 10 15.7082C9.65482 15.7082 9.375 15.4283 9.375 15.0832V13.9552C8.41312 13.6832 7.70833 12.7988 7.70833 11.7498Z" fill="#616F81"/>
</svg>
