<svg width="20" height="20" viewBox="0 0 20 20" fill="none" xmlns="http://www.w3.org/2000/svg">
<path fill-rule="evenodd" clip-rule="evenodd" d="M5.4165 2.29163C4.38097 2.29163 3.5415 3.13109 3.5415 4.16663V15.8333C3.5415 16.8688 4.38097 17.7083 5.4165 17.7083H11.2498C12.1783 17.7083 12.9502 17.0329 13.0989 16.1466C13.156 15.8061 13.4783 15.5765 13.8187 15.6336C14.1591 15.6907 14.3888 16.0129 14.3317 16.3534C14.0836 17.8318 12.7989 18.9583 11.2498 18.9583H5.4165C3.69061 18.9583 2.2915 17.5592 2.2915 15.8333V4.16663C2.2915 2.44074 3.69061 1.04163 5.4165 1.04163H11.2498C12.7989 1.04163 14.0836 2.1681 14.3317 3.64655C14.3888 3.98697 14.1591 4.30923 13.8187 4.36635C13.4783 4.42346 13.156 4.19379 13.0989 3.85337C12.9502 2.96706 12.1783 2.29163 11.2498 2.29163H5.4165ZM13.3769 6.22468C13.621 5.98061 14.0167 5.98061 14.2608 6.22468L17.4763 9.44017C17.6308 9.59463 17.7082 9.79832 17.7082 9.99996C17.7082 10.2016 17.6308 10.4053 17.4763 10.5598L14.2608 13.7752C14.0167 14.0193 13.621 14.0193 13.3769 13.7752C13.1329 13.5312 13.1329 13.1354 13.3769 12.8914L15.6433 10.625H6.31887C5.9737 10.625 5.69387 10.3451 5.69387 9.99996C5.69387 9.65478 5.9737 9.37496 6.31887 9.37496H15.6433L13.3769 7.10857C13.1329 6.86449 13.1329 6.46876 13.3769 6.22468Z" fill="#ED4438"/>
</svg>
