<svg width="21" height="21" viewBox="0 0 21 21" fill="none" xmlns="http://www.w3.org/2000/svg">
<path d="M6.22691 8.47888C5.71734 8.86986 5.04443 9.1076 4.30675 9.1076C3.97011 9.1076 3.64696 9.05809 3.34667 8.9671C3.0365 8.87312 2.75071 8.73489 2.49963 8.56125C1.2406 7.69053 1.76739 5.93715 2.42495 4.58424L3.17915 3.03252C3.57432 2.21948 4.42137 1.7002 5.35242 1.7002H14.782C15.7131 1.7002 16.5601 2.21948 16.9553 3.03252L17.7095 4.58424C18.3671 5.93715 18.8938 7.69053 17.6348 8.56125C17.3837 8.73489 17.0979 8.87312 16.7878 8.9671C16.4875 9.05809 16.1643 9.1076 15.8277 9.1076C15.09 9.1076 14.4171 8.86986 13.9075 8.47888C13.398 8.86986 12.7251 9.1076 11.9874 9.1076C11.2497 9.1076 10.5768 8.86986 10.0672 8.47888C9.55765 8.86986 8.88474 9.1076 8.14706 9.1076C7.40938 9.1076 6.73648 8.86986 6.22691 8.47888Z" fill="#9DABBD"/>
<path d="M3.34669 16.052V10.0008C3.65508 10.0708 3.97693 10.1076 4.30678 10.1076C4.99725 10.1076 5.65467 9.94613 6.22693 9.65521C6.7992 9.94613 7.45661 10.1076 8.14709 10.1076C8.83757 10.1076 9.49498 9.94613 10.0672 9.65521C10.6395 9.94613 11.2969 10.1076 11.9874 10.1076C12.6779 10.1076 13.3353 9.94613 13.9076 9.65521C14.4798 9.94613 15.1372 10.1076 15.8277 10.1076C16.1576 10.1076 16.4794 10.0708 16.7878 10.0008V16.052C16.7878 17.3305 15.7132 18.3669 14.3876 18.3669H13.0924V15.0567C13.0924 13.4119 11.7164 12.1169 10.0672 12.1169C8.41797 12.1169 7.04201 13.4119 7.04201 15.0567V18.3669H5.74689C4.42129 18.3669 3.34669 17.3305 3.34669 16.052Z" fill="#9DABBD"/>
<path d="M8.29201 18.3669H11.8424V15.0567C11.8424 14.1446 11.0692 13.3669 10.0672 13.3669C9.06526 13.3669 8.29201 14.1446 8.29201 15.0567V18.3669Z" fill="#9DABBD"/>
</svg>
