<svg width="21" height="20" viewBox="0 0 21 20" fill="none" xmlns="http://www.w3.org/2000/svg">
<path d="M20.1285 0.313821C19.8795 0.0981965 19.4916 0.119017 19.2536 0.34554L19.0651 0.524876L18.6424 0.122806C18.4854 -0.0265691 18.2298 -0.0443035 18.063 0.0951496C17.8803 0.247923 17.8735 0.513079 18.0428 0.674134L18.4755 1.08581L17.7698 1.75726L17.519 1.5187C17.2748 1.28632 16.8789 1.28632 16.6347 1.5187L12.1734 5.76339C11.9965 5.93171 11.9485 6.17558 12.0279 6.38562L11.5833 6.80863C11.5143 6.78426 11.4414 6.77168 11.3678 6.77148C11.202 6.77148 11.0429 6.83417 10.9256 6.94573L10.2256 7.61175L9.56605 6.98417C9.39253 6.81823 9.16029 6.7197 8.91459 6.7078C8.66888 6.6959 8.42732 6.77148 8.23699 6.9198L5.68564 8.89753C5.57804 8.98106 5.49003 9.0851 5.42727 9.20296C5.3645 9.32082 5.32838 9.44988 5.32123 9.58183C5.31427 9.71378 5.33643 9.84565 5.38629 9.96896C5.43615 10.0923 5.5126 10.2043 5.61071 10.2978L6.50667 11.1502L5.80667 11.8162C5.68941 11.9278 5.62353 12.0792 5.62352 12.2369C5.62352 12.309 5.63789 12.3794 5.66392 12.4455L5.23119 12.8523C5.0104 12.7768 4.75409 12.8225 4.57722 12.9909L0.516658 16.8543C0.268148 17.0907 0.273157 17.4755 0.527784 17.706L2.88076 19.836C3.15616 20.0853 3.59964 20.0451 3.8206 19.7509L7.16413 15.2979C7.24666 15.1833 7.28448 15.045 7.27103 14.9067C7.25759 14.7684 7.19373 14.639 7.09052 14.5408L6.74988 14.2167L7.09721 13.8855L7.64707 14.4087L8.69341 17.3746C8.78074 17.6221 9.02354 17.7803 9.28596 17.7803C9.34032 17.7803 9.39554 17.7735 9.45043 17.7594L12.1352 17.0643C12.3385 17.0116 12.5083 16.8709 12.5766 16.6812C12.6232 16.5531 12.6224 16.4136 12.5743 16.286C12.5263 16.1583 12.4339 16.0501 12.3124 15.9792L12.0532 15.828L11.2463 13.0066L11.9764 12.4171C13.0811 13.1625 14.4099 13.5703 15.7763 13.5703C16.0087 13.5703 16.2422 13.5585 16.4759 13.5346C16.7065 13.511 16.9033 13.365 16.9874 13.1594L17.6999 11.419C17.7389 11.3238 17.7514 11.2207 17.7364 11.1196C17.7213 11.0185 17.6791 10.9228 17.6139 10.8416C17.5487 10.7605 17.4627 10.6967 17.364 10.6564C17.2654 10.6161 17.1575 10.6006 17.0508 10.6115C15.9921 10.719 14.9377 10.5187 14.0181 10.0597C14.0224 10.0201 14.0258 9.98034 14.0275 9.94034C14.0507 9.40019 13.8336 8.87113 13.4318 8.48886L13.1009 8.17402L13.4618 7.83066L14.0808 8.41964C14.1435 8.4793 14.2189 8.52559 14.3018 8.55543C14.3848 8.58527 14.4734 8.59798 14.562 8.59272C14.6505 8.58745 14.7368 8.56433 14.8152 8.5249C14.8936 8.48546 14.9623 8.43061 15.0167 8.36398L18.9184 3.58683C19.0119 3.47236 19.0582 3.32935 19.0487 3.18465C19.0392 3.03996 18.9745 2.90355 18.8668 2.80105L18.6541 2.59866L20.1503 1.17503C20.4016 0.93597 20.3943 0.544017 20.1285 0.313821ZM9.14013 12.0802L8.81982 12.385C8.73841 12.4624 8.63174 12.5011 8.52504 12.5011C8.41834 12.5011 8.31163 12.4624 8.23026 12.385C8.06748 12.2301 8.06748 11.9789 8.2303 11.824L8.55062 11.5193C8.71344 11.3644 8.97743 11.3644 9.14018 11.5193C9.30296 11.6742 9.30296 11.9253 9.14013 12.0802ZM7.391 10.3088L6.69696 9.64847L8.84638 7.9823L9.34131 8.4532L7.391 10.3088Z" fill="#9DABBD"/>
</svg>
