<svg width="16" height="16" viewBox="0 0 16 16" fill="none" xmlns="http://www.w3.org/2000/svg">
<path d="M7.99966 6.16697C7.28301 6.16697 6.5953 6.12037 5.95469 6.03489C6.11109 4.80942 6.40745 3.76572 6.78132 3.01721C7.22296 2.13301 7.67643 1.83363 7.99966 1.83363C8.3229 1.83363 8.77637 2.13301 9.218 3.01721C9.59187 3.76572 9.88823 4.80942 10.0446 6.03489C9.40403 6.12037 8.71631 6.16697 7.99966 6.16697Z" fill="#9DABBD"/>
<path d="M10.1126 2.57036C10.5445 3.43509 10.8629 4.57773 11.031 5.86518C12.2442 5.60606 13.1724 5.20597 13.7001 4.76288L13.7866 4.68796C12.8534 3.0612 11.254 1.86539 9.36061 1.47266C9.65589 1.77404 9.90659 2.15789 10.1126 2.57036Z" fill="#9DABBD"/>
<path d="M14.2291 5.62055C13.5047 6.17998 12.4069 6.60509 11.129 6.86628C11.1536 7.23555 11.1663 7.61437 11.1663 8.0003C11.1663 8.89639 11.0976 9.7552 10.9716 10.5459C11.8064 10.3774 12.6332 10.1352 13.3215 9.85087C13.7622 9.66879 14.1319 9.4752 14.407 9.28187C14.4661 9.2403 14.5188 9.2002 14.5655 9.1618C14.5685 9.14503 14.5713 9.12822 14.5742 9.11141C14.6348 8.75006 14.6663 8.37887 14.6663 8.0003C14.6663 7.1619 14.5116 6.35965 14.2291 5.62055Z" fill="#9DABBD"/>
<path d="M14.1503 10.5766C14.0065 10.6454 13.857 10.7116 13.7033 10.7751C12.8333 11.1346 11.7837 11.425 10.7593 11.6032C10.5287 12.542 10.2052 13.3596 9.80321 13.9719C9.6707 14.1738 9.523 14.3626 9.36049 14.528C11.5294 14.0781 13.3124 12.5746 14.1503 10.5766Z" fill="#9DABBD"/>
<path d="M6.63883 14.528C6.47633 14.3626 6.32862 14.1738 6.19611 13.9719C5.79413 13.3596 5.47061 12.542 5.24003 11.6032C4.21562 11.425 3.16605 11.1346 2.29601 10.7751C2.14236 10.7116 1.99288 10.6454 1.84903 10.5766C2.68691 12.5746 4.46993 14.0781 6.63883 14.528Z" fill="#9DABBD"/>
<path d="M1.43384 9.1618C1.48055 9.20021 1.53321 9.2403 1.59235 9.28187C1.86739 9.4752 2.23716 9.66879 2.67786 9.85087C3.36611 10.1352 4.19295 10.3774 5.02775 10.5459C4.9017 9.7552 4.83299 8.89639 4.83299 8.0003C4.83299 7.61437 4.84574 7.23555 4.87028 6.86628C3.59241 6.60509 2.49465 6.17998 1.77028 5.62057C1.48777 6.35966 1.33301 7.16191 1.33301 8.0003C1.33301 8.37887 1.36456 8.75007 1.42518 9.11141C1.42801 9.12823 1.43089 9.14503 1.43384 9.1618Z" fill="#9DABBD"/>
<path d="M2.21279 4.68797C3.14593 3.06121 4.74528 1.8654 6.63871 1.47266C6.34344 1.77404 6.09273 2.15789 5.88671 2.57036C5.45479 3.43509 5.1364 4.57773 4.9683 5.86518C3.75511 5.60606 2.82691 5.20596 2.2992 4.76288L2.21279 4.68797Z" fill="#9DABBD"/>
<path d="M7.99966 7.16697C8.74417 7.16697 9.46265 7.11954 10.1375 7.03131C10.1565 7.34709 10.1663 7.67068 10.1663 8.0003C10.1663 8.97504 10.0801 9.89568 9.92741 10.7167C9.32029 10.7925 8.67268 10.8336 7.99966 10.8336C7.32664 10.8336 6.67903 10.7925 6.07191 10.7167C5.9192 9.89568 5.833 8.97504 5.833 8.0003C5.833 7.67068 5.84285 7.34709 5.86183 7.03131C6.53668 7.11954 7.25515 7.16697 7.99966 7.16697Z" fill="#9DABBD"/>
<path d="M7.99966 11.8336C8.58031 11.8336 9.14505 11.8048 9.68555 11.7503C9.48698 12.4405 9.23957 13.0083 8.96725 13.4231C8.59874 13.9845 8.25596 14.167 7.99966 14.167C7.74336 14.167 7.40058 13.9845 7.03207 13.4231C6.75976 13.0083 6.51235 12.4405 6.31377 11.7503C6.85428 11.8048 7.41902 11.8336 7.99966 11.8336Z" fill="#9DABBD"/>
</svg>
