<svg width="18" height="17" viewBox="0 0 18 17" fill="none" xmlns="http://www.w3.org/2000/svg">
<path fill-rule="evenodd" clip-rule="evenodd" d="M17.3337 8.33309C17.3337 12.9355 13.6027 16.6664 9.00033 16.6664C4.39795 16.6664 0.666992 12.9355 0.666992 8.33309C0.666992 3.73072 4.39795 -0.000244141 9.00033 -0.000244141C13.6027 -0.000244141 17.3337 3.73072 17.3337 8.33309ZM9.62534 3.24052C9.62534 2.89534 9.34552 2.61552 9.00034 2.61552C8.65516 2.61552 8.37534 2.89534 8.37534 3.24052V8.07423L5.78062 10.6689C5.53655 10.913 5.53655 11.3088 5.78062 11.5528C6.0247 11.7969 6.42043 11.7969 6.66451 11.5528L9.41516 8.80217C9.54975 8.66759 9.62534 8.48506 9.62534 8.29476V3.24052Z" fill="#9DABBD"/>
</svg>
