<svg width="154" height="136" viewBox="0 0 154 136" fill="none" xmlns="http://www.w3.org/2000/svg">
<path d="M135.17 58.7265C135.17 71.9542 130.741 84.3837 123.359 94.1904C119.27 99.5499 114.387 104.225 108.709 107.874C99.6235 113.918 88.6076 117.339 76.9103 117.339C44.7711 117.453 18.6509 91.2256 18.6509 58.7265C18.6509 26.3414 44.6575 0 76.9103 0C88.6076 0 99.5099 3.42096 108.709 9.46466C114.387 13.1137 119.27 17.789 123.359 23.1485C130.741 33.0693 135.17 45.3847 135.17 58.7265Z" fill="#2A2E37"/>
<path d="M32.5415 50.8744H31.8382C31.3107 50.8744 30.959 50.7103 30.959 50.4641C30.959 50.2179 31.3107 50.0538 31.8382 50.0538H32.5415C33.069 50.0538 33.4206 50.2179 33.4206 50.4641C33.4206 50.7103 33.069 50.8744 32.5415 50.8744Z" fill="#2D5887"/>
<path d="M32.5415 54.1566H31.8382C31.3107 54.1566 30.959 53.9925 30.959 53.7463C30.959 53.5002 31.3107 53.3361 31.8382 53.3361H32.5415C33.069 53.3361 33.4206 53.5002 33.4206 53.7463C33.4206 53.9925 33.069 54.1566 32.5415 54.1566Z" fill="#2D5887"/>
<path d="M32.5415 57.4388H31.8382C31.3107 57.4388 30.959 57.2747 30.959 57.0286C30.959 56.7824 31.3107 56.6183 31.8382 56.6183H32.5415C33.069 56.6183 33.4206 56.7824 33.4206 57.0286C33.4206 57.2747 33.069 57.4388 32.5415 57.4388Z" fill="#2D5887"/>
<path d="M32.5415 60.7211H31.8382C31.3107 60.7211 30.959 60.557 30.959 60.3108C30.959 60.0646 31.3107 59.9005 31.8382 59.9005H32.5415C33.069 59.9005 33.4206 60.0646 33.4206 60.3108C33.4206 60.557 33.069 60.7211 32.5415 60.7211Z" fill="#2D5887"/>
<path d="M64.6409 50.8744H53.0749C52.606 50.8744 52.2935 50.7103 52.2935 50.4641C52.2935 50.2179 52.606 50.0538 53.0749 50.0538H64.6409C65.1097 50.0538 65.4223 50.2179 65.4223 50.4641C65.4223 50.7103 65.1097 50.8744 64.6409 50.8744Z" fill="white"/>
<path d="M89.2841 60.7211H53.0484C52.5954 60.7211 52.2935 60.557 52.2935 60.3108C52.2935 60.0646 52.5954 59.9005 53.0484 59.9005H89.2841C89.737 59.9005 90.039 60.0646 90.039 60.3108C90.039 60.557 89.737 60.7211 89.2841 60.7211Z" fill="url(#paint0_linear_1650_1495)"/>
<path d="M64.6862 54.1566H48.9273C48.4855 54.1566 48.1909 53.9925 48.1909 53.7463C48.1909 53.5002 48.4855 53.3361 48.9273 53.3361H64.6862C65.128 53.3361 65.4226 53.5002 65.4226 53.7463C65.4226 53.9925 65.128 54.1566 64.6862 54.1566Z" fill="#2D5887"/>
<path d="M76.9961 57.4388H48.9257C48.4848 57.4388 48.1909 57.2747 48.1909 57.0286C48.1909 56.7824 48.4848 56.6183 48.9257 56.6183H76.9961C77.437 56.6183 77.7309 56.7824 77.7309 57.0286C77.5839 57.2747 77.29 57.4388 76.9961 57.4388Z" fill="#2D5887"/>
<path d="M89.24 57.4388H78.5302C78.0506 57.4388 77.731 57.2747 77.731 57.0286C77.731 56.7824 78.0506 56.6183 78.5302 56.6183H89.24C89.7196 56.6183 90.0393 56.7824 90.0393 57.0286C90.0393 57.2747 89.7196 57.4388 89.24 57.4388Z" fill="white"/>
<path d="M95.8275 57.4388H91.6361C91.1703 57.4388 90.8599 57.2747 90.8599 57.0286C90.8599 56.7824 91.1703 56.6183 91.6361 56.6183H95.8275C96.2933 56.6183 96.6037 56.7824 96.6037 57.0286C96.6037 57.2747 96.2933 57.4388 95.8275 57.4388Z" fill="url(#paint1_linear_1650_1495)"/>
<path d="M5.52197 102.569H143.375" stroke="#2B323C" stroke-width="2" stroke-miterlimit="10" stroke-linecap="round" stroke-linejoin="round"/>
<g filter="url(#filter0_d_1650_1495)">
<path d="M102.347 50.0538V102.569H27.8932C24.9562 102.569 22.7534 100.209 22.7534 97.4063V50.0538H102.347Z" fill="#5C6479"/>
</g>
<path d="M131.888 50.0538V97.4063C131.888 100.357 129.439 102.569 126.531 102.569H102.348V50.0538H131.888Z" fill="#DAE1ED"/>
<g filter="url(#filter1_d_1650_1495)">
<path d="M131.888 50.0538V97.4063C131.888 100.357 129.439 102.569 126.531 102.569H102.348V50.0538H131.888Z" fill="#474E61"/>
</g>
<path d="M51.4731 50.0538L67.1293 25.4371H147.478L131.379 50.0538H51.4731Z" fill="#C5CDDB"/>
<path d="M51.4731 50.0538L67.1293 25.4371H147.478L131.379 50.0538H51.4731Z" fill="#5A6177"/>
<path opacity="0.3" d="M131.888 50.1976V77.9527H110.348C108.348 77.9527 106.963 76.6584 106.656 74.7889L102.348 50.0538L131.888 50.1976Z" fill="url(#paint2_linear_1650_1495)"/>
<path d="M131.269 50.0538H102.348L117.033 72.312C118.082 73.786 119.73 74.6705 121.379 74.6705H143.856C145.355 74.6705 146.404 72.9016 145.504 71.7224L131.269 50.0538Z" fill="#6F778B"/>
<path d="M102.347 50.0538L86.5817 25.4371H5.52197L21.8826 50.0538H102.347Z" fill="#474E61"/>
<path d="M62.4763 80.4143H31.4438C30.7187 80.4143 30.1387 79.8673 30.1387 79.1835C30.1387 78.4997 30.7187 77.9526 31.4438 77.9526H62.4763C63.2014 77.9526 63.7814 78.4997 63.7814 79.1835C63.6364 79.8673 63.2014 80.4143 62.4763 80.4143Z" fill="#42495B"/>
<path d="M62.4763 86.1582H31.4438C30.7187 86.1582 30.1387 85.7935 30.1387 85.3376C30.1387 84.8818 30.7187 84.5171 31.4438 84.5171H62.4763C63.2014 84.5171 63.7814 84.8818 63.7814 85.3376C63.6364 85.7935 63.2014 86.1582 62.4763 86.1582Z" fill="#42495B"/>
<path d="M46.0448 92.7227H31.4642C30.7278 92.7227 30.1387 92.358 30.1387 91.9021C30.1387 91.4462 30.7278 91.0815 31.4642 91.0815H46.0448C46.7812 91.0815 47.3703 91.4462 47.3703 91.9021C47.223 92.358 46.6339 92.7227 46.0448 92.7227Z" fill="#42495B"/>
<defs>
<filter id="filter0_d_1650_1495" x="0.753418" y="39.0538" width="123.594" height="96.5155" filterUnits="userSpaceOnUse" color-interpolation-filters="sRGB">
<feFlood flood-opacity="0" result="BackgroundImageFix"/>
<feColorMatrix in="SourceAlpha" type="matrix" values="0 0 0 0 0 0 0 0 0 0 0 0 0 0 0 0 0 0 127 0" result="hardAlpha"/>
<feOffset dy="11"/>
<feGaussianBlur stdDeviation="11"/>
<feColorMatrix type="matrix" values="0 0 0 0 0 0 0 0 0 0 0 0 0 0 0 0 0 0 0.27 0"/>
<feBlend mode="normal" in2="BackgroundImageFix" result="effect1_dropShadow_1650_1495"/>
<feBlend mode="normal" in="SourceGraphic" in2="effect1_dropShadow_1650_1495" result="shape"/>
</filter>
<filter id="filter1_d_1650_1495" x="80.3477" y="39.0538" width="73.54" height="96.5155" filterUnits="userSpaceOnUse" color-interpolation-filters="sRGB">
<feFlood flood-opacity="0" result="BackgroundImageFix"/>
<feColorMatrix in="SourceAlpha" type="matrix" values="0 0 0 0 0 0 0 0 0 0 0 0 0 0 0 0 0 0 127 0" result="hardAlpha"/>
<feOffset dy="11"/>
<feGaussianBlur stdDeviation="11"/>
<feColorMatrix type="matrix" values="0 0 0 0 0 0 0 0 0 0 0 0 0 0 0 0 0 0 0.27 0"/>
<feBlend mode="normal" in2="BackgroundImageFix" result="effect1_dropShadow_1650_1495"/>
<feBlend mode="normal" in="SourceGraphic" in2="effect1_dropShadow_1650_1495" result="shape"/>
</filter>
<linearGradient id="paint0_linear_1650_1495" x1="52.463" y1="60.3274" x2="90.0828" y2="60.3274" gradientUnits="userSpaceOnUse">
<stop stop-color="#FF66A9"/>
<stop offset="1" stop-color="#F53689"/>
</linearGradient>
<linearGradient id="paint1_linear_1650_1495" x1="90.8982" y1="57.0035" x2="96.6027" y2="57.0035" gradientUnits="userSpaceOnUse">
<stop stop-color="#83A6FF"/>
<stop offset="1" stop-color="#5A78FF"/>
</linearGradient>
<linearGradient id="paint2_linear_1650_1495" x1="117.124" y1="78.5253" x2="117.124" y2="53.1128" gradientUnits="userSpaceOnUse">
<stop offset="0.00289017" stop-color="#484F62"/>
<stop offset="1" stop-color="#15171C"/>
</linearGradient>
</defs>
</svg>
