<svg width="20" height="20" viewBox="0 0 20 20" fill="none" xmlns="http://www.w3.org/2000/svg">
<path fill-rule="evenodd" clip-rule="evenodd" d="M10.0003 3.54163C10.3455 3.54163 10.6253 3.82145 10.6253 4.16663V9.37496H15.8337C16.1788 9.37496 16.4587 9.65478 16.4587 9.99996C16.4587 10.3451 16.1788 10.625 15.8337 10.625H10.6253V15.8333C10.6253 16.1785 10.3455 16.4583 10.0003 16.4583C9.65515 16.4583 9.37533 16.1785 9.37533 15.8333V10.625H4.16699C3.82181 10.625 3.54199 10.3451 3.54199 9.99996C3.54199 9.65478 3.82181 9.37496 4.16699 9.37496H9.37533V4.16663C9.37533 3.82145 9.65515 3.54163 10.0003 3.54163Z" fill="white"/>
</svg>
