<svg width="20" height="21" viewBox="0 0 20 21" fill="none" xmlns="http://www.w3.org/2000/svg">
<path fill-rule="evenodd" clip-rule="evenodd" d="M9.99984 2.3252C5.74264 2.3252 2.2915 5.77633 2.2915 10.0335C2.2915 14.2907 5.74264 17.7419 9.99984 17.7419C14.257 17.7419 17.7082 14.2907 17.7082 10.0335C17.7082 5.77633 14.257 2.3252 9.99984 2.3252ZM1.0415 10.0335C1.0415 5.08598 5.05229 1.0752 9.99984 1.0752C14.9474 1.0752 18.9582 5.08598 18.9582 10.0335C18.9582 14.9811 14.9474 18.9919 9.99984 18.9919C5.05229 18.9919 1.0415 14.9811 1.0415 10.0335ZM9.99984 6.0752C10.345 6.0752 10.6248 6.35502 10.6248 6.7002V9.40853H13.3332C13.6783 9.40853 13.9582 9.68835 13.9582 10.0335C13.9582 10.3787 13.6783 10.6585 13.3332 10.6585H10.6248V13.3669C10.6248 13.712 10.345 13.9919 9.99984 13.9919C9.65466 13.9919 9.37484 13.712 9.37484 13.3669V10.6585H6.6665C6.32133 10.6585 6.0415 10.3787 6.0415 10.0335C6.0415 9.68835 6.32133 9.40853 6.6665 9.40853H9.37484V6.7002C9.37484 6.35502 9.65466 6.0752 9.99984 6.0752Z" fill="white"/>
</svg>
