<svg width="21" height="21" viewBox="0 0 21 21" fill="none" xmlns="http://www.w3.org/2000/svg">
<path fill-rule="evenodd" clip-rule="evenodd" d="M14.6551 4.79523C13.2867 4.06412 11.7088 3.82742 10.1907 4.12484C8.67261 4.42224 7.30843 5.2352 6.32993 6.42434C5.5892 7.32452 5.10385 8.39851 4.91333 9.53612C5.1479 9.40134 5.40396 9.25336 5.65977 9.10507C6.0917 8.85469 6.52152 8.60423 6.84345 8.4163L7.37833 8.10363C7.37835 8.10362 7.37893 8.10328 7.69485 8.64256C8.01076 9.18184 8.01074 9.18185 8.01071 9.18187L7.47362 9.49583C7.15107 9.68412 6.72007 9.93527 6.28666 10.1865C5.85361 10.4375 5.41672 10.6895 5.08293 10.879C4.91649 10.9735 4.77304 11.054 4.66766 11.1115C4.6157 11.1398 4.56842 11.1651 4.53055 11.1842C4.51256 11.1933 4.48954 11.2047 4.46604 11.2151C4.45505 11.2199 4.43496 11.2286 4.4105 11.2372C4.39837 11.2414 4.37749 11.2484 4.35129 11.255C4.33296 11.2596 4.27404 11.274 4.19731 11.274C4.05025 11.274 3.94359 11.2225 3.90121 11.1999C3.85075 11.173 3.81436 11.1447 3.79493 11.1287C3.75581 11.0964 3.72822 11.0658 3.71624 11.0522C3.68939 11.0218 3.66737 10.9917 3.65433 10.9735C3.62543 10.9331 3.59308 10.8835 3.56115 10.8331C3.4955 10.7293 3.40921 10.5863 3.31155 10.4212C3.11526 10.0892 2.86176 9.64901 2.6121 9.21154C2.36208 8.77344 2.11448 8.33561 1.92947 8.00746C1.83694 7.84334 1.76002 7.70656 1.70621 7.61078L1.62196 7.46068C1.62194 7.46065 1.62158 7.46001 2.16682 7.15449C2.71206 6.84898 2.71206 6.84898 2.71207 6.84901L2.79599 6.99852C2.84955 7.09384 2.92616 7.23007 3.01834 7.39357C3.20274 7.72064 3.44919 8.15644 3.69775 8.59197C3.7307 8.64972 3.76367 8.70741 3.79651 8.76481C4.075 7.62284 4.60763 6.55014 5.3647 5.63009C6.52808 4.21626 8.1489 3.25108 9.95035 2.89816C11.7517 2.54526 13.6224 2.82629 15.2442 3.69272C16.8659 4.55917 18.1391 5.95788 18.8464 7.65122C19.5538 9.34464 19.6514 11.2281 19.1217 12.9806C18.592 14.7331 17.4679 16.2452 15.9416 17.2594C14.4152 18.2736 12.5815 18.7269 10.753 18.5431C8.92464 18.3594 7.21387 17.55 5.91198 16.2528C5.66746 16.0092 5.66674 15.6135 5.91038 15.3689C6.15401 15.1244 6.54974 15.1237 6.79426 15.3673C7.89247 16.4616 9.33579 17.1444 10.878 17.2994C12.4202 17.4543 13.9651 17.0719 15.2498 16.2183C16.5344 15.3648 17.4797 14.0927 17.9252 12.6189C18.3707 11.1451 18.2889 9.55975 17.693 8.13301C17.097 6.70617 16.0235 5.52635 14.6551 4.79523ZM2.16682 7.15449L2.71207 6.84901C2.54334 6.54788 2.16243 6.44052 1.8613 6.60926C1.56018 6.77799 1.45323 7.15955 1.62196 7.46068L2.16682 7.15449ZM7.69485 8.64256L8.01071 9.18187C8.30855 9.00739 8.4086 8.62448 8.23413 8.32665C8.05965 8.02881 7.67617 7.92916 7.37833 8.10363L7.69485 8.64256Z" fill="#9DABBD"/>
</svg>
