<svg width="20" height="20" viewBox="0 0 20 20" fill="none" xmlns="http://www.w3.org/2000/svg">
<path d="M19.926 0.111027C19.8723 0.0476525 19.7956 0.0081167 19.7126 0.0011168C19.6297 -0.00588309 19.5473 0.0202263 19.4837 0.0737016L13.5793 5.03714L13.3769 4.79818C13.3232 4.73482 13.2465 4.6953 13.1636 4.68829C13.0806 4.68129 12.9983 4.70737 12.9347 4.76081L9.83955 7.36268L9.2323 6.64578L8.75253 7.04906L9.35977 7.76595L9.13842 7.95203L8.68642 8.33197L8.07917 7.61508L9.58634 6.34812L10.3012 6.40119C10.3831 6.40732 10.4642 6.38116 10.5269 6.32834L11.9276 5.15095C11.9594 5.12416 11.9856 5.09131 12.0046 5.05433C12.0235 5.01734 12.0349 4.97697 12.0381 4.93555C12.0412 4.89414 12.036 4.85251 12.0229 4.81311C12.0097 4.77371 11.9888 4.73731 11.9613 4.70605L11.1582 3.79198C11.104 3.73032 11.0277 3.69231 10.9457 3.68613C10.8636 3.67996 10.7824 3.70611 10.7196 3.75895L9.33584 4.92219C9.30354 4.94934 9.27708 4.9827 9.25804 5.02029C9.239 5.05787 9.22778 5.0989 9.22505 5.14091L9.1773 5.87371L6.58703 8.05119L5.58808 8.14562C5.52445 8.15163 5.46418 8.17686 5.41534 8.21793L4.72347 8.79954C4.65985 8.85302 4.62015 8.92948 4.61312 9.01211C4.60609 9.09474 4.63229 9.17676 4.68596 9.24015L5.49561 10.196C5.52509 10.2308 5.56182 10.2588 5.60326 10.278C5.64469 10.2971 5.68983 10.3071 5.73552 10.3071C5.80932 10.3071 5.88107 10.2811 5.93792 10.2334L6.62979 9.65175C6.67864 9.61067 6.71374 9.55572 6.73039 9.49424L6.99187 8.52912L7.59947 8.01836L8.20672 8.73525L7.06285 9.69681C6.73796 9.96993 6.53061 10.2605 6.44658 10.5606C6.3738 10.8205 6.36042 11.2169 6.71014 11.6298L4.18257 13.7546L3.12497 14.6436C2.98055 14.7651 2.79455 14.8209 2.60082 14.8007C2.24101 14.7631 1.87873 14.873 1.60658 15.1018L0.111451 16.3587C0.051119 16.4094 0.0121874 16.4809 0.00241511 16.559C-0.0073572 16.637 0.0127473 16.7159 0.058722 16.7798L2.28095 19.8695C2.30618 19.9045 2.33843 19.934 2.37565 19.9561C2.41287 19.9781 2.45426 19.9923 2.49723 19.9976C2.5402 20.0029 2.58382 19.9994 2.62533 19.9871C2.66685 19.9748 2.70538 19.9542 2.73848 19.9264L3.25698 19.4905C3.58803 19.2122 3.70804 18.7625 3.56269 18.3449L3.33557 17.6924C3.27986 17.5323 3.31599 17.363 3.42988 17.2506L3.43357 17.2469L5.43241 15.207L6.00183 14.7283L6.77401 16.8043C6.79152 16.8513 6.82014 16.8935 6.85745 16.9272C6.89477 16.9609 6.93968 16.9852 6.98839 16.998C7.0371 17.0108 7.08819 17.0117 7.13733 17.0007C7.18648 16.9896 7.23223 16.967 7.27074 16.9346L8.42387 15.9653C8.47774 15.92 8.51474 15.858 8.52891 15.7892C8.54308 15.7204 8.5336 15.6488 8.50199 15.5861L8.0339 14.6566L8.65837 14.1317C8.95724 13.8804 9.10256 13.4955 9.04709 13.1021C9.01119 12.8477 8.89706 12.6178 8.72518 12.439L11.2335 10.3305C11.3666 10.2185 11.4909 10.0966 11.6054 9.96571L13.1129 8.35472C13.4858 7.98916 13.5298 7.40039 13.2313 6.96616L14.149 6.19471C14.1805 6.16823 14.2065 6.13583 14.2254 6.09936C14.2444 6.06289 14.2559 6.02306 14.2594 5.98214C14.2629 5.94123 14.2582 5.90003 14.2457 5.8609C14.2332 5.82178 14.2131 5.78549 14.1865 5.75411L13.9841 5.51514L19.8885 0.551629C19.92 0.525152 19.946 0.492751 19.9649 0.456278C19.9839 0.419805 19.9954 0.379974 19.9989 0.33906C20.0024 0.298145 19.9977 0.256948 19.9852 0.217822C19.9727 0.178696 19.9526 0.142407 19.926 0.111027ZM8.25356 13.6537L7.7444 14.0817L7.4549 13.5068L8.18832 12.8903L8.24332 12.8441C8.34264 12.9343 8.4071 13.0564 8.42552 13.1891C8.45114 13.3709 8.38848 13.5403 8.25356 13.6537ZM12.6701 7.91142C12.6662 7.91514 12.6625 7.91896 12.6588 7.92288L11.1427 9.54313C11.1402 9.54581 11.1377 9.54853 11.1353 9.5513C11.041 9.65941 10.9385 9.7601 10.8287 9.85248L8.02342 12.2107L7.80905 11.9576L7.59469 11.7046L12.7463 7.37393C12.8391 7.55419 12.8129 7.77369 12.6701 7.91142Z" fill="#9DABBD"/>
</svg>
