<svg width="20" height="20" viewBox="0 0 20 20" fill="none" xmlns="http://www.w3.org/2000/svg">
<path fill-rule="evenodd" clip-rule="evenodd" d="M9.35881 2.29163C5.45565 2.29163 2.2915 5.45577 2.2915 9.35894C2.2915 13.2621 5.45565 16.4262 9.35881 16.4262C11.3106 16.4262 13.0765 15.6359 14.3562 14.3563C15.6358 13.0767 16.4261 11.3107 16.4261 9.35894C16.4261 5.45577 13.262 2.29163 9.35881 2.29163ZM1.0415 9.35894C1.0415 4.76541 4.76529 1.04163 9.35881 1.04163C13.9523 1.04163 17.6761 4.76541 17.6761 9.35894C17.6761 11.4305 16.9181 13.326 15.6654 14.7817L18.7751 17.8914C19.0192 18.1354 19.0192 18.5312 18.7751 18.7752C18.531 19.0193 18.1353 19.0193 17.8912 18.7752L14.7816 15.6656C13.3259 16.9182 11.4304 17.6762 9.35881 17.6762C4.76529 17.6762 1.0415 13.9525 1.0415 9.35894Z" fill="#9DABBD"/>
</svg>
