<svg width="20" height="20" viewBox="0 0 20 20" fill="none" xmlns="http://www.w3.org/2000/svg">
<path fill-rule="evenodd" clip-rule="evenodd" d="M2.29102 14.5834C2.29102 15.6189 3.13048 16.4584 4.16602 16.4584L15.8327 16.4584C16.8682 16.4584 17.7077 15.6189 17.7077 14.5834L17.7077 8.75004C17.7077 7.8216 17.0323 7.04969 16.1459 6.90099C15.8055 6.84388 15.5759 6.52162 15.633 6.1812C15.6901 5.84077 16.0123 5.61111 16.3528 5.66822C17.8312 5.91626 18.9577 7.20098 18.9577 8.75004L18.9577 14.5834C18.9577 16.3093 17.5586 17.7084 15.8327 17.7084L4.16602 17.7084C2.44013 17.7084 1.04102 16.3093 1.04102 14.5834L1.04102 8.75004C1.04102 7.20098 2.16749 5.91626 3.64594 5.66822C3.98636 5.61111 4.30862 5.84078 4.36573 6.1812C4.42285 6.52162 4.19318 6.84388 3.85276 6.90099C2.96645 7.04969 2.29102 7.8216 2.29102 8.75004L2.29102 14.5834ZM6.22407 4.95628C5.98 4.7122 5.98 4.31647 6.22407 4.0724L9.43956 0.856913C9.59402 0.702454 9.79771 0.625039 9.99935 0.625039C10.201 0.625039 10.4047 0.702448 10.5591 0.856919L13.7746 4.0724C14.0187 4.31647 14.0187 4.7122 13.7746 4.95628C13.5305 5.20036 13.1348 5.20036 12.8907 4.95628L10.6243 2.68989L10.6243 12.0143C10.6243 12.3595 10.3445 12.6393 9.99935 12.6393C9.65417 12.6393 9.37435 12.3595 9.37435 12.0143L9.37435 2.68989L7.10796 4.95628C6.86388 5.20036 6.46815 5.20036 6.22407 4.95628Z" fill="#9DABBD"/>
</svg>
