<svg width="20" height="21" viewBox="0 0 20 21" fill="none" xmlns="http://www.w3.org/2000/svg">
<path fill-rule="evenodd" clip-rule="evenodd" d="M9.98706 2.35841C9.9833 2.35948 9.9743 2.36221 9.95802 2.36807C9.91956 2.3819 9.86882 2.40253 9.77713 2.44005C9.10655 2.71448 7.81393 3.23062 6.85369 3.5323C6.13036 3.75955 5.18359 3.99469 4.48258 4.15958C4.29079 4.20469 4.18089 4.23097 4.10105 4.25627C4.06279 4.26839 4.04422 4.27655 4.03744 4.27984C4.01371 4.2992 3.99343 4.3249 3.97722 4.36531C3.97572 4.37006 3.96919 4.39485 3.96461 4.46292C3.95835 4.55584 3.95803 4.67953 3.95803 4.88552V10.4606C3.95803 11.9059 3.96429 12.499 4.1207 13.0208C4.26451 13.5005 4.49897 13.9399 4.80681 14.3117C5.13835 14.712 5.5984 15.0115 6.76027 15.7462L9.69747 17.6036C9.81968 17.6808 9.88755 17.7234 9.93981 17.7521C9.9622 17.7643 9.97467 17.77 9.97989 17.7722C9.99308 17.7747 10.0063 17.7747 10.0195 17.7722C10.0247 17.77 10.0372 17.7643 10.0596 17.7521C10.1118 17.7234 10.1797 17.6808 10.3019 17.6036L13.2391 15.7462C14.401 15.0115 14.861 14.712 15.1926 14.3117C15.5004 13.9399 15.7349 13.5005 15.8787 13.0208C16.0351 12.499 16.0414 11.9059 16.0414 10.4606V4.88552C16.0414 4.67953 16.041 4.55584 16.0348 4.46292C16.0302 4.39488 16.0237 4.37009 16.0222 4.36532C16.006 4.3249 15.9857 4.2992 15.9619 4.27984C15.9552 4.27655 15.9366 4.26839 15.8983 4.25627C15.8185 4.23097 15.7086 4.20469 15.5168 4.15958C14.8158 3.99469 13.869 3.75955 13.1457 3.5323C12.1855 3.23062 10.8928 2.71448 10.2223 2.44005C10.1306 2.40253 10.0798 2.3819 10.0414 2.36807C10.0251 2.36221 10.0161 2.35948 10.0123 2.35841C10.0028 2.35709 9.9966 2.35709 9.98706 2.35841ZM15.9651 4.28147L15.9642 4.28099L15.9651 4.28147ZM4.03429 4.28147L4.0351 4.28102L4.03429 4.28147ZM9.78872 1.12421C9.93079 1.10183 10.0686 1.10183 10.2107 1.12421C10.3707 1.14942 10.5242 1.21259 10.6598 1.26842C10.6719 1.27341 10.6839 1.27834 10.6957 1.28318C11.3677 1.55819 12.6161 2.05567 13.5204 2.33977C14.1971 2.55237 15.106 2.77884 15.803 2.94278L15.8217 2.94719C15.9882 2.98632 16.1452 3.02325 16.2759 3.06466C16.4189 3.10997 16.5741 3.17333 16.7206 3.28627C16.9299 3.4476 17.0855 3.65815 17.1826 3.90064C17.2488 4.06604 17.2718 4.22823 17.282 4.37897C17.2914 4.51898 17.2914 4.68535 17.2914 4.86754V10.4606C17.2914 10.4976 17.2914 10.5342 17.2914 10.5703C17.2915 11.8714 17.2916 12.6605 17.0761 13.3797C16.8854 14.0157 16.5726 14.605 16.1553 15.1089C15.6816 15.6811 15.0386 16.0875 14.001 16.7434C13.9701 16.7629 13.9388 16.7827 13.9072 16.8027L10.97 18.66C10.9543 18.6699 10.9385 18.68 10.9225 18.6902C10.7418 18.8053 10.5374 18.9353 10.3066 18.9889C10.1045 19.0358 9.8949 19.0358 9.69279 18.9889C9.46197 18.9353 9.25764 18.8053 9.07694 18.6902C9.06091 18.68 9.04506 18.67 9.0294 18.66L6.09219 16.8027C6.06056 16.7827 6.02929 16.7629 5.99836 16.7434C4.9608 16.0875 4.31782 15.6811 3.84404 15.1089C3.42678 14.605 3.11399 14.0157 2.92333 13.3797C2.70775 12.6605 2.70785 11.8714 2.70802 10.5703C2.70802 10.5342 2.70803 10.4976 2.70803 10.4606L2.70803 4.86757C2.70802 4.68537 2.70801 4.51899 2.71743 4.37897C2.72758 4.22823 2.75054 4.06604 2.81679 3.90065C2.91393 3.65815 3.06948 3.4476 3.2788 3.28627C3.42533 3.17333 3.58049 3.10997 3.72346 3.06466C3.85415 3.02325 4.01121 2.98632 4.17764 2.94719C4.18387 2.94572 4.19012 2.94425 4.19638 2.94278C4.89339 2.77884 5.80233 2.55237 6.47903 2.33977C7.3833 2.05567 8.63168 1.55819 9.30369 1.28318C9.31551 1.27834 9.32749 1.27341 9.3396 1.26842C9.47522 1.21259 9.62864 1.14942 9.78872 1.12421ZM12.9376 7.95312C13.1839 8.19495 13.1875 8.59067 12.9457 8.83697L9.71247 12.1299C9.412 12.4359 8.9122 12.4333 8.61541 12.1218L7.04724 10.4763C6.80911 10.2264 6.81863 9.83079 7.06851 9.59266C7.3184 9.35453 7.71401 9.36405 7.95214 9.61393L9.17306 10.8951L12.0537 7.96121C12.2956 7.71491 12.6913 7.71129 12.9376 7.95312Z" fill="white"/>
</svg>
