<svg width="20" height="20" viewBox="0 0 20 20" fill="none" xmlns="http://www.w3.org/2000/svg">
<path fill-rule="evenodd" clip-rule="evenodd" d="M9.98804 2.29262C9.98428 2.29368 9.97528 2.29642 9.95899 2.30227C9.92054 2.31611 9.86979 2.33673 9.77811 2.37425C9.10753 2.64869 7.81491 3.16483 6.85466 3.4665C6.13134 3.69375 5.18457 3.9289 4.48356 4.09378C4.29177 4.13889 4.18187 4.16517 4.10202 4.19047C4.06377 4.20259 4.0452 4.21076 4.03842 4.21404C4.01469 4.23341 3.9944 4.25911 3.97819 4.29952C3.9767 4.30427 3.97017 4.32906 3.96559 4.39712C3.95933 4.49004 3.959 4.61373 3.959 4.81972V10.3948C3.959 11.8401 3.96527 12.4332 4.12168 12.955C4.26549 13.4348 4.49995 13.8741 4.80779 14.2459C5.13932 14.6462 5.59937 14.9457 6.76125 15.6804L9.69845 17.5378C9.82066 17.615 9.88852 17.6576 9.94078 17.6863C9.96318 17.6985 9.97564 17.7042 9.98087 17.7064C9.99406 17.7089 10.0073 17.7089 10.0205 17.7064C10.0257 17.7042 10.0382 17.6985 10.0606 17.6863C10.1128 17.6576 10.1807 17.615 10.3029 17.5378L13.2401 15.6804C14.402 14.9457 14.862 14.6463 15.1936 14.2459C15.5014 13.8741 15.7359 13.4348 15.8797 12.955C16.0361 12.4332 16.0423 11.8401 16.0423 10.3948V4.81972C16.0423 4.61373 16.042 4.49004 16.0358 4.39712C16.0312 4.32909 16.0246 4.30429 16.0231 4.29952C16.0069 4.25911 15.9866 4.23341 15.9629 4.21404C15.9561 4.21076 15.9376 4.20259 15.8993 4.19047C15.8195 4.16517 15.7096 4.13889 15.5178 4.09378C14.8168 3.9289 13.87 3.69375 13.1467 3.4665C12.1864 3.16483 10.8938 2.64869 10.2232 2.37425C10.1315 2.33673 10.0808 2.31611 10.0423 2.30227C10.0261 2.29642 10.0171 2.29368 10.0133 2.29262C10.0038 2.2913 9.99758 2.2913 9.98804 2.29262ZM15.9661 4.21568L15.9652 4.21519ZM4.03527 4.21568L4.03608 4.21522ZM9.7897 1.05841C9.93177 1.03603 10.0696 1.03603 10.2116 1.05841C10.3717 1.08363 10.5251 1.14679 10.6608 1.20263C10.6729 1.20761 10.6848 1.21254 10.6967 1.21738C11.3687 1.4924 12.6171 1.98988 13.5213 2.27397C14.198 2.48657 15.107 2.71304 15.804 2.87699L15.8227 2.88139C15.9892 2.92053 16.1462 2.95745 16.2769 2.99887C16.4199 3.04417 16.575 3.10753 16.7216 3.22047C16.9309 3.3818 17.0864 3.59235 17.1836 3.83485C17.2498 4.00024 17.2728 4.16243 17.2829 4.31318C17.2924 4.45319 17.2923 4.61956 17.2923 4.80175V10.3948C17.2923 10.4318 17.2923 10.4684 17.2923 10.5046C17.2925 11.8056 17.2926 12.5947 17.077 13.3139C16.8864 13.95 16.5736 14.5392 16.1563 15.0431C15.6825 15.6153 15.0396 16.0217 14.002 16.6776C13.9711 16.6971 13.9398 16.7169 13.9082 16.7369L10.971 18.5943C10.9553 18.6042 10.9395 18.6142 10.9235 18.6244C10.7427 18.7395 10.5384 18.8695 10.3076 18.9231C10.1055 18.97 9.89588 18.97 9.69377 18.9231C9.46294 18.8695 9.25861 18.7395 9.07792 18.6244C9.06188 18.6142 9.04604 18.6042 9.03038 18.5943L6.09317 16.7369C6.06154 16.7169 6.03026 16.6971 5.99934 16.6776C4.96178 16.0217 4.31879 15.6153 3.84501 15.0431C3.42776 14.5392 3.11497 13.95 2.92431 13.3139C2.70873 12.5947 2.70883 11.8056 2.70899 10.5045C2.709 10.4684 2.709 10.4318 2.709 10.3948L2.709 4.80177C2.70899 4.61957 2.70898 4.45319 2.71841 4.31318C2.72855 4.16243 2.75152 4.00025 2.81777 3.83485C2.91491 3.59235 3.07045 3.3818 3.27977 3.22047C3.4263 3.10753 3.58146 3.04417 3.72443 2.99887C3.85513 2.95745 4.01218 2.92052 4.17862 2.88139C4.18485 2.87993 4.1911 2.87846 4.19736 2.87699C4.89436 2.71304 5.80331 2.48657 6.48001 2.27397C7.38428 1.98988 8.63266 1.4924 9.30467 1.21738C9.31649 1.21254 9.32846 1.20761 9.34058 1.20263C9.4762 1.14679 9.62962 1.08363 9.7897 1.05841ZM12.9385 7.88732C13.1848 8.12916 13.1885 8.52487 12.9466 8.77117L9.71345 12.0641C9.41297 12.3701 8.91318 12.3675 8.61639 12.056L7.04822 10.4105C6.81009 10.1606 6.81961 9.765 7.06949 9.52686C7.31937 9.28873 7.71499 9.29825 7.95312 9.54814L9.17404 10.8293L12.0547 7.89541C12.2965 7.64911 12.6922 7.64549 12.9385 7.88732Z" fill="#9DABBD"/>
</svg>
