<svg width="21" height="20" viewBox="0 0 21 20" fill="none" xmlns="http://www.w3.org/2000/svg">
<path fill-rule="evenodd" clip-rule="evenodd" d="M10.9163 1.04163C11.2615 1.04163 11.5413 1.32145 11.5413 1.66663V2.97409C12.5996 3.25319 13.3747 4.22427 13.3747 5.37033C13.3747 6.73232 12.2799 7.84718 10.9163 7.84718C9.55273 7.84718 8.45801 6.73232 8.45801 5.37033C8.45801 4.22427 9.23313 3.25319 10.2913 2.97409V1.66663C10.2913 1.32145 10.5712 1.04163 10.9163 1.04163ZM16.4163 1.04163C16.7615 1.04163 17.0413 1.32145 17.0413 1.66663V7.91663C17.0413 8.2618 16.7615 8.54163 16.4163 8.54163C16.0712 8.54163 15.7913 8.2618 15.7913 7.91663V1.66663C15.7913 1.32145 16.0712 1.04163 16.4163 1.04163ZM5.41634 1.20671C5.76152 1.20671 6.04134 1.48653 6.04134 1.83171V10.2314C6.04134 10.5766 5.76152 10.8564 5.41634 10.8564C5.07116 10.8564 4.79134 10.5766 4.79134 10.2314V1.83171C4.79134 1.48653 5.07116 1.20671 5.41634 1.20671ZM10.9163 4.14348C10.2549 4.14348 9.70801 4.68682 9.70801 5.37033C9.70801 6.05384 10.2549 6.59718 10.9163 6.59718C11.5778 6.59718 12.1247 6.05384 12.1247 5.37033C12.1247 4.68682 11.5778 4.14348 10.9163 4.14348ZM10.9163 9.14348C11.2615 9.14348 11.5413 9.4233 11.5413 9.76848V18.3333C11.5413 18.6785 11.2615 18.9583 10.9163 18.9583C10.5712 18.9583 10.2913 18.6785 10.2913 18.3333V9.76848C10.2913 9.4233 10.5712 9.14348 10.9163 9.14348ZM16.4163 11.0879C15.7549 11.0879 15.208 11.6313 15.208 12.3148C15.208 12.9983 15.7549 13.5416 16.4163 13.5416C17.0778 13.5416 17.6247 12.9983 17.6247 12.3148C17.6247 11.6313 17.0778 11.0879 16.4163 11.0879ZM13.958 12.3148C13.958 10.9528 15.0527 9.83792 16.4163 9.83792C17.7799 9.83792 18.8747 10.9528 18.8747 12.3148C18.8747 13.4608 18.0996 14.4319 17.0413 14.711V18.3333C17.0413 18.6785 16.7615 18.9583 16.4163 18.9583C16.0712 18.9583 15.7913 18.6785 15.7913 18.3333V14.711C14.7331 14.4319 13.958 13.4608 13.958 12.3148ZM5.41634 13.4027C4.7549 13.4027 4.20801 13.9461 4.20801 14.6296C4.20801 15.3131 4.7549 15.8564 5.41634 15.8564C6.07778 15.8564 6.62467 15.3131 6.62467 14.6296C6.62467 13.9461 6.07778 13.4027 5.41634 13.4027ZM2.95801 14.6296C2.95801 13.2676 4.05273 12.1527 5.41634 12.1527C6.77995 12.1527 7.87467 13.2676 7.87467 14.6296C7.87467 15.7756 7.09955 16.7467 6.04134 17.0258V18.3333C6.04134 18.6785 5.76152 18.9583 5.41634 18.9583C5.07116 18.9583 4.79134 18.6785 4.79134 18.3333V17.0258C3.73313 16.7467 2.95801 15.7756 2.95801 14.6296Z" fill="#9DABBD"/>
</svg>
