<svg width="20" height="20" viewBox="0 0 20 20" fill="none" xmlns="http://www.w3.org/2000/svg">
<path fill-rule="evenodd" clip-rule="evenodd" d="M9.99984 4.63394L7.10845 7.52533C6.86437 7.76941 6.46864 7.76941 6.22456 7.52533C5.98048 7.28125 5.98048 6.88553 6.22456 6.64145L9.44004 3.42597C9.74921 3.1168 10.2505 3.1168 10.5596 3.42597L13.7751 6.64145C14.0192 6.88553 14.0192 7.28125 13.7751 7.52533C13.531 7.76941 13.1353 7.76941 12.8912 7.52533L9.99984 4.63394Z" fill="#9DABBD"/>
<path d="M6.22456 12.4748C6.46864 12.2307 6.86437 12.2307 7.10845 12.4748L9.99984 15.3662L12.8912 12.4748C13.1353 12.2307 13.531 12.2307 13.7751 12.4748C14.0192 12.7189 14.0192 13.1146 13.7751 13.3587L10.5596 16.5741C10.2505 16.8833 9.74921 16.8833 9.44004 16.5741L6.22456 13.3587C5.98048 13.1146 5.98048 12.7189 6.22456 12.4748Z" fill="#9DABBD"/>
</svg>
