<svg width="20" height="21" viewBox="0 0 20 21" fill="none" xmlns="http://www.w3.org/2000/svg">
<path fill-rule="evenodd" clip-rule="evenodd" d="M8.98316 1.10742C8.9888 1.10743 8.99442 1.10743 9.00001 1.10743L11.0169 1.10742C11.1187 1.1074 11.229 1.10737 11.3246 1.11518C11.4327 1.12401 11.5756 1.14588 11.7229 1.22096C11.9189 1.32083 12.0783 1.48019 12.1781 1.67619C12.2532 1.82354 12.2751 1.9664 12.2839 2.07453C12.2917 2.17007 12.2917 2.28044 12.2917 2.38224V17.7493C12.2917 17.8511 12.2917 17.9615 12.2839 18.057C12.2751 18.1651 12.2532 18.308 12.1781 18.4553C12.0783 18.6513 11.9189 18.8107 11.7229 18.9106C11.5756 18.9856 11.4327 19.0075 11.3246 19.0163C11.229 19.0241 11.1187 19.0241 11.0169 19.0241H8.98315C8.88135 19.0241 8.77098 19.0241 8.67545 19.0163C8.56731 19.0075 8.42446 18.9856 8.2771 18.9106C8.0811 18.8107 7.92174 18.6513 7.82187 18.4553C7.74679 18.308 7.72493 18.1651 7.71609 18.057C7.70829 17.9614 7.70831 17.8511 7.70834 17.7493L7.70834 2.39909C7.70834 2.39351 7.70834 2.38789 7.70834 2.38225C7.70831 2.28045 7.70829 2.17007 7.71609 2.07453C7.72493 1.9664 7.74679 1.82354 7.82187 1.67619C7.92174 1.48019 8.0811 1.32083 8.2771 1.22096C8.42446 1.14588 8.56731 1.12401 8.67545 1.11518C8.77098 1.10737 8.88136 1.1074 8.98316 1.10742ZM8.95835 2.35744C8.95834 2.37055 8.95834 2.3844 8.95834 2.39909V17.7324C8.95834 17.7471 8.95834 17.761 8.95835 17.7741C8.97146 17.7741 8.98531 17.7741 9.00001 17.7741H11C11.0147 17.7741 11.0286 17.7741 11.0417 17.7741C11.0417 17.761 11.0417 17.7471 11.0417 17.7324V2.39909C11.0417 2.3844 11.0417 2.37055 11.0417 2.35744C11.0286 2.35743 11.0147 2.35743 11 2.35743H9.00001C8.98531 2.35743 8.97146 2.35743 8.95835 2.35744ZM14.8165 5.27409H16.8502C16.952 5.27407 17.0624 5.27404 17.1579 5.28185C17.266 5.29068 17.4089 5.31255 17.5562 5.38763C17.7522 5.4875 17.9116 5.64685 18.0115 5.84285C18.0866 5.99021 18.1084 6.13307 18.1173 6.2412C18.1251 6.33673 18.125 6.44711 18.125 6.5489V17.7493C18.125 17.8511 18.1251 17.9615 18.1173 18.057C18.1084 18.1651 18.0866 18.308 18.0115 18.4553C17.9116 18.6513 17.7522 18.8107 17.5562 18.9106C17.4089 18.9856 17.266 19.0075 17.1579 19.0163C17.0624 19.0241 16.952 19.0241 16.8502 19.0241H14.8165C14.7147 19.0241 14.6043 19.0241 14.5088 19.0163C14.4006 19.0075 14.2578 18.9856 14.1104 18.9106C13.9144 18.8107 13.7551 18.6513 13.6552 18.4553C13.5801 18.308 13.5583 18.1651 13.5494 18.057C13.5416 17.9615 13.5416 17.8511 13.5417 17.7493V6.5489C13.5416 6.44711 13.5416 6.33674 13.5494 6.2412C13.5583 6.13307 13.5801 5.99021 13.6552 5.84285C13.7551 5.64685 13.9144 5.4875 14.1104 5.38763C14.2578 5.31255 14.4006 5.29068 14.5088 5.28185C14.6043 5.27404 14.7147 5.27407 14.8165 5.27409ZM14.7917 6.52411C14.7917 6.53722 14.7917 6.55106 14.7917 6.56576V17.7324C14.7917 17.7471 14.7917 17.761 14.7917 17.7741C14.8048 17.7741 14.8186 17.7741 14.8333 17.7741H16.8333C16.848 17.7741 16.8619 17.7741 16.875 17.7741C16.875 17.761 16.875 17.7471 16.875 17.7324V6.56576C16.875 6.55106 16.875 6.53722 16.875 6.52411C16.8619 6.52409 16.848 6.52409 16.8333 6.52409H14.8333C14.8186 6.52409 14.8048 6.52409 14.7917 6.52411ZM3.14982 9.44076C3.15546 9.44076 3.16108 9.44076 3.16667 9.44076H5.16667C5.17226 9.44076 5.17788 9.44076 5.18353 9.44076C5.28533 9.44073 5.3957 9.44071 5.49123 9.44851C5.59936 9.45735 5.74222 9.47921 5.88958 9.5543C6.08558 9.65416 6.24494 9.81352 6.3448 10.0095C6.41989 10.1569 6.44175 10.2997 6.45059 10.4079C6.45839 10.5034 6.45837 10.6138 6.45834 10.7156V17.7493C6.45837 17.8511 6.45839 17.9614 6.45059 18.057C6.44175 18.1651 6.41989 18.308 6.3448 18.4553C6.24494 18.6513 6.08558 18.8107 5.88958 18.9106C5.74222 18.9856 5.59936 19.0075 5.49123 19.0163C5.3957 19.0241 5.28533 19.0241 5.18353 19.0241H3.14981C3.04802 19.0241 2.93765 19.0241 2.84211 19.0163C2.73398 19.0075 2.59112 18.9856 2.44377 18.9106C2.24776 18.8107 2.08841 18.6513 1.98854 18.4553C1.91346 18.308 1.89159 18.1651 1.88276 18.057C1.87495 17.9614 1.87498 17.8511 1.875 17.7493V10.7156C1.87498 10.6138 1.87495 10.5034 1.88276 10.4079C1.89159 10.2997 1.91346 10.1569 1.98854 10.0095C2.08841 9.81352 2.24776 9.65416 2.44377 9.5543C2.59112 9.47921 2.73398 9.45735 2.84211 9.44851C2.93765 9.44071 3.04802 9.44073 3.14982 9.44076ZM3.12502 10.6908C3.12501 10.7039 3.12501 10.7177 3.12501 10.7324V17.7324C3.12501 17.7471 3.12501 17.761 3.12502 17.7741C3.13813 17.7741 3.15197 17.7741 3.16667 17.7741H5.16667C5.18137 17.7741 5.19522 17.7741 5.20833 17.7741C5.20834 17.761 5.20834 17.7471 5.20834 17.7324V10.7324C5.20834 10.7177 5.20834 10.7039 5.20833 10.6908C5.19522 10.6908 5.18137 10.6908 5.16667 10.6908H3.16667C3.15197 10.6908 3.13813 10.6908 3.12502 10.6908Z" fill="#F1F5F9"/>
</svg>
