<svg width="21" height="21" viewBox="0 0 21 21" fill="none" xmlns="http://www.w3.org/2000/svg">
<path d="M10.8375 2.1665C6.46251 2.1665 2.87418 5.5415 2.53418 9.8315L7.00085 11.6765C7.39154 11.4085 7.85457 11.2658 8.32835 11.2673C8.37279 11.2679 8.4164 11.2693 8.45918 11.2715L10.4458 8.39484V8.354C10.4458 6.62067 11.8542 5.21234 13.5875 5.21234C14.4208 5.21366 15.2195 5.54543 15.8084 6.13486C16.3974 6.72429 16.7285 7.52326 16.7292 8.3565C16.7292 10.0898 15.32 11.4982 13.5875 11.4982H13.515L10.6842 13.5198L10.6867 13.6307C10.6871 13.9401 10.6266 14.2465 10.5085 14.5325C10.3905 14.8185 10.2172 15.0785 9.99869 15.2975C9.78014 15.5165 9.52057 15.6903 9.23482 15.8089C8.94908 15.9276 8.64275 15.9888 8.33335 15.989C7.78898 15.9869 7.26194 15.7974 6.84081 15.4525C6.41968 15.1075 6.13014 14.6281 6.02085 14.0948L2.82251 12.7707C3.81168 16.269 7.02335 18.8332 10.8383 18.8332C15.44 18.8332 19.17 15.1023 19.17 10.4998C19.17 5.89734 15.4392 2.1665 10.8375 2.1665ZM6.73335 14.389C6.91501 14.7657 7.22918 15.0823 7.64585 15.2565C7.96899 15.3901 8.32445 15.4252 8.66746 15.3571C9.01046 15.2891 9.32567 15.1211 9.57338 14.8743C9.82109 14.6275 9.99022 14.3129 10.0595 13.9701C10.1287 13.6274 10.095 13.2718 9.96251 12.9482C9.78734 12.5229 9.4534 12.1825 9.0315 11.9992C8.6096 11.816 8.13292 11.8042 7.70251 11.9665L8.76001 12.4048C9.07589 12.5402 9.32559 12.7947 9.45483 13.1131C9.58407 13.4315 9.58242 13.7881 9.45022 14.1053C9.31803 14.4225 9.06598 14.6747 8.74886 14.8071C8.43174 14.9395 8.07518 14.9414 7.75668 14.8123L6.73335 14.389ZM15.6833 8.3515C15.6825 7.79644 15.4615 7.26438 15.069 6.87197C14.6764 6.47956 14.1442 6.25883 13.5892 6.25817C13.175 6.25817 12.77 6.38101 12.4256 6.61116C12.0812 6.84131 11.8128 7.16842 11.6543 7.55113C11.4959 7.93383 11.4544 8.35494 11.5353 8.7612C11.6162 9.16745 11.8157 9.54059 12.1087 9.83343C12.4016 10.1263 12.7749 10.3257 13.1811 10.4064C13.5874 10.4871 14.0085 10.4455 14.3912 10.2869C14.7738 10.1282 15.1008 9.85968 15.3308 9.51519C15.5608 9.17069 15.6835 8.76573 15.6833 8.3515ZM13.5933 6.77484C14.0105 6.77528 14.4104 6.94118 14.7054 7.23614C15.0003 7.5311 15.1662 7.93103 15.1667 8.34817C15.1662 8.76531 15.0003 9.16524 14.7054 9.4602C14.4104 9.75516 14.0105 9.92106 13.5933 9.9215C13.1761 9.9215 12.7759 9.75574 12.4808 9.46069C12.1858 9.16563 12.02 8.76545 12.02 8.34817C12.02 7.9309 12.1858 7.53071 12.4808 7.23566C12.7759 6.9406 13.1761 6.77484 13.5933 6.77484Z" fill="#9DABBD"/>
</svg>
