<svg width="20" height="20" viewBox="0 0 20 20" fill="none" xmlns="http://www.w3.org/2000/svg">
<path d="M10.004 1.66663C5.62902 1.66663 2.04068 5.04163 1.70068 9.33163L6.16735 11.1766C6.55805 10.9086 7.02107 10.7659 7.49485 10.7675C7.5393 10.768 7.58291 10.7694 7.62568 10.7716L9.61235 7.89496V7.85413C9.61235 6.12079 11.0207 4.71246 12.754 4.71246C13.5873 4.71378 14.386 5.04555 14.9749 5.63498C15.5639 6.22441 15.895 7.02338 15.8957 7.85663C15.8957 9.58996 14.4865 10.9983 12.754 10.9983H12.6815L9.85068 13.02L9.85318 13.1308C9.85362 13.4402 9.79309 13.7467 9.67504 14.0327C9.55699 14.3186 9.38374 14.5786 9.16519 14.7976C8.94664 15.0166 8.68708 15.1904 8.40133 15.3091C8.11558 15.4277 7.80925 15.4889 7.49985 15.4891C6.95549 15.487 6.42844 15.2975 6.00731 14.9526C5.58619 14.6077 5.29664 14.1282 5.18735 13.595L1.98902 12.2708C2.97818 15.7691 6.18985 18.3333 10.0049 18.3333C14.6065 18.3333 18.3365 14.6025 18.3365 9.99996C18.3365 5.39746 14.6057 1.66663 10.004 1.66663ZM5.89985 13.8891C6.08152 14.2658 6.39568 14.5825 6.81235 14.7566C7.13549 14.8903 7.49096 14.9253 7.83396 14.8573C8.17697 14.7893 8.49218 14.6213 8.73989 14.3744C8.9876 14.1276 9.15672 13.813 9.22597 13.4703C9.29522 13.1275 9.26148 12.7719 9.12902 12.4483C8.95384 12.023 8.61991 11.6826 8.19801 11.4993C7.77611 11.3161 7.29942 11.3043 6.86902 11.4666L7.92652 11.905C8.24239 12.0403 8.49209 12.2948 8.62133 12.6132C8.75058 12.9317 8.74892 13.2882 8.61673 13.6054C8.48453 13.9226 8.23248 14.1748 7.91536 14.3072C7.59824 14.4396 7.24168 14.4415 6.92318 14.3125L5.89985 13.8891ZM14.8499 7.85163C14.849 7.29657 14.628 6.7645 14.2355 6.3721C13.8429 5.97969 13.3107 5.75895 12.7557 5.75829C12.3415 5.75829 11.9365 5.88113 11.5921 6.11128C11.2477 6.34143 10.9793 6.66854 10.8208 7.05125C10.6624 7.43396 10.6209 7.85507 10.7018 8.26132C10.7827 8.66757 10.9822 9.04071 11.2752 9.33355C11.5681 9.62639 11.9414 9.82578 12.3476 9.90649C12.7539 9.9872 13.175 9.94561 13.5577 9.78698C13.9403 9.62835 14.2673 9.3598 14.4973 9.01531C14.7273 8.67082 14.85 8.26585 14.8499 7.85163ZM12.7599 6.27496C13.177 6.2754 13.5769 6.4413 13.8719 6.73627C14.1668 7.03123 14.3327 7.43115 14.3332 7.84829C14.3327 8.26543 14.1668 8.66536 13.8719 8.96032C13.5769 9.25528 13.177 9.42119 12.7599 9.42163C12.3426 9.42163 11.9424 9.25586 11.6473 8.96081C11.3523 8.66575 11.1865 8.26557 11.1865 7.84829C11.1865 7.43102 11.3523 7.03084 11.6473 6.73578C11.9424 6.44072 12.3426 6.27496 12.7599 6.27496Z" fill="white"/>
</svg>
