<svg width="18" height="19" viewBox="0 0 18 19" fill="none" xmlns="http://www.w3.org/2000/svg">
<g clip-path="url(#clip0_9928_6945)">
<path fill-rule="evenodd" clip-rule="evenodd" d="M12.3055 1.81565C12.5223 1.59317 12.8785 1.5886 13.1009 1.80543L16.887 5.49544L16.9066 5.51934C17.0189 5.65578 17.0625 5.81662 17.0625 5.95825C17.0625 6.09989 17.0189 6.26072 16.9066 6.39716L16.887 6.42106L13.1009 10.1111C12.8785 10.3279 12.5223 10.3233 12.3055 10.1009C12.0887 9.87838 12.0933 9.52226 12.3157 9.30543L15.1729 6.52075H6C5.68934 6.52075 5.4375 6.26891 5.4375 5.95825C5.4375 5.64759 5.68934 5.39575 6 5.39575H15.1729L12.3157 2.61108C12.0933 2.39424 12.0887 2.03812 12.3055 1.81565ZM5.69449 8.56564C5.91132 8.78812 5.90675 9.14424 5.68427 9.36107L2.82713 12.1458H12C12.3107 12.1458 12.5625 12.3976 12.5625 12.7083C12.5625 13.0189 12.3107 13.2708 12 13.2708H2.82713L5.68427 16.0554C5.90675 16.2723 5.91132 16.6284 5.69449 16.8509C5.47766 17.0733 5.12153 17.0779 4.89906 16.8611L1.11302 13.1711L1.09336 13.1472C0.981151 13.0107 0.9375 12.8499 0.9375 12.7083C0.9375 12.5666 0.98115 12.4058 1.09336 12.2693L1.11302 12.2454L4.89906 8.55543C5.12153 8.3386 5.47766 8.34317 5.69449 8.56564Z" fill="#9DABBD"/>
</g>
<defs>
<clipPath id="clip0_9928_6945">
<rect width="18" height="18" fill="white" transform="translate(0 0.333252)"/>
</clipPath>
</defs>
</svg>
