<svg width="21" height="21" viewBox="0 0 21 21" fill="none" xmlns="http://www.w3.org/2000/svg">
<path d="M2.16602 4.49863C2.16602 2.97089 3.40449 1.73242 4.93222 1.73242C6.45995 1.73242 7.69842 2.97089 7.69842 4.49863C7.69842 5.81142 6.78392 6.91062 5.55722 7.19393V11.7483C5.55722 12.1504 5.71696 12.5361 6.00131 12.8204L9.01784 15.8369V14.3481C9.01784 14.003 9.29767 13.7231 9.64284 13.7231C9.98802 13.7231 10.2678 14.003 10.2678 14.3481V17.1745C10.2678 17.389 10.1831 17.5837 10.0452 17.7268C10.0417 17.7305 10.0382 17.7341 10.0346 17.7376C10.0311 17.7412 10.0275 17.7447 10.0238 17.7482C9.88066 17.886 9.68601 17.9708 9.47155 17.9708H6.21692C5.87174 17.9708 5.59192 17.691 5.59192 17.3458C5.59192 17.0006 5.87174 16.7208 6.21692 16.7208H8.13395L5.11742 13.7043C4.59866 13.1855 4.30722 12.4819 4.30722 11.7483V7.19393C3.08051 6.91062 2.16602 5.81142 2.16602 4.49863Z" fill="#F1F5F9"/>
<path d="M11.5271 2.16066L14.7818 2.16066C15.1269 2.16066 15.4068 2.44048 15.4068 2.78566C15.4068 3.13084 15.1269 3.41066 14.7818 3.41066H12.8647L15.8813 6.42722C16.4 6.94599 16.6915 7.64958 16.6915 8.38323V12.9376C17.9182 13.2209 18.8327 14.3201 18.8327 15.6329C18.8327 17.1606 17.5942 18.3991 16.0665 18.3991C14.5387 18.3991 13.3003 17.1606 13.3003 15.6329C13.3003 14.3201 14.2148 13.2209 15.4415 12.9376L15.4415 8.38323C15.4415 7.9811 15.2817 7.59545 14.9974 7.31111L11.9808 4.29454L11.9808 5.78335C11.9808 6.12852 11.701 6.40835 11.3558 6.40835C11.0107 6.40835 10.7308 6.12852 10.7308 5.78335L10.7308 2.95696C10.7308 2.51718 11.0873 2.16066 11.5271 2.16066Z" fill="#F1F5F9"/>
</svg>
