<svg width="17" height="16" viewBox="0 0 17 16" fill="none" xmlns="http://www.w3.org/2000/svg">
<path fill-rule="evenodd" clip-rule="evenodd" d="M16.7458 4.04935C16.869 4.19909 16.9167 4.37532 16.9167 4.53019C16.9167 4.68506 16.869 4.86129 16.7458 5.01103L16.724 5.03759L12.831 8.83297C12.5838 9.07393 12.1881 9.0689 11.9472 8.82174C11.7062 8.57459 11.7112 8.17889 11.9584 7.93793L14.8127 5.15519H5.5C5.15482 5.15519 4.875 4.87537 4.875 4.53019C4.875 4.18501 5.15482 3.90519 5.5 3.90519H14.8127L11.9584 1.12245C11.7112 0.881488 11.7062 0.485792 11.9472 0.238634C12.1881 -0.00852402 12.5838 -0.01355 12.831 0.227408L16.724 4.02279L16.7458 4.04935ZM12.2917 11.4697C12.2917 11.8148 12.0118 12.0947 11.6667 12.0947H2.35394L5.20828 14.8774C5.45544 15.1184 5.46047 15.5141 5.21951 15.7612C4.97855 16.0084 4.58285 16.0134 4.3357 15.7724L0.442652 11.9771L0.420808 11.9505C0.297701 11.8008 0.25 11.6246 0.25 11.4697C0.25 11.3148 0.297701 11.1386 0.420808 10.9888L0.442652 10.9623L4.3357 7.16688C4.58285 6.92592 4.97855 6.93095 5.21951 7.17811C5.46047 7.42526 5.45544 7.82096 5.20828 8.06192L2.35394 10.8447H11.6667C12.0118 10.8447 12.2917 11.1245 12.2917 11.4697Z" fill="white"/>
</svg>
