<svg width="18" height="19" viewBox="0 0 18 19" fill="none" xmlns="http://www.w3.org/2000/svg">
<path fill-rule="evenodd" clip-rule="evenodd" d="M9 2.39575C8.68934 2.39575 8.4375 2.64759 8.4375 2.95825C8.4375 3.26891 8.68934 3.52075 9 3.52075C9.31066 3.52075 9.5625 3.26891 9.5625 2.95825C9.5625 2.64759 9.31066 2.39575 9 2.39575ZM10.5905 3.52364C10.6533 3.34689 10.6875 3.15657 10.6875 2.95825C10.6875 2.02627 9.93198 1.27075 9 1.27075C8.06802 1.27075 7.3125 2.02627 7.3125 2.95825C7.3125 3.15657 7.34671 3.34689 7.40955 3.52364C6.3026 3.57375 5.32282 4.27139 4.91722 5.31112L4.90648 5.33865L3.45292 10.6534C3.39079 10.8017 3.29609 10.9344 3.1757 11.0414L3.07217 11.1334C2.66848 11.4922 2.4375 12.0066 2.4375 12.5467C2.4375 13.591 3.2841 14.4376 4.32844 14.4376H13.6716C14.7159 14.4376 15.5625 13.591 15.5625 12.5467C15.5625 12.0066 15.3315 11.4922 14.9278 11.1334L14.8243 11.0414C14.7039 10.9344 14.6092 10.8017 14.5471 10.6534L13.0935 5.33864L13.0828 5.31111C12.6772 4.27139 11.6974 3.57375 10.5905 3.52364ZM7.53741 4.64575C6.85128 4.64575 6.23445 5.06105 5.97548 5.69448L4.52165 11.0101L4.51091 11.0377C4.38451 11.3617 4.18306 11.6511 3.92311 11.8822L3.81958 11.9742C3.65606 12.1196 3.5625 12.3279 3.5625 12.5467C3.5625 12.9697 3.90542 13.3126 4.32844 13.3126H13.6716C14.0946 13.3126 14.4375 12.9697 14.4375 12.5467C14.4375 12.3279 14.3439 12.1196 14.1804 11.9742L14.0769 11.8822C13.8169 11.6511 13.6155 11.3617 13.4891 11.0377L13.4783 11.0101L12.0245 5.69448C11.7655 5.06105 11.1487 4.64575 10.4626 4.64575H7.53741ZM6.5237 15.2469C6.7785 15.0692 7.12913 15.1316 7.30686 15.3864C7.68053 15.9222 8.2996 16.2708 9 16.2708C9.7004 16.2708 10.3195 15.9222 10.6931 15.3864C10.8709 15.1316 11.2215 15.0692 11.4763 15.2469C11.7311 15.4246 11.7936 15.7753 11.6158 16.0301C11.0408 16.8545 10.0837 17.3958 9 17.3958C7.91634 17.3958 6.9592 16.8545 6.38415 16.0301C6.20643 15.7753 6.2689 15.4246 6.5237 15.2469Z" fill="#9DABBD"/>
</svg>
