<svg width="20" height="20" viewBox="0 0 20 20" fill="none" xmlns="http://www.w3.org/2000/svg">
<g clip-path="url(#clip0_1580_5069)">
<path fill-rule="evenodd" clip-rule="evenodd" d="M8.33333 2.29163C7.75804 2.29163 7.29167 2.758 7.29167 3.33329V3.54163H12.7083V3.33329C12.7083 2.758 12.242 2.29163 11.6667 2.29163H8.33333ZM13.9583 3.54163V3.33329C13.9583 2.06764 12.9323 1.04163 11.6667 1.04163H8.33333C7.06768 1.04163 6.04167 2.06764 6.04167 3.33329V3.54163H2.5C2.15482 3.54163 1.875 3.82145 1.875 4.16663C1.875 4.5118 2.15482 4.79163 2.5 4.79163H3.54167V15.8333C3.54167 16.6208 3.74104 17.3922 4.1953 17.9823C4.66445 18.5918 5.36996 18.9583 6.25 18.9583H13.3333C15.0592 18.9583 16.4583 17.5592 16.4583 15.8333V4.79163H17.5C17.8452 4.79163 18.125 4.5118 18.125 4.16663C18.125 3.82145 17.8452 3.54163 17.5 3.54163H13.9583ZM15.2083 4.79163H4.79167V15.8333C4.79167 16.4265 4.9436 16.9051 5.18583 17.2198C5.41317 17.5152 5.74933 17.7083 6.25 17.7083H13.3333C14.3689 17.7083 15.2083 16.8688 15.2083 15.8333V4.79163ZM8.33333 8.12496C8.67851 8.12496 8.95833 8.40478 8.95833 8.74996V13.75C8.95833 14.0951 8.67851 14.375 8.33333 14.375C7.98816 14.375 7.70833 14.0951 7.70833 13.75L7.70833 8.74996C7.70833 8.40478 7.98816 8.12496 8.33333 8.12496ZM11.6667 8.12496C12.0118 8.12496 12.2917 8.40478 12.2917 8.74996V13.75C12.2917 14.0951 12.0118 14.375 11.6667 14.375C11.3215 14.375 11.0417 14.0951 11.0417 13.75V8.74996C11.0417 8.40478 11.3215 8.12496 11.6667 8.12496Z" fill="#9DABBD"/>
</g>
<defs>
<clipPath id="clip0_1580_5069">
<rect width="20" height="20" fill="white"/>
</clipPath>
</defs>
</svg>
