<svg width="18" height="18" viewBox="0 0 18 18" fill="none" xmlns="http://www.w3.org/2000/svg">
<mask id="mask0_1580_5564" style="mask-type:luminance" maskUnits="userSpaceOnUse" x="0" y="0" width="18" height="18">
<path d="M0 0H18V18H0V0Z" fill="white"/>
</mask>
<g mask="url(#mask0_1580_5564)">
<path d="M15.7568 1.37939L10.502 7.40088L10.2158 7.72803L10.4775 8.07568L16.9248 16.6206H12.71L8.51855 11.1294L8.12012 10.6079L7.68848 11.1021L2.87305 16.6206H1.53125L7.20605 10.1157L7.49414 9.78662L7.22852 9.43896L1.08203 1.38037H5.42773L9.19727 6.37842L9.59473 6.90479L10.0283 6.40771L14.418 1.37939H15.7568ZM2.79395 2.73779L12.7783 15.8257L12.9395 16.0356H15.8096L15.1621 15.1782L5.28809 2.09033L5.12695 1.87744H2.13672L2.79395 2.73779Z" stroke="#9DABBD" stroke-width="1.07143"/>
</g>
</svg>
