<svg width="20" height="21" viewBox="0 0 20 21" fill="none" xmlns="http://www.w3.org/2000/svg">
<path fill-rule="evenodd" clip-rule="evenodd" d="M9.99965 2.7915C8.52571 2.7915 7.34396 3.96981 7.34396 5.40725C7.34396 6.84468 8.52571 8.02299 9.99965 8.02299C11.4736 8.02299 12.6553 6.84468 12.6553 5.40725C12.6553 3.96981 11.4736 2.7915 9.99965 2.7915ZM6.09396 5.40725C6.09396 3.26506 7.84984 1.5415 9.99965 1.5415C12.1495 1.5415 13.9053 3.26506 13.9053 5.40725C13.9053 7.54943 12.1495 9.27299 9.99965 9.27299C7.84984 9.27299 6.09396 7.54943 6.09396 5.40725ZM11.8325 12.0482C10.5831 11.9585 9.42083 11.9586 8.16888 12.0487C6.25141 12.1867 4.73819 13.7301 4.45426 15.6733L4.39278 16.0941C4.25765 17.019 4.9087 17.8726 5.83887 17.9706C8.82438 18.2852 11.1859 18.2887 14.1655 17.9731C15.0931 17.8748 15.7422 17.0228 15.6072 16.099L15.5448 15.6715C15.2609 13.7289 13.7488 12.1859 11.8325 12.0482ZM8.07916 10.8019C9.39068 10.7076 10.6129 10.7074 11.9221 10.8014C14.4907 10.9859 16.4231 13.0369 16.7816 15.4907L16.8441 15.9183C17.0794 17.5284 15.9465 19.0414 14.2972 19.2162C11.2288 19.5412 8.77929 19.5373 5.70789 19.2137C4.05706 19.0398 2.92025 17.5262 3.15591 15.9134L3.21739 15.4926C3.5761 13.0376 5.50992 10.9868 8.07916 10.8019Z" fill="#616F81"/>
</svg>
