<svg width="20" height="20" viewBox="0 0 20 20" fill="none" xmlns="http://www.w3.org/2000/svg">
<path fill-rule="evenodd" clip-rule="evenodd" d="M9.99965 2.29163C8.52571 2.29163 7.34396 3.46993 7.34396 4.90737C7.34396 6.3448 8.52571 7.52311 9.99965 7.52311C11.4736 7.52311 12.6553 6.3448 12.6553 4.90737C12.6553 3.46993 11.4736 2.29163 9.99965 2.29163ZM6.09396 4.90737C6.09396 2.76518 7.84984 1.04163 9.99965 1.04163C12.1495 1.04163 13.9053 2.76518 13.9053 4.90737C13.9053 7.04956 12.1495 8.77311 9.99965 8.77311C7.84984 8.77311 6.09396 7.04956 6.09396 4.90737ZM11.8325 11.5483C10.5831 11.4586 9.42083 11.4587 8.16888 11.5488C6.25141 11.6868 4.73819 13.2302 4.45426 15.1735L4.39278 15.5942C4.25765 16.5191 4.9087 17.3727 5.83887 17.4707C8.82438 17.7853 11.1859 17.7889 14.1655 17.4732C15.0931 17.375 15.7422 16.5229 15.6072 15.5991L15.5448 15.1716C15.2609 13.229 13.7488 11.686 11.8325 11.5483ZM8.07916 10.3021C9.39068 10.2077 10.6129 10.2075 11.9221 10.3016C14.4907 10.486 16.4231 12.537 16.7816 14.9909L16.8441 15.4184C17.0794 17.0286 15.9465 18.5416 14.2972 18.7163C11.2288 19.0413 8.77929 19.0374 5.70789 18.7138C4.05706 18.5399 2.92025 17.0264 3.15591 15.4135L3.21739 14.9927C3.5761 12.5377 5.50992 10.487 8.07916 10.3021Z" fill="#7F8D9F"/>
</svg>
