<svg width="20" height="20" viewBox="0 0 20 20" fill="none" xmlns="http://www.w3.org/2000/svg">
<path fill-rule="evenodd" clip-rule="evenodd" d="M13.4383 7.15335C13.6298 6.86615 14.0178 6.78854 14.305 6.98001L14.306 6.98067L14.3071 6.98142L14.3097 6.98316L14.3162 6.98762L14.3346 7.00046C14.3491 7.01076 14.368 7.02459 14.3908 7.04196C14.4363 7.07664 14.4975 7.12567 14.5689 7.18916C14.7112 7.31569 14.8975 7.50228 15.0833 7.75004C15.4564 8.24744 15.8333 9.00077 15.8333 10C15.8333 10.9993 15.4564 11.7526 15.0833 12.25C14.8975 12.4978 14.7112 12.6844 14.5689 12.8109C14.4975 12.8744 14.4363 12.9234 14.3908 12.9581C14.368 12.9755 14.3491 12.9893 14.3346 12.9996L14.3162 13.0125L14.3097 13.0169L14.3071 13.0187L14.306 13.0194C14.3046 13.0203 14.305 13.0201 14.305 13.0201C14.0178 13.2115 13.6298 13.1339 13.4383 12.8467C13.2476 12.5607 13.3238 12.1747 13.608 11.9824L13.6102 11.9809C13.614 11.9782 13.6219 11.9725 13.6333 11.9638C13.6561 11.9464 13.6926 11.9173 13.7384 11.8767C13.8304 11.7949 13.9567 11.6689 14.0833 11.5C14.3353 11.1641 14.5833 10.6674 14.5833 10C14.5833 9.33264 14.3353 8.83597 14.0833 8.50004C13.9567 8.33113 13.8304 8.20522 13.7384 8.12342C13.6926 8.08274 13.6561 8.05364 13.6333 8.03625C13.6219 8.02757 13.614 8.02186 13.6102 8.01915L13.608 8.01765M13.4383 7.15335C13.2476 7.43935 13.3238 7.82534 13.608 8.01765L13.4383 7.15335Z" fill="#9DABBD"/>
<path fill-rule="evenodd" clip-rule="evenodd" d="M13.4383 7.15335C13.6298 6.86615 14.0178 6.78854 14.305 6.98001L14.306 6.98067L14.3071 6.98142L14.3097 6.98316L14.3162 6.98762L14.3346 7.00046C14.3491 7.01076 14.368 7.02459 14.3908 7.04196C14.4363 7.07664 14.4975 7.12567 14.5689 7.18916C14.7112 7.31569 14.8975 7.50228 15.0833 7.75004C15.4564 8.24744 15.8333 9.00077 15.8333 10C15.8333 10.9993 15.4564 11.7526 15.0833 12.25C14.8975 12.4978 14.7112 12.6844 14.5689 12.8109C14.4975 12.8744 14.4363 12.9234 14.3908 12.9581C14.368 12.9755 14.3491 12.9893 14.3346 12.9996L14.3162 13.0125L14.3097 13.0169L14.3071 13.0187L14.306 13.0194C14.3046 13.0203 14.305 13.0201 14.305 13.0201C14.0178 13.2115 13.6298 13.1339 13.4383 12.8467C13.2476 12.5607 13.3238 12.1747 13.608 11.9824L13.6102 11.9809C13.614 11.9782 13.6219 11.9725 13.6333 11.9638C13.6561 11.9464 13.6926 11.9173 13.7384 11.8767C13.8304 11.7949 13.9567 11.6689 14.0833 11.5C14.3353 11.1641 14.5833 10.6674 14.5833 10C14.5833 9.33264 14.3353 8.83597 14.0833 8.50004C13.9567 8.33113 13.8304 8.20522 13.7384 8.12342C13.6926 8.08274 13.6561 8.05364 13.6333 8.03625C13.6219 8.02757 13.614 8.02186 13.6102 8.01915L13.608 8.01765M13.4383 7.15335C13.2476 7.43935 13.3238 7.82534 13.608 8.01765L13.4383 7.15335Z" fill="#9DABBD"/>
<path d="M14.9286 4.6096C15.1443 4.34007 15.5376 4.29637 15.8071 4.512L15.8085 4.51312L15.8103 4.51453L15.8148 4.51819L15.8277 4.52886C15.838 4.53746 15.8516 4.54906 15.8684 4.56365C15.9018 4.59283 15.9475 4.63402 16.003 4.68726C16.1139 4.79367 16.2644 4.94866 16.4344 5.15243C16.7741 5.55954 17.1948 6.16504 17.5318 6.96984C17.872 7.78238 18.125 8.79377 18.125 10C18.125 11.2063 17.872 12.2177 17.5318 13.0302C17.1948 13.835 16.7741 14.4405 16.4344 14.8476C16.2644 15.0514 16.1139 15.2064 16.003 15.3128C15.9475 15.3661 15.9018 15.4072 15.8684 15.4364C15.8516 15.451 15.838 15.4626 15.8277 15.4712L15.8148 15.4819L15.8103 15.4855L15.8078 15.4876C15.8078 15.4876 15.807 15.4879 15.4167 15L15.8071 15.4881C15.5376 15.7037 15.1443 15.66 14.9286 15.3905C14.7136 15.1217 14.7565 14.7297 15.0241 14.5137L15.0267 14.5116C15.0302 14.5087 15.0369 14.503 15.0466 14.4946C15.0659 14.4777 15.097 14.4498 15.1375 14.4109C15.2187 14.333 15.3371 14.2116 15.4746 14.0468C15.7499 13.7169 16.0985 13.2168 16.3788 12.5474C16.6604 11.8748 16.875 11.027 16.875 10C16.875 8.97305 16.6604 8.12524 16.3788 7.45264C16.0985 6.78331 15.7499 6.28321 15.4746 5.95325C15.3371 5.78848 15.2187 5.66707 15.1375 5.58921C15.097 5.55032 15.0659 5.52242 15.0466 5.50553C15.0369 5.49708 15.0302 5.49141 15.0267 5.48849L15.0241 5.48634C14.7565 5.27034 14.7136 4.87842 14.9286 4.6096Z" fill="#9DABBD"/>
<path fill-rule="evenodd" clip-rule="evenodd" d="M10.7784 4.44103C10.7075 3.63751 9.77736 3.25925 9.16366 3.78456L6.74851 5.85186C6.26682 6.26418 5.65505 6.49132 5.02174 6.49132H4.54406C3.76712 6.49132 3.125 7.13046 3.125 7.93411V12.0697C3.125 12.8733 3.76712 13.5125 4.54406 13.5125H5.02174C5.65505 13.5125 6.26682 13.7396 6.74851 14.1519L9.15926 16.2154C9.77333 16.7411 10.705 16.3622 10.7755 15.5571C11.1294 11.5193 11.1304 8.43247 10.7784 4.44103ZM8.35081 2.83494C9.72929 1.655 11.8625 2.50524 12.0235 4.3312C12.3821 8.3964 12.3809 11.5566 12.0208 15.6662C11.8607 17.4931 9.72628 18.3462 8.34641 17.1651L5.93566 15.1015C5.67922 14.882 5.35536 14.7625 5.02174 14.7625H4.54406C3.0632 14.7625 1.875 13.55 1.875 12.0697V7.93411C1.875 6.45374 3.0632 5.24132 4.54406 5.24132H5.02174C5.35536 5.24132 5.67922 5.12175 5.93566 4.90225L8.35081 2.83494Z" fill="#9DABBD"/>
</svg>
