<svg width="16" height="16" viewBox="0 0 16 16" fill="none" xmlns="http://www.w3.org/2000/svg">
<path d="M1.34405 4C1.55261 3.66667 1.79454 3.4747 2.06183 3.33852C2.40731 3.16248 2.77128 3.09453 3.15426 3.06324C3.52055 3.03331 3.96818 3.03332 4.50087 3.03333H9.61162C9.40141 2.15386 8.61024 1.5 7.66636 1.5H4.53887C3.41876 1.5 2.85871 1.5 2.43089 1.71799C2.05456 1.90973 1.7486 2.21569 1.55685 2.59202C1.40155 2.89683 1.35689 3.40623 1.34405 4Z" fill="#9DABBD"/>
<path d="M13.5997 7.83333H12.333C11.5966 7.83333 10.9996 8.43029 10.9996 9.16667C10.9996 9.90305 11.5966 10.5 12.333 10.5H13.5997C13.7657 10.5 13.8949 10.5 13.9997 10.4936C14.1304 10.4856 14.2231 10.4677 14.3023 10.4273C14.4278 10.3634 14.5297 10.2614 14.5937 10.136C14.6663 9.99339 14.6663 9.8067 14.6663 9.43333V8.9C14.6663 8.52663 14.6663 8.33995 14.5937 8.19734C14.5297 8.0719 14.4278 7.96991 14.3023 7.906C14.2231 7.86566 14.1304 7.84771 13.9997 7.83973C13.8949 7.83333 13.7657 7.83333 13.5997 7.83333Z" fill="#9DABBD"/>
<path fill-rule="evenodd" clip-rule="evenodd" d="M4.53301 14.5H10.7997C11.9198 14.5 12.4798 14.5 12.9076 14.282C13.284 14.0903 13.5899 13.7843 13.7817 13.408C13.9997 12.9802 13.9997 12.4201 13.9997 11.3V11.2947C13.8818 11.3 13.7499 11.3 13.6177 11.3L12.333 11.3C11.1548 11.3 10.1996 10.3449 10.1996 9.16667C10.1996 7.98846 11.1548 7.03333 12.333 7.03333L13.6176 7.03333C13.7499 7.03332 13.8818 7.03331 13.9997 7.03864V7.03333C13.9997 5.91323 13.9997 5.35318 13.7817 4.92535C13.5899 4.54903 13.284 4.24307 12.9076 4.05132C12.4798 3.83333 11.9198 3.83333 10.7997 3.83333H4.53301C3.4129 3.83333 2.85285 3.83333 2.42503 4.05132C2.0487 4.24307 1.74274 4.54903 1.55099 4.92535C1.39825 5.22513 1.35253 5.58984 1.33885 6.16667C1.33301 6.41304 1.33301 6.6981 1.33301 7.03333V11.3C1.33301 12.4201 1.33301 12.9802 1.55099 13.408C1.74274 13.7843 2.0487 14.0903 2.42503 14.282C2.85285 14.5 3.4129 14.5 4.53301 14.5ZM3.99967 6C3.72353 6 3.49967 6.22386 3.49967 6.5C3.49967 6.77614 3.72353 7 3.99967 7H7.99967C8.27582 7 8.49967 6.77614 8.49967 6.5C8.49967 6.22386 8.27582 6 7.99967 6H3.99967Z" fill="#9DABBD"/>
</svg>
