<svg width="21" height="20" viewBox="0 0 21 20" fill="none" xmlns="http://www.w3.org/2000/svg">
<path fill-rule="evenodd" clip-rule="evenodd" d="M18.3825 10.9873C17.1376 12.4444 14.3985 15 10.4994 15C6.60017 15 3.86106 12.4444 2.61624 10.9873C2.39144 10.7242 2.27905 10.5926 2.20504 10.3403C2.15301 10.1629 2.15301 9.83712 2.20504 9.6597C2.27905 9.40736 2.39144 9.2758 2.61624 9.01268C3.86106 7.55561 6.60017 5 10.4994 5C14.3985 5 17.1376 7.55561 18.3825 9.01268C18.6073 9.2758 18.7197 9.40736 18.7937 9.6597C18.8457 9.83712 18.8457 10.1629 18.7937 10.3403C18.7197 10.5926 18.6073 10.7242 18.3825 10.9873ZM12.9993 10C12.9993 11.3807 11.8801 12.5 10.4993 12.5C9.11864 12.5 7.99935 11.3807 7.99935 10C7.99935 8.61929 9.11864 7.5 10.4993 7.5C11.8801 7.5 12.9993 8.61929 12.9993 10Z" fill="white"/>
</svg>
