<svg width="21" height="20" viewBox="0 0 21 20" fill="none" xmlns="http://www.w3.org/2000/svg">
<path d="M0.666504 8.11817C0.769825 8.16469 0.878067 8.21586 0.981388 8.27169C1.21263 8.39265 1.53243 8.59735 1.61607 9.00209L1.73415 9.57432L15.8301 3.74506L20.1204 1.9679C20.0564 1.83298 19.9925 1.68876 19.9285 1.54455C19.6923 1.02815 19.4316 0.446615 19.2298 0C18.9838 0.102349 18.7428 0.200046 18.5017 0.293091C18.5017 0.293091 18.4968 0.293091 18.4968 0.297744C18.4918 0.674575 18.2852 0.939753 17.8719 1.10723C13.4488 2.903 9.01091 4.71272 5.25691 6.25262C4.94203 6.38288 4.6665 6.35962 4.43526 6.18283C4.1745 5.98744 3.94818 5.98279 3.56933 6.16422C3.03305 6.4201 2.47708 6.6341 1.93588 6.8481L1.58163 6.98767C1.66035 7.16911 1.71939 7.35985 1.64559 7.54129C1.56195 7.74599 1.34055 7.84834 1.11915 7.94138C1.06011 7.96464 1.00599 7.9879 0.946947 8.01116C0.853466 8.03908 0.759985 8.08095 0.666504 8.11817ZM16.2877 4.09398C16.327 4.17772 16.3811 4.28937 16.45 4.43824C16.4992 4.54524 16.5583 4.67085 16.6173 4.79181C18.0195 4.21959 19.7858 3.49849 20.6665 3.14026C20.5829 2.97278 20.5041 2.8053 20.4303 2.64248C20.3959 2.56804 20.3664 2.49826 20.3319 2.42382L16.2877 4.09398ZM3.62837 12.0586C4.1253 12.7425 4.44018 13.5287 4.54842 14.3615C4.62714 14.9988 4.71078 15.6362 4.78951 16.2689L4.89775 17.1203L5.06011 18.3903L5.21263 19.5813C5.21755 19.6232 5.22247 19.665 5.22739 19.7023C5.23723 19.786 5.24707 19.8604 5.25691 19.9395C5.26183 19.9628 5.26183 19.986 5.26675 20C5.28151 19.9953 5.30119 19.9907 5.32087 19.986C6.00968 19.786 6.7034 19.5813 7.39221 19.3813L7.49553 19.3533L6.93465 15.5013C6.78705 14.501 7.22001 13.4776 8.0023 12.7983C7.15605 12.789 5.74891 12.6401 3.62837 12.0586Z" fill="#9DABBD"/>
<path d="M8.5634 13.0031C8.72576 13.9521 8.8586 14.864 8.99636 15.7433C9.13412 16.6597 9.2768 17.6088 9.44901 18.6044C9.46869 18.7253 9.45885 18.7579 9.45393 18.7626C9.45393 18.7626 9.44901 18.7672 9.42933 18.7765C9.40965 18.7858 9.37521 18.7998 9.32108 18.8184C9.0554 18.8975 8.7848 18.9766 8.52404 19.051C8.3912 19.0882 8.25835 19.1254 8.13043 19.1673L8.00743 19.2045L7.46131 15.4362C7.32354 14.529 7.78111 13.5707 8.5634 13.0031ZM16.5093 5.78745C15.417 6.22476 14.31 6.67603 13.2374 7.11799H13.2325C12.7848 7.29943 12.6618 7.59718 12.8537 8.02518C12.9718 8.29036 13.0702 8.50902 13.1735 8.73232C13.2374 8.87654 13.3063 9.02541 13.385 9.19755C13.7098 9.91864 13.4785 10.4816 12.7307 10.7886C12.1157 11.0398 11.481 11.2724 10.866 11.4911C10.2608 11.7098 9.63597 11.9377 9.0308 12.1843C8.98652 12.2029 8.93732 12.2215 8.87828 12.2541C8.72576 12.282 7.03818 12.5704 3.0431 11.3795C2.86106 11.2259 2.61506 11.198 2.30509 11.2957C2.14765 11.3469 1.98037 11.3981 1.82293 11.4446C1.61137 11.5097 1.3998 11.5748 1.18824 11.6446C1.52281 11.3981 1.82785 11.0584 1.91641 10.5374C1.92133 10.5095 1.92133 10.4769 1.91641 10.449L1.83769 10.0675L15.8057 4.28943L16.5093 5.78745ZM12.0862 10.0163C12.2338 9.95586 12.3518 9.83956 12.4109 9.69999C12.4699 9.55577 12.465 9.40225 12.401 9.25803L11.9632 8.30897L9.78849 9.20685V9.2115C9.78849 9.21616 9.61629 9.75116 9.88689 10.1326C10.0493 10.3653 10.3543 10.5048 10.7971 10.5514L12.0862 10.0163ZM8.13535 10.5141L8.33216 10.9375C8.39612 11.0771 8.51912 11.1887 8.66672 11.2445C8.74052 11.2724 8.81432 11.2864 8.88812 11.2864C8.97176 11.2864 9.0554 11.2724 9.13412 11.2399L10.0296 10.8724C9.78357 10.7654 9.58677 10.6118 9.44901 10.4118C9.22268 10.0861 9.19316 9.7186 9.21776 9.44877L8.45024 9.76512C8.30264 9.8256 8.18455 9.94191 8.12551 10.0815C8.06647 10.2164 8.07139 10.3746 8.13535 10.5141Z" fill="#9DABBD"/>
</svg>
