<svg width="20" height="20" viewBox="0 0 20 20" fill="none" xmlns="http://www.w3.org/2000/svg">
<path fill-rule="evenodd" clip-rule="evenodd" d="M3.72456 3.72468C3.96864 3.48061 4.36437 3.48061 4.60845 3.72468L9.99984 9.11608L15.3912 3.72468C15.6353 3.48061 16.031 3.48061 16.2751 3.72468C16.5192 3.96876 16.5192 4.36449 16.2751 4.60857L10.8837 9.99996L16.2751 15.3914C16.5192 15.6354 16.5192 16.0312 16.2751 16.2752C16.031 16.5193 15.6353 16.5193 15.3912 16.2752L9.99984 10.8838L4.60845 16.2752C4.36437 16.5193 3.96864 16.5193 3.72456 16.2752C3.48048 16.0312 3.48048 15.6354 3.72456 15.3914L9.11595 9.99996L3.72456 4.60857C3.48048 4.36449 3.48048 3.96876 3.72456 3.72468Z" fill="white"/>
</svg>
