<svg width="14" height="14" viewBox="0 0 14 14" fill="none" xmlns="http://www.w3.org/2000/svg">
<path fill-rule="evenodd" clip-rule="evenodd" d="M2.60763 2.60739C2.77849 2.43653 3.0555 2.43653 3.22635 2.60739L7.00033 6.38136L10.7743 2.60739C10.9452 2.43653 11.2222 2.43653 11.393 2.60739C11.5639 2.77824 11.5639 3.05525 11.393 3.22611L7.61904 7.00008L11.393 10.7741C11.5639 10.9449 11.5639 11.2219 11.393 11.3928C11.2222 11.5636 10.9452 11.5636 10.7743 11.3928L7.00033 7.6188L3.22635 11.3928C3.0555 11.5636 2.77849 11.5636 2.60763 11.3928C2.43678 11.2219 2.43678 10.9449 2.60763 10.7741L6.38161 7.00008L2.60763 3.22611C2.43678 3.05525 2.43678 2.77824 2.60763 2.60739Z" fill="#9DABBD" stroke="#9DABBD" stroke-width="0.777778" stroke-linecap="round"/>
</svg>
