<svg width="14" height="15" viewBox="0 0 14 15" fill="none" xmlns="http://www.w3.org/2000/svg">
<path fill-rule="evenodd" clip-rule="evenodd" d="M2.60763 2.94052C2.77849 2.76966 3.0555 2.76966 3.22635 2.94052L7.00033 6.71449L10.7743 2.94052C10.9452 2.76966 11.2222 2.76966 11.393 2.94052C11.5639 3.11137 11.5639 3.38838 11.393 3.55924L7.61904 7.33321L11.393 11.1072C11.5639 11.278 11.5639 11.555 11.393 11.7259C11.2222 11.8968 10.9452 11.8968 10.7743 11.7259L7.00033 7.95193L3.22635 11.7259C3.0555 11.8968 2.77849 11.8968 2.60763 11.7259C2.43678 11.555 2.43678 11.278 2.60763 11.1072L6.38161 7.33321L2.60763 3.55924C2.43678 3.38838 2.43678 3.11137 2.60763 2.94052Z" fill="#ED4438"/>
</svg>
