<svg width="16" height="17" viewBox="0 0 16 17" fill="none" xmlns="http://www.w3.org/2000/svg">
<path fill-rule="evenodd" clip-rule="evenodd" d="M2.97994 3.04684C3.1752 2.85158 3.49179 2.85158 3.68705 3.04684L8.00016 7.35995L12.3133 3.04684C12.5085 2.85158 12.8251 2.85158 13.0204 3.04684C13.2156 3.2421 13.2156 3.55868 13.0204 3.75394L8.70727 8.06706L13.0204 12.3802C13.2156 12.5754 13.2156 12.892 13.0204 13.0873C12.8251 13.2825 12.5085 13.2825 12.3133 13.0873L8.00016 8.77416L3.68705 13.0873C3.49179 13.2825 3.1752 13.2825 2.97994 13.0873C2.78468 12.892 2.78468 12.5754 2.97994 12.3802L7.29306 8.06706L2.97994 3.75394C2.78468 3.55868 2.78468 3.2421 2.97994 3.04684Z" fill="#616F81"/>
</svg>
