<svg width="41" height="40" viewBox="0 0 41 40" fill="none" xmlns="http://www.w3.org/2000/svg">
<path opacity="0.2" d="M20.2002 40C31.2459 40 40.2002 31.0457 40.2002 20C40.2002 8.95431 31.2459 0 20.2002 0C9.1545 0 0.200195 8.95431 0.200195 20C0.200195 31.0457 9.1545 40 20.2002 40Z" fill="#F3BA2F"/>
<path d="M26.8213 24.1484L26.8193 24.1494L20.2021 30.7686L13.584 24.1533L13.5811 24.1494L16.0186 21.7188L20.2021 25.9023L24.3867 21.7168L26.8213 24.1484ZM22.6709 19.999H22.6719L22.6709 20.001L20.2021 22.4707L17.7334 20.0039L17.7305 19.999L17.7334 19.9951L18.166 19.5635L18.377 19.3545L20.2021 17.5283L22.6709 19.999ZM30.9688 20.001L28.5352 22.4346L26.1016 20.001L28.5352 17.5674L30.9688 20.001ZM14.2979 20L11.8643 22.4336L9.43066 20L11.8643 17.5664L14.2979 20ZM26.8193 15.8496L24.3867 18.2842L20.2021 14.0996L16.0186 18.2803L13.584 15.8477L20.2021 9.23047L26.8193 15.8496Z" fill="#F3BA2F"/>
</svg>
