<svg width="40" height="40" viewBox="0 0 40 40" fill="none" xmlns="http://www.w3.org/2000/svg">
<path opacity="0.2" d="M39.4005 24.8385C36.7292 35.5529 25.8767 42.0729 15.1611 39.4016C4.45048 36.7304 -2.07015 25.8779 0.601726 15.1641C3.27173 4.4485 14.1236 -2.07275 24.8361 0.598497C35.5511 3.26975 42.0711 14.1235 39.3999 24.8385H39.4005Z" fill="#F7931A"/>
<path d="M19.0037 11.0392L18.9841 13.5093C19.3937 13.5043 19.8061 13.5004 20.2089 13.5036L20.2276 11.0489L21.7626 11.0612L21.7431 13.5808C23.6599 13.7638 25.1874 14.3529 25.4276 16.0421L25.4463 16.21C25.5659 17.5403 25.0037 18.3341 24.1111 18.7809C25.5723 19.1443 26.482 20.0217 26.286 21.9702C26.0438 24.3898 24.2336 25.0257 21.6533 25.1537L21.6326 27.6989L20.0989 27.6873L20.1187 25.1767C19.7212 25.1739 19.3138 25.1672 18.8936 25.1551L18.8737 27.6768L17.3418 27.6647L17.3606 25.116C17.0021 25.1108 16.6364 25.1015 16.2649 25.0982L14.2682 25.0832L14.5875 23.2526C14.6073 23.2531 15.7213 23.2787 15.702 23.2614C16.136 23.264 16.254 22.9533 16.2829 22.7579L16.3152 18.7355L16.4763 18.7369C16.413 18.7277 16.3571 18.7252 16.3143 18.7247L16.3366 15.8535C16.2806 15.5416 16.0805 15.1797 15.4591 15.1746C15.4781 15.1539 14.3449 15.1669 14.3449 15.1669L14.3576 13.5276L16.4733 13.5451L16.4734 13.5532C16.7914 13.5554 17.1182 13.5514 17.4504 13.5472L17.4699 11.0276L19.0037 11.0392ZM18.9456 23.3001C19.9858 23.3075 23.2462 23.5485 23.2605 21.6435C23.2748 19.6571 20.0129 19.9304 18.9726 19.9222L18.9456 23.3001ZM18.9821 18.3768C19.8485 18.3834 22.5666 18.6063 22.5809 16.8736C22.5952 15.0659 19.8719 15.3198 19.0055 15.3133L18.9821 18.3768Z" fill="#F7931A"/>
</svg>
