<svg width="41" height="40" viewBox="0 0 41 40" fill="none" xmlns="http://www.w3.org/2000/svg">
<path opacity="0.2" d="M40.0917 20C40.0917 30.9875 31.1848 39.8947 20.1974 39.8947C9.2098 39.8947 0.302734 30.9875 0.302734 20C0.302734 9.01254 9.2098 0.105469 20.1974 0.105469C31.1847 0.105469 40.0917 9.01254 40.0917 20" fill="#3CC8C8"/>
<path d="M20.3108 29.929C20.3983 29.5312 20.9074 29.3378 21.2434 29.5491C21.4654 29.6454 21.5302 29.8964 21.5872 30.1097C21.5568 30.2206 21.5299 30.3318 21.5032 30.4427C21.3657 30.6072 21.1889 30.7716 20.9602 30.7659C20.5348 30.8163 20.1511 30.3308 20.3108 29.929ZM15.554 29.1536C16.0107 29.1864 16.1461 29.8826 15.7464 30.097C15.3869 30.3414 14.9697 30.0061 14.9378 29.6204C15.0262 29.3515 15.2406 29.0837 15.554 29.1536ZM26.4739 29.0892C26.7636 29.1488 27.0698 29.3691 27.0091 29.7083C26.9668 30.1676 26.3014 30.3083 26.0735 29.9144C25.8521 29.5752 26.1136 29.1665 26.4739 29.0892ZM16.6038 26.4036C17.0891 26.1457 17.7407 26.5913 17.6966 27.1399C17.7113 27.5902 17.2761 27.9738 16.8362 27.9075C16.4718 27.8996 16.2334 27.57 16.1165 27.2561C16.1225 26.9141 16.262 26.5327 16.6038 26.4036ZM24.6712 26.4114C25.1701 26.1002 25.8793 26.5476 25.8323 27.1341C25.8451 27.7473 25.043 28.1404 24.5784 27.7376C24.1286 27.4218 24.1839 26.6625 24.6712 26.4114ZM20.5862 25.4651C21.1559 25.2112 21.8821 25.7122 21.8284 26.346C21.8706 27.0464 20.9724 27.5321 20.4153 27.1116C19.7966 26.7505 19.8997 25.6874 20.5862 25.4651ZM11.9876 24.514C12.4227 24.2214 13.049 24.6573 12.9514 25.1712C12.8994 25.6257 12.3326 25.8861 11.9593 25.6282C11.5587 25.3942 11.5734 24.7276 11.9876 24.514ZM29.7102 24.3958C29.942 24.3918 30.1048 24.576 30.2532 24.7308C30.2836 24.9817 30.3343 25.2814 30.1282 25.4749C29.8481 25.833 29.2132 25.7313 29.0608 25.303C28.8359 24.8795 29.2447 24.3177 29.7102 24.3958ZM18.7981 21.6702C19.7157 21.4292 20.7025 22.2022 20.7083 23.1565C20.7681 24.1208 19.7968 24.9758 18.8577 24.7532C18.1317 24.6352 17.5617 23.9288 17.5852 23.1878C17.5833 22.4792 18.1126 21.8203 18.7981 21.6702ZM22.4319 21.6683C23.3631 21.4053 24.3791 22.192 24.3645 23.1683C24.4137 24.1148 23.4726 24.941 22.553 24.7532C21.6878 24.6402 21.0491 23.6804 21.2903 22.8323C21.4122 22.2672 21.8799 21.8069 22.4319 21.6683ZM15.426 22.2561C16.0703 22.1451 16.6743 22.8706 16.4134 23.4886C16.2228 24.1471 15.2744 24.3261 14.8548 23.7884C14.3627 23.2718 14.7296 22.3277 15.426 22.2561ZM26.0823 22.2845C26.6569 22.0413 27.3628 22.5442 27.3186 23.1741C27.3414 23.8674 26.4703 24.3454 25.9085 23.9407C25.2723 23.5772 25.388 22.5075 26.0823 22.2845ZM16.9046 18.4886C17.5755 18.3021 18.343 18.6216 18.6721 19.2444C19.0325 19.8713 18.885 20.7425 18.3255 21.2024C17.6074 21.877 16.2828 21.6065 15.9007 20.6858C15.4616 19.8419 15.9949 18.7107 16.9046 18.4886ZM24.1751 18.4856C24.8273 18.2972 25.5939 18.5505 25.9446 19.1507C26.4082 19.8371 26.1865 20.8614 25.4964 21.304C24.7734 21.8179 23.653 21.5479 23.2551 20.7444C22.773 19.9133 23.2586 18.7391 24.1751 18.4856ZM12.5891 19.2688C13.1687 19.0474 13.8112 19.6933 13.5764 20.2737C13.4329 20.8024 12.6948 20.9975 12.3137 20.6077C11.8682 20.2415 12.0334 19.4276 12.5891 19.2688ZM29.1262 19.1692C29.523 19.2329 29.9084 19.5563 29.8772 19.9925C29.9136 20.5689 29.2258 20.9606 28.7395 20.6897C28.5119 20.5727 28.3953 20.3367 28.2991 20.1106C28.2825 19.6256 28.6338 19.196 29.1262 19.1692ZM9.73952 19.553C10.0882 19.3995 10.5193 19.7049 10.4397 20.096C10.421 20.5387 9.77434 20.7088 9.5364 20.3392C9.32628 20.0822 9.45175 19.6855 9.73952 19.553ZM31.7249 19.5442C31.9704 19.3677 32.3649 19.4947 32.4622 19.7845C32.6271 20.1009 32.3245 20.5341 31.9719 20.4808C31.477 20.5263 31.3165 19.7645 31.7249 19.5442ZM18.4641 15.3841C19.1882 15.0389 20.1632 15.3293 20.513 16.0774C20.9242 16.8056 20.6061 17.8197 19.8704 18.1956C19.1337 18.6181 18.0942 18.2975 17.7376 17.5159C17.3378 16.7599 17.6926 15.7323 18.4641 15.3841ZM22.2981 15.306C22.9512 15.0692 23.7265 15.3528 24.0989 15.9407C24.5901 16.66 24.3289 17.7556 23.5667 18.1683C22.7769 18.6562 21.6241 18.2426 21.3323 17.3519C21.0011 16.5543 21.4838 15.556 22.2981 15.306ZM15.5657 15.9007C16.0439 15.959 16.4256 16.3338 16.4778 16.8226C16.4464 17.3067 16.0765 17.7805 15.5686 17.7776C15.0099 17.8262 14.5198 17.2647 14.6262 16.7103C14.6813 16.239 15.1217 15.9324 15.5657 15.9007ZM25.9632 16.0032C26.5368 15.666 27.3334 16.1568 27.3079 16.8226C27.347 17.5278 26.465 18.0243 25.8938 17.6106C25.3007 17.2659 25.3473 16.2965 25.9632 16.0032ZM11.9895 14.3899C12.456 14.1003 13.0856 14.629 12.9094 15.1409C12.8122 15.5838 12.2229 15.7644 11.886 15.4817C11.5264 15.2169 11.583 14.5796 11.9895 14.3899ZM29.2659 14.389C29.6617 14.0787 30.3148 14.435 30.2678 14.9397C30.2944 15.4001 29.7302 15.7469 29.3372 15.5101C28.9044 15.3136 28.8596 14.6409 29.2659 14.389ZM20.97 12.7229C21.2882 12.7874 21.6353 12.9241 21.7718 13.2483C22.0261 13.6957 21.7997 14.3115 21.3401 14.5169C21.1299 14.6359 20.8815 14.5913 20.6526 14.5774C20.3028 14.4039 20.0083 14.0642 20.0354 13.6478C20.0305 13.1378 20.4902 12.7577 20.97 12.7229ZM24.3059 12.556C24.5338 11.963 25.4564 11.9448 25.7161 12.5218C25.9725 12.9712 25.6573 13.5282 25.2005 13.681C24.5954 13.795 24.021 13.1344 24.3059 12.556ZM16.5081 12.2093C17.0189 11.8835 17.7478 12.3699 17.6692 12.969C17.6424 13.5739 16.8466 13.9239 16.3977 13.5149C15.9638 13.1936 16.0297 12.4563 16.5081 12.2093ZM15.2766 9.88408C15.5822 9.75704 15.9689 10.0399 15.9378 10.3763C15.97 10.7413 15.5284 11.0097 15.2171 10.8362C14.8045 10.6748 14.8515 9.9987 15.2766 9.88408ZM26.263 9.87724C26.6195 9.70162 26.9471 10.031 26.9993 10.3724C26.9245 10.6638 26.6828 10.9312 26.3567 10.847C25.8794 10.7887 25.8037 10.0302 26.263 9.87724ZM20.6868 9.29521C21.1896 9.03036 21.8031 9.64415 21.5364 10.1517C21.3812 10.5653 20.7931 10.6757 20.4925 10.3606C20.174 10.058 20.2776 9.4599 20.6868 9.29521Z" fill="#3CC8C8"/>
</svg>
