<svg width="41" height="40" viewBox="0 0 41 40" fill="none" xmlns="http://www.w3.org/2000/svg">
<path opacity="0.2" d="M20.4004 40C31.4461 40 40.4004 31.0457 40.4004 20C40.4004 8.95431 31.4461 0 20.4004 0C9.3547 0 0.400391 8.95431 0.400391 20C0.400391 31.0457 9.3547 40 20.4004 40Z" fill="#32A4BE"/>
<path opacity="0.2" d="M20.4004 40C31.4461 40 40.4004 31.0457 40.4004 20C40.4004 8.95431 31.4461 0 20.4004 0C9.3547 0 0.400391 8.95431 0.400391 20C0.400391 31.0457 9.3547 40 20.4004 40Z" fill="#C2A633"/>
<mask id="mask0_10008_19582" style="mask-type:luminance" maskUnits="userSpaceOnUse" x="0" y="0" width="41" height="40">
<path d="M20.4004 40C31.4461 40 40.4004 31.0457 40.4004 20C40.4004 8.95431 31.4461 0 20.4004 0C9.3547 0 0.400391 8.95431 0.400391 20C0.400391 31.0457 9.3547 40 20.4004 40Z" fill="white"/>
</mask>
<g mask="url(#mask0_10008_19582)">
<path d="M20.7305 11.9775C22.6342 11.9775 24.3171 12.3282 25.7783 13.0293C27.2396 13.7304 28.3756 14.7179 29.1855 15.9912C29.9953 17.2644 30.4004 18.7474 30.4004 20.4395C30.4003 22.1316 29.9954 23.6145 29.1855 24.8877C28.3756 26.1609 27.2395 27.1475 25.7783 27.8486C24.3171 28.5497 23.8366 28.9004 20.7305 28.9004H15.2705V21.6475H11.9385V19.2305H15.2705V11.9775H20.7305ZM19.3281 19.2305H23.2109V21.6475H19.3281V25.6855H20.5303C22.2838 25.6855 23.6828 25.2134 24.7266 24.2705C25.77 23.3278 26.2919 22.0508 26.292 20.4395C26.292 18.8279 25.7701 17.5503 24.7266 16.6074C23.6828 15.6646 22.2838 15.1934 20.5303 15.1934H19.3281V19.2305Z" fill="#C2A633"/>
</g>
</svg>
