<svg width="41" height="40" viewBox="0 0 41 40" fill="none" xmlns="http://www.w3.org/2000/svg">
<path opacity="0.2" d="M40.6913 20C40.6913 30.9875 31.7844 39.8947 20.797 39.8947C9.80941 39.8947 0.902344 30.9875 0.902344 20C0.902344 9.01254 9.80941 0.105469 20.797 0.105469C31.7843 0.105469 40.6913 9.01254 40.6913 20" fill="#505050"/>
<g opacity="0.8">
<path d="M20.7332 10.7695L20.6104 11.1872V23.3069L20.7332 23.4296L26.3591 20.1041L20.7332 10.7695Z" fill="white"/>
<path d="M20.7332 10.7695L15.1074 20.1041L20.7332 23.4296V17.5471V10.7695Z" fill="white"/>
<path d="M20.7333 25.2593L20.6641 25.3437V29.661L20.7333 29.8632L26.3625 21.9355L20.7333 25.2593Z" fill="white"/>
<path d="M20.7332 29.8633V25.2593L15.1074 21.9355L20.7332 29.8633Z" fill="white"/>
<path d="M20.7334 23.4293L26.3591 20.104L20.7334 17.5469V23.4293Z" fill="white"/>
<path d="M15.1074 20.104L20.7332 23.4294V17.5469L15.1074 20.104Z" fill="white"/>
</g>
</svg>
