<svg width="21" height="20" viewBox="0 0 21 20" fill="none" xmlns="http://www.w3.org/2000/svg">
<path fill-rule="evenodd" clip-rule="evenodd" d="M4.0332 10C4.0332 9.30964 4.59285 8.75 5.2832 8.75H5.29154C5.98189 8.75 6.54154 9.30964 6.54154 10C6.54154 10.6904 5.98189 11.25 5.29154 11.25H5.2832C4.59285 11.25 4.0332 10.6904 4.0332 10ZM9.44987 10C9.44987 9.30964 10.0095 8.75 10.6999 8.75H10.7082C11.3986 8.75 11.9582 9.30964 11.9582 10C11.9582 10.6904 11.3986 11.25 10.7082 11.25H10.6999C10.0095 11.25 9.44987 10.6904 9.44987 10ZM14.8582 10C14.8582 9.30964 15.4178 8.75 16.1082 8.75H16.1165C16.8069 8.75 17.3665 9.30964 17.3665 10C17.3665 10.6904 16.8069 11.25 16.1165 11.25H16.1082C15.4178 11.25 14.8582 10.6904 14.8582 10Z" fill="white"/>
</svg>
