<svg width="41" height="40" viewBox="0 0 41 40" fill="none" xmlns="http://www.w3.org/2000/svg">
<path opacity="0.2" d="M20.7998 40C31.8455 40 40.7998 31.0457 40.7998 20C40.7998 8.95431 31.8455 0 20.7998 0C9.75411 0 0.799805 8.95431 0.799805 20C0.799805 31.0457 9.75411 40 20.7998 40Z" fill="#1276A7"/>
<path d="M23.2185 11.2662C21.9667 11.9788 21.2255 13.2657 21.2255 14.6227C21.2255 15.3353 21.5208 16.0535 21.8905 16.6942C22.1858 17.2665 22.3306 18.2654 21.2999 18.7657C20.5645 19.1921 19.6023 18.9078 19.1622 18.1934C18.722 17.6211 18.2057 17.0487 17.5407 16.6222C16.289 15.9096 14.8123 15.9096 13.5605 16.6222C12.3086 17.3348 11.5693 18.6249 11.5693 19.9823C11.5693 21.3397 12.3048 22.6261 13.5602 23.3406C14.8119 24.0532 16.2886 24.0532 17.5405 23.3406C18.2054 22.9825 18.7216 22.4139 19.0876 21.7695C19.3829 21.2692 20.1946 20.6248 21.2254 21.1972C21.9608 21.6236 22.1818 22.556 21.8159 23.2686C21.4463 23.9129 21.2254 24.6275 21.2254 25.3401C21.2254 26.699 21.9608 27.9839 23.2183 28.6966C24.4701 29.4092 25.9467 29.4092 27.1986 28.6966C28.4504 27.984 29.1917 26.6971 29.1917 25.3401C29.1917 23.9831 28.4543 22.6963 27.1988 21.9818C26.5338 21.6236 25.7964 21.4815 24.9866 21.4815C24.3216 21.4815 23.4395 21.055 23.4395 19.9823C23.4395 19.1238 24.1045 18.4831 24.9866 18.4831C25.7221 18.4831 26.5338 18.341 27.1988 17.9828C28.4505 17.2702 29.1917 15.9833 29.1917 14.6264C29.1917 13.2695 28.4543 11.9826 27.1988 11.2699C26.6082 10.9118 25.8726 10.7696 25.2079 10.7696C24.5467 10.7659 23.8056 10.9118 23.2188 11.2662" fill="#1276A7"/>
</svg>
