<svg width="41" height="40" viewBox="0 0 41 40" fill="none" xmlns="http://www.w3.org/2000/svg">
<path opacity="0.2" d="M20.5996 40C31.6453 40 40.5996 31.0457 40.5996 20C40.5996 8.95431 31.6453 0 20.5996 0C9.55391 0 0.599609 8.95431 0.599609 20C0.599609 31.0457 9.55391 40 20.5996 40Z" fill="#C619C2"/>
<path d="M13.554 24.376C13.6718 24.2582 13.8339 24.1895 14.0058 24.1895H29.5915C29.8763 24.1895 30.0187 24.5332 29.8174 24.7345L26.7385 27.8134C26.6207 27.9312 26.4586 28 26.2867 28H10.701C10.4162 28 10.2738 27.6562 10.4751 27.4549L13.554 24.376Z" fill="url(#paint0_linear_10008_18545)"/>
<path d="M13.554 12.8809C13.6768 12.7631 13.8388 12.6943 14.0058 12.6943H29.5915C29.8763 12.6943 30.0187 13.0381 29.8174 13.2394L26.7385 16.3182C26.6207 16.4361 26.4586 16.5048 26.2867 16.5048H10.701C10.4162 16.5048 10.2738 16.1611 10.4751 15.9598L13.554 12.8809Z" fill="url(#paint1_linear_10008_18545)"/>
<path d="M26.7385 18.5919C26.6207 18.474 26.4586 18.4053 26.2867 18.4053H10.701C10.4162 18.4053 10.2738 18.749 10.4751 18.9503L13.554 22.0292C13.6718 22.147 13.8339 22.2158 14.0058 22.2158H29.5915C29.8763 22.2158 30.0187 21.872 29.8174 21.6707L26.7385 18.5919Z" fill="url(#paint2_linear_10008_18545)"/>
<defs>
<linearGradient id="paint0_linear_10008_18545" x1="-24.8456" y1="9.80267" x2="-25.2603" y2="30.6694" gradientUnits="userSpaceOnUse">
<stop stop-color="#00FFA3"/>
<stop offset="1" stop-color="#DC1FFF"/>
</linearGradient>
<linearGradient id="paint1_linear_10008_18545" x1="-29.562" y1="7.34049" x2="-29.9767" y2="28.2072" gradientUnits="userSpaceOnUse">
<stop stop-color="#00FFA3"/>
<stop offset="1" stop-color="#DC1FFF"/>
</linearGradient>
<linearGradient id="paint2_linear_10008_18545" x1="-27.2188" y1="8.56394" x2="-27.6335" y2="29.4307" gradientUnits="userSpaceOnUse">
<stop stop-color="#00FFA3"/>
<stop offset="1" stop-color="#DC1FFF"/>
</linearGradient>
</defs>
</svg>
