<svg width="41" height="40" viewBox="0 0 41 40" fill="none" xmlns="http://www.w3.org/2000/svg">
<path opacity="0.2" d="M40.4911 20C40.4911 30.9875 31.5842 39.8947 20.5968 39.8947C9.60922 39.8947 0.702148 30.9875 0.702148 20C0.702148 9.01254 9.60922 0.105469 20.5968 0.105469C31.5841 0.105469 40.4911 9.01254 40.4911 20" fill="#00A478"/>
<path d="M18.5565 19.6514V16.1709H13.8359V13.1201H27.0271V16.2139H22.3065V19.6514H18.5565Z" fill="#00A478"/>
<path d="M20.3213 17.9326C25.0419 17.9326 28.8359 18.8779 28.8359 20.0381C28.8359 21.1982 25.0419 22.1436 20.3213 22.1436C15.6007 22.1435 11.8066 21.1982 11.8066 20.0381C11.8066 18.8779 15.6007 17.9326 20.3213 17.9326ZM20.3213 18.2764C15.3804 18.2764 12.8218 19.5654 12.5127 20.0381C12.8218 20.4678 15.3805 21.1123 20.3213 21.1123C25.3061 21.1123 27.8206 20.4678 28.1299 20.0381C27.8206 19.6083 25.2619 18.2764 20.3213 18.2764Z" fill="#00A478"/>
<path d="M22.3065 20.7256V18.3193C21.6888 18.2764 21.0271 18.2334 20.3653 18.2334C19.7476 18.2334 19.1741 18.2334 18.6006 18.2764V20.6826C19.13 20.6826 19.7476 20.7256 20.3653 20.7256C21.0271 20.7686 21.6888 20.7686 22.3065 20.7256Z" fill="#00A478"/>
<path d="M20.3213 22.1436C19.7037 22.1436 19.1302 22.1436 18.5566 22.1006V28.5029H22.2625V22.0576C21.6449 22.1006 20.9831 22.1436 20.3213 22.1436Z" fill="#00A478"/>
</svg>
