<svg width="20" height="20" viewBox="0 0 20 20" fill="none" xmlns="http://www.w3.org/2000/svg">
<path fill-rule="evenodd" clip-rule="evenodd" d="M5.76248 1.21421C5.91409 1.0895 6.0928 1.04102 6.25016 1.04102C6.40753 1.04102 6.58623 1.0895 6.73784 1.21421L6.7644 1.23605L10.8644 5.44275C11.1053 5.68994 11.1003 6.08564 10.8531 6.32656C10.6059 6.56748 10.2102 6.5624 9.96925 6.31521L6.87516 3.14061V13.3327C6.87516 13.6779 6.59534 13.9577 6.25016 13.9577C5.90498 13.9577 5.62516 13.6779 5.62516 13.3327V3.14061L2.53108 6.31521C2.29015 6.5624 1.89446 6.56748 1.64727 6.32656C1.40007 6.08564 1.39499 5.68994 1.63592 5.44275L5.73593 1.23605L5.76248 1.21421ZM13.7502 6.04102C14.0953 6.04102 14.3752 6.32084 14.3752 6.66602V16.8581L17.4692 13.6835C17.7102 13.4363 18.1059 13.4312 18.3531 13.6721C18.6003 13.9131 18.6053 14.3088 18.3644 14.556L14.2644 18.7627L14.2378 18.7845C14.0862 18.9092 13.9075 18.9577 13.7502 18.9577C13.5928 18.9577 13.4141 18.9092 13.2625 18.7845L13.2359 18.7627L9.13591 14.556C8.89499 14.3088 8.90007 13.9131 9.14727 13.6721C9.39446 13.4312 9.79015 13.4363 10.0311 13.6835L13.1252 16.8581V6.66602C13.1252 6.32084 13.405 6.04102 13.7502 6.04102Z" fill="#7F8D9F"/>
</svg>
