<svg width="20" height="20" viewBox="0 0 20 20" fill="none" xmlns="http://www.w3.org/2000/svg">
<path fill-rule="evenodd" clip-rule="evenodd" d="M9.99984 2.29102C5.74264 2.29102 2.2915 5.74215 2.2915 9.99935C2.2915 14.2565 5.74264 17.7077 9.99984 17.7077C14.257 17.7077 17.7082 14.2565 17.7082 9.99935C17.7082 5.74215 14.257 2.29102 9.99984 2.29102ZM1.0415 9.99935C1.0415 5.0518 5.05229 1.04102 9.99984 1.04102C14.9474 1.04102 18.9582 5.0518 18.9582 9.99935C18.9582 14.9469 14.9474 18.9577 9.99984 18.9577C5.05229 18.9577 1.0415 14.9469 1.0415 9.99935ZM9.99984 4.28176C10.345 4.28176 10.6248 4.56158 10.6248 4.90676V9.961C10.6248 10.1513 10.5492 10.3338 10.4147 10.4684L7.664 13.2191C7.41992 13.4631 7.0242 13.4631 6.78012 13.2191C6.53604 12.975 6.53604 12.5793 6.78012 12.3352L9.37484 9.74047V4.90676C9.37484 4.56158 9.65466 4.28176 9.99984 4.28176Z" fill="#7F8D9F"/>
</svg>
