<svg width="20" height="20" viewBox="0 0 20 20" fill="none" xmlns="http://www.w3.org/2000/svg">
<path fill-rule="evenodd" clip-rule="evenodd" d="M9.98755 2.29201C9.98379 2.29307 9.97479 2.29581 9.95851 2.30166C9.92005 2.3155 9.8693 2.33612 9.77762 2.37364C9.10704 2.64808 7.81442 3.16422 6.85418 3.46589C6.13085 3.69314 5.18408 3.92828 4.48307 4.09317C4.29128 4.13828 4.18138 4.16456 4.10154 4.18986C4.06328 4.20198 4.04471 4.21015 4.03793 4.21343C4.0142 4.2328 3.99391 4.2585 3.9777 4.29891C3.97621 4.30366 3.96968 4.32845 3.9651 4.39651C3.95884 4.48943 3.95851 4.61312 3.95851 4.81911V10.3942C3.95851 11.8395 3.96478 12.4326 4.12119 12.9544C4.265 13.4341 4.49946 13.8735 4.8073 14.2453C5.13883 14.6456 5.59888 14.9451 6.76076 15.6798L9.69796 17.5371C9.82017 17.6144 9.88803 17.657 9.9403 17.6857C9.96269 17.6979 9.97515 17.7036 9.98038 17.7058C9.99357 17.7083 10.0068 17.7083 10.02 17.7058C10.0252 17.7036 10.0377 17.6979 10.0601 17.6857C10.1123 17.657 10.1802 17.6144 10.3024 17.5371L13.2396 15.6798C14.4015 14.9451 14.8615 14.6456 15.1931 14.2453C15.5009 13.8735 15.7354 13.4341 15.8792 12.9544C16.0356 12.4326 16.0418 11.8395 16.0418 10.3942V4.81911C16.0418 4.61312 16.0415 4.48943 16.0353 4.39651C16.0307 4.32848 16.0242 4.30368 16.0227 4.29891C16.0064 4.2585 15.9862 4.2328 15.9624 4.21343C15.9557 4.21015 15.9371 4.20198 15.8988 4.18986C15.819 4.16456 15.7091 4.13828 15.5173 4.09317C14.8163 3.92828 13.8695 3.69314 13.1462 3.46589C12.1859 3.16421 10.8933 2.64808 10.2227 2.37364C10.1311 2.33612 10.0803 2.3155 10.0419 2.30166C10.0256 2.29581 10.0166 2.29307 10.0128 2.29201C10.0033 2.29069 9.99709 2.29069 9.98755 2.29201ZM15.9656 4.21507L15.9647 4.21458L15.9656 4.21507ZM4.03478 4.21507L4.03559 4.21461L4.03478 4.21507ZM9.78921 1.0578C9.93128 1.03542 10.0691 1.03542 10.2112 1.0578C10.3712 1.08302 10.5247 1.14618 10.6603 1.20202C10.6724 1.207 10.6844 1.21193 10.6962 1.21677C11.3682 1.49179 12.6166 1.98927 13.5208 2.27336C14.1975 2.48596 15.1065 2.71243 15.8035 2.87638L15.8222 2.88078C15.9887 2.91991 16.1457 2.95684 16.2764 2.99826C16.4194 3.04356 16.5745 3.10692 16.7211 3.21986C16.9304 3.38119 17.0859 3.59174 17.1831 3.83423C17.2493 3.99963 17.2723 4.16182 17.2824 4.31257C17.2919 4.45258 17.2919 4.61895 17.2918 4.80114V10.3942C17.2918 10.4312 17.2919 10.4678 17.2919 10.5039C17.292 11.805 17.2921 12.5941 17.0765 13.3133C16.8859 13.9493 16.5731 14.5386 16.1558 15.0425C15.6821 15.6146 15.0391 16.0211 14.0015 16.677C13.9706 16.6965 13.9393 16.7163 13.9077 16.7363L10.9705 18.5936C10.9548 18.6035 10.939 18.6136 10.923 18.6238C10.7423 18.7388 10.5379 18.8689 10.3071 18.9225C10.105 18.9694 9.89539 18.9694 9.69328 18.9225C9.46245 18.8689 9.25812 18.7389 9.07743 18.6238C9.0614 18.6136 9.04555 18.6035 9.02989 18.5936L6.09268 16.7363C6.06105 16.7163 6.02977 16.6965 5.99885 16.677C4.96129 16.0211 4.3183 15.6146 3.84452 15.0425C3.42727 14.5386 3.11448 13.9493 2.92382 13.3133C2.70824 12.5941 2.70834 11.805 2.7085 10.5039C2.70851 10.4677 2.70851 10.4312 2.70851 10.3942L2.70851 4.80116C2.7085 4.61896 2.70849 4.45258 2.71792 4.31257C2.72807 4.16182 2.75103 3.99964 2.81728 3.83424C2.91442 3.59174 3.06996 3.38119 3.27928 3.21986C3.42582 3.10692 3.58097 3.04356 3.72394 2.99826C3.85464 2.95684 4.0117 2.91991 4.17813 2.88078C4.18436 2.87932 4.19061 2.87785 4.19687 2.87638C4.89388 2.71243 5.80282 2.48596 6.47952 2.27336C7.38379 1.98927 8.63217 1.49179 9.30418 1.21677C9.316 1.21193 9.32798 1.207 9.34009 1.20201C9.47571 1.14618 9.62913 1.08302 9.78921 1.0578ZM12.9381 7.88671C13.1844 8.12855 13.188 8.52426 12.9461 8.77056L9.71296 12.0635C9.41248 12.3695 8.91269 12.3668 8.6159 12.0554L7.04773 10.4099C6.8096 10.16 6.81912 9.76438 7.069 9.52625C7.31888 9.28812 7.7145 9.29764 7.95263 9.54753L9.17355 10.8287L12.0542 7.8948C12.296 7.6485 12.6918 7.64488 12.9381 7.88671Z" fill="#7F8D9F"/>
</svg>
