<svg width="20" height="20" viewBox="0 0 20 20" fill="none" xmlns="http://www.w3.org/2000/svg">
<path fill-rule="evenodd" clip-rule="evenodd" d="M8.98316 1.04102C8.9888 1.04102 8.99442 1.04102 9.00001 1.04102L11.0169 1.04102C11.1187 1.04099 11.229 1.04097 11.3246 1.04877C11.4327 1.05761 11.5756 1.07947 11.7229 1.15456C11.9189 1.25442 12.0783 1.41378 12.1781 1.60978C12.2532 1.75714 12.2751 1.9 12.2839 2.00813C12.2917 2.10366 12.2917 2.21403 12.2917 2.31583V17.6829C12.2917 17.7847 12.2917 17.895 12.2839 17.9906C12.2751 18.0987 12.2532 18.2416 12.1781 18.3889C12.0783 18.5849 11.9189 18.7443 11.7229 18.8442C11.5756 18.9192 11.4327 18.9411 11.3246 18.9499C11.229 18.9577 11.1187 18.9577 11.0169 18.9577H8.98315C8.88135 18.9577 8.77098 18.9577 8.67545 18.9499C8.56731 18.9411 8.42446 18.9192 8.2771 18.8442C8.0811 18.7443 7.92174 18.5849 7.82187 18.3889C7.74679 18.2416 7.72493 18.0987 7.71609 17.9906C7.70829 17.895 7.70831 17.7847 7.70834 17.6829L7.70834 2.33269C7.70834 2.3271 7.70834 2.32149 7.70834 2.31584C7.70831 2.21404 7.70829 2.10367 7.71609 2.00813C7.72493 1.9 7.74679 1.75714 7.82187 1.60978C7.92174 1.41378 8.0811 1.25442 8.2771 1.15456C8.42446 1.07947 8.56731 1.05761 8.67545 1.04877C8.77098 1.04097 8.88136 1.04099 8.98316 1.04102ZM8.95835 2.29103C8.95834 2.30414 8.95834 2.31799 8.95834 2.33269V17.666C8.95834 17.6807 8.95834 17.6946 8.95835 17.7077C8.97146 17.7077 8.98531 17.7077 9.00001 17.7077H11C11.0147 17.7077 11.0286 17.7077 11.0417 17.7077C11.0417 17.6946 11.0417 17.6807 11.0417 17.666V2.33269C11.0417 2.31799 11.0417 2.30414 11.0417 2.29103C11.0286 2.29102 11.0147 2.29102 11 2.29102H9.00001C8.98531 2.29102 8.97146 2.29102 8.95835 2.29103ZM14.8165 5.20769H16.8502C16.952 5.20766 17.0624 5.20763 17.1579 5.21544C17.266 5.22428 17.4089 5.24614 17.5562 5.32122C17.7522 5.42109 17.9116 5.58045 18.0115 5.77645C18.0866 5.92381 18.1084 6.06666 18.1173 6.17479C18.1251 6.27033 18.125 6.3807 18.125 6.4825V17.6829C18.125 17.7847 18.1251 17.895 18.1173 17.9906C18.1084 18.0987 18.0866 18.2416 18.0115 18.3889C17.9116 18.5849 17.7522 18.7443 17.5562 18.8442C17.4089 18.9192 17.266 18.9411 17.1579 18.9499C17.0624 18.9577 16.952 18.9577 16.8502 18.9577H14.8165C14.7147 18.9577 14.6043 18.9577 14.5088 18.9499C14.4006 18.9411 14.2578 18.9192 14.1104 18.8442C13.9144 18.7443 13.7551 18.5849 13.6552 18.3889C13.5801 18.2416 13.5583 18.0987 13.5494 17.9906C13.5416 17.895 13.5416 17.7847 13.5417 17.6829V6.4825C13.5416 6.3807 13.5416 6.27033 13.5494 6.17479C13.5583 6.06666 13.5801 5.92381 13.6552 5.77645C13.7551 5.58045 13.9144 5.42109 14.1104 5.32122C14.2578 5.24614 14.4006 5.22428 14.5088 5.21544C14.6043 5.20763 14.7147 5.20766 14.8165 5.20769ZM14.7917 6.4577C14.7917 6.47081 14.7917 6.48466 14.7917 6.49936V17.666C14.7917 17.6807 14.7917 17.6946 14.7917 17.7077C14.8048 17.7077 14.8186 17.7077 14.8333 17.7077H16.8333C16.848 17.7077 16.8619 17.7077 16.875 17.7077C16.875 17.6946 16.875 17.6807 16.875 17.666V6.49936C16.875 6.48466 16.875 6.47081 16.875 6.4577C16.8619 6.45769 16.848 6.45769 16.8333 6.45769H14.8333C14.8186 6.45769 14.8048 6.45769 14.7917 6.4577ZM3.14982 9.37435C3.15546 9.37435 3.16108 9.37436 3.16667 9.37436H5.16667C5.17226 9.37436 5.17788 9.37435 5.18353 9.37435C5.28533 9.37433 5.3957 9.3743 5.49123 9.38211C5.59936 9.39094 5.74222 9.41281 5.88958 9.48789C6.08558 9.58776 6.24494 9.74711 6.3448 9.94312C6.41989 10.0905 6.44175 10.2333 6.45059 10.3415C6.45839 10.437 6.45837 10.5474 6.45834 10.6492V17.6829C6.45837 17.7847 6.45839 17.895 6.45059 17.9906C6.44175 18.0987 6.41989 18.2416 6.3448 18.3889C6.24494 18.5849 6.08558 18.7443 5.88958 18.8442C5.74222 18.9192 5.59936 18.9411 5.49123 18.9499C5.3957 18.9577 5.28533 18.9577 5.18353 18.9577H3.14981C3.04802 18.9577 2.93765 18.9577 2.84211 18.9499C2.73398 18.9411 2.59112 18.9192 2.44377 18.8442C2.24776 18.7443 2.08841 18.5849 1.98854 18.3889C1.91346 18.2416 1.89159 18.0987 1.88276 17.9906C1.87495 17.895 1.87498 17.7847 1.875 17.6829V10.6492C1.87498 10.5474 1.87495 10.437 1.88276 10.3415C1.89159 10.2333 1.91346 10.0905 1.98854 9.94312C2.08841 9.74711 2.24776 9.58776 2.44377 9.48789C2.59112 9.41281 2.73398 9.39094 2.84211 9.38211C2.93765 9.3743 3.04802 9.37433 3.14982 9.37435ZM3.12502 10.6244C3.12501 10.6375 3.12501 10.6513 3.12501 10.666V17.666C3.12501 17.6807 3.12501 17.6946 3.12502 17.7077C3.13813 17.7077 3.15197 17.7077 3.16667 17.7077H5.16667C5.18137 17.7077 5.19522 17.7077 5.20833 17.7077C5.20834 17.6946 5.20834 17.6807 5.20834 17.666V10.666C5.20834 10.6513 5.20834 10.6375 5.20833 10.6244C5.19522 10.6244 5.18137 10.6244 5.16667 10.6244H3.16667C3.15197 10.6244 3.13813 10.6244 3.12502 10.6244Z" fill="#7F8D9F"/>
</svg>
