<svg width="20" height="20" viewBox="0 0 20 20" fill="none" xmlns="http://www.w3.org/2000/svg">
<path d="M1.6665 4.43222C1.6665 2.90449 2.90498 1.66602 4.43271 1.66602C5.96044 1.66602 7.19891 2.90449 7.19891 4.43222C7.19891 5.74501 6.28441 6.84421 5.05771 7.12752V11.6819C5.05771 12.084 5.21745 12.4697 5.50179 12.754L8.51833 15.7705V14.2817C8.51833 13.9366 8.79816 13.6567 9.14333 13.6567C9.48851 13.6567 9.76833 13.9366 9.76833 14.2817V17.1081C9.76833 17.3226 9.68354 17.5173 9.54565 17.6604C9.54219 17.6641 9.53869 17.6677 9.53513 17.6712C9.53156 17.6748 9.52795 17.6783 9.52432 17.6818C9.38115 17.8196 9.1865 17.9044 8.97204 17.9044H5.71741C5.37223 17.9044 5.09241 17.6246 5.09241 17.2794C5.09241 16.9342 5.37223 16.6544 5.71741 16.6544H7.63444L4.61791 13.6379C4.09915 13.1191 3.80771 12.4155 3.80771 11.6819V7.12752C2.581 6.84421 1.6665 5.74501 1.6665 4.43222Z" fill="#7F8D9F"/>
<path d="M11.0276 2.09426L14.2822 2.09426C14.6274 2.09426 14.9072 2.37408 14.9072 2.71926C14.9072 3.06443 14.6274 3.34426 14.2822 3.34426H12.3652L15.3818 6.36082C15.9005 6.87958 16.192 7.58318 16.192 8.31682V12.8712C17.4187 13.1545 18.3332 14.2537 18.3332 15.5665C18.3332 17.0942 17.0947 18.3327 15.567 18.3327C14.0392 18.3327 12.8008 17.0942 12.8008 15.5665C12.8008 14.2537 13.7153 13.1545 14.942 12.8712L14.942 8.31682C14.942 7.9147 14.7822 7.52905 14.4979 7.2447L11.4813 4.22814L11.4813 5.71694C11.4813 6.06212 11.2015 6.34194 10.8563 6.34194C10.5111 6.34194 10.2313 6.06212 10.2313 5.71694L10.2313 2.89055C10.2313 2.45077 10.5878 2.09426 11.0276 2.09426Z" fill="#7F8D9F"/>
</svg>
