<svg width="20" height="21" viewBox="0 0 20 21" fill="none" xmlns="http://www.w3.org/2000/svg">
<path fill-rule="evenodd" clip-rule="evenodd" d="M9.99965 2.35742C8.52571 2.35742 7.34396 3.53573 7.34396 4.97316C7.34396 6.4106 8.52571 7.58891 9.99965 7.58891C11.4736 7.58891 12.6553 6.4106 12.6553 4.97316C12.6553 3.53573 11.4736 2.35742 9.99965 2.35742ZM6.09396 4.97316C6.09396 2.83098 7.84984 1.10742 9.99965 1.10742C12.1495 1.10742 13.9053 2.83098 13.9053 4.97316C13.9053 7.11535 12.1495 8.8389 9.99965 8.8389C7.84984 8.8389 6.09396 7.11535 6.09396 4.97316ZM11.8325 11.6141C10.5831 11.5244 9.42083 11.5245 8.16888 11.6146C6.25141 11.7526 4.73819 13.296 4.45426 15.2393L4.39278 15.66C4.25765 16.5849 4.9087 17.4385 5.83887 17.5365C8.82438 17.8511 11.1859 17.8547 14.1655 17.539C15.0931 17.4408 15.7422 16.5887 15.6072 15.6649L15.5448 15.2374C15.2609 13.2948 13.7488 11.7518 11.8325 11.6141ZM8.07916 10.3679C9.39068 10.2735 10.6129 10.2733 11.9221 10.3673C14.4907 10.5518 16.4231 12.6028 16.7816 15.0566L16.8441 15.4842C17.0794 17.0944 15.9465 18.6074 14.2972 18.7821C11.2288 19.1071 8.77929 19.1032 5.70789 18.7796C4.05706 18.6057 2.92025 17.0921 3.15591 15.4793L3.21739 15.0585C3.5761 12.6035 5.50992 10.5528 8.07916 10.3679Z" fill="#7F8D9F"/>
</svg>
