<svg width="20" height="20" viewBox="0 0 20 20" fill="none" xmlns="http://www.w3.org/2000/svg">
<path fill-rule="evenodd" clip-rule="evenodd" d="M9.84772 2.29102C8.43209 2.29102 7.27167 3.45462 7.27167 4.90591C7.27167 6.35721 8.43209 7.52081 9.84772 7.52081C11.2634 7.52081 12.4238 6.35721 12.4238 4.90591C12.4238 3.45462 11.2634 2.29102 9.84772 2.29102ZM6.02167 4.90591C6.02167 2.77852 7.72757 1.04102 9.84772 1.04102C11.9679 1.04102 13.6738 2.77852 13.6738 4.90591C13.6738 7.03331 11.9679 8.77081 9.84772 8.77081C7.72757 8.77081 6.02167 7.03331 6.02167 4.90591ZM11.6339 11.5454C10.4163 11.4556 9.28377 11.4557 8.06374 11.5459C6.21181 11.6828 4.73103 13.2181 4.45234 15.1771L4.39236 15.5988C4.25792 16.5437 4.90643 17.3875 5.79133 17.4833C6.74089 17.586 8.06403 17.6689 9.03995 17.7082C9.38485 17.7221 9.65319 18.0129 9.6393 18.3578C9.62541 18.7027 9.33456 18.9711 8.98966 18.9572C7.9981 18.9172 6.64454 18.8329 5.65685 18.726C4.02341 18.5493 2.92745 17.0209 3.15482 15.4227L3.2148 15.0011C3.56315 12.5525 5.44574 10.486 7.9716 10.2993C9.25281 10.2046 10.4469 10.2044 11.7258 10.2988C12.1393 10.3293 12.5377 10.411 12.9159 10.5376C13.2432 10.6472 13.4197 11.0014 13.3101 11.3287C13.2006 11.656 12.8464 11.8325 12.5191 11.723C12.2383 11.6289 11.9423 11.5681 11.6339 11.5454ZM16.685 13.2513C16.9328 13.4917 16.9388 13.8873 16.6984 14.1351L13.15 17.793C12.8437 18.1087 12.3307 18.1058 12.0283 17.7847L10.3073 15.9568C10.0707 15.7055 10.0826 15.3099 10.3339 15.0733C10.5852 14.8367 10.9807 14.8486 11.2174 15.0999L12.5982 16.5665L15.8012 13.2647C16.0416 13.017 16.4373 13.011 16.685 13.2513Z" fill="#7F8D9F"/>
</svg>
