<svg width="21" height="20" viewBox="0 0 21 20" fill="none" xmlns="http://www.w3.org/2000/svg">
<path opacity="0.2" fill-rule="evenodd" clip-rule="evenodd" d="M10.5 20C5 20 0.5 15.5001 0.5 9.95021C0.55 4.45032 5 -0.0495863 10.55 0.00041267C16.05 0.0504116 20.5 4.50032 20.5 10.1002C20.45 15.5501 16 20 10.5 20Z" fill="#F0B90B"/>
<path fill-rule="evenodd" clip-rule="evenodd" d="M8.71084 14.6477C7.895 14.1667 7.22546 13.7709 7.22296 13.7684C7.21911 13.7644 7.66072 13.5007 8.16672 13.2047L8.30364 13.1246L9.23275 13.6737C9.74376 13.9757 10.1745 14.2261 10.1899 14.2301C10.2064 14.2344 10.6057 14.0089 11.1633 13.6803C11.9013 13.2453 12.1144 13.1267 12.135 13.1394C12.1495 13.1484 12.3918 13.2918 12.6733 13.458C12.9549 13.6242 13.1872 13.7617 13.1896 13.7636C13.1946 13.7674 10.2134 15.5225 10.2018 15.5225C10.1976 15.5225 9.52668 15.1288 8.71084 14.6477ZM5.84827 12.9677L5.2998 12.6436V11.9979V11.3523L5.82977 11.0387C6.12125 10.8662 6.36648 10.7227 6.37474 10.7196C6.38355 10.7164 6.38973 10.979 6.38973 11.358V12.0019L6.93412 12.3213C7.23353 12.497 7.47863 12.6445 7.47878 12.649C7.479 12.6558 7.18009 12.8335 6.47324 13.247L6.39672 13.2918L5.84827 12.9677ZM9.66364 12.9748C9.37071 12.8008 9.13106 12.6543 9.13106 12.6493C9.13106 12.6444 9.37205 12.4976 9.66659 12.3232L10.2021 12.0062L10.74 12.3228C11.0358 12.497 11.2779 12.6439 11.2779 12.6492C11.2779 12.6571 10.2359 13.278 10.2058 13.288C10.2005 13.2897 9.95656 13.1488 9.66364 12.9748ZM13.4695 12.9751C13.1729 12.8003 12.9302 12.6536 12.9301 12.649C12.9301 12.6445 13.175 12.4967 13.4744 12.3207L14.0188 12.0007L14.0232 11.3584L14.0275 10.7162L14.5683 11.034L15.1091 11.3519V11.9977V12.6436L14.5931 12.9464C14.3092 13.1129 14.0617 13.259 14.0429 13.271C14.0119 13.2909 13.9604 13.2643 13.4695 12.9751ZM7.74801 11.8453L7.19892 11.5217L7.1994 10.8757L7.19988 10.2297L8.15709 9.66964L9.11431 9.10957L9.11856 7.9862L9.1228 6.86285L9.66672 6.54408C10.1615 6.2541 10.2137 6.22728 10.2447 6.24714C10.2635 6.25917 10.511 6.40472 10.7947 6.57062L11.3107 6.87227L11.3149 7.99552L11.3192 9.11878L12.2648 9.67385L13.2104 10.2289L13.2061 10.8795L13.2018 11.53L12.7559 11.793C12.5107 11.9376 12.2637 12.0822 12.2071 12.1143L12.1041 12.1727L11.1652 11.619C10.6488 11.3146 10.2191 11.0632 10.2104 11.0604C10.2017 11.0577 9.77834 11.3022 9.26956 11.6038C8.7608 11.9055 8.33386 12.156 8.32081 12.1606C8.30777 12.1651 8.05002 12.0233 7.74801 11.8453ZM5.30385 8.62711L5.30806 6.86484L6.76955 6.007C7.57337 5.53519 8.24406 5.14203 8.25994 5.13331C8.28724 5.11834 8.28884 5.15302 8.28884 5.75985V6.40224L7.33929 6.96043L6.38973 7.51864V8.63529V9.75193L5.85965 10.0651C5.56811 10.2374 5.32284 10.3808 5.31462 10.3839C5.30572 10.3872 5.30136 9.67508 5.30385 8.62711ZM14.5518 10.0676L14.0192 9.75102V8.63482V7.51864L13.0697 6.96043L12.1201 6.40224V5.76001V5.11778L12.1655 5.14236C12.1905 5.15586 12.8612 5.54883 13.6559 6.0156L15.1009 6.86427L15.1051 8.62544C15.1074 9.59407 15.1037 10.3861 15.0968 10.3854C15.09 10.3848 14.8447 10.2418 14.5518 10.0676ZM7.19892 8.63887V7.99618L7.73054 7.68449C8.02293 7.51306 8.26825 7.37028 8.2757 7.36722C8.28315 7.36415 8.28729 7.64975 8.28491 8.00187L8.28059 8.64211L7.81819 8.91593C7.56388 9.06653 7.32051 9.21042 7.27736 9.23565L7.19892 9.28155V8.63887ZM12.6651 8.9603L12.1284 8.64174L12.124 8.00169C12.1216 7.64966 12.126 7.36415 12.1337 7.36722C12.1414 7.37028 12.3868 7.51299 12.6789 7.68438L13.21 7.99595V8.63806C13.21 8.99121 13.2082 9.27986 13.2059 9.2795C13.2036 9.27914 12.9602 9.1355 12.6651 8.9603ZM9.09803 5.27772V4.64413L9.63886 4.32541C9.93632 4.15011 10.1855 4.00365 10.1925 3.99995C10.1995 3.99623 10.4541 4.13951 10.7581 4.31831L11.3109 4.64342V5.27736C11.3109 5.62602 11.3065 5.9113 11.3011 5.9113C11.2956 5.9113 11.0521 5.77067 10.7598 5.59877C10.4675 5.42688 10.221 5.28382 10.2119 5.28088C10.2029 5.27792 9.95299 5.41857 9.65668 5.5934C9.36037 5.76824 9.11345 5.9113 9.10799 5.9113C9.10251 5.9113 9.09803 5.62618 9.09803 5.27772Z" fill="#F0B90B"/>
</svg>
