<svg width="20" height="20" viewBox="0 0 20 20" fill="none" xmlns="http://www.w3.org/2000/svg">
<g clip-path="url(#clip0_9896_30973)">
<path d="M20 10C20 15.5229 15.5229 20 10 20C7.08857 20 4.46775 18.7559 2.64041 16.7702C2.15897 16.2472 1.73441 15.6746 1.37388 15.062C0.500816 13.5771 0 11.8469 0 10C0 4.47714 4.47714 0 10 0C11.8473 0 13.5775 0.500816 15.062 1.37429C15.6747 1.73455 16.2472 2.15913 16.7698 2.64082C18.7555 4.46735 20 7.08857 20 10Z" fill="#616F81"/>
<path d="M19.9996 10.0009C19.9996 15.3992 15.7225 19.7984 10.3719 19.9939C5.02128 19.7984 0.744141 15.3992 0.744141 10.0009C0.744141 4.60251 5.02128 0.203323 10.3719 0.0078125C15.7225 0.203323 19.9996 4.60251 19.9996 10.0009Z" fill="#FFDE50"/>
<path d="M17.7697 9.99913C17.7697 14.2906 14.2906 17.7697 9.99913 17.7697C8.50443 17.7697 7.10852 17.3477 5.92362 16.6163C5.40854 16.2984 4.93227 15.9216 4.50443 15.4934C4.1899 15.1792 3.90286 14.8387 3.64647 14.4755C3.29029 13.9711 2.99569 13.426 2.76892 12.8518C2.43096 11.9967 2.24076 11.0669 2.22933 10.0946C2.22852 10.0628 2.22852 10.031 2.22852 9.99913C2.22852 5.7077 5.70729 2.22852 9.99913 2.22852C10.031 2.22852 10.0632 2.22852 10.095 2.22933C11.0673 2.24076 11.9967 2.43137 12.8518 2.76892C13.426 2.99585 13.971 3.29045 14.4755 3.64647C14.8391 3.90362 15.1795 4.19056 15.4934 4.50443C15.9217 4.93218 16.2985 5.40847 16.6163 5.92362C17.3477 7.10852 17.7697 8.50443 17.7697 9.99913Z" fill="#FAA300"/>
<path d="M15.4934 4.50443L4.50443 15.4934C4.1899 15.1792 3.90286 14.8387 3.64647 14.4755C3.29029 13.9711 2.99569 13.426 2.76892 12.8518C2.43096 11.9967 2.24076 11.0669 2.22933 10.0946C2.22852 10.0628 2.22852 10.031 2.22852 9.99913C2.22852 5.7077 5.70729 2.22852 9.99913 2.22852C10.031 2.22852 10.0632 2.22852 10.095 2.22933C11.0673 2.24076 11.9967 2.43137 12.8518 2.76892C13.426 2.99585 13.971 3.29045 14.4755 3.64647C14.8391 3.90362 15.1795 4.19056 15.4934 4.50443Z" fill="#FFBD00"/>
<path d="M17.7709 9.99913C17.7709 14.2906 14.2917 17.7697 10.0003 17.7697C9.85295 17.7697 9.70683 17.7657 9.56152 17.7575C13.6489 17.5301 16.893 14.1432 16.893 9.99913C16.893 5.85505 13.6489 2.46811 9.56152 2.24076C9.70683 2.2326 9.85295 2.22852 10.0003 2.22852C14.2917 2.22852 17.7709 5.7077 17.7709 9.99913Z" fill="#F68E00"/>
<path d="M10.7648 9.40298V6.256C11.2552 6.52657 11.5883 7.04877 11.5883 7.64742C11.5883 8.06971 11.9306 8.41204 12.3529 8.41204C12.7752 8.41204 13.1175 8.06971 13.1175 7.64742C13.1175 6.19228 12.1152 4.96706 10.7648 4.62526V4.00289C10.7648 3.58061 10.4224 3.23828 10.0002 3.23828C9.57787 3.23828 9.23555 3.58061 9.23555 4.00289V4.62522C7.88514 4.96706 6.88281 6.19224 6.88281 7.64738C6.88281 8.51624 7.138 9.19379 7.66294 9.71873C8.04567 10.1015 8.55408 10.3847 9.23555 10.5923V13.7442C8.7451 13.4737 8.41204 12.9515 8.41204 12.3529C8.41204 11.9306 8.06971 11.5882 7.64742 11.5882C7.22514 11.5882 6.88281 11.9306 6.88281 12.3529C6.88281 13.808 7.88514 15.0332 9.23555 15.375V15.9973C9.23555 16.4196 9.57787 16.762 10.0002 16.762C10.4224 16.762 10.7648 16.4196 10.7648 15.9973V15.375C12.1152 15.0332 13.1175 13.808 13.1175 12.3529C13.1175 11.496 12.8514 10.7955 12.3266 10.2707C11.9451 9.88922 11.4304 9.60326 10.7648 9.40298ZM8.74424 8.63742C8.58955 8.48277 8.41204 8.23044 8.41204 7.64738C8.41204 7.04873 8.7451 6.52657 9.23555 6.25595V8.96273C9.02934 8.86722 8.86608 8.75926 8.74424 8.63742ZM10.7648 13.7442V11.0291C11.4293 11.3386 11.5883 11.7813 11.5883 12.3529C11.5882 12.9515 11.2552 13.4737 10.7648 13.7442Z" fill="#FFEA94"/>
</g>
<defs>
<clipPath id="clip0_9896_30973">
<rect width="20" height="20" fill="white"/>
</clipPath>
</defs>
</svg>
