<svg width="20" height="20" viewBox="0 0 20 20" fill="none" xmlns="http://www.w3.org/2000/svg">
<path d="M19.9453 9.99998C19.9453 15.4938 15.4918 19.9474 9.99809 19.9474C4.50432 19.9474 0.0507812 15.4938 0.0507812 9.99998C0.0507812 4.50627 4.50432 0.0527344 9.99809 0.0527344C15.4917 0.0527344 19.9453 4.50627 19.9453 9.99998" fill="#3B67CA"/>
<g opacity="0.8">
<path d="M9.96574 5.38477L9.9043 5.5936V11.6534L9.96574 11.7148L12.7787 10.0521L9.96574 5.38477Z" fill="white"/>
<path d="M9.96623 5.38477L7.15332 10.0521L9.96623 11.7148V8.77353V5.38477Z" fill="white"/>
<path d="M9.96626 12.6296L9.93164 12.6719V14.8305L9.96626 14.9316L12.7809 10.9678L9.96626 12.6296Z" fill="white"/>
<path d="M9.96623 14.9316V12.6296L7.15332 10.9678L9.96623 14.9316Z" fill="white"/>
<path d="M9.9668 11.7147L12.7797 10.052L9.9668 8.77344V11.7147Z" fill="white"/>
<path d="M7.15332 10.052L9.96619 11.7147V8.77344L7.15332 10.052Z" fill="white"/>
</g>
</svg>
