<svg width="21" height="21" viewBox="0 0 21 21" fill="none" xmlns="http://www.w3.org/2000/svg">
<circle cx="10.5" cy="10.25" r="10.25" fill="#8247E5" fill-opacity="0.2"/>
<path d="M13.5751 8.19132C13.3566 8.0656 13.0756 8.0656 12.8258 8.19132L11.0773 9.22848L9.89083 9.8885L8.17358 10.9257C7.95502 11.0514 7.67401 11.0514 7.42423 10.9257L6.08165 10.1085C5.86309 9.98279 5.70697 9.73135 5.70697 9.44849V7.87702C5.70697 7.62559 5.83187 7.37416 6.08165 7.21701L7.42423 6.43128C7.64279 6.30556 7.92379 6.30556 8.17358 6.43128L9.51616 7.24844C9.73472 7.37416 9.89083 7.62559 9.89083 7.90845V8.94562L11.0773 8.25418V7.18558C11.0773 6.93415 10.9524 6.68271 10.7026 6.52557L8.2048 5.04839C7.98624 4.92267 7.70523 4.92267 7.45545 5.04839L4.89518 6.55699C4.6454 6.68271 4.52051 6.93415 4.52051 7.18558V10.1399C4.52051 10.3914 4.6454 10.6428 4.89518 10.7999L7.42423 12.2771C7.64279 12.4028 7.92379 12.4028 8.17358 12.2771L9.89083 11.2714L11.0773 10.5799L12.7946 9.57421C13.0131 9.44849 13.2941 9.44849 13.5439 9.57421L14.8865 10.3599C15.105 10.4857 15.2612 10.7371 15.2612 11.02V12.5914C15.2612 12.8429 15.1363 13.0943 14.8865 13.2514L13.5751 14.0372C13.3566 14.1629 13.0756 14.1629 12.8258 14.0372L11.4832 13.2514C11.2646 13.1257 11.1085 12.8743 11.1085 12.5914V11.5857L9.92205 12.2771V13.3143C9.92205 13.5657 10.0469 13.8172 10.2967 13.9743L12.8258 15.4515C13.0443 15.5772 13.3253 15.5772 13.5751 15.4515L16.1042 13.9743C16.3227 13.8486 16.4788 13.5972 16.4788 13.3143V10.3285C16.4788 10.0771 16.3539 9.82564 16.1042 9.66849L13.5751 8.19132Z" fill="#8247E5"/>
</svg>
