<svg width="20" height="20" viewBox="0 0 20 20" fill="none" xmlns="http://www.w3.org/2000/svg">
<path opacity="0.2" fill-rule="evenodd" clip-rule="evenodd" d="M10 20C4.5 20 0 15.5001 0 9.95021C0.05 4.45032 4.5 -0.0495863 10.05 0.00041267C15.55 0.0504116 20 4.50032 20 10.1002C19.95 15.5501 15.5 20 10 20Z" fill="#FC070C"/>
<path fill-rule="evenodd" clip-rule="evenodd" d="M15.8543 8.4298C15.6349 8.22728 15.3806 7.98036 15.1156 7.72307L15.1156 7.72304L15.1155 7.72299C14.7433 7.36162 14.3501 6.97977 14.003 6.6717L13.9678 6.64709C13.9093 6.60011 13.8434 6.56327 13.7727 6.53809L13.5048 6.48812C11.6564 6.14321 5.66451 5.0252 5.54125 5.04019C5.50479 5.04529 5.46995 5.05851 5.43928 5.07887L5.40588 5.10524C5.36474 5.14701 5.3335 5.19748 5.31445 5.25292L5.30566 5.27577V5.4006V5.41994C5.71245 6.55266 6.76918 9.08231 7.7449 11.418C8.56981 13.3927 9.33681 15.2289 9.60422 15.965L9.60431 15.9653C9.6395 16.0744 9.7063 16.2815 9.83101 16.292H9.85914C9.92595 16.292 10.2108 15.9158 10.2108 15.9158C10.2108 15.9158 15.3022 9.74134 15.8173 9.08382C15.884 9.00282 15.9429 8.9157 15.9931 8.82362C16.0192 8.67706 15.9665 8.52756 15.8543 8.4298ZM11.5171 9.14882L13.6901 7.34677L14.9647 8.52118L11.5171 9.14882ZM6.93191 5.96461L10.6731 9.03074L12.985 7.08101L6.93191 5.96461ZM11.0108 9.8342L14.8399 9.21711L10.4622 14.4914L11.0108 9.8342ZM10.3601 9.6111L6.42371 6.27071L9.79047 14.4951L10.3601 9.6111Z" fill="#FC070C"/>
</svg>
