<svg width="16" height="16" viewBox="0 0 16 16" fill="none" xmlns="http://www.w3.org/2000/svg">
<path d="M8.70154 1.73245C8.38206 1.20027 7.61795 1.20027 7.29846 1.73245L5.07126 5.44241C5.00559 5.55181 4.8809 5.5887 4.77708 5.54614L2.46253 4.5971C1.79908 4.32506 1.18025 4.96248 1.36715 5.60108L2.90814 10.8665C3.18982 11.829 4.05886 12.4994 5.05689 12.4994H10.9431C11.9411 12.4994 12.8102 11.829 13.0919 10.8665L14.6329 5.60108C14.8198 4.96248 14.2009 4.32507 13.5375 4.5971L11.2229 5.54614C11.1191 5.5887 10.9944 5.55181 10.9287 5.44241L8.70154 1.73245Z" fill="#9DABBD"/>
<path d="M4.44542 13.7364C4.18852 13.7364 3.98027 13.9447 3.98027 14.2015C3.98027 14.4584 4.18852 14.6666 4.44542 14.6666H11.5545C11.8114 14.6666 12.0197 14.4584 12.0197 14.2015C12.0197 13.9447 11.8114 13.7364 11.5545 13.7364H4.44542Z" fill="#9DABBD"/>
</svg>
