<svg width="63" height="63" viewBox="0 0 63 63" fill="none" xmlns="http://www.w3.org/2000/svg">
<g opacity="0.2">
<path d="M1.27981 61.717C0.874097 61.3119 0.552236 60.8307 0.332635 60.301C0.113033 59.7714 0 59.2036 0 58.6303C0 58.0569 0.113033 57.4891 0.332635 56.9595C0.552236 56.4298 0.874097 55.9486 1.27981 55.5435L10.5371 46.2894L4.36347 40.1158C3.5448 39.2971 3.08487 38.1867 3.08487 37.029C3.08487 35.8712 3.5448 34.7608 4.36347 33.9422C5.18214 33.1235 6.2925 32.6636 7.45028 32.6636C8.60806 32.6636 9.71841 33.1235 10.5371 33.9422L29.0516 52.4598C29.8703 53.2785 30.3302 54.3888 30.3302 55.5466C30.3302 56.7044 29.8703 57.8147 29.0516 58.6334C28.233 59.4521 27.1226 59.912 25.9648 59.912C24.8071 59.912 23.6967 59.4521 22.878 58.6334L16.7076 52.4598L7.45028 61.7202C7.04511 62.1259 6.56393 62.4478 6.03427 62.6674C5.50461 62.887 4.93685 63 4.36347 63C3.79009 63 3.22233 62.887 2.69267 62.6674C2.16301 62.4478 1.68183 62.1259 1.27666 61.7202L1.27981 61.717ZM59.8473 0H51.957C51.1217 0.000178396 50.3207 0.332148 49.7301 0.922889L18.0746 32.5783L30.4218 44.9192L62.0773 13.2638C62.6662 12.6735 62.9969 11.8738 62.9971 11.04V3.14979C62.9971 2.31442 62.6652 1.51325 62.0745 0.922553C61.4838 0.331852 60.6827 0 59.8473 0ZM52.461 46.2894L58.6346 40.1158C59.4533 39.2971 59.9132 38.1867 59.9132 37.029C59.9132 35.8712 59.4533 34.7608 58.6346 33.9422C57.8159 33.1235 56.7056 32.6636 55.5478 32.6636C54.39 32.6636 53.2797 33.1235 52.461 33.9422L33.9464 52.4598C33.5411 52.8652 33.2195 53.3464 33.0001 53.876C32.7807 54.4057 32.6678 54.9733 32.6678 55.5466C32.6678 56.1199 32.7807 56.6875 33.0001 57.2172C33.2195 57.7468 33.5411 58.228 33.9464 58.6334C34.3518 59.0388 34.833 59.3603 35.3627 59.5797C35.8923 59.7991 36.46 59.912 37.0332 59.912C37.6065 59.912 38.1742 59.7991 38.7038 59.5797C39.2334 59.3603 39.7147 59.0388 40.1201 58.6334L46.2905 52.4598L55.5478 61.7202C56.3665 62.5389 57.4768 62.9988 58.6346 62.9988C59.7924 62.9988 60.9027 62.5389 61.7214 61.7202C62.5401 60.9015 63 59.7912 63 58.6334C63 57.4756 62.5401 56.3653 61.7214 55.5466L52.461 46.2894ZM11.0411 0H3.1508C2.31542 0 1.51425 0.331852 0.923547 0.922553C0.332845 1.51325 0.000991283 2.31442 0.000991283 3.14979V11.04C0.00116968 11.8753 0.33314 12.6764 0.923884 13.2669L14.7043 27.0441L27.0452 14.7001L13.268 0.922889C12.6774 0.332148 11.8764 0.000178396 11.0411 0Z" fill="#9658FB"/>
</g>
</svg>
