<svg width="21" height="20" viewBox="0 0 21 20" fill="none" xmlns="http://www.w3.org/2000/svg">
<path d="M0.906288 19.5927C0.77749 19.4641 0.675312 19.3113 0.605598 19.1432C0.535883 18.975 0.5 18.7948 0.5 18.6128C0.5 18.4308 0.535883 18.2505 0.605598 18.0824C0.675312 17.9142 0.77749 17.7615 0.906288 17.6328L3.84509 14.695L1.88522 12.7352C1.62533 12.4753 1.47932 12.1228 1.47932 11.7552C1.47932 11.3877 1.62533 11.0352 1.88522 10.7753C2.14512 10.5154 2.49761 10.3694 2.86516 10.3694C3.23271 10.3694 3.5852 10.5154 3.84509 10.7753L9.72271 16.6539C9.9826 16.9138 10.1286 17.2663 10.1286 17.6338C10.1286 18.0014 9.9826 18.3539 9.72271 18.6138C9.46281 18.8737 9.11032 19.0197 8.74277 19.0197C8.37523 19.0197 8.02273 18.8737 7.76284 18.6138L5.80397 16.6539L2.86516 19.5937C2.73653 19.7225 2.58378 19.8247 2.41563 19.8944C2.24749 19.9641 2.06725 20 1.88522 20C1.7032 20 1.52296 19.9641 1.35481 19.8944C1.18667 19.8247 1.03391 19.7225 0.905288 19.5937L0.906288 19.5927ZM19.4991 0H16.9942C16.7291 5.66337e-05 16.4748 0.105444 16.2873 0.292981L6.23794 10.3423L10.1577 14.2601L20.207 4.21072C20.3939 4.02332 20.4989 3.76946 20.499 3.50477V0.999934C20.499 0.734735 20.3937 0.480398 20.2061 0.292874C20.0186 0.10535 19.7643 0 19.4991 0ZM17.1542 14.695L19.1141 12.7352C19.374 12.4753 19.52 12.1228 19.52 11.7552C19.52 11.3877 19.374 11.0352 19.1141 10.7753C18.8542 10.5154 18.5017 10.3694 18.1342 10.3694C17.7666 10.3694 17.4141 10.5154 17.1542 10.7753L11.2766 16.6539C11.1479 16.7826 11.0458 16.9354 10.9762 17.1035C10.9065 17.2716 10.8707 17.4519 10.8707 17.6338C10.8707 17.8158 10.9065 17.996 10.9762 18.1642C11.0458 18.3323 11.1479 18.4851 11.2766 18.6138C11.4053 18.7425 11.5581 18.8445 11.7262 18.9142C11.8943 18.9838 12.0746 19.0197 12.2565 19.0197C12.4385 19.0197 12.6187 18.9838 12.7869 18.9142C12.955 18.8445 13.1078 18.7425 13.2365 18.6138L15.1953 16.6539L18.1342 19.5937C18.3941 19.8536 18.7465 19.9996 19.1141 19.9996C19.4816 19.9996 19.8341 19.8536 20.094 19.5937C20.3539 19.3338 20.4999 18.9813 20.4999 18.6138C20.4999 18.2462 20.3539 17.8937 20.094 17.6338L17.1542 14.695ZM4.00508 0H1.50025C1.23505 0 0.980713 0.10535 0.793189 0.292874C0.605665 0.480398 0.500315 0.734735 0.500315 0.999934V3.50477C0.500371 3.76995 0.605758 4.02424 0.793295 4.21172L5.16801 8.58544L9.08575 4.66669L4.71204 0.292981C4.52456 0.105444 4.27026 5.66337e-05 4.00508 0Z" fill="white"/>
</svg>
