<svg width="18" height="17" viewBox="0 0 18 17" fill="none" xmlns="http://www.w3.org/2000/svg">
<path d="M8.9625 6.625C8.34 6.625 7.8375 7.1275 7.8375 7.75V11.125H10.0875V7.75C10.0875 7.1275 9.585 6.625 8.9625 6.625ZM9.525 9.4375C9.525 9.745 9.27 10 8.9625 10C8.655 10 8.4 9.745 8.4 9.4375V8.3125C8.4 8.005 8.655 7.75 8.9625 7.75C9.27 7.75 9.525 8.005 9.525 8.3125V9.4375ZM3.7125 7H0L0.5475 2.05C0.66 1.0225 1.53 0.25 2.565 0.25H3.7125V7Z" fill="#616F81"/>
<path d="M6.84812 7H4.83812V0.25H13.0881V7H11.0781C10.7706 6.13 9.93812 5.5 8.96312 5.5C7.98812 5.5 7.15562 6.13 6.84812 7ZM6.71312 9.25H0.105625L0.015625 8.125H6.71312V9.25ZM17.7831 10.375L17.5056 14.8525C17.4708 15.3676 17.2414 15.8503 16.864 16.2026C16.4867 16.5549 15.9894 16.7506 15.4731 16.75H2.60312C1.56062 16.75 0.668125 15.9325 0.578125 14.89L0.203125 10.375H6.71312V11.6875C6.71312 11.995 6.96812 12.25 7.27562 12.25H10.6506C10.9581 12.25 11.2131 11.995 11.2131 11.6875V10.375H17.7831ZM11.2131 8.125H17.9256L17.8581 9.25H11.2131V8.125ZM17.9256 7H14.2131V0.25H15.3606C16.3956 0.25 17.2656 1.0225 17.3781 2.05L17.9256 7Z" fill="#616F81"/>
</svg>
