<svg width="16" height="16" viewBox="0 0 16 16" fill="none" xmlns="http://www.w3.org/2000/svg">
<path d="M1.66667 13C1.48257 13 1.33334 12.8508 1.33334 12.6667L1.33334 10C1.33334 9.81591 1.48257 9.66667 1.66667 9.66667L14.3333 9.66667C14.5174 9.66667 14.6667 9.8159 14.6667 10L14.6667 12.6667C14.6667 12.8508 14.5174 13 14.3333 13L1.66667 13Z" fill="#9DABBD"/>
<path d="M1.66667 6.33333C1.48257 6.33333 1.33334 6.1841 1.33334 6L1.33334 3.33333C1.33334 3.14924 1.48257 3 1.66667 3L14.3333 3C14.5174 3 14.6667 3.14924 14.6667 3.33333L14.6667 6C14.6667 6.18409 14.5174 6.33333 14.3333 6.33333L1.66667 6.33333Z" fill="#9DABBD"/>
</svg>
