<svg width="16" height="16" viewBox="0 0 16 16" fill="none" xmlns="http://www.w3.org/2000/svg">
<path fill-rule="evenodd" clip-rule="evenodd" d="M1.5 2.81479C1.5 2.53865 1.72386 2.31479 2 2.31479H7.21569C7.49183 2.31479 7.71569 2.53865 7.71569 2.81479C7.71569 3.09094 7.49183 3.31479 7.21569 3.31479H2C1.72386 3.31479 1.5 3.09094 1.5 2.81479ZM2.61765 5.77776C2.61765 5.50161 2.8415 5.27776 3.11765 5.27776H5.72549C6.00163 5.27776 6.22549 5.50161 6.22549 5.77776C6.22549 6.0539 6.00163 6.27776 5.72549 6.27776H3.11765C2.8415 6.27776 2.61765 6.0539 2.61765 5.77776ZM1.5 10.2222C1.5 9.94606 1.72386 9.7222 2 9.7222H4.60784C4.88399 9.7222 5.10784 9.94606 5.10784 10.2222C5.10784 10.4983 4.88399 10.7222 4.60784 10.7222H2C1.72386 10.7222 1.5 10.4983 1.5 10.2222ZM1.5 13.1852C1.5 12.909 1.72386 12.6852 2 12.6852H7.21569C7.49183 12.6852 7.71569 12.909 7.71569 13.1852C7.71569 13.4613 7.49183 13.6852 7.21569 13.6852H2C1.72386 13.6852 1.5 13.4613 1.5 13.1852Z" fill="#9DABBD"/>
<path d="M6.60899 8.20072L11.2077 1.40234C11.2997 1.26633 11.5087 1.34653 11.4902 1.51072L11.0619 5.29919C11.0149 5.71475 11.292 6.09618 11.6952 6.17101L14.0275 6.60386C14.5936 6.70892 14.8557 7.38346 14.514 7.85601L9.63635 14.6015C9.53801 14.7375 9.32726 14.6433 9.35853 14.4773L10.0526 10.7935C10.1342 10.36 9.85363 9.94175 9.42811 9.86278L7.10972 9.43251C6.55408 9.32939 6.2881 8.67509 6.60899 8.20072Z" fill="#9DABBD"/>
</svg>
