<svg width="16" height="16" viewBox="0 0 16 16" fill="none" xmlns="http://www.w3.org/2000/svg">
<path d="M6.61111 10.3333V10.1666H9.38889V10.3333C9.38889 11.189 8.74052 11.8333 8 11.8333C7.25948 11.8333 6.61111 11.189 6.61111 10.3333Z" fill="#9DABBD"/>
<path fill-rule="evenodd" clip-rule="evenodd" d="M14.6667 7.99998C14.6667 11.6819 11.6819 14.6666 8 14.6666C4.3181 14.6666 1.33334 11.6819 1.33334 7.99998C1.33334 4.31808 4.3181 1.33331 8 1.33331C11.6819 1.33331 14.6667 4.31808 14.6667 7.99998ZM5.83334 7.33331C6.29357 7.33331 6.66667 6.96022 6.66667 6.49998C6.66667 6.03974 6.29357 5.66665 5.83334 5.66665C5.3731 5.66665 5 6.03974 5 6.49998C5 6.96022 5.3731 7.33331 5.83334 7.33331ZM9.58999 7.09573C9.69067 7.03552 9.96047 6.89996 10.3333 6.89996C10.7062 6.89996 10.976 7.03552 11.0767 7.09573C11.3137 7.23748 11.6207 7.16027 11.7624 6.92328C11.9042 6.6863 11.827 6.37927 11.59 6.23753C11.3943 6.12049 10.9461 5.89996 10.3333 5.89996C9.72054 5.89996 9.27235 6.12049 9.07668 6.23753C8.83969 6.37927 8.76249 6.6863 8.90423 6.92328C9.04598 7.16027 9.353 7.23748 9.58999 7.09573ZM5.5 9.16663C5.22386 9.16663 5 9.39049 5 9.66663C5 9.94277 5.22386 10.1666 5.5 10.1666H5.61111V10.3333C5.61111 11.6867 6.65411 12.8333 8 12.8333C9.34589 12.8333 10.3889 11.6867 10.3889 10.3333V10.1666H10.5C10.7761 10.1666 11 9.94277 11 9.66663C11 9.39049 10.7761 9.16663 10.5 9.16663H5.5Z" fill="#9DABBD"/>
</svg>
