<svg width="25" height="23" viewBox="0 0 25 23" fill="none" xmlns="http://www.w3.org/2000/svg">
<g filter="url(#filter0_d_10492_29891)">
<path d="M3.43836 2.9H5.85036L7.27236 12.584H7.30836L12.1504 2.9H14.7784L8.08236 15.5H5.70636L3.43836 2.9ZM10.3277 13.412L10.6337 11.756H13.0457L12.8477 12.818L13.3337 13.412H17.0417L17.7617 12.8L18.1397 10.712L17.6537 10.118H13.0277L11.2997 8.03L11.8757 4.7L13.9997 2.9H19.6697L21.4157 4.988L21.1277 6.662H18.7157L18.8957 5.582L18.4097 4.988H14.8457L14.1437 5.582L13.8197 7.436L14.3057 8.03H18.9317L20.6597 10.118L20.0117 13.7L17.9057 15.5H12.0557L10.3277 13.412Z" fill="url(#paint0_linear_10492_29891)"/>
</g>
<defs>
<filter id="filter0_d_10492_29891" x="-1.27273" y="0" width="26.1822" height="24.5455" filterUnits="userSpaceOnUse" color-interpolation-filters="sRGB">
<feFlood flood-opacity="0" result="BackgroundImageFix"/>
<feColorMatrix in="SourceAlpha" type="matrix" values="0 0 0 0 0 0 0 0 0 0 0 0 0 0 0 0 0 0 127 0" result="hardAlpha"/>
<feOffset dy="3.27273"/>
<feGaussianBlur stdDeviation="1.63636"/>
<feComposite in2="hardAlpha" operator="out"/>
<feColorMatrix type="matrix" values="0 0 0 0 0 0 0 0 0 0 0 0 0 0 0 0 0 0 0.32 0"/>
<feBlend mode="normal" in2="BackgroundImageFix" result="effect1_dropShadow_10492_29891"/>
<feBlend mode="normal" in="SourceGraphic" in2="effect1_dropShadow_10492_29891" result="shape"/>
</filter>
<linearGradient id="paint0_linear_10492_29891" x1="11.8184" y1="2.5" x2="11.8184" y2="15.5" gradientUnits="userSpaceOnUse">
<stop stop-color="#616F81"/>
<stop offset="1" stop-color="#4D5B6D"/>
</linearGradient>
</defs>
</svg>
